<svg width="48" height="42" viewBox="0 0 48 42" fill="none" xmlns="http://www.w3.org/2000/svg">
<path d="M2.02704 42V36C3.91894 34.973 5.33786 33.1216 6.28381 30.4459C7.22976 27.7703 7.7027 24.2433 7.7027 19.8649V18L0 18L0 0H18V13.4595C18 21.6217 16.6757 28.0811 14.027 32.8378C11.3784 37.5946 7.37842 40.6486 2.02704 42ZM32.027 42V36C33.9189 34.973 35.3379 33.1216 36.2838 30.4459C37.2298 27.7703 37.7027 24.2433 37.7027 19.8649V18L30 18V0H48L48 13.4595C48 21.6217 46.6757 28.0811 44.027 32.8378C41.3784 37.5946 37.3784 40.6486 32.027 42Z" fill="#5956E9"/>
</svg>
