<svg width="838" height="748" viewBox="0 0 838 748" fill="none" xmlns="http://www.w3.org/2000/svg">
<path d="M77.8789 75.7457L111.543 601.838L785.857 572.357V72.6251L77.8789 75.7457Z" fill="#EAEAE8"/>
<path d="M595.518 70.7218C598.158 70.7218 600.299 68.5815 600.299 65.9412C600.299 63.3009 598.158 61.1605 595.518 61.1605C592.878 61.1605 590.737 63.3009 590.737 65.9412C590.737 68.5815 592.878 70.7218 595.518 70.7218Z" fill="#FFF3DE"/>
<path d="M635.933 487.457C631.352 480.596 626.859 474.177 622.653 468.423C619.112 463.487 615.837 459.039 613.004 455.254C606.74 446.888 602.646 441.797 602.646 441.797L596.426 444.962L589.454 425.729C609.544 414.139 625.801 396.922 636.222 376.202C646.642 355.482 650.771 332.165 648.097 309.126C645.424 286.088 636.066 264.336 621.178 246.553C606.289 228.77 586.521 215.733 564.312 209.051L590.406 73.5326L234.337 75.104L192.904 464.395L196.932 473.115L495.723 533.714L503.757 523.644L515.288 463.642L519.715 441.155C538.564 442.829 557.54 439.953 575.046 432.767L583.235 451.624L579.783 453.373C579.783 453.373 581.62 460.344 584.917 471.256C585.736 473.956 586.644 476.922 587.64 480.109C580.181 481.437 571.948 484.226 568.251 490.069C562.453 499.254 575.533 506.38 591.181 507.62C587.772 513.374 584.209 521.585 586.422 528.225C588.436 534.312 596.382 534.267 603.398 532.873C602.734 538.539 603.597 546.927 613.778 548.808L614.641 550.601C616.346 554.12 618.072 557.573 619.82 560.893C620.949 562.973 622.034 565.01 623.207 567.001C623.915 568.241 624.623 569.458 625.42 570.631L626.837 572.955C628.187 575.168 629.559 577.183 630.931 579.152L746.463 574.018C707.2 524.994 663.842 499.718 635.933 487.457Z" fill="#D6D6CC"/>
<path d="M618.05 466.077C618.05 466.077 792.654 504.189 837.34 747.781L790.485 740.543L731.103 731.38C731.103 731.38 723.49 620.319 657.402 554.474" fill="#FDCA9E"/>
<path d="M615.859 516.473C615.859 516.473 608.577 537.3 628.452 538.096L615.859 516.473Z" fill="#FDCA9E"/>
<path d="M607.336 489.582C607.336 489.582 593.946 505.738 597.752 517.225C601.559 528.712 626.525 518.354 626.525 518.354" fill="#FDCA9E"/>
<path d="M613.799 467.936C613.799 467.936 587.24 467.051 579.56 479.002C571.88 490.954 596.647 499.541 617.186 495.934" fill="#FDCA9E"/>
<path d="M250.802 15.9877L204.368 453.417L515.154 512.644L604.548 48.1686L250.802 15.9877Z" fill="#F8B46F"/>
<path d="M204.368 453.417L208.396 462.115L507.12 522.714L515.154 512.644L204.368 453.417Z" fill="#DF924F"/>
<path d="M568.692 143.892C568.692 143.892 582.215 64.8345 530.778 57.2651L568.692 143.892Z" fill="#DF924F"/>
<path d="M523.697 53.591L264.502 30.0198L222.671 423.98L502.649 477.342L566.545 145.353C566.545 145.353 575.531 84.0455 523.697 53.591Z" fill="#DF924F"/>
<path d="M525.844 52.0197L266.671 28.4484L224.818 422.52L504.796 475.882L568.693 143.892C568.693 143.892 577.679 82.452 525.844 52.0197Z" fill="white"/>
<path d="M568.692 143.892C568.692 143.892 576.284 77.7378 517.212 69.7037C517.212 69.7037 519.425 58.9251 525.844 51.9976C525.844 52.0197 575.841 76.0336 568.692 143.892Z" fill="#E4E0DE"/>
<path d="M355.245 14.0401L349.446 51.5549L478.811 67.2027L475.912 20.7906L355.245 14.0401Z" fill="#FDD05D"/>
<path d="M349.446 51.555L352.301 53.9896L476.997 69.6152L478.811 67.2027L349.446 51.555Z" fill="#F6A93D"/>
<path d="M379.525 34.6676C378.772 39.4925 375.497 43.0116 372.221 42.5026C368.945 41.9935 366.843 37.6555 367.595 32.8306C368.348 28.0057 371.623 24.4644 374.921 24.9735C378.219 25.4825 380.277 29.8206 379.525 34.6676Z" fill="#F6A93D"/>
<path d="M465.953 40.2673C465.953 46.3538 462.699 51.3336 458.561 51.3336C454.422 51.3336 451.013 46.4644 450.969 40.378C450.925 34.2915 454.245 29.3116 458.384 29.3116C462.522 29.3116 465.909 34.1808 465.953 40.2673Z" fill="#F6A93D"/>
<path d="M427.088 23.0703C427.31 10.5875 421.068 0.340111 413.145 0.185182C405.221 0.0302539 398.581 10.0563 398.338 22.5391C398.094 35.0219 404.358 45.2915 412.304 45.4242C420.249 45.557 426.845 35.5753 427.088 23.0703ZM412.68 25.2836C409.825 25.2836 407.611 21.5653 407.678 17.0945C407.744 12.6237 410.135 9.06034 412.968 9.10461C415.801 9.14887 418.036 12.8229 417.97 17.2937C417.903 21.7645 415.513 25.2393 412.68 25.1286V25.2836Z" fill="#FDD05D"/>
<path d="M334.399 109.566L327.479 108.699C327.465 107.788 327.306 106.96 327.004 106.216C326.702 105.461 326.277 104.798 325.728 104.227C325.179 103.655 324.521 103.188 323.754 102.824C322.997 102.462 322.155 102.223 321.228 102.106C319.553 101.897 318.042 102.13 316.695 102.806C315.349 103.472 314.235 104.552 313.352 106.047C312.471 107.53 311.89 109.394 311.609 111.637C311.32 113.944 311.419 115.925 311.907 117.58C312.406 119.237 313.227 120.543 314.369 121.5C315.512 122.456 316.9 123.036 318.532 123.241C319.449 123.355 320.312 123.341 321.122 123.196C321.942 123.053 322.687 122.787 323.355 122.401C324.026 122.003 324.603 121.492 325.088 120.868C325.583 120.246 325.964 119.512 326.23 118.668L333.147 119.567C332.781 121.03 332.154 122.406 331.265 123.696C330.388 124.977 329.281 126.085 327.944 127.019C326.619 127.945 325.091 128.62 323.358 129.045C321.637 129.46 319.739 129.538 317.664 129.278C314.778 128.917 312.279 127.94 310.167 126.349C308.066 124.759 306.512 122.644 305.506 120.004C304.51 117.365 304.232 114.287 304.673 110.769C305.115 107.24 306.154 104.321 307.792 102.012C309.429 99.703 311.466 98.0432 313.904 97.0326C316.342 96.0115 318.984 95.6791 321.828 96.0353C323.703 96.2702 325.408 96.7512 326.943 97.4784C328.488 98.207 329.819 99.1547 330.936 100.322C332.053 101.478 332.911 102.832 333.508 104.383C334.116 105.935 334.413 107.663 334.399 109.566ZM341.64 131.832L334.309 130.914L349.533 99.9551L358.349 101.059L365.45 134.815L358.119 133.896L353.141 107.917L352.888 107.886L341.64 131.832ZM342.775 119.056L360.092 121.225L359.423 126.565L342.106 124.396L342.775 119.056ZM389.047 114.357C389.081 113.067 388.662 112.009 387.792 111.183C386.922 110.357 385.665 109.841 384.022 109.635C382.906 109.496 381.943 109.535 381.135 109.755C380.328 109.964 379.684 110.317 379.205 110.813C378.736 111.311 378.458 111.907 378.371 112.602C378.277 113.179 378.335 113.7 378.544 114.165C378.764 114.631 379.091 115.052 379.526 115.427C379.961 115.792 380.475 116.129 381.068 116.439C381.662 116.738 382.301 117.01 382.987 117.257L385.807 118.316C387.179 118.809 388.422 119.393 389.536 120.067C390.65 120.741 391.59 121.517 392.358 122.394C393.125 123.272 393.68 124.261 394.024 125.363C394.378 126.467 394.475 127.693 394.317 129.043C394.058 131.022 393.338 132.675 392.155 134.004C390.984 135.323 389.411 136.265 387.436 136.831C385.473 137.387 383.174 137.5 380.541 137.171C377.929 136.843 375.704 136.158 373.866 135.115C372.039 134.073 370.681 132.699 369.792 130.994C368.916 129.279 368.597 127.255 368.836 124.92L375.456 125.75C375.394 126.844 375.591 127.788 376.048 128.584C376.517 129.37 377.191 130.006 378.072 130.49C378.965 130.966 380.001 131.278 381.18 131.425C382.339 131.57 383.366 131.528 384.261 131.298C385.167 131.069 385.895 130.684 386.444 130.143C386.993 129.602 387.317 128.942 387.414 128.162C387.506 127.435 387.366 126.797 386.996 126.248C386.637 125.7 386.068 125.201 385.29 124.751C384.523 124.302 383.567 123.861 382.423 123.429L379.01 122.103C376.365 121.097 374.341 119.79 372.938 118.18C371.535 116.571 370.988 114.572 371.298 112.182C371.533 110.221 372.269 108.575 373.506 107.243C374.753 105.912 376.355 104.952 378.312 104.363C380.269 103.773 382.427 103.626 384.786 103.922C387.188 104.223 389.232 104.896 390.92 105.942C392.618 106.989 393.876 108.307 394.693 109.897C395.511 111.486 395.814 113.247 395.604 115.178L389.047 114.357ZM397.761 138.862L401.814 106.504L423.618 109.235L422.911 114.876L407.949 113.002L406.983 120.712L420.824 122.446L420.117 128.086L406.277 126.353L405.309 134.079L420.334 135.961L419.628 141.601L397.761 138.862Z" fill="#54514E"/>
<path d="M316.494 143.295C316.519 142.308 316.199 141.499 315.533 140.867C314.868 140.235 313.906 139.84 312.649 139.683C311.794 139.576 311.058 139.606 310.439 139.774C309.822 139.934 309.329 140.204 308.963 140.584C308.604 140.965 308.391 141.421 308.324 141.953C308.253 142.394 308.297 142.793 308.457 143.148C308.625 143.505 308.876 143.827 309.208 144.114C309.541 144.393 309.935 144.651 310.388 144.888C310.842 145.117 311.332 145.326 311.857 145.514L314.015 146.325C315.064 146.702 316.015 147.148 316.867 147.665C317.72 148.181 318.439 148.774 319.027 149.445C319.614 150.116 320.039 150.874 320.301 151.717C320.572 152.561 320.647 153.5 320.526 154.533C320.328 156.047 319.777 157.312 318.872 158.328C317.976 159.338 316.772 160.059 315.261 160.491C313.758 160.917 312 161.004 309.985 160.752C307.986 160.501 306.284 159.977 304.877 159.179C303.479 158.381 302.44 157.33 301.761 156.025C301.09 154.713 300.846 153.164 301.029 151.378L306.094 152.013C306.047 152.85 306.198 153.573 306.547 154.181C306.906 154.783 307.422 155.269 308.096 155.64C308.779 156.004 309.572 156.242 310.474 156.355C311.361 156.467 312.147 156.434 312.832 156.258C313.525 156.083 314.082 155.788 314.502 155.374C314.922 154.96 315.17 154.455 315.244 153.859C315.314 153.303 315.207 152.814 314.924 152.394C314.649 151.975 314.214 151.593 313.619 151.248C313.032 150.905 312.3 150.567 311.425 150.237L308.814 149.222C306.79 148.453 305.241 147.452 304.167 146.221C303.094 144.99 302.676 143.46 302.913 141.631C303.093 140.131 303.656 138.871 304.602 137.852C305.556 136.834 306.782 136.099 308.279 135.648C309.777 135.197 311.428 135.085 313.233 135.311C315.071 135.541 316.635 136.056 317.927 136.856C319.226 137.658 320.189 138.667 320.814 139.883C321.439 141.099 321.672 142.446 321.511 143.924L316.494 143.295ZM324.779 141.485L325.32 137.169L345.654 139.716L345.113 144.032L337.533 143.082L334.972 163.526L329.798 162.877L332.359 142.434L324.779 141.485ZM364.296 142.051L369.531 142.707L367.517 158.786C367.29 160.591 366.661 162.117 365.629 163.363C364.605 164.61 363.276 165.516 361.642 166.08C360.009 166.637 358.169 166.787 356.121 166.531C354.066 166.273 352.316 165.673 350.87 164.731C349.426 163.781 348.361 162.575 347.677 161.114C346.992 159.653 346.763 158.02 346.989 156.214L349.003 140.135L354.238 140.791L352.279 156.423C352.161 157.366 352.262 158.23 352.581 159.015C352.908 159.8 353.424 160.45 354.13 160.964C354.835 161.478 355.691 161.799 356.698 161.925C357.714 162.052 358.623 161.953 359.425 161.628C360.235 161.304 360.891 160.8 361.394 160.119C361.905 159.438 362.22 158.626 362.338 157.683L364.296 142.051ZM379.513 169.105L370.736 168.005L373.838 143.246L382.687 144.355C385.178 144.667 387.259 145.431 388.932 146.647C390.607 147.856 391.812 149.443 392.548 151.41C393.292 153.378 393.503 155.648 393.18 158.219C392.857 160.798 392.092 162.953 390.885 164.685C389.685 166.417 388.117 167.665 386.179 168.43C384.25 169.195 382.028 169.42 379.513 169.105ZM376.533 164.176L379.857 164.592C381.405 164.786 382.741 164.675 383.865 164.26C384.999 163.837 385.904 163.078 386.581 161.984C387.268 160.883 387.727 159.41 387.958 157.564C388.187 155.735 388.104 154.206 387.71 152.978C387.323 151.75 386.636 150.797 385.649 150.116C384.662 149.436 383.395 148.999 381.847 148.805L378.511 148.387L376.533 164.176ZM395.659 145.98L401.522 146.714L405.833 158.084L406.074 158.115L413.056 148.159L418.919 148.893L407.883 163.769L406.787 172.521L401.588 171.87L402.685 163.117L395.659 145.98Z" fill="#CB45ED"/>
<path d="M295.444 224.743L496.032 250.616L495.257 255.574L294.359 231.781L295.444 224.743Z" fill="#B9B7B5"/>
<path d="M294.115 244.308L437.291 261.505L436.561 266.264L293.186 250.24L294.115 244.308Z" fill="#B9B7B5"/>
<path d="M276.851 354.882L474.606 391.025L473.632 395.717L275.634 360.77L276.851 354.882Z" fill="#B9B7B5"/>
<path d="M289.577 265.644L281.344 341.005L471.175 375.355L471.729 371.725L286.988 337.154L296.748 265.135L289.577 265.644Z" fill="#B9B7B5"/>
<path d="M304.496 310.462L302.238 333.414L316.824 335.649L321.472 312.078L304.496 310.462Z" fill="#6754E9" fill-opacity="0.53"/>
<path d="M334.307 299.374L329.482 338.881L345.905 342.422L353.363 302.295L334.307 299.374Z" fill="#6754E9"/>
<path d="M454.708 308.36L447.714 361.921L464.136 365.462L473.742 311.281L454.708 308.36Z" fill="#55E0E6"/>
<path d="M359.627 344.524L374.611 347.49L375.23 343.528L359.561 341.625L359.627 344.524Z" fill="#6754E9" fill-opacity="0.53"/>
<path d="M390.083 349.858L396.103 286.094L419.055 288.374L405.908 352.293L390.083 349.858Z" fill="#6754E9"/>
<path d="M419.807 354.44L428.283 312.698L444.307 317.036L433.551 358.357L419.807 354.44Z" fill="#DFF792"/>
<path d="M313.017 297.847C313.017 297.847 329.306 279.344 343.825 282.044C360.248 285.076 357.525 313.03 370.805 312.321C384.416 311.569 384.284 278.636 400.706 274.408C414.805 270.778 421.931 284.434 431.692 297.426C442.647 311.923 458.03 291.362 472.571 293.863" stroke="#FB667C" stroke-miterlimit="10" stroke-linecap="round" stroke-dasharray="2 5"/>
<path d="M275.259 377.436L270.744 406.784L465.821 448.017L473.457 410.015L275.259 377.436Z" fill="#CB45ED" fill-opacity="0.43"/>
<path d="M582.967 416.367L597.309 439.23L607.91 433.852L598.548 408.466L582.967 416.367Z" fill="#54514E"/>
<path d="M582.967 416.367L588.478 425.22C592.87 423.757 597.146 421.966 601.271 419.864C601.691 419.665 602.067 419.443 602.466 419.222L598.526 408.554L582.967 416.367Z" fill="#474441"/>
<g style="mix-blend-mode:multiply">
<path d="M546.324 361.08L487.141 244.485C499.808 238.039 513.704 234.369 527.902 233.72C542.1 233.071 556.273 235.459 569.475 240.722L573.06 222.175C556.9 216.299 539.658 213.999 522.522 215.434C505.387 216.87 488.767 222.006 473.81 230.489C458.853 238.972 445.914 250.599 435.888 264.569C425.861 278.538 418.985 294.517 415.734 311.402C412.483 328.287 412.935 345.677 417.058 362.37C421.181 379.064 428.878 394.664 439.616 408.094C450.354 421.524 463.879 432.464 479.256 440.159C494.634 447.854 511.498 452.121 528.684 452.664L546.324 361.08Z" fill="#F1ECE8"/>
</g>
<path d="M487.643 205.797C466.682 216.437 449.346 233.053 437.828 253.544C426.311 274.036 421.128 297.483 422.936 320.92C424.744 344.357 433.461 366.732 447.985 385.214C462.51 403.697 482.188 417.458 504.533 424.757C526.878 432.055 550.886 432.564 573.52 426.219C596.154 419.873 616.398 406.958 631.692 389.108C646.986 371.257 656.644 349.271 659.443 325.932C662.242 302.593 658.057 278.947 647.418 257.986C640.354 244.068 630.618 231.678 618.765 221.523C606.912 211.368 593.176 203.647 578.339 198.801C563.503 193.955 547.857 192.078 532.295 193.279C516.733 194.479 501.561 198.733 487.643 205.797ZM586.797 401.162C569.125 410.131 549.19 413.659 529.513 411.3C509.837 408.941 491.301 400.801 476.249 387.909C461.198 375.017 450.307 357.952 444.953 338.871C439.598 319.791 440.022 299.551 446.169 280.711C452.316 261.87 463.911 245.275 479.488 233.024C495.065 220.772 513.925 213.414 533.683 211.88C553.441 210.346 573.211 214.704 590.493 224.403C607.774 234.103 621.792 248.709 630.774 266.374C636.738 278.114 640.329 290.914 641.344 304.043C642.359 317.171 640.777 330.371 636.689 342.888C632.601 355.406 626.087 366.995 617.518 376.993C608.95 386.992 598.496 395.205 586.753 401.162H586.797Z" fill="#54514E"/>
<path d="M586.754 401.162C569.079 410.123 549.144 413.644 529.469 411.277C509.793 408.911 491.261 400.765 476.215 387.869C461.169 374.972 450.284 357.904 444.936 338.823C439.588 319.741 440.017 299.502 446.17 280.664C452.322 261.827 463.922 245.236 479.501 232.989C495.081 220.743 513.942 213.39 533.7 211.86C553.457 210.331 573.225 214.693 590.504 224.397C607.783 234.1 621.797 248.708 630.775 266.374C636.739 278.114 640.33 290.914 641.345 304.043C642.36 317.171 640.778 330.371 636.69 342.888C632.602 355.405 626.088 366.994 617.519 376.993C608.951 386.992 598.497 395.205 586.754 401.162Z" fill="#54514E"/>
<path d="M586.754 401.162C569.079 410.123 549.144 413.644 529.469 411.277C509.793 408.911 491.261 400.765 476.215 387.869C461.169 374.972 450.284 357.904 444.936 338.823C439.588 319.741 440.017 299.502 446.17 280.664C452.322 261.827 463.922 245.236 479.501 232.989C495.081 220.743 513.942 213.39 533.7 211.86C553.457 210.331 573.225 214.693 590.504 224.397C607.783 234.1 621.797 248.708 630.775 266.374C636.739 278.114 640.33 290.914 641.345 304.043C642.36 317.171 640.778 330.371 636.69 342.888C632.602 355.405 626.088 366.994 617.519 376.993C608.951 386.992 598.497 395.205 586.754 401.162Z" fill="#D0F8FA"/>
<path d="M586.754 401.162C569.079 410.123 549.144 413.644 529.469 411.277C509.793 408.911 491.261 400.765 476.215 387.869C461.169 374.972 450.284 357.904 444.936 338.823C439.588 319.741 440.017 299.502 446.17 280.664C452.322 261.827 463.922 245.236 479.501 232.989C495.081 220.743 513.942 213.39 533.7 211.86C553.457 210.331 573.225 214.693 590.504 224.397C607.783 234.1 621.797 248.708 630.775 266.374C636.739 278.114 640.33 290.914 641.345 304.043C642.36 317.171 640.778 330.371 636.69 342.888C632.602 355.405 626.088 366.994 617.519 376.993C608.951 386.992 598.497 395.205 586.754 401.162Z" fill="#D8D8D8"/>
<path d="M657.377 554.474C669.327 566.507 679.736 579.978 688.362 594.579L688.938 594.313C715.829 580.679 677.562 527.65 649.918 486.328C630.795 478.05 626.081 472.716 626.081 472.716L657.377 554.474Z" fill="#F9B07E"/>
<path d="M591.09 442.373L614.13 430.687C614.13 430.687 722.58 565.563 678.934 587.673C635.289 609.784 591.09 442.373 591.09 442.373Z" fill="#6754E9"/>
<path d="M680.749 576.85C643.124 595.907 605.144 474.266 595.317 440.226L591.09 442.439C591.09 442.439 635.355 609.872 678.934 587.74C686.371 583.955 689.381 576.895 689.248 567.82C687.612 571.766 684.589 574.978 680.749 576.85Z" fill="#CB45ED"/>
<g style="mix-blend-mode:soft-light">
<path d="M596.247 460.256C596.247 460.256 609.394 452.155 624.488 444.165L634.227 457.445C634.227 457.445 619.774 464.085 601.028 475.328L596.247 460.256Z" fill="white"/>
</g>
<g style="mix-blend-mode:soft-light">
<path d="M681.569 550.225C679.112 540.951 674.464 534.157 671.189 535.02C667.913 535.883 667.205 544.116 669.639 553.368C672.074 562.619 676.744 569.436 680.019 568.551C683.295 567.665 684.003 559.476 681.569 550.225Z" fill="white"/>
</g>
<g style="mix-blend-mode:soft-light">
<path d="M632.412 461.584C638.41 471.61 642.482 480.242 641.486 480.817C640.49 481.393 634.846 473.757 628.804 463.731C622.762 453.705 618.756 445.073 619.73 444.475C620.704 443.878 626.414 451.536 632.412 461.584Z" fill="white"/>
</g>
<mask id="mask0_35_630" style="mask-type:luminance" maskUnits="userSpaceOnUse" x="441" y="211" width="201" height="201">
<path d="M586.753 401.162C569.078 410.123 549.143 413.644 529.468 411.277C509.792 408.911 491.26 400.765 476.214 387.869C461.168 374.972 450.283 357.904 444.935 338.823C439.587 319.741 440.017 299.502 446.169 280.664C452.321 261.827 463.921 245.236 479.5 232.989C495.08 220.743 513.941 213.39 533.699 211.86C553.457 210.331 573.224 214.693 590.503 224.397C607.782 234.1 621.796 248.708 630.774 266.374C636.738 278.114 640.329 290.914 641.344 304.043C642.359 317.171 640.777 330.371 636.689 342.888C632.601 355.405 626.087 366.994 617.518 376.993C608.95 386.992 598.496 395.205 586.753 401.162Z" fill="white"/>
</mask>
<g mask="url(#mask0_35_630)">
<path d="M272.801 -35.8469L220.147 460.035L572.477 527.185L673.822 0.627705L272.801 -35.8469Z" fill="#F8B46F"/>
<path d="M582.15 6.78066L288.45 -19.9556L240.887 426.791L558.313 487.302L630.731 111.047C630.731 111.047 640.934 41.2854 582.15 6.78066Z" fill="#DF924F"/>
<path d="M584.604 4.98792L290.771 -21.7483L243.341 424.999L560.678 485.487L633.118 109.233C633.118 109.233 643.366 39.4927 584.604 4.98792Z" fill="white"/>
<path d="M323.396 200.817L550.786 230.143L549.923 235.743L322.156 208.785L323.396 200.817Z" fill="#B9B7B5"/>
<path d="M321.891 222.972L484.211 242.493L483.37 247.871L320.851 229.7L321.891 222.972Z" fill="#B9B7B5"/>
<path d="M302.324 348.353L526.506 389.299L525.399 394.633L300.952 355.015L302.324 348.353Z" fill="#B9B7B5"/>
<path d="M316.756 247.185L307.416 332.617L522.611 371.548L523.253 367.432L313.834 328.257L324.879 246.588L316.756 247.185Z" fill="#B9B7B5"/>
<path d="M503.955 295.589L496.031 356.321L514.645 360.327L525.556 298.909L503.955 295.589Z" fill="#6754E9"/>
<path d="M430.695 342.643L437.534 270.38L463.54 272.948L448.623 345.41L430.695 342.643Z" fill="#6754E9"/>
<path d="M464.404 347.844L473.988 300.525L492.181 305.416L479.986 352.293L464.404 347.844Z" fill="#6754E9" fill-opacity="0.38"/>
<path d="M343.338 283.682C343.338 283.682 361.774 262.7 378.241 265.754C396.855 269.207 393.734 300.945 408.828 300.104C424.321 299.241 424.122 261.903 442.736 257.101C458.715 252.984 466.816 268.477 477.926 283.195C490.365 299.64 507.783 276.334 524.294 279.167" stroke="#FB667C" stroke-miterlimit="10" stroke-linecap="round" stroke-dasharray="2 5"/>
<path d="M300.533 373.917L295.398 407.182L516.548 453.904L525.224 410.856L300.533 373.917Z" fill="#C2F3F3"/>
</g>
<g opacity="0.62">
<path d="M508.578 398.971C520.772 404.231 533.998 406.667 547.266 406.097L559.948 231.25C544.349 228.261 528.232 229.561 513.314 235.012L508.578 398.971Z" fill="white"/>
</g>
<path d="M630.775 266.374C622.961 250.986 611.306 237.877 596.94 228.314C582.573 218.752 565.98 213.061 548.769 211.792C531.557 210.523 514.31 213.719 498.696 221.072C483.083 228.424 469.632 239.683 459.646 253.759C476.765 234.84 500.455 223.162 525.886 221.104C551.317 219.046 576.576 226.763 596.515 242.683C616.453 258.603 629.571 281.527 633.194 306.783C636.816 332.039 630.672 357.726 616.012 378.609C629.487 363.562 638.105 344.798 640.739 324.773C643.373 304.747 639.9 284.393 630.775 266.374Z" fill="#7C7875"/>
<g style="mix-blend-mode:multiply">
<path d="M482.266 244.042C500.891 234.603 522 231.217 542.643 234.357C563.287 237.498 582.434 247.008 597.409 261.56C612.385 276.111 622.441 294.977 626.173 315.521C629.906 336.066 627.127 357.263 618.227 376.152C627.367 365.232 634.075 352.489 637.904 338.773C641.733 325.057 642.595 310.682 640.432 296.607C638.27 282.532 633.132 269.079 625.361 257.145C617.591 245.211 607.367 235.07 595.37 227.398C583.372 219.726 569.878 214.699 555.785 212.652C541.692 210.604 527.325 211.584 513.641 215.526C499.957 219.467 487.27 226.28 476.425 235.509C465.58 244.739 456.827 256.174 450.749 269.052C459.45 258.665 470.173 250.156 482.266 244.042Z" fill="#F1ECE8"/>
</g>
<path d="M605.19 496.088C605.19 496.088 615.172 496.221 612.936 484.358C610.701 472.495 597.443 472.362 597.443 472.362" fill="#FDCA9E"/>
<path d="M607.16 499.342C607.16 499.342 635.645 510.408 616.699 520.567L607.16 499.342Z" fill="#FDCA9E"/>
<path d="M683.582 508.173C683.582 508.173 671.764 489.803 649.941 493.455C628.118 497.107 634.182 542.146 649.011 544.36C663.84 546.573 667.758 509.523 667.758 509.523L675.858 520.589L683.582 508.173Z" fill="#6754E9"/>
<path d="M687.411 508.77C687.411 508.77 672.051 488.054 650.206 491.706C628.361 495.358 629.755 536.746 644.606 539.048C659.457 541.35 666.208 506.624 666.208 506.624L676.61 526.233L687.411 508.77Z" fill="#FDCA9E"/>
<path d="M596.536 478.294C595.502 483.389 595.661 488.653 597.001 493.676C597.001 493.676 609.041 496.443 609.683 487.413C610.325 478.382 596.536 478.294 596.536 478.294Z" fill="#FDE5D2"/>
<path d="M607.866 510.785C607.866 510.785 608.419 518.863 611.562 520.368C611.562 520.368 619.176 518.62 619.574 514.37C619.973 510.121 607.866 510.785 607.866 510.785Z" fill="#FDE5D2"/>
<path d="M596.092 489.914C596.092 489.914 600.342 487.324 595.849 484.093C595.728 486.036 595.81 487.987 596.092 489.914Z" fill="#FFF2EA"/>
<path d="M608.53 515.034C608.785 516.645 609.439 518.167 610.434 519.461C610.434 519.461 611.585 515.587 608.53 515.034Z" fill="#FFF2EA"/>
<path d="M637.105 518.686C637.105 518.686 635.844 531.833 643.103 533.36C650.363 534.887 654.988 520.346 654.988 520.346C649.143 518.905 643.116 518.345 637.105 518.686Z" fill="#FDE5D2"/>
<path d="M640.048 518.686C640.048 518.686 643.146 523.268 649.587 519.328C649.587 519.306 642.991 518.686 640.048 518.686Z" fill="#FFF2EA"/>
<path d="M643.014 499.386C643.014 499.386 650.782 496.775 660.72 504.654" stroke="#F9B07E" stroke-width="0.5" stroke-miterlimit="10" stroke-linecap="round"/>
<path d="M647.152 494.916C651.818 493.609 656.809 494.164 661.074 496.465" stroke="#F9B07E" stroke-width="0.5" stroke-miterlimit="10" stroke-linecap="round"/>
<path d="M599.523 509.833C599.523 509.833 598.527 517.048 601.736 519.461" stroke="#F9B07E" stroke-width="0.5" stroke-miterlimit="10" stroke-linecap="round"/>
<path d="M117.4 259.284C157.484 246.907 179.944 204.379 167.567 164.295C155.189 124.212 112.661 101.751 72.5778 114.129C32.4942 126.506 10.0338 169.034 22.4111 209.118C34.7884 249.201 77.3163 271.662 117.4 259.284Z" fill="white"/>
<path d="M117.4 259.284C157.484 246.907 179.944 204.379 167.567 164.295C155.189 124.212 112.661 101.751 72.5778 114.129C32.4942 126.506 10.0338 169.034 22.4111 209.118C34.7884 249.201 77.3163 271.662 117.4 259.284Z" stroke="#54514E" stroke-width="2" stroke-miterlimit="10" stroke-linecap="round"/>
<path d="M132.855 252.519C138.695 261.36 146.479 268.749 155.613 274.12C164.747 279.49 174.988 282.7 185.553 283.505" stroke="#54514E" stroke-width="2" stroke-miterlimit="10" stroke-linecap="round"/>
<path d="M21.972 138.558C14.1447 150.23 9.56164 163.773 8.69238 177.799" stroke="#54514E" stroke-miterlimit="10" stroke-linecap="round"/>
<path d="M676.191 99.6049C688.755 100.257 700.844 104.619 710.928 112.142C721.013 119.664 728.64 130.008 732.846 141.865C737.052 153.722 737.647 166.56 734.556 178.755C731.465 190.951 724.828 201.956 715.482 210.379C706.137 218.801 694.504 224.264 682.054 226.075C669.604 227.886 656.897 225.965 645.539 220.554C634.181 215.143 624.682 206.486 618.245 195.676C611.807 184.867 608.72 172.392 609.373 159.828C610.266 142.988 617.802 127.189 630.329 115.899C642.855 104.609 659.349 98.7489 676.191 99.6049ZM671.056 197.984C677.954 198.369 684.811 196.698 690.758 193.184C696.705 189.669 701.476 184.469 704.466 178.241C707.456 172.013 708.53 165.038 707.553 158.199C706.576 151.36 703.591 144.965 698.977 139.824C694.363 134.682 688.327 131.026 681.634 129.317C674.94 127.608 667.89 127.924 661.376 130.225C654.862 132.526 649.178 136.708 645.042 142.242C640.907 147.775 638.506 154.412 638.145 161.311C637.668 170.533 640.863 179.568 647.031 186.441C653.198 193.314 661.837 197.464 671.056 197.984Z" fill="#D6D6CC"/>
<path d="M682.566 89.623C695.134 90.2747 707.227 94.6388 717.315 102.163C727.403 109.688 735.034 120.035 739.241 131.896C743.449 143.758 744.044 156.6 740.953 168.8C737.861 181 731.221 192.009 721.873 200.435C712.524 208.861 700.887 214.325 688.433 216.137C675.979 217.949 663.267 216.027 651.905 210.615C640.543 205.202 631.041 196.542 624.601 185.729C618.161 174.916 615.072 162.436 615.725 149.868C616.618 133.022 624.157 117.218 636.688 105.924C649.219 94.6294 665.718 88.767 682.566 89.623ZM677.453 188.025C684.344 188.382 691.186 186.689 697.115 183.16C703.044 179.63 707.794 174.423 710.764 168.195C713.735 161.967 714.793 154.999 713.805 148.17C712.817 141.341 709.827 134.958 705.213 129.828C700.598 124.698 694.567 121.05 687.881 119.346C681.195 117.642 674.153 117.958 667.647 120.254C661.14 122.551 655.46 126.724 651.324 132.247C647.188 137.77 644.782 144.395 644.409 151.285C643.927 160.537 647.136 169.602 653.331 176.49C659.526 183.379 668.202 187.527 677.453 188.025Z" fill="#6754E9"/>
<path d="M682.564 89.623C697.288 90.4071 711.287 96.2646 722.181 106.2L702.793 127.403C696.855 121.905 689.165 118.683 681.081 118.307L682.564 89.623Z" fill="#CB45ED"/>
<path d="M711.869 165.671L738.672 175.962C735.309 184.726 730.049 192.637 723.269 199.129C716.489 205.62 708.357 210.531 699.455 213.51C690.553 216.488 681.103 217.46 671.781 216.357C662.46 215.253 653.498 212.1 645.538 207.125L660.787 182.779C665.155 185.503 670.071 187.228 675.184 187.83C680.296 188.432 685.478 187.896 690.36 186.261C695.241 184.626 699.7 181.933 703.419 178.373C707.137 174.813 710.023 170.476 711.869 165.671Z" fill="#CB45ED"/>
<path d="M682.566 89.623C695.134 90.2747 707.227 94.6388 717.315 102.163C727.403 109.688 735.034 120.035 739.241 131.896C743.449 143.758 744.044 156.6 740.953 168.8C737.861 181 731.221 192.009 721.873 200.435C712.524 208.861 700.887 214.325 688.433 216.137C675.979 217.949 663.267 216.027 651.905 210.615C640.543 205.202 631.041 196.542 624.601 185.729C618.161 174.916 615.072 162.436 615.725 149.868C616.618 133.022 624.157 117.218 636.688 105.924C649.219 94.6294 665.718 88.767 682.566 89.623ZM677.453 188.025C684.344 188.382 691.186 186.689 697.115 183.16C703.044 179.63 707.794 174.423 710.764 168.195C713.735 161.967 714.793 154.999 713.805 148.17C712.817 141.341 709.827 134.958 705.213 129.828C700.598 124.698 694.567 121.05 687.881 119.346C681.195 117.642 674.153 117.958 667.647 120.254C661.14 122.551 655.46 126.724 651.324 132.247C647.188 137.77 644.782 144.395 644.409 151.285C643.927 160.537 647.136 169.602 653.331 176.49C659.526 183.379 668.202 187.527 677.453 188.025Z" stroke="white" stroke-miterlimit="10"/>
<path d="M722.18 106.2L702.792 127.403" stroke="white" stroke-width="0.5" stroke-miterlimit="10"/>
<path d="M682.564 89.623L681.081 118.307" stroke="white" stroke-width="0.5" stroke-miterlimit="10"/>
<path d="M711.868 165.671L738.671 175.962" stroke="white" stroke-width="0.5" stroke-miterlimit="10"/>
<path d="M660.787 182.779L645.538 207.125" stroke="white" stroke-width="0.5" stroke-miterlimit="10"/>
<path d="M697.748 83.4701L712.488 31.4363H794.645" stroke="#54514E" stroke-miterlimit="10"/>
<path d="M712.489 2.50911L714.348 22.5834H734.511L735.33 1.18115L712.489 2.50911Z" stroke="#54514E" stroke-miterlimit="10"/>
<path d="M746.195 1.18115H795.772" stroke="#54514E" stroke-miterlimit="10"/>
<path d="M746.195 9.0824H766.07" stroke="#54514E" stroke-miterlimit="10"/>
<path d="M746.195 22.5832H781.032" stroke="#54514E" stroke-miterlimit="10"/>
<path d="M751.109 77.6936L752.991 97.7679H773.131L773.972 76.3656L751.109 77.6936Z" stroke="#54514E" stroke-miterlimit="10"/>
<path d="M784.817 76.3656H810.071" stroke="#54514E" stroke-miterlimit="10"/>
<path d="M784.817 84.2668H793.648" stroke="#54514E" stroke-miterlimit="10"/>
<path d="M784.817 97.7677H808.588" stroke="#54514E" stroke-miterlimit="10"/>
<path d="M720.898 289.835L722.758 309.909H742.898L743.739 288.507L720.898 289.835Z" stroke="#54514E" stroke-miterlimit="10"/>
<path d="M754.584 288.507H804.183" stroke="#54514E" stroke-miterlimit="10"/>
<path d="M754.584 296.408H774.481" stroke="#54514E" stroke-miterlimit="10"/>
<path d="M754.584 309.909H789.443" stroke="#54514E" stroke-miterlimit="10"/>
<path d="M692.104 234.68L712.488 321.086H800.155" stroke="#54514E" stroke-miterlimit="10"/>
<path d="M740.108 111.512L752.569 103.965H809.693" stroke="#54514E" stroke-miterlimit="10"/>
<path d="M298.608 526.078C288.619 526.083 278.856 529.049 270.554 534.601C262.251 540.153 255.781 548.043 251.961 557.272C248.142 566.501 247.145 576.656 249.096 586.452C251.048 596.248 255.86 605.245 262.924 612.306C269.988 619.368 278.988 624.176 288.784 626.123C298.581 628.07 308.735 627.068 317.963 623.245C327.19 619.421 335.077 612.948 340.626 604.643C346.175 596.337 349.136 586.573 349.136 576.585H298.608V526.078Z" fill="#54514E"/>
<path d="M305.824 518.863V569.37H356.353C356.353 562.735 355.046 556.166 352.506 550.036C349.967 543.907 346.244 538.338 341.552 533.648C336.86 528.958 331.289 525.238 325.159 522.701C319.029 520.164 312.459 518.86 305.824 518.863Z" fill="url(#paint0_linear_35_630)"/>
<path d="M62.7197 187.604L82.2406 212.105L129.605 167.198" stroke="url(#paint1_linear_35_630)" stroke-width="13" stroke-miterlimit="10"/>
<path d="M728.025 401.383L712.997 448.88" stroke="#54514E" stroke-width="2" stroke-miterlimit="10"/>
<path d="M745.399 432.966L696.375 415.526" stroke="#54514E" stroke-width="2" stroke-miterlimit="10"/>
<path d="M199.498 34.2471L150.098 27.8508" stroke="#54514E" stroke-width="2" stroke-miterlimit="10"/>
<path d="M171.478 56.9332L179.999 5.60767" stroke="#54514E" stroke-width="2" stroke-miterlimit="10"/>
<path d="M489.702 587.474C489.706 590.447 488.828 593.355 487.18 595.829C485.531 598.303 483.186 600.233 480.44 601.374C477.694 602.515 474.672 602.816 471.755 602.238C468.839 601.661 466.159 600.231 464.055 598.131C461.951 596.03 460.518 593.352 459.936 590.436C459.354 587.52 459.651 584.498 460.787 581.75C461.924 579.003 463.85 576.655 466.322 575.002C468.794 573.35 471.7 572.468 474.674 572.468C478.655 572.468 482.474 574.048 485.292 576.862C488.11 579.675 489.696 583.492 489.702 587.474Z" stroke="#54514E" stroke-miterlimit="10"/>
<path d="M757.419 491.706C761.355 491.706 764.545 488.516 764.545 484.58C764.545 480.644 761.355 477.453 757.419 477.453C753.483 477.453 750.292 480.644 750.292 484.58C750.292 488.516 753.483 491.706 757.419 491.706Z" stroke="#54514E" stroke-miterlimit="10"/>
<path d="M160.079 342.577C160.079 344.822 159.413 347.017 158.166 348.885C156.918 350.752 155.145 352.207 153.07 353.066C150.995 353.926 148.713 354.151 146.51 353.712C144.308 353.274 142.285 352.193 140.697 350.605C139.109 349.017 138.027 346.994 137.589 344.792C137.151 342.589 137.376 340.306 138.235 338.232C139.095 336.157 140.55 334.384 142.417 333.136C144.284 331.888 146.48 331.223 148.725 331.223C151.736 331.223 154.624 332.419 156.754 334.548C158.883 336.677 160.079 339.565 160.079 342.577Z" stroke="#54514E" stroke-miterlimit="10"/>
<defs>
<linearGradient id="paint0_linear_35_630" x1="331.089" y1="518.863" x2="331.089" y2="569.37" gradientUnits="userSpaceOnUse">
<stop stop-color="#6754E9"/>
<stop offset="1" stop-color="#CB45ED"/>
</linearGradient>
<linearGradient id="paint1_linear_35_630" x1="96.1621" y1="167.198" x2="96.1621" y2="212.105" gradientUnits="userSpaceOnUse">
<stop stop-color="#6754E9"/>
<stop offset="1" stop-color="#CB45ED"/>
</linearGradient>
</defs>
</svg>
