<svg width="700" height="351" viewBox="0 0 700 351" fill="none" xmlns="http://www.w3.org/2000/svg">
<rect x="1" y="1" width="698" height="349" rx="28" fill="white" stroke="url(#paint0_linear_45_132)" stroke-width="2"/>
<path d="M514.047 309.001C514.047 317.013 439.408 323.5 347.338 323.5C255.269 323.5 180.663 317.005 180.663 309.001C180.663 300.998 255.302 294.503 347.372 294.503C439.442 294.503 514.047 300.99 514.047 309.001Z" fill="#CCD7F3"/>
<path d="M271.838 123.42C273.213 124.389 273.495 126.444 276.055 126.974C273.487 127.595 273.13 129.584 271.863 130.735C271.813 130.487 271.772 130.247 271.722 130.006L271.44 129.451H271.49C271.365 128.906 271.075 128.413 270.66 128.038C270.245 127.663 269.725 127.424 269.17 127.355L269.021 126.709C269.818 126.605 270.548 126.207 271.068 125.595C271.589 124.983 271.863 124.198 271.838 123.395V123.42Z" fill="#ECECF0"/>
<path d="M350.636 29.983C348.713 30.6126 348.1 32.0542 347.404 33.6035C347.328 32.8125 347.032 32.0586 346.55 31.4264C346.069 30.7942 345.421 30.3087 344.679 30.0244C345.439 29.6799 346.093 29.1377 346.573 28.4542C347.052 27.7707 347.339 26.9711 347.404 26.1388C348.018 28.0526 348.863 29.3036 350.636 29.983Z" fill="#ECECF0"/>
<path d="M301.49 71.9377C301.655 71.5814 302.078 71.2169 301.448 70.8938C302.376 70.2144 302.848 69.2368 303.18 67.6295C303.785 69.4936 304.53 70.7529 306.427 71.3743C304.621 72.1199 303.768 73.2467 303.296 75.4256C302.848 73.7106 302.384 72.675 301.49 71.9377Z" fill="#ECECF0"/>
<path d="M299.277 217.197C299.75 219.351 301.249 220.511 303.619 221.389C300.611 222.283 299.476 224.462 298.648 227.23C298.549 226.175 298.236 225.152 297.728 224.222C297.198 223.021 296.071 222.648 294.978 222.217C294.768 222.139 294.588 221.999 294.46 221.815C294.333 221.632 294.265 221.413 294.265 221.19C294.265 220.361 294.887 220.991 295.201 220.883C297.513 220.105 298.192 218.133 298.656 215.755L299.286 217.197" fill="#ECECF0"/>
<path d="M324.149 102.948C321.423 103.578 320.611 105.781 319.932 108.159C319.385 106.9 319.41 105.458 318.275 104.555L317.595 103.81C317.432 103.569 317.216 103.369 316.963 103.225C316.71 103.082 316.428 102.998 316.137 102.981L314.911 102.583L314.986 102.467L314.87 102.393L316.129 102.02C316.493 101.978 316.845 101.86 317.16 101.673C317.476 101.486 317.748 101.234 317.96 100.935L318.432 100.297V100.347L318.954 99.4352L318.913 99.4766C319.113 99.2833 319.268 99.0476 319.365 98.7866C319.463 98.5257 319.501 98.2462 319.476 97.9688L319.899 97.0823C320.536 98.2173 320.47 99.7252 321.779 100.396C321.879 101.879 324.074 101.366 324.14 102.882" fill="#ECECF0"/>
<path d="M385.73 69.1787C385.485 69.5286 385.258 69.8908 385.051 70.264C384.877 70.6534 384.794 71.0925 384.562 71.8216C383.733 70.0652 383.526 68.2177 381.803 67.414C381.705 67.2703 381.568 67.1579 381.408 67.0903C381.248 67.0227 381.071 67.0028 380.9 67.0329C381.331 66.6021 379.102 66.7347 380.71 65.989C382.317 65.2434 383.51 64.1084 383.601 62.178C383.683 62.159 383.76 62.1233 383.828 62.073C383.896 62.0228 383.952 61.9592 383.994 61.8861C384.036 61.813 384.063 61.7321 384.072 61.6483C384.081 61.5645 384.073 61.4797 384.048 61.3992C384.338 61.3992 384.695 61.3329 384.769 61.7058C385.25 64.1912 387.089 65.4754 389.152 66.5358C387.685 66.9832 386.666 68.0851 385.697 69.1622" fill="#ECECF0"/>
<path d="M286.685 192.185C286.508 192.155 286.347 192.062 286.233 191.923C286.119 191.785 286.059 191.61 286.063 191.431C288.814 191.107 289.659 189.011 290.454 186.294C291.283 189.061 292.484 191.049 295.566 191.679C292.741 192.632 291.233 194.165 290.852 196.65C290.305 197.064 290.305 197.064 289.932 196.02C289.833 195.134 289.471 194.299 288.892 193.621C288.313 192.943 287.544 192.454 286.685 192.218" fill="#ECECF0"/>
<path d="M384.024 140.719C381.803 141.415 381.323 143.395 380.577 145.466C379.268 143.378 379.061 140.404 375.656 140.296C378.63 139.41 379.989 137.463 380.461 134.182C381.339 137.173 382.35 139.385 385.233 139.849L384.024 140.677" fill="#ECECF0"/>
<path d="M318.971 167.877L318.142 169.865C317.596 167.23 316.552 165.159 313.461 164.339C314.936 163.718 316.146 163.312 316.775 162.152C317.662 161.323 317.745 160.089 318.225 158.796C318.913 161.381 320.114 163.337 322.89 164.273C321.001 165.101 319.576 166.071 319.004 167.877" fill="#ECECF0"/>
<path d="M345.035 152.558C342.989 153.436 342.052 154.687 341.431 156.924C340.843 154.753 340.114 153.337 337.811 152.641C338.721 152.394 339.542 151.894 340.178 151.199C340.815 150.504 341.241 149.642 341.406 148.714C341.627 149.613 342.078 150.44 342.714 151.114C343.35 151.788 344.149 152.285 345.035 152.558Z" fill="#ECECF0"/>
<path d="M377.876 102.235C377.806 102.425 377.696 102.597 377.553 102.74C377.41 102.884 377.238 102.994 377.048 103.064C375.623 103.636 375.283 105.069 374.562 106.245L373.933 105.334C373.842 103.743 372.582 103.221 371.149 102.476C373.17 101.738 374.272 100.446 374.372 98.441C374.444 98.3703 374.506 98.2894 374.554 98.2007C375.018 100.081 375.747 101.738 377.868 102.211" fill="#ECECF0"/>
<path d="M419.524 181.265C420.527 180.478 420.253 179.086 421.049 178.017C421.596 180.685 422.871 182.599 425.755 183.419C423.451 184.347 421.836 185.656 421.397 188.001C421.057 188.937 420.717 188.929 420.568 187.951C420.121 185.631 418.671 184.264 416.426 183.518C417.635 182.872 418.978 182.557 419.591 181.265" fill="#ECECF0"/>
<path d="M403.344 207.097C401.066 207.926 400.221 209.243 399.517 211.331C398.912 209.318 398.174 207.859 395.913 207.188C398.075 206.434 399.077 205.142 399.45 202.632C400.13 204.96 400.925 206.401 403.344 207.089" fill="#ECECF0"/>
<path d="M302.293 137.803C300.205 138.548 299.327 140.031 298.664 142.169C298.225 139.915 297.33 138.449 295.002 137.803C297.33 137.156 298.275 135.773 298.64 133.552C299.335 135.566 300.205 137.065 302.293 137.803Z" fill="#ECECF0"/>
<path d="M381.306 169.815C382.963 169.028 384.115 168.158 384.405 166.385C384.644 167.135 385.054 167.818 385.601 168.383C386.149 168.948 386.82 169.379 387.561 169.641C386.755 170 386.051 170.555 385.514 171.255C384.977 171.956 384.624 172.779 384.488 173.651C383.916 171.563 383.286 170.213 381.306 169.815Z" fill="#ECECF0"/>
<path d="M332.806 221.596C331.149 221.994 330.437 223.211 329.832 225.44C329.385 223.319 328.755 222.06 326.816 221.496C327.538 221.208 328.184 220.76 328.708 220.186C329.232 219.612 329.619 218.927 329.84 218.182C330.354 219.839 331.655 220.668 332.806 221.579" fill="#ECECF0"/>
<path d="M348.714 118.118C349.393 119.849 350.064 121.05 352.243 121.581C351.396 121.786 350.623 122.223 350.011 122.844C349.399 123.464 348.973 124.244 348.78 125.093C348.084 123.561 347.603 122.136 345.259 121.721C346.119 121.514 346.901 121.064 347.513 120.425C348.126 119.786 348.542 118.986 348.714 118.118Z" fill="#ECECF0"/>
<path d="M351.414 261.247C351.017 259.847 349.277 259.723 348.747 258.439C350.826 258.041 351.563 256.541 351.878 254.479C352.707 256.243 353.32 257.983 355.78 258.621C353.568 259.4 352.707 260.792 352.077 262.672L351.414 261.231" fill="#ECECF0"/>
<path d="M355.225 198.995L354.679 200.453C354.032 197.487 353.022 195.291 349.542 194.653C352.856 193.966 354.082 192.052 354.703 189.409C355.416 191.895 356.766 193.742 359.186 194.637C359.155 194.702 359.116 194.764 359.07 194.819C359.02 194.877 358.954 194.91 358.904 194.96C357.98 195.231 357.148 195.75 356.499 196.462C355.851 197.173 355.41 198.05 355.225 198.995Z" fill="#ECECF0"/>
<path d="M426.566 156.162C426.566 154.149 424.702 153.552 423.708 152.301C425.754 152.028 426.293 150.42 426.856 148.565C427.544 150.304 428.248 151.879 430.477 152.516C428.19 153.229 428.24 155.416 426.84 156.452C426.84 156.452 426.732 156.394 426.691 156.344C426.644 156.287 426.603 156.226 426.566 156.162Z" fill="#ECECF0"/>
<path d="M394.91 244.719C394.512 242.234 393.584 240.858 391.372 240.146C393.584 239.5 394.537 238.124 394.901 235.813C395.548 237.967 396.451 239.425 398.596 240.137C396.442 240.966 395.548 242.408 394.91 244.719Z" fill="#ECECF0"/>
<path d="M286.419 112.302C287.786 111.829 287.389 110.065 288.524 109.427C288.825 108.97 289.216 108.579 289.673 108.279C290.131 107.978 290.644 107.774 291.183 107.679C291.125 106.9 290.305 106.974 289.932 106.544C287.853 105.715 287.447 103.669 286.668 101.407C286.196 104.613 284.92 106.676 281.523 107.414C284.655 108.126 286.022 109.758 286.386 112.293" fill="#CCD7F3"/>
<path d="M260.62 160.503L260.123 161.646C259.717 163.071 258.565 163.734 257.223 164.339C259.609 164.654 259.8 166.874 260.968 168.183C261.2 166.957 261.573 165.822 262.815 165.225L263.238 164.877L264.182 164.488C264.124 164.289 264.058 164.09 263.992 163.883C261.912 163.825 261.68 161.771 260.62 160.503Z" fill="#CCD7F3"/>
<path d="M332.748 47.7292C333.527 45.832 334.405 44.3324 336.626 43.5288C334.248 42.9074 333.419 41.4079 332.782 39.3864C332.26 41.4824 331.53 43.0317 329.352 43.6116C331.514 44.1253 332.127 45.7823 332.748 47.7541" fill="#CCD7F3"/>
<path d="M298.872 75.5166C299.369 73.6608 300.04 72.4678 301.49 71.9376C301.656 71.5813 302.078 71.2168 301.44 70.8937C299.725 70.3634 299.402 68.7313 298.64 67.1986C298.234 69.187 297.463 70.728 295.442 71.4488C297.447 72.0618 297.977 73.7271 298.872 75.5166Z" fill="#CCD7F3"/>
<path d="M420.535 187.951C420.088 185.631 418.638 184.264 416.393 183.519C417.602 182.872 418.944 182.557 419.557 181.265C417.188 176.576 414.429 172.152 410.303 168.78C403.952 163.534 396.043 160.539 387.81 160.263C387.296 160.263 386.782 160.188 386.277 160.147C382.325 160.387 378.382 160.561 374.496 161.555C370.361 162.526 366.295 163.772 362.325 165.283C354.67 168.349 347.172 171.911 338.946 173.27C331.539 174.463 324.447 174.099 319.004 167.877L318.175 169.865C317.628 167.23 316.585 165.159 313.494 164.339C314.969 163.718 316.179 163.312 316.808 162.152C315.416 152.98 321.705 143.039 330.445 140.611C332.394 140.07 334.447 140.032 336.414 140.5C338.381 140.968 340.198 141.927 341.694 143.287C343.19 144.648 344.317 146.365 344.969 148.279C345.621 150.193 345.778 152.241 345.424 154.231C344.77 157.844 342.11 159.318 338.714 157.935C337.477 157.436 336.323 156.751 335.292 155.905C334.364 155.143 333.403 154.405 332.16 153.42C332.346 154.961 332.807 156.456 333.519 157.835C336.311 164.264 340.437 166.949 347.429 166.501C353.792 166.112 359.086 163.254 363.742 159.045C366.689 156.485 368.998 153.273 370.488 149.665C371.978 146.057 372.607 142.152 372.325 138.258C372.019 132.608 369.84 127.355 366.708 122.567C361.298 114.076 353.206 107.638 343.718 104.274C337.363 102.578 330.739 102.133 324.215 102.965C321.489 103.594 320.677 105.798 319.998 108.176C319.451 106.916 319.476 105.475 318.341 104.572L317.098 104.82L311.862 107.024L310.445 107.853L307.04 109.816H306.974C306.925 109.99 306.813 110.139 306.66 110.234C306.506 110.329 306.323 110.363 306.146 110.33V110.371C305.988 111.067 305.4 111.283 304.861 111.548L302.426 113.685L297.181 119.534L296.817 119.957L291.912 128.913C291.92 128.973 291.913 129.035 291.893 129.092C291.873 129.149 291.84 129.202 291.796 129.244C291.44 130.637 290.909 131.979 290.214 133.238L289.99 134.124C289.895 135.054 289.613 135.956 289.162 136.775C289.104 137.082 289.054 137.38 288.996 137.678L288.665 139.004C288.573 139.31 288.474 139.609 288.383 139.915C287.902 143.229 287.231 146.543 286.974 149.932C286.433 156.094 287.183 162.302 289.178 168.158L289.526 169.07L289.642 169.219L289.518 169.343L289.128 169.608C289.278 170.685 290.785 170.627 290.918 171.696C292.393 173.778 293.865 175.855 295.334 177.926C296.237 178.664 297.165 179.376 298.043 180.138C306.543 187.528 316.27 191.306 327.645 190.13C328.921 189.649 330.379 190.13 331.622 189.368L332.558 189.169L333.444 189.053L337.852 187.611L338.763 187.247C338.884 187.165 339.024 187.116 339.169 187.106C345.515 184.504 351.837 181.853 358.887 181.92C363.851 181.952 368.624 183.84 372.267 187.213C375.909 190.586 378.159 195.199 378.572 200.146C378.727 201.916 378.522 203.698 377.97 205.386C377.418 207.074 376.53 208.633 375.36 209.969C374.19 211.305 372.761 212.39 371.16 213.16C369.56 213.929 367.82 214.367 366.045 214.446C361.182 214.695 356.692 213.369 352.392 211.331C348.39 209.434 344.48 207.379 340.528 205.391L340.056 205.043C339.773 205.032 339.5 204.941 339.267 204.781C339.034 204.621 338.851 204.399 338.738 204.14C337.638 204.152 336.561 203.822 335.656 203.195L334.314 202.756L333.643 202.367L332.533 202.251H332.326L332.127 202.209C331.141 202.292 330.329 201.754 329.443 201.48C328.614 201.43 327.786 201.422 327.015 201.331C320.566 200.583 314.065 202.212 308.731 205.913C304.456 208.721 301.664 212.748 299.269 217.13C299.741 219.284 301.241 220.444 303.61 221.322C300.603 222.217 299.468 224.396 298.64 227.163C298.54 226.109 298.227 225.086 297.72 224.156C296.941 229.524 297.859 235.002 300.346 239.823C303.461 245.895 308.233 249.499 315.259 249.889C319.285 250.104 323.188 249.392 327.09 248.654C331.431 247.826 335.731 246.765 340.197 246.823C345.693 246.039 351.299 246.749 356.427 248.878C365.267 252.631 368.564 261.015 364.637 269.806C363.121 273.194 360.76 276.044 358.912 279.226L359.301 279.607C373.303 272.275 376.062 256.889 369.765 245.067C367.04 239.955 362.218 237.925 357.007 236.492C351.547 234.993 345.839 234.512 340.486 232.532C338.447 231.891 336.565 230.83 334.96 229.417C332.69 227.221 331.315 224.769 332.823 221.538C331.166 221.936 330.454 223.153 329.849 225.382C329.401 223.261 328.772 222.002 326.833 221.438C327.555 221.149 328.202 220.7 328.727 220.127C329.251 219.553 329.641 218.869 329.865 218.124C330.371 219.781 331.671 220.61 332.823 221.521C336.22 217.47 340.553 216.865 345.573 217.553C351.837 218.381 356.866 221.563 361.928 225.009C365.424 227.362 368.713 230.03 372.59 231.853C375.549 233.16 378.653 234.108 381.836 234.678C389.689 234.878 397.489 233.351 404.686 230.204C412.54 226.807 417.834 221.09 420.369 212.888C422.905 204.686 423.518 196.402 421.413 188.034C421.074 188.97 420.734 188.962 420.585 187.984M348.713 118.118C349.393 119.849 350.064 121.05 352.243 121.581C351.396 121.786 350.623 122.223 350.011 122.844C349.399 123.465 348.973 124.244 348.78 125.093C348.084 123.561 347.595 122.144 345.259 121.73C346.118 121.518 346.9 121.066 347.512 120.427C348.124 119.787 348.541 118.986 348.713 118.118ZM298.664 142.144C298.225 139.89 297.331 138.424 295.002 137.778C297.331 137.131 298.275 135.748 298.64 133.528C299.335 135.541 300.205 137.04 302.293 137.778C300.205 138.523 299.327 140.006 298.664 142.144ZM384.488 173.626C383.916 171.539 383.286 170.18 381.306 169.79C382.963 169.003 384.115 168.133 384.405 166.361C384.644 167.11 385.054 167.794 385.601 168.358C386.149 168.923 386.82 169.354 387.561 169.616C386.755 169.975 386.051 170.53 385.514 171.23C384.977 171.931 384.624 172.755 384.488 173.626ZM399.516 211.314C398.912 209.309 398.174 207.851 395.912 207.172C398.075 206.418 399.077 205.126 399.45 202.615C400.129 204.943 400.925 206.385 403.344 207.072C401.066 207.901 400.221 209.218 399.516 211.298" fill="#CCD7F3"/>
<path d="M338.738 204.164V204.173H338.747L338.738 204.164Z" fill="#CCD7F3"/>
<path d="M377.387 126.03C377.385 126.008 377.385 125.985 377.387 125.963V126.055V126.03Z" fill="#CCD7F3"/>
<path d="M358.067 94.8785C361.24 99.9489 367.537 103.942 374.347 98.4659C374.419 98.3953 374.481 98.3143 374.529 98.2256C376.377 96.0384 377.843 93.6689 377.843 90.6864C377.901 86.9416 375.871 85.2101 372.201 85.9806C370.768 86.2788 369.376 86.8091 367.76 87.2564C367.808 86.2999 368.124 85.3761 368.674 84.5918C369.224 83.8076 369.984 83.1947 370.867 82.824C374.844 81.0593 380.262 82.998 382.342 86.8422C384.877 91.5066 384.405 95.2928 380.801 99.2115C379.848 100.239 378.845 101.233 377.868 102.236C377.794 102.43 377.677 102.605 377.527 102.748C377.376 102.892 377.196 103 376.998 103.064L374.703 107.405L374.314 108.897V109.004L374.206 109.087C372.872 115.143 374.546 120.686 377.313 125.939C377.197 124.505 377.081 123.064 376.957 121.622C376.501 116.071 376.534 110.628 380.635 106.187C382.855 103.777 385.647 102.045 388.348 100.28C394.007 96.5107 397.395 91.5066 396.368 84.4562C395.382 77.646 392.184 72.2111 385.689 69.154C385.444 69.5038 385.217 69.8661 385.009 70.2393C384.835 70.6287 384.753 71.0678 384.521 71.7968C383.692 70.0404 383.485 68.1929 381.762 67.381L380.859 67.0082C377.868 66.6354 374.877 66.1797 371.853 66.5028C367.901 66.917 364.248 68.1018 361.24 70.7861C356.534 74.9782 355.068 80.4546 355.167 86.5274C355.772 89.4105 356.377 92.3268 357.984 94.8123" fill="#CCD7F3"/>
<path d="M289.932 195.987C288.465 195.106 287.325 193.771 286.684 192.185C286.507 192.155 286.347 192.062 286.233 191.924C286.119 191.785 286.059 191.61 286.063 191.431C285.477 190.136 285.107 188.753 284.969 187.338C284.837 187.081 284.746 186.659 284.547 186.601C284.091 186.46 284.265 186.94 284.224 187.139C283.967 188.589 283.793 190.064 282.807 191.281C282.701 191.922 282.491 192.54 282.186 193.112C281.424 194.123 281.067 195.722 279.261 195.457L279.087 196.17C277.869 197.412 276.005 197.321 274.381 198.299C280.181 199.127 283.727 203.353 284.323 209.815C285.872 204.231 288.308 199.426 294.886 198.158L290.835 196.634C290.288 197.048 290.288 197.048 289.916 196.004" fill="#CCD7F3"/>
<path d="M330.188 82.8239C334.53 84.0501 336.816 86.5935 337.388 90.562L337.04 91.1502C337.935 91.9787 338.134 91.581 338.333 90.562C338.561 89.2889 339.045 88.0755 339.758 86.9958C340.47 85.9162 341.394 84.9928 342.475 84.282C343.378 83.669 344.695 83.7932 345.383 82.6251C341.033 81.5066 338.946 78.4826 338.192 74.2739C338.15 74.0585 338.424 73.2549 337.603 73.6691L337.479 74.5556C337.115 78.8306 334.878 81.5894 330.213 82.8405" fill="#CCD7F3"/>
<path d="M430.129 119.841C430.071 119.559 430.005 119.278 429.938 119.012C429.806 118.573 429.665 118.134 429.532 117.695C429.251 116.809 428.977 115.922 428.704 115.027C428.588 114.721 428.464 114.406 428.339 114.099C428.215 113.793 428.049 113.511 427.909 113.221L425.224 108.946C423.512 107.106 421.529 105.538 419.342 104.298C410.941 100.09 398.439 103.014 392.076 110.545C387.975 115.408 386.998 120.86 388.191 126.924C388.961 130.852 389.632 134.861 388.647 138.797C386.99 145.342 382.615 149.965 377.462 154.066C385.349 152.011 393.137 149.733 399.508 144.215L400.27 143.295C400.61 142.873 400.95 142.467 401.281 142.011C402.506 139.828 403.273 137.418 403.534 134.928V134.033C403.534 133.445 403.534 132.856 403.534 132.268C403.066 129.897 403.224 127.444 403.99 125.152L404.736 123.37C405.457 121.664 406.5 120.272 408.398 119.758C408.544 119.545 408.751 119.382 408.993 119.29C409.234 119.198 409.497 119.182 409.748 119.244V119.311L410.245 118.988C410.975 118.786 411.743 118.766 412.482 118.93C412.714 118.888 412.952 118.897 413.179 118.957C413.407 119.017 413.619 119.127 413.799 119.278C414.106 119.443 414.421 119.601 414.736 119.758C417.064 121.415 417.461 123.321 416.036 126.038C416.013 126.317 415.92 126.586 415.765 126.819C415.61 127.052 415.398 127.243 415.15 127.372C413.576 129.857 411.571 129.6 409.392 128.275V129.103C409.634 129.51 409.705 129.995 409.591 130.454L410.212 133.064L411.869 135.334C411.92 135.348 411.966 135.376 412.002 135.416C412.037 135.456 412.06 135.505 412.068 135.557L414.305 136.941C416.113 137.526 418.005 137.806 419.905 137.769L420.875 137.612L424.379 136.485L424.868 136.187C426.239 135.186 427.461 133.995 428.497 132.649L429.077 131.639C430.316 128.578 430.811 125.267 430.518 121.978C430.232 121.275 430.11 120.516 430.162 119.758" fill="#CCD7F3"/>
<path d="M408.406 92.7079C409.939 89.0542 410.345 88.5654 413.327 86.9996C410.511 86.2705 409.185 84.2656 408.423 81.6973C408.025 84.5804 406.592 86.4362 403.286 87.1487C406.6 87.8032 407.81 89.8827 408.406 92.7079Z" fill="#CCD7F3"/>
<path d="M377.387 126.03L377.611 126.336L377.412 126.005" fill="#CCD7F3"/>
<path d="M348.746 258.464L347.33 255.498C347.23 256.812 346.717 258.062 345.864 259.068C345.012 260.073 343.863 260.784 342.583 261.098C345.896 261.927 346.891 264.014 347.446 267.188C347.993 264.188 349.219 262.357 351.414 261.272C351.017 259.872 349.277 259.748 348.746 258.464Z" fill="#CCD7F3"/>
<path d="M362.674 197.984C361.076 197.478 359.729 196.386 358.904 194.927C357.98 195.196 357.149 195.716 356.501 196.428C355.854 197.139 355.415 198.016 355.234 198.961C357.048 199.79 357.247 201.696 358.125 203.502C358.356 202.273 358.894 201.122 359.69 200.158C360.485 199.193 361.511 198.445 362.674 197.984Z" fill="#CCD7F3"/>
<path d="M423.741 152.301C422.213 150.455 421.321 148.166 421.198 145.773L421.239 145.706L420.552 145.897C420.601 149.211 419.624 152.061 416.55 153.834L414.744 154.662L413.087 155.3C414.379 155.748 415.456 155.764 416.227 156.551C419.591 158.101 420.104 161.406 421.032 164.836C421.861 160.942 423.112 157.811 426.591 156.145C426.591 154.132 424.727 153.536 423.733 152.285" fill="#CCD7F3"/>
<path d="M444.255 167.993C444.006 170.263 442.846 171.232 441.131 172.135C443.161 172.781 443.783 174.314 444.553 176.029C445.257 174.223 445.912 172.715 448.099 172.152C446.094 171.249 445.224 169.898 444.255 167.951" fill="#CCD7F3"/>
<path d="M436.516 115.458C436.972 118.151 438.082 120.371 440.883 121.365C440.791 122.194 439.847 122.02 439.474 122.525C439.021 122.73 438.616 123.026 438.284 123.395C437.951 123.765 437.699 124.199 437.544 124.671C436.931 125.359 436.931 126.328 436.525 127.314C435.754 124.696 435.033 122.185 431.852 121.92C431.852 121.746 431.852 121.564 431.811 121.39C432.349 121.291 432.946 121.39 433.285 120.777L433.733 120.363C433.918 120.377 434.104 120.352 434.278 120.288C434.453 120.225 434.611 120.124 434.743 119.994C434.875 119.863 434.978 119.706 435.044 119.532C435.109 119.359 435.137 119.173 435.125 118.987C435.489 118.664 435.765 118.253 435.929 117.794C436.093 117.335 436.138 116.842 436.061 116.361C436.483 116.195 436.458 115.806 436.516 115.458Z" fill="#ECECF0"/>
<path d="M173.894 170.818C176.694 166.592 180.356 163.088 183.621 159.219C187.829 154.248 192.146 149.393 196.33 144.422C197.539 142.972 198.508 142.55 200.107 143.908C215.882 157.313 231.681 170.669 247.505 183.974C248.441 184.803 248.93 185.565 248.458 186.766C247.323 189.956 244.672 192.035 242.576 194.471C237.381 200.503 232.236 206.575 226.934 212.507C226.279 213.236 225.733 214.164 224.614 214.239C223.512 213.957 222.957 212.922 222.071 212.383C207.348 200.105 192.808 187.603 178.086 175.325C176.52 174.016 174.706 172.839 173.894 170.818Z" fill="#ADC3F4"/>
<path d="M173.894 170.818C180.522 176.36 187.15 181.886 193.778 187.462C203.394 195.581 213.001 203.742 222.601 211.944C223.222 212.946 222.601 213.7 222.029 214.371C220.583 216.338 219.034 218.226 217.39 220.03C214.689 222.656 212.419 225.49 211.648 229.292C206.528 225.655 201.93 221.38 197.166 217.296C193.488 214.131 189.635 211.165 185.982 207.951C181.118 203.676 176.098 199.566 171.143 195.399C169.006 193.601 166.802 191.886 164.723 190.039C161.293 186.998 161.077 184.861 164.226 181.58C167.15 178.539 169.644 175.151 172.444 172.019C172.897 171.584 173.382 171.182 173.894 170.818Z" fill="url(#paint1_linear_45_132)"/>
<path d="M224.606 213.949C231.98 205.443 239.353 196.94 246.727 188.44C247.249 187.835 247.878 187.321 248.458 186.783L253.943 191.497C254.556 192.922 253.396 193.667 252.684 194.479C245.575 202.681 238.467 210.878 231.358 219.069C230.074 220.154 229.279 221.753 227.746 222.582C227.533 222.662 227.305 222.696 227.077 222.68C226.85 222.664 226.629 222.6 226.429 222.491C225.037 221.612 224.018 221.869 222.957 223.178C221.897 224.487 221.3 225.523 222.7 226.898C222.879 227.109 222.995 227.367 223.035 227.641C223.074 227.915 223.036 228.194 222.924 228.447C222.523 229.256 221.959 229.972 221.267 230.552C219.13 232.532 217.183 232.557 215.07 230.635C212.957 228.713 212.659 226.674 214.424 224.471C217.067 221.157 219.958 218.075 222.758 214.902C222.971 214.609 223.25 214.371 223.573 214.209C223.896 214.046 224.253 213.962 224.614 213.965" fill="#F7F7E0"/>
<path d="M230.794 218.646C237.207 211.196 243.619 203.739 250.032 196.277C251.374 194.703 252.642 193.071 253.942 191.464C254.671 191.182 255.517 190.577 256.08 191.555C256.643 192.532 255.84 193.054 255.309 193.659C247.687 202.397 240.068 211.14 232.451 219.889C231.341 220.196 230.902 219.632 230.794 218.63" fill="#ADC3F4"/>
<path d="M224.606 213.949C221.433 217.627 218.243 221.306 215.078 225.001C213.256 227.13 213.421 228.1 215.716 230.171C217.522 231.828 219.129 232.01 220.753 229.972C221.366 229.201 222.087 228.514 222.758 227.785C223.819 227.636 224.531 227.917 224.415 229.177C223.67 230.071 222.974 231.024 222.153 231.853C219.602 234.437 217.323 234.495 214.589 232.085C213.579 231.19 212.618 230.229 211.64 229.293C210.571 225.979 212.783 223.824 214.697 221.753C217.62 218.729 220.263 215.446 222.593 211.944C223.483 212.346 224.196 213.059 224.598 213.949" fill="#7B88D0"/>
<path d="M224.424 229.176C224.05 228.534 223.464 228.042 222.767 227.785C222.424 227.363 222.029 226.987 221.59 226.666C220.057 225.788 220.082 224.868 221.358 223.791C221.567 223.617 221.746 223.41 221.888 223.178C223.355 220.453 225.202 220.071 227.439 222.308C228.367 222.433 229.212 222.656 229.303 223.816C231.789 225.274 231.201 227.528 230.869 229.723C230.695 230.867 230.538 232.018 230.322 233.509L224.399 229.176" fill="#423F6B"/>
<path d="M229.328 223.816L227.464 222.308L230.778 218.646L232.435 219.898C231.391 221.207 230.355 222.516 229.311 223.816" fill="#7B88D0"/>
<path d="M239.767 84.8537C238.972 85.0067 238.238 85.3896 237.658 85.9551C237.078 86.5206 236.676 87.2438 236.503 88.0351C235.589 91.2733 235.085 94.6134 235.003 97.977C236.321 97.2127 237.426 96.1303 238.218 94.8288C239.057 95.3081 239.993 95.5926 240.956 95.6615C241.92 95.7303 242.887 95.5816 243.785 95.2264L245.575 85.036C243.645 84.7957 241.739 83.8264 239.776 84.8455" fill="url(#paint2_linear_45_132)"/>
<path d="M231.623 136.054C230.123 136.378 229.353 137.537 228.591 138.697C227.603 141.89 227.068 145.206 227 148.548C227.713 146.949 229.096 146.129 230.604 145.449C232.369 145.043 234.067 145.673 235.799 145.814C236.296 142.588 236.795 139.363 237.298 136.137C235.409 135.756 233.528 135.184 231.623 136.054Z" fill="url(#paint3_linear_45_132)"/>
<path d="M237.721 98.1924C237.038 98.4221 236.407 98.785 235.865 99.26C235.324 99.7349 234.881 100.313 234.564 100.96C233.674 103.768 233.192 106.689 233.131 109.634C233.516 108.816 234.079 108.094 234.778 107.52C235.478 106.947 236.296 106.537 237.174 106.32C238.778 106.233 240.385 106.398 241.938 106.809C242.385 103.975 242.841 101.15 243.288 98.3167C241.432 98.0184 239.593 97.4882 237.721 98.1841" fill="url(#paint4_linear_45_132)"/>
<path d="M245.616 85.0443C259.711 87.2536 273.796 89.4629 287.869 91.6722C289.302 91.8959 289.7 92.6001 289.476 93.9837C286.306 113.735 283.149 133.492 280.006 153.254C279.29 153.444 278.536 153.444 277.819 153.254C264.74 151.166 251.658 149.086 238.574 147.015C237.546 146.858 236.478 146.792 235.674 145.98C235.312 145.396 235.193 144.694 235.343 144.024C235.757 141.29 236.047 138.532 236.726 135.839C237.339 130.263 238.383 124.754 239.212 119.219C239.874 115.027 240.372 110.802 241.316 106.651C241.576 103.822 242.024 101.012 242.658 98.2421C242.691 97.1896 242.858 96.1455 243.155 95.1353C243.346 92.393 243.909 89.7087 244.357 87.0161C244.394 86.6189 244.521 86.2352 244.728 85.8938C244.934 85.5524 245.215 85.262 245.55 85.0443" fill="#656FCB"/>
<path d="M241.937 106.85C234.97 147.512 240.985 131.978 228.417 138.192C230.181 128.035 230.902 118.308 233.653 108.051C235.185 105.607 240.073 104.63 241.937 106.85Z" fill="#CCD7F3"/>
<path d="M235.798 145.789L277.587 152.417C278.457 152.423 279.301 152.714 279.99 153.246C279.932 153.709 279.866 154.165 279.799 154.621C279.553 154.957 279.202 155.201 278.801 155.315C278.401 155.429 277.973 155.407 277.587 155.25C262.901 152.958 248.239 150.633 233.603 148.275C232.426 148.084 231.275 147.852 230.339 148.871C229.963 149.357 229.641 149.882 229.377 150.437C229.186 150.882 229.101 151.365 229.129 151.848C229.156 152.331 229.296 152.802 229.538 153.221C229.779 153.641 230.115 153.999 230.518 154.266C230.922 154.534 231.382 154.703 231.863 154.762C232.6 154.804 233.324 154.978 234 155.275C234.738 156.104 235.657 155.59 236.486 155.54C237.421 155.6 238.348 155.753 239.253 155.996C240.032 156.154 240.413 157.521 241.507 156.733C251.639 158.183 261.713 159.923 271.813 161.464C272.774 161.464 273.693 161.754 274.646 161.82C275.276 161.87 275.972 162.119 276.477 161.472C276.616 161.358 276.781 161.278 276.958 161.24C277.836 161.63 278.018 162.549 278.474 163.254C278.474 164.505 277.91 164.911 276.601 164.712C261.365 162.226 246.113 159.882 230.877 157.421C226.967 156.791 225.301 152.765 227.049 148.523C227.232 146.154 229.137 145.565 230.894 144.82C232.658 144.58 234.39 144.472 235.865 145.789" fill="#877EF0"/>
<path d="M235.003 97.9853C236.354 94.7708 239.883 94.2074 243.785 95.2347C243.727 97.2563 243.205 97.9853 242.683 98.2422C241.764 98.6978 240.827 97.6871 239.32 97.7782C238.64 97.8729 237.987 98.1073 237.403 98.4666C236.818 98.8259 236.314 99.3024 235.923 99.866C235.442 100.289 234.862 100.694 234.581 100.554C234.299 100.413 234.581 98.9795 235.003 97.9853Z" fill="#CCD7F3"/>
<path d="M277.986 154.828L279.8 154.646C279.347 157.518 278.889 160.395 278.425 163.278C277.513 162.997 276.718 162.616 276.975 161.423C276.798 161.314 276.657 161.155 276.57 160.966C276.483 160.778 276.454 160.567 276.486 160.362C276.491 159.961 276.539 159.561 276.627 159.169C276.669 158.779 276.733 158.392 276.817 158.009C276.854 157.625 276.915 157.243 277 156.866C277.024 156.572 277.074 156.281 277.149 155.996C277.168 155.745 277.255 155.503 277.401 155.297C277.547 155.091 277.746 154.929 277.977 154.828" fill="#33479D"/>
<path d="M249.146 123.006C249.775 119.045 250.388 115.077 251.035 111.117C251.399 108.921 252.153 108.358 254.349 108.698C260.811 109.703 267.273 110.727 273.735 111.771C276.411 112.21 276.933 112.964 276.502 115.707C275.365 123.025 274.205 130.341 273.023 137.653C272.907 138.382 272.675 139.095 272.501 139.807C272.465 140.055 272.378 140.291 272.243 140.502C272.108 140.712 271.93 140.891 271.721 141.027C271.511 141.163 271.275 141.252 271.028 141.289C270.781 141.326 270.529 141.309 270.289 141.241C263.153 140.136 256.019 139.004 248.889 137.844C247.232 137.579 247.041 136.452 247.232 135.077C247.878 131.05 248.508 127.032 249.146 123.006Z" fill="#CCD7F3"/>
<path d="M265.64 101.829C261.978 101.25 258.317 100.653 254.655 100.09C253.578 99.9239 252.6 99.5511 252.791 98.2918C252.981 97.0325 253.926 96.8585 255.061 97.0408C262.373 98.2173 269.694 99.3771 277.024 100.52C278.134 100.694 278.954 101.076 278.681 102.401C278.407 103.727 277.438 103.71 276.402 103.544L265.632 101.829" fill="#CCD7F3"/>
<path d="M235.061 150.619C237.116 150.13 239.046 150.967 241.026 151.232C241.855 151.34 241.573 152.061 241.507 152.591C241.325 154.115 241.109 155.632 240.902 157.148C239.809 158.49 239.933 156.477 239.295 156.568C238.284 155.739 237.215 155.3 235.981 156.021C235.409 155.764 234.531 158.018 234.191 155.814C233.96 155.481 233.841 155.084 233.852 154.679C233.856 154.282 233.906 153.887 234.001 153.502C234.033 153.115 234.094 152.73 234.183 152.351C234.221 151.959 234.313 151.574 234.456 151.207C234.512 151.069 234.597 150.945 234.705 150.843C234.814 150.741 234.944 150.665 235.086 150.619" fill="#423F6B"/>
<path d="M235.956 156.021C237.837 154.588 237.837 154.588 239.27 156.559L235.956 156.021Z" fill="#E4EAE6"/>
<path d="M277.985 154.828L232.675 147.603C231.366 147.396 230.19 147.653 229.544 148.962C227.373 152.003 228.541 154.886 232.187 155.482L234.167 155.805L234.341 154.629C234.407 154.264 234.465 153.9 234.531 153.535L234.689 152.434C234.755 152.061 234.813 151.696 234.871 151.332L234.97 150.967C236.089 151.191 237.232 151.241 238.359 151.431C240.77 151.854 240.753 151.87 240.505 154.256C240.397 155.226 239.842 156.319 240.902 157.148C241.64 157.255 242.369 157.355 243.098 157.471L272.178 162.027C273.271 162.218 274.373 162.367 275.45 162.607C276.527 162.848 276.834 162.417 276.817 161.472L276.975 161.423L277.049 160.288C277.099 159.907 277.157 159.534 277.207 159.153C277.256 158.771 277.331 158.44 277.397 158.084C277.463 157.728 277.505 157.33 277.563 156.957C277.563 156.717 277.621 156.468 277.654 156.228C277.762 155.764 277.878 155.292 277.985 154.828Z" fill="#F7F7E0"/>
<path d="M495.82 300.841C495.596 300.079 495.381 299.316 495.157 298.554C494.138 299.01 493.103 298.745 492.075 298.629H493.136C493.465 298.698 493.806 298.697 494.135 298.627C494.465 298.557 494.776 298.419 495.049 298.223C494.216 296.649 493.489 295.021 492.871 293.351C492.042 290.534 489.383 288.944 488.314 286.268C487.668 284.611 486.947 282.954 485.456 281.827C484.816 281.339 484.046 281.051 483.244 280.998C474.006 279.988 464.884 278.223 455.738 276.607C450.692 275.779 445.696 274.611 440.676 273.642C430.552 271.686 420.378 270.245 410.022 270.22C407.594 270.261 405.167 270.22 402.739 270.22C400.087 270.284 397.444 270.561 394.835 271.048C383.096 272.705 372.185 276.425 363.005 284.221C360.693 286.193 358.175 288.074 356.907 291.023C356.907 291.694 357.413 291.993 357.91 292.233C361.994 294.254 364.794 297.519 366.924 301.446C367.305 302.15 367.653 302.895 368.581 303.103C369.837 303.264 371.114 303.157 372.325 302.788C381.994 300.302 391.878 299.474 401.811 299.217C408.838 299.19 415.859 299.585 422.838 300.402C431.786 301.291 440.737 302.119 449.69 302.887C451.231 302.887 452.747 303.268 454.296 303.268C467.453 303.268 480.609 303.268 493.765 303.268C494.594 303.268 495.513 303.359 496.251 302.663L495.878 300.816" fill="#CDB299"/>
<path d="M333.378 272.018C325.69 268.356 317.372 267.477 309.045 266.997C301.329 266.679 293.6 267.101 285.964 268.256C272.352 270.062 259.038 273.376 245.616 276.177C236.967 277.966 228.268 279.491 219.552 280.932C218.392 281.004 217.261 281.326 216.238 281.877C215.236 282.705 214.929 283.931 214.316 284.983C213.347 286.64 212.767 288.77 211.358 289.797C209.784 290.957 209.279 292.34 208.707 293.939C207.879 296.135 207.05 298.314 206.222 300.493C206.727 300.982 207.373 300.832 207.978 300.849H208.715H207.398C206.845 300.762 206.28 300.896 205.824 301.222L205.451 302.68C206.28 303.508 207.415 303.293 208.434 303.285C218.649 303.194 228.873 303.608 239.088 302.912C244.73 302.456 250.38 302.175 256.03 301.827C261.996 301.462 267.952 300.998 273.917 300.542C282.153 299.946 290.396 299.465 298.648 299.2C303.768 299.035 308.863 299.557 313.975 299.905C319.522 300.187 325.014 301.144 330.329 302.755C330.94 302.943 331.585 302.997 332.218 302.912C333.047 302.539 333.287 301.744 333.652 301.04C336.75 295.066 341.613 291.603 348.349 290.891C349.293 290.791 350.354 290.891 350.967 289.855C350.902 288.989 350.616 288.153 350.138 287.428C346.331 280.634 340.453 275.235 333.362 272.018" fill="#CDB299"/>
<path d="M416.103 225.929C421.528 222.194 427.212 218.85 433.111 215.921C438.149 213.344 443.285 210.95 448.372 208.464L454.304 206.227C453.128 210.453 452.018 214.396 450.932 218.34C450.559 219.682 449.275 219.367 448.447 219.516C442.565 220.544 436.718 221.748 430.908 223.129C425.93 224.282 421.018 225.704 416.194 227.387C415.728 227.686 415.181 227.834 414.628 227.81C414.462 226.658 415.854 226.766 416.119 225.97" fill="#BEA38D"/>
<path d="M416.103 225.929C416.202 227.022 414.719 226.84 414.612 227.768C413.831 228.315 412.949 228.704 412.019 228.911C413.087 227.511 414.695 226.848 416.103 225.929Z" fill="#92806D"/>
<path d="M368.232 302.796C369.501 302.811 370.767 302.672 372.002 302.382C393.692 301.719 415.39 302.258 437.088 302.1C440.352 302.1 443.614 302.23 446.872 302.49C447.723 302.61 448.588 302.571 449.424 302.374C463.956 303.086 478.504 302.556 493.044 302.713C494.088 302.713 495.132 302.713 496.184 302.672C498.206 302.953 499.2 303.857 499.084 305.315C498.968 306.773 497.891 307.543 495.836 307.552H374.686C373.907 307.552 373.029 307.278 372.375 307.9C370.975 308.139 369.544 308.125 368.149 307.858C367.023 307.643 365.979 307.212 366.095 305.737C366.211 305.348 366.401 305.058 366.857 305.29C368.357 306.06 368.415 305.29 368.141 304.122C368.025 303.658 367.826 303.194 368.241 302.771" fill="#656FCB"/>
<path d="M205.451 302.68C215.666 302.63 225.89 303.078 236.105 302.398C237.149 302.332 238.201 302.398 239.245 302.398C242.137 302.788 245.045 302.34 247.911 302.282C250.554 302.233 253.214 302.133 255.856 302.133C279.253 302.133 302.658 302.133 326.054 302.083C327.653 302.083 329.211 302.556 330.81 302.373L332.21 302.779C332.533 303.161 332.343 303.608 332.276 303.981C332.21 304.354 331.879 305.157 332.517 305.422C333.154 305.687 333.345 304.958 333.627 304.528C333.908 304.097 334.066 303.202 335.002 303.426C335.432 303.678 335.756 304.076 335.916 304.548C336.075 305.019 336.06 305.533 335.872 305.994C335.698 306.557 335.355 307.052 334.89 307.412C334.424 307.773 333.859 307.98 333.27 308.007C331.448 308.181 329.592 307.899 327.794 308.372C327.363 307.253 326.394 307.601 325.59 307.601H206.006C205.02 307.601 204.018 307.668 203.281 306.773C202.984 306.454 202.783 306.057 202.702 305.629C202.622 305.201 202.664 304.759 202.825 304.354C203.264 303.119 204.275 302.771 205.451 302.697" fill="#656FCB"/>
<path d="M356.385 291.147L357.139 291.288C362.4 293.616 365.714 297.825 368.241 302.796C368.318 303.207 368.426 303.611 368.564 304.006C368.887 304.784 369.069 305.588 368.257 306.118C367.271 306.764 366.907 305.803 366.426 305.232C364.479 299.432 361.108 294.751 354.993 293.144C346.493 290.915 337.976 294.702 334.571 303.426C334.314 304.039 334.066 304.66 333.792 305.265C333.519 305.87 333.113 306.524 332.293 306.176C331.988 306.042 331.748 305.792 331.625 305.482C331.503 305.172 331.507 304.826 331.638 304.519C331.812 303.931 332.011 303.359 332.202 302.788C334.289 298.248 337.172 294.453 341.82 292.208C344.634 290.951 347.671 290.269 350.751 290.203C351.207 290.684 351.762 290.443 352.292 290.435L354.579 290.617L356.385 291.181" fill="#423F6B"/>
<path d="M402.383 270.783C404.947 270.212 407.606 270.212 410.171 270.783H402.383Z" fill="#CAC8B4"/>
<path d="M307.753 293.815L307.679 288.273C307.331 286.433 307.861 284.561 307.513 282.713C307.513 282.44 307.472 282.158 307.447 281.885C307.298 281.738 307.21 281.54 307.201 281.331C307.191 281.122 307.261 280.918 307.397 280.758C307.397 278.455 307.397 276.152 307.397 273.849C307.465 273.772 307.549 273.711 307.644 273.672C307.739 273.634 307.842 273.617 307.944 273.625C313.673 273.572 319.383 274.291 324.92 275.762C325.65 275.877 326.347 276.146 326.966 276.549C327.045 276.617 327.102 276.707 327.127 276.808C327.152 276.91 327.145 277.016 327.107 277.113C326.966 284.354 326.825 291.587 326.676 299.225C325.334 298.248 324.323 297.502 323.304 296.74C322.517 296.489 321.783 296.092 321.142 295.572C320.943 295.439 320.752 295.282 320.562 295.133C316.419 291.901 317.977 292.067 313.528 294.702C313.092 294.954 312.619 295.138 312.128 295.248C310.62 295.596 309.534 296.756 307.985 297.411C307.521 296.582 307.886 295.754 307.67 294.925C307.541 294.763 307.471 294.561 307.471 294.354C307.471 294.146 307.541 293.945 307.67 293.782" fill="#423F6B"/>
<path d="M368.987 307.518C367.62 307.32 366.129 307.278 366.427 305.224C366.579 304.989 366.661 304.716 366.661 304.436C366.661 304.157 366.579 303.884 366.427 303.649C365.085 300.659 363.469 297.85 360.884 295.704C357.723 293.084 353.659 291.811 349.567 292.158C343.022 292.506 338.3 295.613 335.06 301.172C334.679 301.835 334.232 302.564 334.596 303.426C335.425 304.089 335.955 304.909 335.425 305.953C335.22 306.467 334.852 306.9 334.378 307.186C333.904 307.472 333.349 307.594 332.798 307.535C331.589 307.46 330.363 307.535 329.145 307.535C328.507 307.535 327.902 307.535 327.786 308.364C328.192 310.186 329.493 310.849 331.183 310.849C343.765 310.849 356.35 310.849 368.937 310.849C370.818 310.849 372.094 309.954 372.375 307.958C371.323 307.129 370.114 307.717 368.987 307.552" fill="url(#paint5_linear_45_132)"/>
<path d="M431.197 300.667C418.488 299.383 405.771 298.09 392.971 299.051C385.887 299.44 378.861 300.551 372.002 302.365C372.507 302.887 373.162 302.68 373.758 302.68C398.271 302.68 422.786 302.68 447.303 302.68C448.016 302.68 448.795 302.92 449.441 302.382C443.36 301.81 437.279 301.272 431.214 300.659" fill="#33479D"/>
<path d="M330.801 302.373C329.501 301.984 328.217 301.545 326.899 301.222C317.14 298.977 307.206 298.513 297.264 298.736C277.878 299.192 258.59 301.296 239.27 302.382C239.842 302.937 240.562 302.705 241.209 302.705C270.482 302.705 299.775 302.705 329.086 302.705C329.683 302.705 330.338 302.929 330.835 302.365" fill="#33479D"/>
<path d="M307.811 273.774C308.548 272.076 310.097 272.266 311.53 272.192C316.935 272.401 322.288 273.317 327.454 274.917C327.926 275.638 327.976 276.276 327.089 276.723C322.71 275.648 318.27 274.84 313.792 274.304C312.209 274.153 310.617 274.117 309.028 274.197C308.515 274.197 308.059 274.379 307.811 273.774Z" fill="#423F6B"/>
<path d="M454.022 281.612C447.353 280.203 440.651 278.952 433.948 277.693C426.288 276.242 418.537 275.32 410.751 274.934C399.889 274.456 389.044 276.21 378.887 280.087C375.701 281.182 372.645 282.624 369.773 284.387C372.814 283.384 375.763 282.175 378.787 281.156C386.747 278.348 395.077 276.729 403.51 276.351C412.416 276.052 421.189 277.096 429.963 278.505C441.794 280.41 453.55 282.722 465.331 284.851C467.585 285.257 469.805 285.986 472.166 285.754C466.127 284.362 460.112 282.887 454.056 281.612" fill="#95806D"/>
<path d="M369.699 291.189C390.411 282.465 411.82 282.382 433.559 285.837C411.728 281.338 390.229 280.675 369.699 291.189Z" fill="#95806D"/>
<path d="M376.874 295.257C393.443 290.054 410.303 290.692 427.229 292.904C410.27 289.814 393.385 288.596 376.874 295.257Z" fill="#95806D"/>
<path d="M309.733 271.935C303.57 271.823 297.406 272.039 291.266 272.581C285.326 273.202 279.443 274.056 273.578 275.067C266.494 276.342 259.551 278.24 252.526 279.764C249.17 280.493 245.898 281.462 242.584 282.316C242.75 282.43 242.939 282.508 243.137 282.545C243.335 282.582 243.539 282.577 243.736 282.531C255.442 279.731 267.207 277.204 279.137 275.472C288.525 274.106 298.013 273.551 307.496 273.815L307.852 273.749C308.979 272.921 310.437 272.921 311.572 272.167C311.018 271.885 310.386 271.795 309.774 271.91" fill="#95806D"/>
<path d="M306.154 286.922C299.072 286.524 291.97 286.632 284.903 287.245C278.971 287.66 273.056 288.372 267.174 289.325C263.272 289.828 259.4 290.538 255.575 291.454C272.89 289.25 290.189 286.831 307.72 288.273C307.77 286.417 307.206 286.997 306.171 286.922" fill="#95806D"/>
<path d="M262.683 296.657C277.642 294.953 292.708 294.385 307.753 294.958V293.815C292.641 293.5 277.571 293.815 262.658 296.657" fill="#95806D"/>
<path d="M307.471 281.885L307.422 280.75C306.721 280.5 305.975 280.403 305.234 280.468C297.854 280.53 290.483 281.036 283.163 281.984C278.88 282.49 274.63 283.211 270.363 283.84C282.716 282.614 295.019 280.965 307.471 281.885Z" fill="#95806D"/>
<path d="M327.454 274.917C327.548 275.544 327.419 276.183 327.09 276.723L327.164 277.105C333.792 278.695 339.335 282.324 344.372 286.806C340.18 280.783 334.265 277.221 327.454 274.917Z" fill="#95806D"/>
<path d="M320.553 295.091C318.176 294.544 315.806 293.832 313.329 294.503C313.091 294.521 312.861 294.599 312.661 294.729C312.462 294.859 312.298 295.038 312.186 295.249L323.362 296.74L321.581 295.298C321.191 295.472 320.893 295.166 320.553 295.091Z" fill="#95806D"/>
<path d="M443.782 209.516C439.98 210.635 434.189 212.424 427.213 214.91C403.808 223.269 387.048 229.45 373.005 243.907C368.008 249.066 363.715 254.863 360.238 261.148C359.839 249.103 358.423 237.114 356.004 225.307C354.471 217.851 353.287 212.226 350.503 204.736C346.537 194.339 341.178 184.528 334.571 175.573C331.091 170.751 327.479 166.037 323.801 161.348C322.972 160.254 322.144 159.766 320.735 160.669C314.629 164.579 308.474 168.399 302.326 172.268C297.596 175.225 292.848 178.15 288.109 181.091C291.332 184.057 294.547 187.04 297.687 190.088C302.194 194.479 306.659 198.928 310.943 203.576C314.19 207.13 317.512 210.618 320.669 214.247C327.542 222.005 333.991 230.128 339.989 238.58C344.297 244.76 348.531 251.007 351.688 257.884C354.133 263.165 355.703 268.809 356.335 274.594C356.377 275.042 356.17 275.804 356.833 275.895V287.792L366.774 274.105C367.603 274.172 367.885 273.335 368.274 272.821C374.09 265.216 380.246 257.897 386.741 250.866C394.273 242.547 402.77 235.154 412.051 228.845C413.443 227.809 415.026 227.08 416.442 226.095C426.152 219.867 436.329 214.4 446.881 209.74C447.063 209.657 447.552 209.384 448.24 209.036C450.725 207.793 452.78 206.849 454.337 206.194C452.026 206.89 448.339 208.017 443.816 209.45" fill="#F7F7E0"/>
<path d="M347.661 271.139C347.183 270.063 346.565 269.054 345.822 268.14C345.548 267.9 345.275 267.66 344.993 267.411C344.918 267.207 344.824 267.01 344.712 266.823C339.794 258.862 334.073 251.428 327.637 244.636C323.355 239.987 318.792 235.604 313.975 231.513C307.098 225.788 299.89 220.452 292.567 215.374L286.635 211.298C286.637 211.434 286.612 211.569 286.56 211.695C285.254 210.111 283.459 209.003 281.457 208.547C281.292 208.809 281.091 209.046 280.86 209.251C278.018 211.14 275.301 213.212 272.575 215.241C266.532 219.891 260.748 224.869 255.251 230.154C249.634 235.357 244.431 240.991 239.162 246.542C238.967 246.692 238.805 246.881 238.686 247.096C238.566 247.311 238.491 247.548 238.466 247.793C238.654 248.048 238.907 248.249 239.198 248.374C239.489 248.499 239.809 248.545 240.123 248.505C241.91 248.571 243.691 248.737 245.459 249.002C252.584 249.508 259.692 250.179 266.801 250.841C274.771 251.579 282.732 252.399 290.669 253.418C301.324 254.663 311.876 256.67 322.243 259.425C329.418 261.421 336.377 263.882 342.334 268.538C343.699 269.694 344.999 270.924 346.228 272.225C346.659 272.639 347.222 273.31 347.785 272.937C348.498 272.457 347.951 271.695 347.686 271.106" fill="#F7F7E0"/>
<path d="M352.98 288.877C352.89 287.493 352.556 286.136 351.994 284.868C351.746 284.482 351.53 284.078 351.348 283.658C349.989 277.453 346.377 272.614 341.53 268.613C337.313 265.108 332.259 263.095 327.106 261.305C316.543 257.627 305.565 255.663 294.58 254.131C288.78 253.302 282.981 252.631 277.181 252.175C271.183 251.711 265.201 251.032 259.211 250.452C256.859 250.378 254.547 249.831 252.178 250.03V250.071C252.149 249.986 252.11 249.906 252.062 249.831C250.504 249.243 248.839 249.284 247.223 249.052C246.395 248.928 245.566 248.663 244.788 249.325C244.771 249.697 244.61 250.048 244.34 250.303C239.179 255.539 234.398 261.073 229.485 266.599C225.003 271.637 220.463 276.616 216.229 281.877C223.255 281.09 230.206 279.797 237.132 278.43C249.187 276.044 261.158 273.368 273.221 270.908C281.465 269.2 289.821 268.087 298.225 267.577C305.423 267.156 312.644 267.512 319.766 268.637C326.907 269.764 333.651 271.91 339.533 276.309C344.446 279.996 348.473 284.387 350.735 290.203C351.066 291.032 351.696 290.874 352.342 290.684C352.613 290.486 352.817 290.21 352.928 289.894C353.039 289.577 353.051 289.234 352.963 288.911" fill="#F7F7E0"/>
<path d="M356.079 281.189C355.946 280.65 355.789 280.12 355.665 279.582C355.717 272.587 354.306 265.659 351.522 259.242C347.38 249.557 341.125 241.231 334.952 232.863C329.89 226.045 324.596 219.392 318.996 212.98C314.083 207.379 309.153 201.778 303.776 196.6C301.954 194.576 300.017 192.656 297.977 190.851C298.005 190.805 298.03 190.758 298.051 190.71C296.684 188.423 294.572 186.932 292.459 185.441C292.459 185.441 292.351 185.482 292.293 185.507C292.061 185.945 291.7 186.301 291.258 186.526C283.901 190.503 277.174 195.374 270.413 200.304C270.997 201.025 271.728 201.613 272.559 202.027C285.318 210.138 297.96 218.414 309.99 227.602C317.845 233.605 325.063 240.398 331.531 247.875C338.094 255.269 343.808 263.375 348.564 272.043C351.423 277.386 353.958 282.871 354.206 289.109C354.206 289.739 354.157 290.559 355.192 290.559C355.888 290.178 355.855 289.457 355.971 288.811C356.369 286.284 356.435 283.716 356.17 281.172" fill="#F7F7E0"/>
<path d="M484.569 280.071C478.893 271.719 473.127 263.385 467.651 254.893C466.92 253.715 465.954 252.701 464.814 251.912C463.673 251.124 462.383 250.579 461.023 250.311C453.699 248.494 446.315 247.006 438.869 245.846C434.599 245.044 430.287 244.491 425.953 244.189C419.822 243.949 413.658 243.766 407.527 244.802C401.021 245.78 394.715 247.803 388.853 250.792C388.381 251.04 385.688 252.962 385.589 252.996C385.123 253.395 384.681 253.821 384.263 254.271C380.875 258.273 377.428 262.217 374.164 266.309C370.129 271.347 366.169 276.458 362.632 281.877C360.272 284.762 358.187 287.86 356.401 291.131C356.486 291.245 356.611 291.323 356.751 291.349C356.891 291.376 357.035 291.348 357.155 291.272C357.641 290.497 358.178 289.755 358.763 289.051C363.294 284.107 368.767 280.115 374.86 277.312C383.617 273.269 392.855 271.421 402.407 270.783C404.995 270.497 407.607 270.497 410.195 270.783C414.072 270.783 417.917 271.231 421.794 271.471C429.598 271.951 437.171 273.749 444.843 275C448.529 275.597 452.092 276.815 455.837 277.105C457.386 277.726 459.059 277.751 460.675 278.057C468.91 279.615 477.178 280.957 485.53 281.868C485.372 281.207 485.063 280.592 484.627 280.071" fill="#F6F7E0"/>
<path d="M321.58 295.298C319.443 295.754 317.438 294.735 315.334 294.735C314.664 294.699 313.997 294.621 313.337 294.503C314.257 293.484 315.607 293.078 316.651 292.258C317.33 291.736 317.794 292.258 318.258 292.655C319.377 293.525 320.47 294.42 321.572 295.298" fill="#CDB098"/>
<path d="M270.355 200.32C300.238 216.791 358.092 261.049 353.27 290.899C351.232 288.472 351.704 281.57 348.465 277.643C331.671 248.994 257.215 253.542 238.16 248.563C275.094 249.715 333.834 254.868 347.678 272.871C327.653 235.589 295.483 220.56 270.33 200.32" fill="#AD9680"/>
<path d="M366.783 274.139C379.707 257.652 393.775 240.229 412.043 228.895C376.335 253.493 351.315 305.497 355.49 287.718C359.285 246.79 309.41 204.388 291.183 184.521C289.965 183.875 286.278 179.293 290.073 182.127C323.213 214.214 360.453 253.078 357.288 285.091C355.963 291.272 363.411 275.555 366.816 274.139" fill="#92806D"/>
<path d="M437.627 83.1802C437.834 82.4378 438.186 81.744 438.664 81.1394C439.142 80.5349 439.736 80.0316 440.411 79.6591C450.48 74.0364 460.524 68.3613 470.543 62.6337C471.587 62.0372 472.15 62.1283 472.655 63.1391C473.512 63.842 474.207 64.7207 474.694 65.7157C482.597 79.7668 490.52 93.807 498.463 107.836C499.001 108.789 499.714 109.7 499.565 110.918C499.258 111.912 498.355 112.277 497.568 112.724C488.455 117.935 479.3 123.039 470.162 128.184C468.049 129.377 466.094 130.545 465.746 133.221C465.714 133.341 465.656 133.452 465.576 133.547C465.496 133.642 465.395 133.717 465.282 133.768C464.105 133.569 463.857 132.492 463.385 131.68C458.099 122.5 452.987 113.221 447.718 104.033C444.813 98.9574 441.938 93.8622 439.093 88.7476C438.431 87.706 437.918 86.5766 437.569 85.3923C437.413 85.0427 437.337 84.6625 437.347 84.2796C437.357 83.8968 437.452 83.5211 437.627 83.1802Z" fill="#F6F7E0"/>
<path d="M429.648 85.8646C430.479 85.1875 431.421 84.6604 432.432 84.307C432.831 84.4844 433.143 84.8119 433.302 85.2183C438.439 94.6631 443.84 103.95 449.093 113.329C452.407 119.203 455.804 125.002 459.035 130.918C459.515 131.804 459.971 132.682 459.532 133.726C459.1 134.407 458.469 134.939 457.726 135.251C448.704 140.379 439.64 145.441 430.593 150.52C429.657 151.042 428.737 151.87 427.511 151.241C426.078 149.907 425.39 148.076 424.462 146.427C416.923 133.094 409.397 119.761 401.886 106.428C401.265 105.575 400.9 104.564 400.834 103.511C400.701 102.94 400.005 102.443 401.041 101.854C409.11 97.3971 417.147 92.8819 425.191 88.3832C425.812 88.4909 426.094 88.9797 426.368 89.4519C428.132 92.5422 429.897 95.6242 431.645 98.7227C432.035 99.2801 432.209 99.9604 432.134 100.637C431.769 101.523 430.933 101.846 430.195 102.293C424.686 105.467 419.118 108.549 413.625 111.747C419.035 108.797 424.396 105.74 429.748 102.708C430.651 102.202 431.488 101.49 432.623 101.531C433.11 101.773 433.511 102.158 433.772 102.635C434.033 103.113 434.141 103.658 434.081 104.199C433.045 105.856 431.214 106.469 429.632 107.331C424.934 109.899 420.353 112.674 415.655 115.251C420.576 112.578 425.467 109.858 430.328 107.09C431.695 106.303 432.995 105.317 434.611 105.019C435.105 105.25 435.515 105.628 435.785 106.101C436.055 106.574 436.172 107.12 436.119 107.662C435.647 108.797 434.561 109.211 433.633 109.75C428.591 112.633 423.531 115.483 418.456 118.3C418.192 118.413 417.97 118.604 417.818 118.847C423.194 115.839 428.431 112.799 433.733 109.891C434.686 109.369 435.564 108.573 436.782 108.731C437.241 109.005 437.616 109.401 437.865 109.874C438.113 110.348 438.226 110.881 438.19 111.415C437.478 112.6 436.21 113.072 435.1 113.652C430.419 116.254 425.804 118.971 421.082 121.498C420.546 121.735 420.067 122.083 419.673 122.517C425.357 119.344 430.701 116.187 436.16 113.254C436.989 112.824 437.701 112.211 438.695 112.252C439.185 112.486 439.588 112.868 439.848 113.344C440.108 113.819 440.212 114.365 440.145 114.903C439.582 116.046 438.43 116.452 437.428 117.024C432.192 120.007 426.931 122.939 421.687 125.972C427.32 122.939 432.855 119.708 438.439 116.585C439.058 116.067 439.835 115.775 440.642 115.756C441.127 115.997 441.529 116.376 441.799 116.844C442.069 117.313 442.194 117.851 442.159 118.391C441.869 119.22 441.131 119.576 440.435 119.973C434.843 123.205 429.143 126.262 423.584 129.559C428.729 126.842 433.749 123.9 438.828 121.067C440.046 120.388 441.14 119.41 442.664 119.41C443.492 120.106 444.627 120.504 445.149 121.597C444.841 122.207 444.315 122.677 443.675 122.915C437.759 126.229 431.844 129.542 425.986 132.931C433.103 129.012 440.137 124.944 447.304 121.117C447.842 120.955 448.414 120.941 448.96 121.075C446.541 117.132 444.346 113.056 442.084 109.029C438.218 102.158 434.351 95.2955 430.485 88.4412C430.046 87.6127 429.416 86.8919 429.723 85.8729" fill="#F6F7E0"/>
<path d="M400.809 103.536C406.608 113.76 412.408 123.978 418.207 134.19C421.361 139.763 424.512 145.342 427.66 150.926C428.489 152.127 429.491 151.555 430.419 151.058C433.576 149.401 436.666 147.562 439.781 145.806C445.586 142.541 451.385 139.263 457.179 135.972C458.04 135.427 459.003 135.064 460.009 134.906C461.015 134.748 462.042 134.798 463.028 135.052C463.966 135.248 464.944 135.086 465.767 134.596C466.591 134.107 467.201 133.326 467.477 132.409C467.683 131.54 468.076 130.727 468.63 130.027C469.184 129.327 469.885 128.757 470.684 128.358C479.54 123.329 488.438 118.416 497.27 113.312C498.256 112.749 499.523 112.376 499.366 110.827C492.186 98.1234 485.03 85.4006 477.9 72.6584C476.119 69.5019 474.395 66.3122 472.647 63.1391C474.188 61.9958 475.133 62.4017 476.052 64.0835C484.691 79.5487 493.371 94.9862 502.092 110.396C503.21 112.393 503.144 112.633 501.073 113.801C491.948 118.943 482.807 124.083 473.65 129.219C472.274 129.982 471.487 130.702 471.794 132.484C471.941 133.285 471.821 134.113 471.453 134.84C471.085 135.567 470.489 136.154 469.756 136.51C468.099 137.421 466.574 138.407 464.926 139.252C464.107 139.646 463.185 139.77 462.292 139.606C461.399 139.442 460.58 138.999 459.955 138.341C459.259 137.43 458.762 137.612 457.983 138.059C452.46 141.208 446.936 144.339 441.413 147.454C437.378 149.724 433.294 151.895 429.309 154.248C427.652 155.217 426.873 154.902 425.995 153.295C422.681 147.289 419.268 141.357 415.896 135.392C410.618 126.046 405.382 116.676 400.022 107.38C399.028 105.657 398.986 104.497 400.809 103.536Z" fill="#656FCB"/>
<path d="M459.176 133.619C459.293 132.885 459.117 132.136 458.687 131.531C454.354 123.743 449.822 116.063 445.572 108.225C441.844 101.366 437.817 94.663 433.923 87.886C433.254 86.7722 432.752 85.5664 432.432 84.3069C433.584 83.4784 434.81 83.7933 436.036 84.0501C437.039 83.611 437.337 84.5638 437.9 84.9946C440.187 89.5513 442.797 93.9257 445.282 98.3747C447.983 103.196 450.742 107.985 453.409 112.824C456.939 119.211 460.584 125.533 464.18 131.879C464.544 132.517 464.942 133.138 465.323 133.759C465.555 134.447 464.967 134.306 464.76 134.199C463.167 133.432 461.343 133.299 459.656 133.826C459.491 133.867 459.317 133.743 459.176 133.619Z" fill="#E0E3CD"/>
<path d="M437.9 84.9946C437.072 85.1355 436.707 84.2656 436.036 84.0502C436.376 83.4122 437.088 83.4537 437.627 83.2217L437.9 85.0278" fill="#656FCB"/>
<path d="M459.176 133.619C461.222 132.583 463.211 132.467 465.116 133.958C465.116 133.958 465.232 133.958 465.265 133.958C465.294 133.904 465.314 133.845 465.323 133.784C465.182 131.199 466.409 129.592 468.637 128.349C478.463 122.898 488.231 117.331 498.007 111.78C498.479 111.506 498.902 111.142 499.349 110.827C500.542 112.086 499.705 112.658 498.604 113.312C489.242 118.573 479.913 123.876 470.551 129.12C469.863 129.467 469.27 129.978 468.825 130.608C468.38 131.238 468.097 131.967 467.999 132.732C467.709 134.621 464.627 136.394 462.887 135.698C462.144 135.39 461.339 135.262 460.537 135.324C459.736 135.386 458.96 135.636 458.273 136.054C448.985 141.307 439.657 146.485 430.402 151.796C428.886 152.674 428.132 152.624 427.635 150.967C428.232 151.439 428.687 150.967 429.135 150.702C438.999 145.151 448.861 139.589 458.72 134.016C458.873 133.912 459.017 133.796 459.151 133.668" fill="#E0E3CD"/>
<path d="M426.857 94.1246C427.271 94.746 427.959 95.3756 426.675 96.0881C421.008 99.2198 415.366 102.401 409.724 105.583C409.011 105.989 408.547 106.03 408.067 105.21C407.586 104.39 408 103.959 408.647 103.553C414.231 100.388 419.815 97.2314 425.399 94.0832C425.821 93.8512 426.285 93.5695 426.849 94.0832" fill="#E0E3CD"/>
<path d="M454.396 125.963C454.951 126.9 454.213 127.123 453.625 127.455C450.311 129.344 446.997 131.23 443.683 133.113C439.127 135.693 434.559 138.255 429.98 140.802C429.541 141.042 428.961 141.87 428.447 140.942C427.934 140.015 428.944 139.915 429.384 139.667C437.149 135.248 444.926 130.854 452.714 126.485C453.227 126.195 453.741 125.781 454.42 125.963" fill="#E0E3CD"/>
<path d="M426.484 136.626C428.53 135.433 430.427 134.29 432.358 133.213C438.588 129.716 444.821 126.237 451.057 122.774C451.496 122.533 451.951 121.871 452.448 122.633C452.945 123.395 452.175 123.594 451.744 123.834C444.785 127.778 437.82 131.713 430.85 135.64C429.723 136.27 428.604 136.908 427.461 137.521C427.155 137.687 426.782 137.927 426.484 137.521C426.369 137.403 426.305 137.246 426.305 137.082C426.305 136.918 426.369 136.76 426.484 136.643" fill="#E0E3CD"/>
<path d="M456.458 129.584C457.038 130.611 456.135 130.769 455.63 131.067C452.523 132.84 449.4 134.58 446.276 136.336C441.603 138.96 436.922 141.583 432.233 144.207C431.744 144.48 431.09 145.209 430.642 144.488C430.121 143.66 431.131 143.378 431.662 143.072C439.438 138.653 447.234 134.268 455.05 129.915C455.447 129.692 455.878 129.087 456.475 129.584" fill="#E0E3CD"/>
<path d="M445.083 121.382C445.85 121.225 446.644 121.274 447.386 121.523C440.25 125.56 433.117 129.598 425.986 133.635C425.556 133.875 424.926 134.464 424.536 133.759C424.147 133.055 424.942 132.765 425.44 132.475L445.083 121.382Z" fill="#E0E3CD"/>
<path d="M441.902 118.399L442.672 119.642L425.075 129.46L423.6 130.238C423.194 130.454 422.772 130.967 422.366 130.28C421.96 129.592 422.532 129.451 422.954 129.195C425.44 127.769 428 126.353 430.51 124.911C434.31 122.746 438.107 120.575 441.902 118.399Z" fill="#E0E3CD"/>
<path d="M431.902 100.67L432.532 101.755C426.268 105.306 420.008 108.863 413.75 112.426C413.286 112.683 412.822 113.254 412.374 112.484C411.927 111.713 412.615 111.548 413.087 111.283L431.902 100.67Z" fill="#E0E3CD"/>
<path d="M437.95 111.382L438.596 112.451L419.922 122.989C419.441 123.262 418.878 123.718 418.472 123.064C418.066 122.409 418.828 122.144 419.259 121.904C425.484 118.385 431.714 114.878 437.95 111.382Z" fill="#E0E3CD"/>
<path d="M433.874 104.166L434.479 105.259L419.442 113.892C418.216 114.596 416.956 115.259 415.722 115.93C415.283 116.162 414.794 116.809 414.338 116.021C413.883 115.234 414.686 115.06 415.101 114.82C418.887 112.649 422.706 110.52 426.509 108.366C428.994 106.974 431.422 105.566 433.874 104.166Z" fill="#E0E3CD"/>
<path d="M435.846 107.679L436.616 108.938C430.441 112.39 424.272 115.837 418.108 119.278C417.611 119.551 416.981 120.247 416.533 119.501C416.086 118.756 416.948 118.49 417.445 118.209C423.322 114.851 429.198 111.506 435.075 108.176C435.348 108.027 435.589 107.836 435.846 107.67" fill="#E0E3CD"/>
<path d="M439.93 114.895L440.552 115.955L421.637 126.726C421.215 126.958 420.809 127.413 420.403 126.726C419.931 125.814 420.875 125.682 421.306 125.433C426.534 122.434 431.795 119.485 437.047 116.519C438.008 115.98 438.969 115.417 439.93 114.862" fill="#E0E3CD"/>
<path d="M410.369 108.159C411.057 107.745 411.728 107.331 412.424 106.925C417.461 104.091 422.499 101.25 427.552 98.4576C427.975 98.2256 428.588 97.3309 429.068 98.2339C429.433 98.9298 428.687 99.2861 428.149 99.5926C422.626 102.691 417.102 105.784 411.579 108.872C411.223 109.071 410.809 109.7 410.311 109.087C410.063 108.797 409.93 108.433 410.378 108.159" fill="#E0E3CD"/>
<path d="M429.648 85.8645L449.698 121.34C448.553 121.912 447.249 122.082 445.996 121.823C444.743 121.565 443.613 120.893 442.788 119.915C440.684 116.635 438.588 113.218 436.5 109.667C432.208 102.351 428.455 95.2264 425.166 88.3997C426.569 87.4035 428.071 86.5539 429.648 85.8645Z" fill="#423F6B"/>
<path d="M537.087 165.731C529.995 159.942 522.917 154.143 515.853 148.333C512.323 145.267 508.736 142.285 504.966 139.517C503.773 138.979 503.467 140.097 502.995 140.677C498.145 146.753 493.323 152.828 488.529 158.904C481.587 167.678 474.751 176.543 467.684 185.225C467.005 186.054 466.21 186.882 466.317 188.117C466.397 188.475 466.578 188.803 466.839 189.061C469.789 191.651 472.827 194.137 475.953 196.517C476.136 196.681 476.355 196.8 476.593 196.863C476.83 196.926 477.079 196.933 477.32 196.882C477.599 197.823 478.207 198.632 479.035 199.16C485.856 204.684 492.691 210.207 499.54 215.73C500.103 216.177 500.617 216.749 501.462 216.559C513.458 200.541 525.458 184.54 537.46 168.556C538.33 167.396 538.098 166.617 537.07 165.772M512.415 191.762C510.352 194.33 508.488 197.056 506.557 199.732C504.9 202.077 504.66 202.118 502.415 200.362C497.883 196.758 493.409 193.096 488.894 189.467C487.842 188.639 486.856 187.636 485.489 187.263C485.447 186.501 484.66 186.128 484.205 185.664C482.713 184.264 481.04 183.071 479.466 181.762C478.264 180.768 478.09 179.873 479.159 178.655C480.94 176.625 482.473 174.388 484.205 172.309C487.593 168.167 487.568 168.225 491.769 171.605C492.821 172.433 493.658 173.775 495.265 173.651C495.373 174.886 496.383 175.474 497.228 176.137C502.116 180.105 506.963 184.14 511.868 188.1C513.276 189.235 513.599 190.213 512.373 191.737" fill="#656FCB"/>
<path d="M502.738 137.695C502.423 137.388 502.133 137.057 501.801 136.775C497.791 133.461 495.944 133.668 492.688 137.728C488.341 143.251 483.994 148.774 479.648 154.298L457.046 183.071C457.035 183.161 457.042 183.252 457.068 183.338C457.093 183.425 457.137 183.505 457.195 183.573C457.254 183.642 457.326 183.698 457.408 183.737C457.489 183.776 457.578 183.797 457.668 183.8C459.855 183.8 461.57 185.018 463.467 185.83C463.608 185.838 463.749 185.838 463.89 185.83C464.718 186.658 465.812 187.189 466.607 188.059C471.158 182.259 475.704 176.46 480.244 170.66C483.757 166.187 487.278 161.724 490.807 157.272C495.524 151.351 500.252 145.436 504.991 139.526C504.39 138.765 503.629 138.146 502.762 137.711" fill="url(#paint6_linear_45_132)"/>
<path d="M460.477 185.979C460.278 185.769 460.037 185.605 459.77 185.496C459.502 185.388 459.214 185.338 458.926 185.351C458.638 185.363 458.355 185.438 458.098 185.569C457.841 185.7 457.615 185.885 457.436 186.112C457.246 186.136 457.057 186.175 456.873 186.228C453.782 188.266 453.559 190.552 456.276 192.93C458.422 194.819 460.725 196.509 462.904 198.315C472.382 206.048 481.874 213.758 491.379 221.447C492.307 222.192 493.152 223.278 494.61 222.946L497.742 218.804L498.993 217.329C486.152 206.868 473.302 196.41 460.444 185.954" fill="#F6F7E0"/>
<path d="M485.488 187.711C483.094 185.714 480.725 183.684 478.289 181.737C477.228 180.909 476.98 180.155 477.899 179.028C480.65 175.64 483.401 172.243 486.052 168.771C487.121 167.371 487.957 167.38 489.233 168.506C491.255 170.288 493.417 171.903 495.513 173.593C501.478 178.523 507.402 183.535 513.442 188.34C514.717 189.359 514.626 189.997 513.79 191.132C511.155 194.637 508.504 198.133 506.002 201.737C505.024 203.129 504.403 202.855 503.293 201.952C497.394 197.164 491.429 192.45 485.488 187.711Z" fill="#423F6B"/>
<path d="M466.889 203.626C463.384 200.163 452.498 193.601 452.805 189.798C453.583 185.946 457.121 181.265 461.504 183.949C467.867 188.017 472.68 193.253 479.018 198.034C486.118 204.96 495.911 209.997 501.122 217.089C497.808 219.707 490.161 209.922 487.552 208.804C479.117 202.019 471.106 195.49 462.697 188.672C461.172 187.586 459.863 185.581 457.726 186.335C451.023 190.337 458.869 193.535 462.084 196.667C473.161 206.294 485.232 214.214 495.223 224.247C495.687 229.359 466.384 204.231 466.889 203.651" fill="#656FCB"/>
<path d="M302.782 67.1987L307.041 74.8208C307.355 75.312 307.47 75.9044 307.364 76.4777C306.925 78.9632 308.093 80.4793 309.94 81.9623C312.484 84.0004 314.911 84.4478 317.67 82.5754C321.755 82.2689 325.64 83.5447 329.575 84.2324C341.301 86.3423 353.027 88.466 364.753 90.6035C371.276 91.7965 377.799 92.9785 384.322 94.1494C385.243 94.2285 386.133 94.5267 386.915 95.0193C387.984 95.2513 389.036 95.533 390.113 95.6987C391.19 95.8644 392.002 96.2869 391.77 97.4551C391.538 98.6232 390.577 98.4658 389.699 98.2836L373.527 95.4004C356.189 92.3461 338.852 89.2586 321.514 86.1379C320.141 85.762 318.676 85.928 317.422 86.6019C312.169 89.6424 302.625 82.8488 303.776 76.8671C303.964 76.1779 303.971 75.4518 303.795 74.7593C303.619 74.0669 303.268 73.4316 302.774 72.9152C301.666 72.0854 300.754 71.0223 300.103 69.8011C299.451 68.5799 299.076 67.2304 299.004 65.8482L269.179 12.7007C268.715 11.8722 268.143 10.9111 269.179 10.2566C270.372 9.52755 270.968 10.4886 271.49 11.4331C272.012 12.3776 272.675 13.4546 273.28 14.4571C274.163 14.9427 274.868 15.6973 275.293 16.6111C283.089 30.6209 291.034 44.5478 298.739 58.6155C299.468 60.5956 300.868 62.2194 301.788 64.1084C302.268 65.086 302.898 66.0056 302.749 67.1738" fill="#423F6B"/>
<path d="M299.004 65.873L302.774 72.9401C300.106 76.6765 297.447 80.3965 294.655 84.3401C293.611 82.8571 294.597 80.7776 293.337 80.2473C292.078 79.7171 290.595 80.3799 288.541 80.5704L299.004 65.873Z" fill="#656FCB"/>
<path d="M282.691 17.4479C282.341 16.8694 281.784 16.4458 281.133 16.2632C278.515 15.6998 275.906 15.0784 273.288 14.4819L298.358 59.3446C301.721 59.5683 304.157 57.8948 306.328 55.5418C299.99 41.8883 291.788 29.3947 282.691 17.4314" fill="#F7F7E0"/>
<path d="M385.979 93.5943C384.264 89.6921 381.77 87.0327 377.156 86.3782C372.848 85.7568 368.664 84.2655 364.405 83.2548C350.884 80.0319 337.372 76.7677 323.445 75.7321C322.898 75.7321 322.219 75.9889 321.514 75.2019C327.752 74.8299 334.011 75.1914 340.164 76.2789C353.721 78.4873 367.111 81.6264 380.238 85.674C380.925 85.8811 381.961 86.6764 382.359 85.4005C382.657 84.4478 381.621 84.4809 381.033 84.3069C364.372 79.4106 347.62 74.945 330.222 73.5366C329.758 73.5366 329.037 73.8514 328.822 72.8738C329.609 72.7827 330.354 72.6667 331.1 72.6004C342.699 71.6062 354.165 72.7578 365.615 74.3651C370.694 75.0859 375.739 76.0718 380.809 76.9085C381.398 77.008 382.251 77.4636 382.417 76.3783C382.541 75.5498 381.737 75.5498 381.215 75.4007C380.971 75.3331 380.722 75.2859 380.47 75.2598C366.8 72.6253 353.063 70.5872 339.095 70.6617C336.046 70.6617 332.997 70.844 329.94 70.9434C330.465 70.5084 331.098 70.2223 331.771 70.1149C341.498 68.2425 351.348 67.8117 361.216 67.9526C367.363 68.0437 373.51 68.4414 379.658 68.6651C380.213 68.6651 381.124 69.187 381.315 68.1183C381.53 66.7761 380.403 67.2069 379.774 67.1324C378.349 66.9667 376.924 66.8755 375.491 66.801C360.313 66.0222 345.16 65.7571 330.156 68.8225C327.347 69.3941 324.596 70.2889 321.258 71.192C325.772 67.5297 330.539 64.1909 335.524 61.2004C346.681 54.5734 358.289 48.7375 370.263 43.7358C370.942 43.4376 372.251 43.3465 371.729 42.1617C371.273 41.1344 370.395 41.9877 369.782 42.2363C362.989 45.0034 356.344 48.102 349.816 51.4242C338.523 57.1657 327.579 63.4539 317.72 72.1364C318.747 68.8225 319.799 65.9973 320.512 63.0728C324.381 47.0912 324.497 30.8611 323.544 14.573C323.486 13.5623 323.403 12.5598 323.312 11.5491C323.312 11.1348 323.254 10.646 322.683 10.6543C322.556 10.6355 322.428 10.6461 322.306 10.6853C322.185 10.7244 322.074 10.7911 321.983 10.8801C321.891 10.9692 321.822 11.0781 321.779 11.1984C321.737 11.3188 321.723 11.4473 321.738 11.5739C321.738 12.0793 321.821 12.5847 321.846 13.09C322.674 26.4039 322.674 39.7011 320.827 52.9404C320.611 54.4399 320.338 55.9312 320.065 57.4225C319.791 58.9138 319.526 60.1896 319.236 61.5649C319.915 44.9951 318.225 28.6739 315.582 12.4273C315.442 11.5988 315.906 9.94179 314.398 10.1572C313.064 10.356 313.983 11.7148 314.075 12.4935C314.754 18.0941 315.665 23.6698 316.237 29.287C317.505 41.7889 318.457 54.3156 316.436 66.8341C316.162 68.5739 315.98 70.3718 314.845 72.1033C314.017 68.4828 313.387 65.086 312.476 61.772C307.944 45.3017 301.175 29.6847 294.1 14.1919C293.777 13.496 293.76 11.8887 292.501 12.4604C291.241 13.0321 292.501 14.0677 292.716 14.8547C293.046 15.7165 293.428 16.5575 293.859 17.3733C299.7 30.4055 305.268 43.5204 309.493 57.1408C310.603 60.6867 311.672 64.2658 311.829 68.0851C311.122 66.4282 310.421 64.7712 309.725 63.1142C306.759 63.5367 304.133 64.5475 302.559 67.3229C303.233 70.3563 304.716 73.1506 306.85 75.409C310.272 77.2151 313.776 78.8803 316.519 81.7221C316.65 81.7939 316.785 81.8575 316.925 81.9126C316.925 82.476 317.521 82.7411 318.026 83.0311C330.791 85.2846 343.552 87.5353 356.311 89.7833C366.501 91.5673 376.695 93.3375 386.89 95.0939L385.979 93.644" fill="#F7F7E0"/>
<path d="M298.358 59.3446C301.091 58.2438 303.753 56.9738 306.328 55.5419C307.85 57.8603 308.997 60.4048 309.725 63.0811C307.422 64.4978 304.845 65.4257 302.757 67.2236C301.13 64.6987 299.661 62.0756 298.358 59.3695" fill="#656FCB"/>
<path d="M317.098 81.2499L318.026 82.998C315.425 85.1355 313.345 85.3012 310.802 83.5945C306.295 80.5539 305.69 79.1538 307.016 74.8208C310.887 76.0326 314.366 78.2514 317.098 81.2499Z" fill="#656FCB"/>
<defs>
<linearGradient id="paint0_linear_45_132" x1="350" y1="0" x2="350" y2="351" gradientUnits="userSpaceOnUse">
<stop stop-color="#6754E9"/>
<stop offset="0.385417" stop-color="#6754E9"/>
<stop offset="0.5" stop-color="#9566FD"/>
<stop offset="0.640625" stop-color="#CB45ED"/>
<stop offset="1" stop-color="#CB45ED"/>
</linearGradient>
<linearGradient id="paint1_linear_45_132" x1="192.43" y1="170.818" x2="192.43" y2="229.292" gradientUnits="userSpaceOnUse">
<stop stop-color="#CB45ED"/>
<stop offset="1" stop-color="#6754E9"/>
</linearGradient>
<linearGradient id="paint2_linear_45_132" x1="240.289" y1="84.3885" x2="240.289" y2="97.977" gradientUnits="userSpaceOnUse">
<stop stop-color="#CB45ED"/>
<stop offset="1" stop-color="#6754E9"/>
</linearGradient>
<linearGradient id="paint3_linear_45_132" x1="232.149" y1="135.598" x2="232.149" y2="148.548" gradientUnits="userSpaceOnUse">
<stop stop-color="#CB45ED"/>
<stop offset="1" stop-color="#6754E9"/>
</linearGradient>
<linearGradient id="paint4_linear_45_132" x1="238.209" y1="97.8412" x2="238.209" y2="109.634" gradientUnits="userSpaceOnUse">
<stop stop-color="#CB45ED"/>
<stop offset="1" stop-color="#6754E9"/>
</linearGradient>
<linearGradient id="paint5_linear_45_132" x1="350.081" y1="292.102" x2="350.081" y2="310.849" gradientUnits="userSpaceOnUse">
<stop stop-color="#CB45ED"/>
<stop offset="1" stop-color="#6754E9"/>
</linearGradient>
<linearGradient id="paint6_linear_45_132" x1="481.016" y1="134.469" x2="481.016" y2="188.059" gradientUnits="userSpaceOnUse">
<stop stop-color="#CB45ED"/>
<stop offset="1" stop-color="#6754E9"/>
</linearGradient>
</defs>
</svg>
