<svg width="700" height="351" viewBox="0 0 700 351" fill="none" xmlns="http://www.w3.org/2000/svg">
<rect x="1" y="1" width="698" height="349" rx="28" fill="white" stroke="url(#paint0_linear_45_131)" stroke-width="2"/>
<path d="M339.126 268.019C339.126 268.019 356.54 223.564 378.286 246.093C415.122 284.24 479.223 261.436 468.883 203.261C463.103 170.711 468.97 173.466 494.453 134.602C510.045 110.82 484.501 67.2844 433.667 73.3372C382.834 79.39 373.812 76.2195 362.306 65.5684C350.8 54.9174 332.837 21.9991 300.743 26.4029C268.649 30.8068 280.148 76.568 275.38 96.3418C270.611 116.116 243.118 89.0758 224.071 120.184C203.998 152.948 240.352 169.445 237.747 204.957C235.142 240.469 302.92 314.738 339.126 268.019Z" fill="#CABFFF"/>
<path d="M436 77C435.406 77 434.826 76.7945 434.333 76.4096C433.839 76.0247 433.455 75.4777 433.228 74.8377C433.001 74.1977 432.942 73.4936 433.058 72.8145C433.174 72.1354 433.461 71.5117 433.881 71.0225C434.301 70.5333 434.836 70.2006 435.419 70.0664C436.001 69.9321 436.604 70.0025 437.152 70.2685C437.7 70.5346 438.169 70.9843 438.497 71.5608C438.826 72.1374 439.001 72.8148 439 73.5073C438.998 74.4343 438.682 75.3227 438.119 75.9775C437.557 76.6323 436.795 77 436 77ZM436 70.9592C435.568 70.9592 435.146 71.1087 434.787 71.3886C434.427 71.6686 434.147 72.0666 433.982 72.5322C433.817 72.9978 433.774 73.5101 433.858 74.0044C433.942 74.4987 434.15 74.9528 434.456 75.3091C434.761 75.6655 435.15 75.9082 435.574 76.0065C435.998 76.1048 436.437 76.0543 436.836 75.8615C437.235 75.6686 437.576 75.342 437.816 74.923C438.056 74.5039 438.184 74.0113 438.184 73.5073C438.184 72.8315 437.954 72.1834 437.544 71.7055C437.135 71.2277 436.579 70.9592 436 70.9592Z" fill="#D31107"/>
<path d="M356.605 76.0271V78.0399C356.605 78.2478 356.672 78.4506 356.798 78.6202C356.925 78.7897 357.103 78.9176 357.309 78.9859L359.287 79.6166C359.494 79.6801 359.675 79.8046 359.803 79.9722C359.931 80.1398 360 80.3418 360 80.5492C360 80.7566 359.931 80.9587 359.803 81.1263C359.675 81.2939 359.494 81.4184 359.287 81.4818L357.295 82.0789C357.089 82.1439 356.911 82.2691 356.785 82.4366C356.658 82.604 356.59 82.8053 356.591 83.0116V85.0244C356.59 85.2318 356.52 85.4335 356.391 85.6006C356.263 85.7677 356.081 85.8915 355.874 85.9542C355.667 86.0169 355.444 86.0152 355.237 85.9494C355.031 85.8835 354.852 85.757 354.726 85.588L353.515 83.971C353.389 83.8011 353.208 83.6738 353.001 83.6075C352.794 83.5412 352.57 83.5393 352.361 83.602L350.376 84.1991C350.169 84.2598 349.946 84.2567 349.741 84.1904C349.535 84.124 349.357 83.9976 349.23 83.8291C349.104 83.6607 349.037 83.4587 349.038 83.2518C349.039 83.0448 349.108 82.8434 349.236 82.6761L350.404 81.0122C350.531 80.8442 350.6 80.6423 350.6 80.4352C350.6 80.228 350.531 80.0261 350.404 79.8582L349.187 78.2412C349.062 78.0717 348.997 77.8693 349 77.6625C349.003 77.4557 349.074 77.255 349.203 77.0889C349.333 76.9227 349.513 76.7995 349.72 76.7366C349.927 76.6737 350.149 76.6743 350.355 76.7383L352.333 77.369C352.539 77.4348 352.762 77.4365 352.97 77.3738C353.177 77.3111 353.358 77.1873 353.487 77.0201L354.733 75.4233C354.86 75.248 355.043 75.1169 355.255 75.0498C355.467 74.9828 355.696 74.9834 355.908 75.0517C356.12 75.1199 356.302 75.2521 356.428 75.4281C356.554 75.6041 356.616 75.8144 356.605 76.0271Z" fill="#009CA8"/>
<path d="M280 129C278.615 129 277.262 128.589 276.11 127.82C274.959 127.05 274.062 125.957 273.532 124.677C273.003 123.398 272.864 121.99 273.135 120.632C273.406 119.274 274.073 118.027 275.053 117.048C276.032 116.069 277.28 115.403 278.638 115.134C279.997 114.864 281.404 115.004 282.683 115.535C283.962 116.066 285.055 116.964 285.823 118.116C286.592 119.268 287.001 120.622 287 122.007C286.998 123.862 286.26 125.641 284.947 126.952C283.635 128.263 281.855 129 280 129ZM280 116.905C278.991 116.905 278.005 117.204 277.166 117.765C276.327 118.325 275.673 119.122 275.287 120.054C274.901 120.986 274.799 122.012 274.996 123.002C275.193 123.992 275.679 124.901 276.393 125.614C277.106 126.328 278.015 126.813 279.005 127.01C279.994 127.207 281.02 127.106 281.952 126.72C282.885 126.334 283.681 125.68 284.242 124.841C284.802 124.002 285.102 123.016 285.102 122.007C285.1 120.654 284.562 119.357 283.605 118.401C282.649 117.445 281.353 116.907 280 116.905Z" fill="#6AC8BF"/>
<path d="M220.923 131.301L221.565 133.517C221.598 133.628 221.674 133.723 221.777 133.781C221.88 133.839 222.002 133.857 222.117 133.83L224.416 133.266C224.513 133.242 224.615 133.249 224.707 133.287C224.8 133.325 224.877 133.391 224.926 133.476C224.976 133.561 224.996 133.659 224.982 133.756C224.969 133.853 224.923 133.942 224.852 134.011L223.209 135.67C223.124 135.754 223.077 135.866 223.077 135.983C223.077 136.101 223.124 136.213 223.209 136.296L224.852 137.949C224.927 138.016 224.977 138.106 224.994 138.204C225.011 138.302 224.993 138.402 224.944 138.49C224.896 138.577 224.818 138.645 224.725 138.685C224.631 138.724 224.527 138.732 224.429 138.707L222.13 138.143C222.015 138.116 221.893 138.133 221.79 138.192C221.687 138.25 221.611 138.345 221.578 138.456L220.936 140.672C220.91 140.767 220.853 140.85 220.773 140.909C220.694 140.968 220.596 141 220.496 141C220.396 141 220.299 140.968 220.22 140.909C220.14 140.85 220.083 140.767 220.057 140.672L219.415 138.456C219.383 138.345 219.308 138.251 219.207 138.192C219.105 138.134 218.984 138.116 218.869 138.143L216.571 138.707C216.474 138.731 216.371 138.724 216.279 138.686C216.187 138.648 216.11 138.582 216.06 138.497C216.01 138.412 215.991 138.314 216.004 138.217C216.017 138.12 216.063 138.031 216.134 137.962L217.778 136.309C217.862 136.226 217.91 136.113 217.91 135.996C217.91 135.879 217.862 135.766 217.778 135.683L216.134 134.024C216.063 133.955 216.017 133.865 216.004 133.768C215.991 133.672 216.01 133.573 216.06 133.488C216.11 133.404 216.187 133.337 216.279 133.299C216.371 133.261 216.474 133.254 216.571 133.279L218.869 133.842C218.984 133.869 219.105 133.852 219.207 133.793C219.308 133.735 219.383 133.64 219.415 133.529L220.057 131.313C220.085 131.223 220.142 131.145 220.219 131.089C220.296 131.032 220.389 131.001 220.485 131C220.581 130.999 220.676 131.027 220.754 131.081C220.833 131.135 220.892 131.212 220.923 131.301Z" fill="#FCA13D"/>
<path d="M471.489 155.396L472.207 158.062C472.245 158.195 472.33 158.308 472.444 158.377C472.558 158.446 472.693 158.466 472.821 158.434L475.366 157.745C475.473 157.719 475.584 157.729 475.684 157.775C475.784 157.82 475.868 157.899 475.923 157.998C475.978 158.098 476.001 158.213 475.989 158.328C475.977 158.442 475.93 158.549 475.856 158.634L474.028 160.625C473.937 160.725 473.887 160.858 473.887 160.997C473.887 161.135 473.937 161.268 474.028 161.369L475.856 163.359C475.933 163.443 475.982 163.551 475.996 163.667C476.01 163.783 475.987 163.901 475.932 164.002C475.877 164.104 475.791 164.183 475.689 164.229C475.587 164.274 475.474 164.283 475.366 164.255L472.821 163.566C472.693 163.534 472.558 163.554 472.444 163.623C472.33 163.692 472.245 163.805 472.207 163.938L471.489 166.604C471.461 166.717 471.398 166.818 471.31 166.889C471.222 166.961 471.114 167 471.003 167C470.892 167 470.784 166.961 470.696 166.889C470.608 166.818 470.545 166.717 470.517 166.604L469.792 163.938C469.756 163.806 469.672 163.693 469.559 163.624C469.446 163.555 469.313 163.534 469.185 163.566L466.64 164.255C466.532 164.283 466.419 164.274 466.317 164.229C466.215 164.183 466.13 164.104 466.074 164.002C466.019 163.901 465.997 163.783 466.01 163.667C466.024 163.551 466.073 163.443 466.15 163.359L467.978 161.369C468.069 161.268 468.12 161.135 468.12 160.997C468.12 160.858 468.069 160.725 467.978 160.625L466.15 158.634C466.071 158.551 466.019 158.443 466.004 158.326C465.99 158.209 466.012 158.091 466.068 157.989C466.124 157.887 466.211 157.808 466.314 157.764C466.418 157.72 466.533 157.713 466.64 157.745L469.185 158.434C469.313 158.466 469.446 158.445 469.559 158.376C469.672 158.307 469.756 158.194 469.792 158.062L470.517 155.396C470.545 155.283 470.608 155.182 470.696 155.111C470.784 155.039 470.892 155 471.003 155C471.114 155 471.222 155.039 471.31 155.111C471.398 155.182 471.461 155.283 471.489 155.396Z" fill="#D31107"/>
<path d="M404.496 206.576L420.179 209.985C420.294 210.009 420.414 210.004 420.527 209.97C420.64 209.936 420.741 209.874 420.821 209.791C420.901 209.708 420.957 209.606 420.983 209.496C421.009 209.385 421.005 209.27 420.97 209.162L416.234 194.45C416.198 194.343 416.134 194.246 416.047 194.17C415.96 194.094 415.854 194.041 415.739 194.016C415.625 193.991 415.505 193.995 415.393 194.028C415.28 194.061 415.178 194.122 415.098 194.204L404.178 205.513C404.1 205.595 404.045 205.694 404.018 205.802C403.991 205.91 403.994 206.023 404.026 206.13C404.058 206.237 404.118 206.334 404.2 206.412C404.283 206.49 404.384 206.546 404.496 206.576Z" fill="#D31107"/>
<path d="M288.879 39.937L296.641 35.9206C296.739 35.8688 296.824 35.7888 296.886 35.6885C296.949 35.5882 296.987 35.4711 296.997 35.349C297.007 35.2268 296.989 35.1038 296.944 34.9921C296.899 34.8805 296.828 34.7842 296.74 34.7128L289.774 29.1236C289.685 29.0549 289.583 29.0133 289.476 29.0027C289.369 28.9921 289.262 29.0129 289.164 29.0631C289.067 29.1133 288.982 29.1911 288.919 29.2891C288.856 29.387 288.816 29.5017 288.804 29.6221L288.003 39.2348C287.993 39.3572 288.012 39.4803 288.057 39.5918C288.103 39.7034 288.173 39.7995 288.262 39.8706C288.351 39.9416 288.454 39.9852 288.562 39.9968C288.671 40.0085 288.78 39.9879 288.879 39.937Z" fill="#005B8E"/>
<path d="M380.369 118.962L385.222 120.962C385.318 121 385.421 121.01 385.521 120.99C385.621 120.969 385.714 120.92 385.792 120.847C385.87 120.773 385.929 120.678 385.964 120.572C385.999 120.465 386.009 120.349 385.992 120.237L385.123 114.531C385.104 114.42 385.059 114.316 384.994 114.23C384.929 114.144 384.845 114.079 384.75 114.04C384.656 114.001 384.554 113.99 384.455 114.009C384.355 114.027 384.262 114.074 384.184 114.145L380.211 117.851C380.133 117.924 380.073 118.017 380.038 118.124C380.002 118.23 379.991 118.345 380.007 118.457C380.023 118.569 380.065 118.675 380.128 118.763C380.192 118.852 380.274 118.92 380.369 118.962Z" fill="#FCA13D"/>
<path d="M293.171 76.0588C293.585 76.6849 293.852 77.3927 293.954 78.1317C294.055 78.8707 293.989 79.6225 293.759 80.3333C293.303 81.8857 292.255 83.2076 290.832 84.0261C290.328 84.3345 289.781 84.57 289.208 84.7255C288.613 84.8947 287.997 84.987 287.377 85C286.235 83.4967 285.219 82.1046 284.317 80.817C283.415 79.5294 282.513 78.2026 281.644 76.8105C281.223 76.1569 280.895 75.6405 280.668 75.2876C280.441 74.9346 280.227 74.5948 280 74.268C280.4 73.6489 280.868 73.0747 281.397 72.5556C281.92 72.0301 282.503 71.5652 283.134 71.1699C284.158 70.4557 285.372 70.0491 286.629 70C287.109 70.007 287.579 70.136 287.992 70.3743C288.406 70.6127 288.749 70.9522 288.988 71.3595C289.335 71.8766 289.525 72.4795 289.536 73.098C289.538 73.7478 289.375 74.3879 289.061 74.9608C289.829 74.6667 290.67 74.6075 291.473 74.7908C292.188 74.9776 292.798 75.4334 293.171 76.0588ZM288.881 82.7124C289.107 82.6964 289.331 82.657 289.549 82.5948C289.746 82.5338 289.935 82.4481 290.11 82.3399C290.45 82.1315 290.739 81.8535 290.958 81.5251C291.178 81.1968 291.321 80.8259 291.38 80.4379C291.543 79.6508 291.393 78.8322 290.959 78.1503C290.824 77.9019 290.634 77.6861 290.403 77.5188C290.171 77.3514 289.905 77.2367 289.622 77.183C288.991 77.1279 288.36 77.3024 287.852 77.6732C287.591 77.837 287.347 78.0253 287.123 78.2353C286.874 78.4665 286.637 78.7109 286.415 78.9673L286.849 79.6209C286.996 79.8431 287.137 80.0654 287.277 80.2745C287.564 80.7189 287.832 81.1373 288.099 81.5294C288.366 81.9216 288.607 82.3399 288.881 82.7124ZM286.696 73.2484C286.57 73.021 286.392 72.825 286.177 72.6754C285.961 72.5258 285.714 72.4266 285.453 72.3856C284.855 72.3402 284.26 72.5047 283.775 72.8497C283.671 72.9161 283.571 72.9881 283.475 73.0654L283.134 73.3595C283.428 73.9216 283.749 74.5098 284.103 75.1307C284.457 75.7516 284.878 76.4379 285.373 77.2941C286.103 76.7722 286.67 76.0615 287.01 75.2418C287.116 74.908 287.142 74.555 287.088 74.2096C287.034 73.8642 286.899 73.5355 286.696 73.2484Z" fill="#D31107"/>
<path d="M444.642 180.433C445.238 180.459 445.828 180.563 446.395 180.742C446.886 180.884 447.344 181.117 447.742 181.427C447.641 182.31 447.346 183.161 446.876 183.926C446.407 184.69 445.773 185.349 445.018 185.86C444.263 186.371 443.404 186.722 442.497 186.888C441.59 187.055 440.657 187.035 439.759 186.828C438.811 186.748 437.896 186.46 437.084 185.984C436.271 185.509 435.584 184.859 435.075 184.087C434.092 182.547 433.783 180.513 434.149 177.986C434.436 175.149 435.689 172.482 437.713 170.399C438.548 169.512 439.598 168.836 440.769 168.431C441.94 168.026 443.196 167.904 444.428 168.075C445.146 168.132 445.843 168.34 446.468 168.686C447.093 169.032 447.63 169.507 448.042 170.077C448.862 171.439 449.169 173.032 448.911 174.587C448.286 174.788 447.637 174.915 446.98 174.964C446.299 174.99 445.618 174.944 444.948 174.827C445.2 173.797 445.2 172.724 444.948 171.694C444.85 171.367 444.653 171.075 444.381 170.856C444.109 170.638 443.775 170.502 443.423 170.467C442.425 170.33 441.469 170.954 440.571 172.318C439.571 173.944 438.946 175.758 438.739 177.637C438.421 179.229 438.481 180.869 438.918 182.435C439.044 182.934 439.322 183.387 439.717 183.733C440.112 184.08 440.605 184.306 441.134 184.381C441.586 184.465 442.052 184.429 442.483 184.278C442.915 184.127 443.296 183.867 443.587 183.525C444.273 182.629 444.643 181.546 444.642 180.433Z" fill="#005B8E"/>
<path d="M355.708 166.742C355.28 166.887 354.835 166.971 354.385 166.994C353.802 167.013 353.218 166.987 352.639 166.914C352.777 165.84 352.883 164.839 352.949 163.891C353.016 162.943 353.062 162.048 353.075 161.192C352.248 160.98 351.448 160.801 350.694 160.655C349.94 160.509 349.206 160.39 348.518 160.31C348.075 160.934 347.651 161.511 347.248 162.034C346.844 162.558 346.441 163.042 346.037 163.486C345.588 163.282 345.173 163.009 344.807 162.677C344.47 162.386 344.196 162.03 344 161.63C345.496 160.038 346.882 158.346 348.147 156.564C349.601 154.452 350.937 152.26 352.149 150C352.639 150.139 353.082 150.285 353.472 150.431C353.892 150.591 354.303 150.775 354.702 150.981C355.353 153.365 355.761 155.809 355.919 158.275C356.076 161.098 356.005 163.93 355.708 166.742ZM352.539 153.687C352.076 154.549 351.607 155.384 351.137 156.193C350.667 157.002 350.198 157.771 349.722 158.494C350.33 158.567 350.912 158.653 351.461 158.746C352.01 158.838 352.539 158.945 353.055 159.057C353.055 158.096 352.969 157.168 352.883 156.272C352.797 155.377 352.685 154.495 352.539 153.687Z" fill="#FCA13D"/>
<path d="M370 132.835L367.447 131.053C367.405 131.024 367.357 131.006 367.306 131.001C367.256 130.996 367.206 131.004 367.159 131.024C367.112 131.044 367.071 131.075 367.038 131.116C367.006 131.156 366.983 131.204 366.972 131.255L364 147L370 132.835Z" fill="#0086C9"/>
<path d="M366.296 135.081L364 147L370 133.102L369.844 133C369.03 133.692 367.597 134.793 366.296 135.081Z" fill="#0D71AB"/>
<path d="M372.327 128.227L364 147L377 131L372.954 128.08C372.905 128.045 372.848 128.02 372.788 128.008C372.728 127.996 372.666 127.997 372.607 128.011C372.547 128.025 372.491 128.052 372.443 128.089C372.395 128.126 372.355 128.173 372.327 128.227Z" fill="#DBD0CA"/>
<path d="M372.068 128.321L363.812 147.178L376.68 131.135L372.669 128.201C372.573 128.137 372.456 128.114 372.344 128.136C372.231 128.159 372.132 128.225 372.068 128.321Z" fill="black"/>
<path d="M373.166 127.184L358.675 152.233L358.918 152.373L373.409 127.325L373.166 127.184Z" fill="#2F8ED7"/>
<path d="M375.091 127.15L360.622 152.326L360.866 152.466L375.335 127.29L375.091 127.15Z" fill="#2F8ED7"/>
<path d="M376.098 128.883L361.607 153.932L361.85 154.072L376.341 129.024L376.098 128.883Z" fill="#2F8ED7"/>
<path d="M377.563 129.722L363.085 154.779L363.329 154.919L377.806 129.863L377.563 129.722Z" fill="#2F8ED7"/>
<path d="M379.024 130.559L364.538 155.61L364.781 155.75L379.267 130.699L379.024 130.559Z" fill="#2F8ED7"/>
<path d="M380.505 131.425L366.014 156.474L366.257 156.614L380.748 131.566L380.505 131.425Z" fill="#2F8ED7"/>
<path d="M382.405 131.292L367.936 156.468L368.18 156.608L382.649 131.432L382.405 131.292Z" fill="#2F8ED7"/>
<path d="M383.439 133.134L368.948 158.183L369.191 158.323L383.682 133.275L383.439 133.134Z" fill="#2F8ED7"/>
<path d="M385.339 132.976L370.87 158.152L371.114 158.292L385.583 133.116L385.339 132.976Z" fill="#2F8ED7"/>
<path d="M386.37 134.822L371.884 159.873L372.127 160.013L386.613 134.962L386.37 134.822Z" fill="#2F8ED7"/>
<path d="M371.661 127.289L371.52 127.532L387.659 136.865L387.8 136.622L371.661 127.289Z" fill="#2F8ED7"/>
<path d="M370.786 128.8L370.646 129.043L386.785 138.376L386.925 138.133L370.786 128.8Z" fill="#2F8ED7"/>
<path d="M369.921 130.308L369.78 130.551L385.92 139.885L386.06 139.641L369.921 130.308Z" fill="#2F8ED7"/>
<path d="M369.043 131.814L368.902 132.057L385.042 141.39L385.182 141.147L369.043 131.814Z" fill="#2F8ED7"/>
<path d="M368.547 132.411L368.407 132.656L384.627 141.978L384.767 141.733L368.547 132.411Z" fill="#2F8ED7"/>
<path d="M367.303 134.83L367.162 135.073L383.301 144.406L383.442 144.163L367.303 134.83Z" fill="#2F8ED7"/>
<path d="M366.428 136.341L366.288 136.584L382.427 145.917L382.568 145.674L366.428 136.341Z" fill="#2F8ED7"/>
<path d="M365.557 137.849L365.416 138.092L381.555 147.426L381.696 147.183L365.557 137.849Z" fill="#2F8ED7"/>
<path d="M364.682 139.36L364.542 139.603L380.681 148.937L380.821 148.694L364.682 139.36Z" fill="#2F8ED7"/>
<path d="M363.81 140.862L363.669 141.105L379.809 150.438L379.949 150.195L363.81 140.862Z" fill="#2F8ED7"/>
<path d="M362.945 142.371L362.804 142.614L378.944 151.947L379.084 151.704L362.945 142.371Z" fill="#2F8ED7"/>
<path d="M362.071 143.882L361.93 144.125L378.07 153.458L378.21 153.215L362.071 143.882Z" fill="#2F8ED7"/>
<path d="M361.198 145.384L361.058 145.627L377.197 154.96L377.338 154.717L361.198 145.384Z" fill="#2F8ED7"/>
<path d="M360.324 146.895L360.184 147.138L376.323 156.471L376.464 156.228L360.324 146.895Z" fill="#2F8ED7"/>
<path d="M359.452 148.403L359.312 148.646L375.451 157.98L375.591 157.736L359.452 148.403Z" fill="#2F8ED7"/>
<path d="M358.583 149.918L358.443 150.161L374.582 159.494L374.723 159.251L358.583 149.918Z" fill="#2F8ED7"/>
<path d="M357.706 151.416L357.565 151.659L373.705 160.992L373.845 160.749L357.706 151.416Z" fill="#2F8ED7"/>
<path d="M374.823 129.183L364 147L379 132.342L375.433 129.104C375.389 129.065 375.338 129.036 375.282 129.018C375.227 129.001 375.168 128.996 375.111 129.003C375.053 129.011 374.998 129.031 374.948 129.062C374.899 129.093 374.856 129.134 374.823 129.183Z" fill="#E8DDD6"/>
<path d="M375.089 129.036L363.825 147.212L379.421 132.258L375.711 128.963C375.666 128.925 375.614 128.896 375.557 128.879C375.501 128.862 375.442 128.857 375.384 128.864C375.325 128.871 375.269 128.89 375.218 128.919C375.168 128.949 375.124 128.989 375.089 129.036Z" fill="black"/>
<path d="M376.313 128.017L359.525 151.588L359.754 151.751L376.542 128.18L376.313 128.017Z" fill="#2F8ED7"/>
<path d="M377.695 128.998L360.907 152.568L361.136 152.731L377.924 129.161L377.695 128.998Z" fill="#2F8ED7"/>
<path d="M379.059 129.968L362.275 153.541L362.504 153.704L379.288 130.131L379.059 129.968Z" fill="#2F8ED7"/>
<path d="M380.451 130.96L363.663 154.531L363.892 154.694L380.68 131.123L380.451 130.96Z" fill="#2F8ED7"/>
<path d="M381.827 131.947L365.043 155.521L365.272 155.683L382.056 132.11L381.827 131.947Z" fill="#2F8ED7"/>
<path d="M383.202 132.914L366.418 156.487L366.647 156.65L383.431 133.077L383.202 132.914Z" fill="#2F8ED7"/>
<path d="M383.979 134.874L367.195 158.313L367.423 158.476L384.207 135.036L383.979 134.874Z" fill="#2F8ED7"/>
<path d="M385.96 134.885L369.176 158.459L369.405 158.621L386.188 135.048L385.96 134.885Z" fill="#2F8ED7"/>
<path d="M386.731 136.852L369.947 160.292L370.175 160.455L386.959 137.015L386.731 136.852Z" fill="#2F8ED7"/>
<path d="M388.727 136.858L371.943 160.431L372.172 160.594L388.956 137.02L388.727 136.858Z" fill="#2F8ED7"/>
<path d="M374.799 127.968L374.636 128.197L389.823 139.01L389.986 138.781L374.799 127.968Z" fill="#2F8ED7"/>
<path d="M373.779 129.39L373.616 129.619L388.804 140.432L388.967 140.203L373.779 129.39Z" fill="#2F8ED7"/>
<path d="M372.776 130.811L372.613 131.04L387.801 141.853L387.964 141.624L372.776 130.811Z" fill="#2F8ED7"/>
<path d="M371.768 132.228L371.605 132.457L386.793 143.27L386.955 143.041L371.768 132.228Z" fill="#2F8ED7"/>
<path d="M370.752 133.645L370.589 133.874L385.777 144.687L385.94 144.458L370.752 133.645Z" fill="#2F8ED7"/>
<path d="M369.744 135.062L369.581 135.29L384.769 146.104L384.931 145.875L369.744 135.062Z" fill="#2F8ED7"/>
<path d="M368.734 136.489L368.571 136.718L383.759 147.531L383.922 147.302L368.734 136.489Z" fill="#2F8ED7"/>
<path d="M367.725 137.906L367.562 138.135L382.75 148.948L382.913 148.719L367.725 137.906Z" fill="#2F8ED7"/>
<path d="M366.713 139.329L366.55 139.557L381.738 150.37L381.901 150.142L366.713 139.329Z" fill="#2F8ED7"/>
<path d="M365.703 140.749L365.54 140.978L380.728 151.791L380.89 151.563L365.703 140.749Z" fill="#2F8ED7"/>
<path d="M364.695 142.166L364.532 142.395L379.719 153.208L379.882 152.979L364.695 142.166Z" fill="#2F8ED7"/>
<path d="M363.679 143.583L363.516 143.812L378.704 154.625L378.866 154.396L363.679 143.583Z" fill="#2F8ED7"/>
<path d="M362.671 145L362.508 145.229L377.695 156.042L377.858 155.813L362.671 145Z" fill="#2F8ED7"/>
<path d="M361.661 146.421L361.498 146.65L376.686 157.463L376.848 157.234L361.661 146.421Z" fill="#2F8ED7"/>
<path d="M360.653 147.838L360.49 148.067L375.677 158.88L375.84 158.651L360.653 147.838Z" fill="#2F8ED7"/>
<path d="M359.644 149.255L359.481 149.484L374.668 160.297L374.831 160.068L359.644 149.255Z" fill="#2F8ED7"/>
<path d="M358.63 150.681L358.467 150.91L373.655 161.723L373.818 161.494L358.63 150.681Z" fill="#2F8ED7"/>
<path d="M377.929 130.149L364 147L382 133.776L378.573 130.143C378.532 130.097 378.482 130.061 378.427 130.036C378.371 130.012 378.31 129.999 378.25 130C378.189 130.001 378.129 130.014 378.073 130.04C378.018 130.066 377.969 130.103 377.929 130.149Z" fill="#F8EEE7"/>
<path d="M377.696 130.473L363.812 147.185L381.754 134.063L378.338 130.46C378.296 130.416 378.246 130.382 378.19 130.358C378.134 130.335 378.074 130.324 378.014 130.325C377.954 130.326 377.894 130.34 377.84 130.366C377.785 130.391 377.736 130.428 377.696 130.473Z" fill="black"/>
<path d="M379.007 129.56L360.244 151.591L360.458 151.773L379.221 129.742L379.007 129.56Z" fill="#2F8ED7"/>
<path d="M380.292 130.653L361.536 152.69L361.75 152.872L380.505 130.835L380.292 130.653Z" fill="#2F8ED7"/>
<path d="M381.586 131.756L362.823 153.787L363.036 153.969L381.8 131.938L381.586 131.756Z" fill="#2F8ED7"/>
<path d="M382.876 132.848L364.117 154.882L364.33 155.064L383.09 133.03L382.876 132.848Z" fill="#2F8ED7"/>
<path d="M384.166 133.946L365.407 155.98L365.621 156.162L384.38 134.128L384.166 133.946Z" fill="#2F8ED7"/>
<path d="M385.456 135.046L366.693 157.077L366.907 157.259L385.67 135.228L385.456 135.046Z" fill="#2F8ED7"/>
<path d="M386.745 136.14L367.99 158.177L368.204 158.359L386.959 136.322L386.745 136.14Z" fill="#2F8ED7"/>
<path d="M388.031 137.245L369.271 159.279L369.485 159.461L388.245 137.427L388.031 137.245Z" fill="#2F8ED7"/>
<path d="M389.314 138.342L370.559 160.379L370.772 160.561L389.528 138.524L389.314 138.342Z" fill="#2F8ED7"/>
<path d="M390.604 139.436L371.845 161.47L372.059 161.652L390.818 139.618L390.604 139.436Z" fill="#2F8ED7"/>
<path d="M377.505 129.381L377.323 129.594L391.519 141.68L391.701 141.466L377.505 129.381Z" fill="#2F8ED7"/>
<path d="M376.37 130.711L376.188 130.925L390.384 143.011L390.566 142.797L376.37 130.711Z" fill="#2F8ED7"/>
<path d="M375.246 132.039L375.064 132.253L389.26 144.339L389.442 144.125L375.246 132.039Z" fill="#2F8ED7"/>
<path d="M374.112 133.363L373.93 133.577L388.125 145.663L388.307 145.449L374.112 133.363Z" fill="#2F8ED7"/>
<path d="M372.983 134.687L372.801 134.901L386.997 146.986L387.179 146.773L372.983 134.687Z" fill="#2F8ED7"/>
<path d="M371.853 136.015L371.671 136.229L385.867 148.315L386.049 148.101L371.853 136.015Z" fill="#2F8ED7"/>
<path d="M370.725 137.339L370.543 137.553L384.739 149.638L384.921 149.425L370.725 137.339Z" fill="#2F8ED7"/>
<path d="M369.596 138.674L369.414 138.887L383.609 150.973L383.791 150.759L369.596 138.674Z" fill="#2F8ED7"/>
<path d="M368.467 139.997L368.285 140.211L382.481 152.297L382.663 152.083L368.467 139.997Z" fill="#2F8ED7"/>
<path d="M367.337 141.326L367.155 141.539L381.351 153.625L381.533 153.411L367.337 141.326Z" fill="#2F8ED7"/>
<path d="M366.209 142.649L366.027 142.863L380.223 154.949L380.405 154.735L366.209 142.649Z" fill="#2F8ED7"/>
<path d="M365.074 143.973L364.892 144.187L379.087 156.273L379.269 156.059L365.074 143.973Z" fill="#2F8ED7"/>
<path d="M363.951 145.308L363.769 145.522L377.964 157.608L378.146 157.394L363.951 145.308Z" fill="#2F8ED7"/>
<path d="M362.82 146.627L362.638 146.84L376.833 158.926L377.015 158.712L362.82 146.627Z" fill="#2F8ED7"/>
<path d="M361.697 147.955L361.515 148.169L375.71 160.254L375.892 160.041L361.697 147.955Z" fill="#2F8ED7"/>
<path d="M360.561 149.279L360.379 149.492L374.575 161.578L374.757 161.364L360.561 149.279Z" fill="#2F8ED7"/>
<path d="M359.433 150.602L359.251 150.816L373.447 162.902L373.629 162.688L359.433 150.602Z" fill="#2F8ED7"/>
<path d="M381.402 132.481L403.783 155.408C403.943 155.573 404.07 155.767 404.156 155.981C404.241 156.194 404.284 156.423 404.281 156.653C404.278 156.883 404.23 157.11 404.139 157.321C404.049 157.533 403.918 157.724 403.753 157.885L388.633 172.645L363.805 147.212L378.925 132.451C379.09 132.291 379.284 132.164 379.498 132.079C379.711 131.993 379.94 131.951 380.169 131.953C380.399 131.956 380.627 132.004 380.838 132.095C381.049 132.185 381.241 132.317 381.402 132.481Z" fill="#E13F4E"/>
<path d="M381.426 132.59L403.807 155.517C404.132 155.85 404.311 156.297 404.305 156.762C404.3 157.226 404.11 157.669 403.778 157.994L388.657 172.754L363.834 147.326L378.954 132.565C379.286 132.242 379.732 132.063 380.195 132.067C380.659 132.072 381.101 132.26 381.426 132.59Z" fill="#2F8ED7"/>
<path d="M393 168.882C387.598 167.721 381.428 163.589 376.493 157.264C372.594 152.261 370.183 146.82 369.415 142L364 147.347L388.8 173L393 168.882Z" fill="#0D71AB"/>
<path d="M399.254 157.712L397.386 159.342C396.91 159.756 396.26 159.993 395.579 160C394.898 160.007 394.242 159.784 393.754 159.379C393.272 158.969 393.001 158.413 393 157.833C392.999 157.253 393.267 156.696 393.747 156.284L395.614 154.661C395.85 154.455 396.13 154.291 396.441 154.177C396.751 154.064 397.084 154.004 397.421 154C397.759 153.997 398.094 154.05 398.407 154.157C398.72 154.264 399.005 154.422 399.247 154.623C399.728 155.032 399.999 155.587 400 156.167C400.001 156.746 399.733 157.302 399.254 157.712Z" fill="#F8EEE7"/>
<path d="M397.975 154.127L393.163 157.979C393.145 157.992 393.121 158 393.095 158C393.07 158 393.046 157.992 393.028 157.979C393.01 157.964 393 157.944 393 157.923C393 157.902 393.01 157.883 393.028 157.867L397.84 154.021C397.858 154.008 397.883 154 397.908 154C397.933 154 397.957 154.008 397.975 154.021C397.991 154.036 398 154.055 398 154.074C398 154.093 397.991 154.112 397.975 154.127Z" fill="#2F8ED7"/>
<path d="M398.973 155.127L394.169 158.978C394.15 158.992 394.125 159 394.098 159C394.072 159 394.047 158.992 394.027 158.978C394.01 158.964 394 158.945 394 158.925C394 158.906 394.01 158.887 394.027 158.873L398.831 155.022C398.85 155.008 398.875 155 398.902 155C398.928 155 398.953 155.008 398.973 155.022C398.99 155.036 399 155.055 399 155.075C399 155.094 398.99 155.113 398.973 155.127Z" fill="#2F8ED7"/>
<path d="M399.969 156.118L395.17 159.976C395.152 159.991 395.127 159.999 395.101 160C395.075 160.001 395.05 159.993 395.031 159.979C395.012 159.965 395.001 159.946 395 159.925C394.999 159.905 395.009 159.885 395.027 159.87L399.849 156.013C399.868 156.003 399.89 155.999 399.912 156C399.935 156.002 399.956 156.01 399.971 156.022C399.987 156.035 399.997 156.051 399.999 156.069C400.002 156.086 399.996 156.104 399.984 156.118H399.969Z" fill="#2F8ED7"/>
<path d="M399.239 157.746L397.387 159.344C396.913 159.757 396.267 159.993 395.589 160C394.911 160.007 394.258 159.785 393.772 159.382C393.532 159.181 393.34 158.942 393.207 158.678C393.075 158.415 393.004 158.131 393 157.844C392.996 157.557 393.058 157.273 393.183 157.006C393.308 156.74 393.494 156.497 393.729 156.292L395.58 154.675C395.815 154.465 396.098 154.297 396.41 154.181C396.723 154.065 397.059 154.004 397.4 154C397.741 153.997 398.079 154.051 398.395 154.161C398.71 154.27 398.997 154.432 399.239 154.637C399.48 154.841 399.671 155.083 399.802 155.349C399.933 155.616 400 155.902 400 156.192C400 156.481 399.933 156.767 399.802 157.034C399.671 157.301 399.48 157.543 399.239 157.746Z" fill="#F8EEE7"/>
<path d="M397.973 154.129L393.172 157.977C393.162 157.984 393.151 157.99 393.139 157.994C393.127 157.998 393.114 158 393.101 158C393.087 158 393.074 157.998 393.062 157.994C393.05 157.99 393.039 157.984 393.029 157.977C393.02 157.97 393.013 157.961 393.008 157.951C393.003 157.942 393 157.932 393 157.921C393 157.911 393.003 157.901 393.008 157.891C393.013 157.882 393.02 157.873 393.029 157.866L397.831 154.024C397.84 154.017 397.85 154.011 397.862 154.007C397.874 154.003 397.886 154 397.899 154C397.912 154 397.925 154.001 397.937 154.005C397.949 154.009 397.96 154.014 397.969 154.021C397.979 154.028 397.986 154.036 397.991 154.045C397.997 154.055 398 154.064 398 154.074C398 154.084 397.998 154.095 397.994 154.104C397.989 154.113 397.982 154.122 397.973 154.129Z" fill="#2F8ED7"/>
<path d="M398.956 155.139L394.178 158.966C394.17 158.975 394.16 158.983 394.147 158.989C394.135 158.995 394.121 158.998 394.107 159C394.092 159.001 394.078 158.999 394.064 158.996C394.051 158.992 394.039 158.986 394.028 158.978C394.018 158.97 394.01 158.96 394.006 158.95C394.001 158.939 393.999 158.928 394.001 158.917C394.002 158.905 394.007 158.895 394.014 158.885C394.022 158.875 394.032 158.867 394.044 158.861L398.822 155.034C398.83 155.025 398.84 155.017 398.853 155.011C398.865 155.005 398.879 155.002 398.893 155C398.908 154.999 398.922 155.001 398.936 155.004C398.949 155.008 398.961 155.014 398.972 155.022C398.982 155.03 398.99 155.04 398.994 155.05C398.999 155.061 399.001 155.072 398.999 155.083C398.998 155.095 398.993 155.105 398.986 155.115C398.978 155.125 398.968 155.133 398.956 155.139Z" fill="#2F8ED7"/>
<path d="M399.98 156.127L395.169 159.978C395.15 159.992 395.124 160 395.098 160C395.072 160 395.046 159.992 395.027 159.978C395.01 159.964 395 159.945 395 159.925C395 159.906 395.01 159.887 395.027 159.873L399.822 156.022C399.842 156.008 399.867 156 399.894 156C399.92 156 399.945 156.008 399.965 156.022C399.984 156.034 399.997 156.052 399.999 156.072C400.002 156.092 399.995 156.112 399.98 156.127Z" fill="#2F8ED7"/>
<path d="M392.815 154.866C394.978 152.866 393.307 147.539 389.081 142.969C384.856 138.398 379.677 136.314 377.514 138.313C375.35 140.313 377.022 145.64 381.247 150.211C385.472 154.781 390.651 156.865 392.815 154.866Z" fill="white"/>
<path d="M477 121.169L479.708 128L490.183 120.329L500 103L477 121.169Z" fill="#EEEAE6"/>
<path d="M495.547 106.408C497.684 109.646 482.063 122.228 478 125.418L479.055 128L489.867 120.329L500 103L495.547 106.408Z" fill="#41383E"/>
<path d="M484 124.109L481.175 123C481.275 123.334 481.347 123.683 481.389 124.04C481.501 125.06 481.364 126.102 481 127L484 124.109Z" fill="#41383E"/>
<path d="M500 103L468 116.304L476.563 121L500 103Z" fill="#F2F2F2"/>
<path d="M500 103L480 123.381L490.678 129L500 103Z" fill="white"/>
<path d="M500 103L492 111.276C493.736 110.138 495.317 109.359 495.929 109.752C496.542 110.145 496.602 111.469 496.468 113L500 103Z" fill="#41383E"/>
<path d="M488.684 112L500 103L487 108.593C489.217 108.055 490.947 107.776 491.296 108.048C491.645 108.321 490.493 109.956 488.684 112Z" fill="#41383E"/>
<path d="M488.085 139.985C487.215 139.967 486.362 139.739 485.595 139.321C484.829 138.903 484.171 138.306 483.676 137.579C483.341 137.04 483.11 136.441 482.997 135.814C482.686 135.722 482.381 135.606 482.087 135.469C481.448 135.209 480.868 134.821 480.38 134.328C479.892 133.835 479.507 133.248 479.247 132.601C478.874 131.474 478.925 130.246 479.389 129.154C479.42 129.089 479.475 129.039 479.542 129.015C479.609 128.992 479.682 128.996 479.746 129.027C479.81 129.058 479.859 129.113 479.883 129.181C479.906 129.249 479.902 129.324 479.872 129.389C479.804 129.533 478.255 133.029 482.318 134.966C482.514 135.062 482.716 135.145 482.922 135.214C482.858 134.431 482.979 133.644 483.275 132.918C483.607 132.102 484.127 131.379 484.791 130.809C485.456 130.239 486.245 129.84 487.094 129.644C487.698 129.504 488.327 129.524 488.922 129.701C489.517 129.879 490.057 130.208 490.49 130.657C491.17 131.347 491.17 132.332 490.49 133.318C489.356 134.959 486.414 136.469 483.568 135.945C483.685 136.417 483.878 136.866 484.138 137.276C484.631 137.98 485.289 138.549 486.053 138.929C486.817 139.31 487.663 139.49 488.513 139.454C488.577 139.465 488.635 139.498 488.677 139.548C488.719 139.597 488.742 139.661 488.742 139.727C488.742 139.792 488.719 139.856 488.677 139.906C488.635 139.955 488.577 139.989 488.513 139.999C488.371 140.002 488.228 139.998 488.085 139.985ZM483.445 135.373C486.102 135.952 488.982 134.525 490.035 133.015C490.29 132.75 490.435 132.395 490.44 132.024C490.445 131.654 490.31 131.295 490.062 131.023C489.69 130.64 489.227 130.361 488.718 130.21C488.21 130.059 487.672 130.042 487.155 130.161C486.392 130.338 485.682 130.699 485.085 131.212C484.488 131.726 484.021 132.377 483.724 133.111C483.443 133.829 483.347 134.607 483.445 135.373Z" fill="#2F8ED7"/>
<path d="M241.815 140.958L236.732 145.711L250.754 160.705L255.837 155.952L241.815 140.958Z" fill="#FDA740"/>
<path d="M238.062 145.54L237.393 146.165L250.935 160.647L251.604 160.021L238.062 145.54Z" fill="#FA9F3E"/>
<path d="M238.886 144.771L238.217 145.397L251.759 159.878L252.428 159.253L238.886 144.771Z" fill="#FA9F3E"/>
<path d="M239.71 143.989L239.042 144.614L252.584 159.096L253.253 158.47L239.71 143.989Z" fill="#FA9F3E"/>
<path d="M240.528 143.24L239.859 143.866L253.401 158.347L254.07 157.722L240.528 143.24Z" fill="#FA9F3E"/>
<path d="M240.936 142.631L240.268 143.254L253.75 157.728L254.418 157.105L240.936 142.631Z" fill="#FA9F3E"/>
<path d="M242.17 141.688L241.501 142.314L255.046 156.793L255.715 156.168L242.17 141.688Z" fill="#FA9F3E"/>
<path d="M254.939 156.961C254.939 156.961 253.663 156.788 253.868 157.932C253.868 157.932 252.63 157.691 252.834 158.872C252.655 158.81 251.647 158.507 251.922 159.7C251.775 159.7 250.716 159.583 251.073 160.467L257 162L255.922 156.071C255.922 156.071 254.92 155.626 254.939 156.961Z" fill="#EAB964"/>
<path d="M254 161.222C254.678 160.348 255.509 159.596 256.454 159L257 162L254 161.222Z" fill="#41383E"/>
<path d="M235.451 140.706L236.916 139.337C237.397 138.894 238.034 138.659 238.688 138.683C239.342 138.708 239.96 138.99 240.406 139.468L242.845 142.075L237.772 146.819L235.334 144.212C234.884 143.731 234.644 143.092 234.666 142.435C234.688 141.777 234.971 141.156 235.451 140.706Z" fill="#ED6B54"/>
<path d="M237.962 139.05C238.147 139.256 237.638 140.074 236.844 140.875C236.05 141.676 235.222 142.158 235.038 141.952C234.853 141.746 235.362 140.922 236.156 140.121C236.95 139.321 237.778 138.838 237.962 139.05Z" fill="white"/>
<path d="M238.459 139C238.459 139 239.39 139.309 236.849 141.426C234.308 143.543 234 142.688 234 142.688C234.008 143.067 234.149 143.433 234.404 143.737L236.795 146L239.342 143.889L239.432 143.81L242 141.717L239.61 139.455C239.291 139.198 238.888 139.039 238.459 139Z" fill="#E04C38"/>
<path d="M241.811 140.95L236.728 145.703L238.235 147.314L243.317 142.561L241.811 140.95Z" fill="#D2CECD"/>
<path d="M244.886 148.914C246.659 151.041 247.477 153.255 246.715 153.852C245.953 154.449 243.888 153.181 242.114 151.088C240.341 148.995 239.523 146.747 240.285 146.15C241.047 145.553 243.112 146.794 244.886 148.914Z" fill="white"/>
<path d="M257.785 171.163C257.668 171 257.592 170.807 257.564 170.602C257.535 170.397 257.556 170.187 257.623 169.994C258.058 168.853 260.277 168.567 263.611 168.296C264.999 168.182 266.894 168.018 267.212 167.726C267.227 167.66 267.229 167.591 267.216 167.524C267.204 167.458 267.178 167.395 267.14 167.341C266.959 167.048 266.018 166.071 261.516 165.758C257.201 165.451 256.111 163.739 256.066 163.668C256.008 163.574 255.987 163.458 256.007 163.346C256.027 163.234 256.087 163.136 256.173 163.073C256.259 163.009 256.365 162.986 256.466 163.008C256.568 163.03 256.657 163.096 256.715 163.19C256.715 163.226 257.733 164.617 261.581 164.916C263.961 165.087 266.972 165.558 267.783 166.863C267.888 167.03 267.958 167.222 267.986 167.424C268.014 167.625 268 167.831 267.945 168.025C267.731 168.739 266.407 168.917 263.683 169.145C261.795 169.302 258.629 169.573 258.343 170.329C258.285 170.479 258.441 170.721 258.544 170.85C260.692 173.659 265.506 174.151 265.551 174.159C265.604 174.158 265.657 174.169 265.707 174.192C265.756 174.215 265.8 174.25 265.836 174.293C265.873 174.336 265.9 174.387 265.918 174.442C265.935 174.498 265.942 174.557 265.937 174.615C265.933 174.674 265.917 174.73 265.891 174.782C265.866 174.833 265.83 174.878 265.788 174.914C265.745 174.95 265.697 174.975 265.645 174.989C265.593 175.002 265.539 175.004 265.486 174.993C265.278 174.993 260.296 174.472 257.954 171.392C257.893 171.319 257.837 171.243 257.785 171.163Z" fill="#41383E"/>
<path d="M291.083 144.016C301.844 143.661 310.762 149.283 310.996 156.557C311.109 160.171 309.065 163.517 305.652 166.013C305.605 166.602 305.505 169.419 307.656 170.363C307.721 170.394 307.773 170.447 307.806 170.511C307.838 170.576 307.848 170.649 307.834 170.72C307.821 170.792 307.784 170.856 307.73 170.904C307.676 170.952 307.607 170.98 307.535 170.985C305.758 171.086 303.2 170.724 301.771 168.215C298.651 169.549 295.308 170.28 291.918 170.37C281.156 170.718 272.238 165.103 272.005 157.822C271.771 150.541 280.295 144.377 291.083 144.016Z" fill="#6754E9"/>
<path d="M327.948 36.0164C316.627 35.6502 307.254 41.4754 307.005 49.0116C306.884 52.7597 309.028 56.2282 312.628 58.8113C312.676 59.4238 312.784 62.3464 310.498 63.3184C310.413 63.3399 310.34 63.3924 310.293 63.4653C310.246 63.5381 310.229 63.6258 310.246 63.7106C310.262 63.7953 310.31 63.8708 310.381 63.9216C310.452 63.9724 310.539 63.9947 310.626 63.9841C312.494 64.0906 315.184 63.7178 316.694 61.1148C319.975 62.4997 323.492 63.2565 327.058 63.345C338.373 63.7112 347.745 57.8859 347.995 50.3498C348.244 42.8136 339.263 36.3759 327.948 36.0164Z" fill="#CB45ED"/>
<path d="M468.462 62.0171C456.864 61.6364 447.259 67.6673 447.005 75.4881C446.878 79.3684 449.085 82.9616 452.764 85.6398C452.811 86.2676 452.924 89.2997 450.583 90.3149C450.51 90.3455 450.449 90.4005 450.411 90.4707C450.373 90.5409 450.361 90.622 450.375 90.7003C450.39 90.7787 450.432 90.8495 450.493 90.9009C450.554 90.9524 450.631 90.9813 450.711 90.9827C452.623 91.0963 455.392 90.7089 456.924 88.0107C460.285 89.4424 463.886 90.2264 467.539 90.3216C479.136 90.7022 488.741 84.6647 488.995 76.8505C489.249 69.0364 480.053 62.3911 468.462 62.0171Z" fill="#423F6B"/>
<path d="M246.244 121.392C253.424 117.878 259.016 111.745 261.888 104.231C264.761 96.718 264.701 88.3842 261.72 80.9139C258.739 73.4436 253.059 67.3935 245.828 63.9859C238.598 60.5783 230.355 60.0673 222.765 62.556C215.176 65.0448 208.805 70.3478 204.94 77.3937C201.076 84.4396 200.005 92.7032 201.945 100.515C203.884 108.327 208.69 115.105 215.39 119.479C222.091 123.853 230.186 125.498 238.042 124.081L261.361 150L246.244 121.392Z" fill="#423F6B"/>
<path d="M339.92 138.376C345.445 135.643 349.789 130.934 352.124 125.147C354.458 119.36 354.62 112.9 352.578 107C350.536 101.099 346.433 96.1707 341.052 93.1546C335.671 90.1385 329.388 89.2458 323.402 90.6467C317.416 92.0476 312.146 95.6441 308.597 100.75C305.048 105.856 303.468 112.115 304.159 118.332C304.849 124.548 307.763 130.289 312.342 134.458C316.922 138.626 322.848 140.932 328.99 140.934C330.441 140.933 331.889 140.805 333.319 140.551L336.2 158L339.92 138.376Z" fill="#6AC8BF"/>
<path d="M419.744 153.629C412.567 150.158 406.979 144.101 404.109 136.682C401.239 129.264 401.3 121.037 404.281 113.662C407.262 106.287 412.941 100.314 420.169 96.9495C427.398 93.5848 435.639 93.079 443.227 95.5342C450.816 97.9894 457.187 103.223 461.053 110.177C464.92 117.132 465.994 125.289 464.06 133.003C462.125 140.716 457.325 147.41 450.629 151.734C443.933 156.057 435.841 157.688 427.986 156.296L404.58 182L419.744 153.629Z" fill="#CB45ED"/>
<path d="M383.837 88.904C378.251 86.2414 373.897 81.5877 371.655 75.8827C369.413 70.1777 369.45 63.8465 371.759 58.1676C374.068 52.4887 378.477 47.8853 384.095 45.2868C389.713 42.6884 396.121 42.2886 402.027 44.1681C407.932 46.0477 412.894 50.0666 415.91 55.4132C418.927 60.7599 419.773 67.0359 418.279 72.974C416.784 78.9121 413.06 84.0698 407.858 87.4055C402.656 90.7413 396.364 92.0065 390.252 90.9458L378.414 99L383.837 88.904Z" fill="#6754E9"/>
<path d="M440.765 226.486C437.423 221.61 436.009 215.685 436.791 209.841C437.574 203.997 440.499 198.643 445.008 194.8C449.518 190.957 455.296 188.894 461.242 189.004C467.188 189.114 472.884 191.39 477.246 195.397C481.608 199.404 484.329 204.862 484.891 210.731C485.454 216.599 483.818 222.468 480.295 227.217C476.772 231.967 471.609 235.265 465.791 236.482C459.973 237.7 453.906 236.752 448.747 233.82C447.527 233.128 446.37 232.332 445.29 231.44L431 232.613L440.765 226.486Z" fill="#009CA8"/>
<path d="M263.153 196.333C263.153 196.333 262.423 174.469 243.033 164.864C243.033 164.864 229.33 161.763 227.896 156C226.743 157.812 226.089 159.903 226 162.056L257.487 206.231C257.487 206.231 266.8 211.1 263.153 196.333Z" fill="#D8D8D8"/>
<path d="M252.395 175.989C245.136 168.901 222.894 160 222.894 160L216.705 163.745C220.351 165.644 225.848 170.726 225.848 170.726C222.095 168.578 218.152 166.776 214.068 165.343L211 167.195L267 212C267 212 263.078 186.441 252.395 175.989Z" fill="#FAF0E9"/>
<path d="M261 206C261 206 266.79 181.009 294.944 178.927C322.703 176.879 359.06 174.652 364.575 172L368 175.977L261 206Z" fill="#D8D8D8"/>
<path d="M261 202.516C261 202.516 263.248 195.012 282.483 186.937C301.719 178.862 329.016 180.841 347.268 177.87C365.52 174.899 368.142 174 368.142 174L375 181.049L262.753 211L261 202.516Z" fill="#FAF0E9"/>
<path d="M379.589 180.694L441.518 307.423C441.846 308.097 442.011 308.839 441.999 309.589C441.988 310.338 441.8 311.074 441.451 311.739C441.102 312.403 440.601 312.976 439.989 313.413C439.377 313.849 438.671 314.137 437.927 314.253L339.571 329L273 201.511L374.19 178.12C375.249 177.879 376.36 178.003 377.34 178.47C378.32 178.938 379.113 179.722 379.589 180.694Z" fill="url(#paint1_linear_45_131)"/>
<path d="M373.178 178.761C374.234 178.522 375.341 178.645 376.317 179.112C377.294 179.58 378.084 180.363 378.557 181.334L440.752 308.767C441.244 309.771 441.365 310.916 441.093 312C441.602 311.298 441.91 310.471 441.983 309.608C442.056 308.745 441.891 307.878 441.507 307.101L379.359 179.681C378.881 178.707 378.085 177.923 377.101 177.459C376.118 176.995 375.005 176.879 373.946 177.128L273 200.59L273.668 201.816L373.178 178.761Z" fill="#BC0702"/>
<path d="M209 167.029C210.503 166.88 212.006 167.317 213.188 168.246L252.778 199.467L257 207L209 167.029Z" fill="#BC0702"/>
<path d="M252 200.185L252.82 199C252.82 199 254.985 204.763 272.824 200.185L276 206.849L253.135 210L252 200.185Z" fill="#034354"/>
<path d="M273.866 201.227L340 328.804C340 328.804 324.355 335.803 319.043 329.086L252 200C252 200 255.712 209.332 273.866 201.227Z" fill="#423F6B"/>
<path d="M251.586 200.497L209.433 167.173C209.271 167.055 209.074 166.994 208.873 167C208.673 167.006 208.48 167.079 208.325 167.206C208.171 167.333 208.064 167.508 208.021 167.703C207.978 167.898 208.002 168.101 208.088 168.281L274.824 294.922C275.428 296.07 276.282 297.071 277.324 297.852L319 329L251.586 200.497Z" fill="url(#paint2_linear_45_131)"/>
<path d="M251.589 200.497L209.433 167.173C209.271 167.055 209.074 166.994 208.873 167C208.673 167.006 208.48 167.079 208.325 167.206C208.171 167.333 208.064 167.508 208.021 167.703C207.978 167.898 208.002 168.101 208.088 168.281L209.433 170.843C223.173 184.459 253.834 217.195 271.581 254.403C284.111 280.659 280.696 290.998 274.828 294.935C275.434 296.077 276.286 297.072 277.322 297.852L319 329L251.589 200.497Z" fill="#BC0702"/>
<path d="M439.885 304.085C430.9 308.697 399.262 322.183 359.923 307.57C322.489 293.648 301.876 222.623 295.19 195L273 200.302L339.638 329L437.92 314.32C438.665 314.206 439.374 313.917 439.988 313.478C440.601 313.038 441.103 312.46 441.453 311.789C441.802 311.119 441.99 310.376 442 309.62C442.01 308.864 441.842 308.116 441.51 307.436L439.885 304.085Z" fill="#BC0702"/>
<path d="M252.144 200.99L251.943 200.603C252.002 200.736 252.069 200.866 252.144 200.99Z" fill="#034354"/>
<path d="M273.027 200.436C273.027 203.143 336.431 317.612 320.261 317.532C310.281 317.485 266.73 215.256 252.277 201.171L252.144 200.964L318.951 329.31C324.252 335.995 339.887 329.036 339.887 329.036L273.027 200.436Z" fill="#034354"/>
<path d="M316.272 305.911C319.042 304.567 311.092 282.461 298.515 256.536C285.937 230.611 273.496 210.684 270.725 212.028C267.955 213.372 275.905 235.478 288.483 261.403C301.06 287.328 313.502 307.255 316.272 305.911Z" fill="white"/>
<path d="M345.558 320C344.204 320 342.876 319.628 341.718 318.925C340.561 318.223 339.619 317.216 338.994 316.015L284.521 211.237C284.198 210.622 284.02 209.941 284.002 209.247C283.983 208.552 284.125 207.863 284.415 207.232C284.706 206.601 285.137 206.045 285.677 205.606C286.216 205.168 286.849 204.86 287.527 204.705L371.894 185.135C373.045 184.868 374.254 184.999 375.32 185.509C376.387 186.018 377.249 186.874 377.765 187.938L432.473 300.269C432.831 301.005 433.011 301.815 432.999 302.633C432.987 303.452 432.784 304.256 432.404 304.981C432.025 305.706 431.481 306.333 430.815 306.81C430.15 307.287 429.382 307.602 428.573 307.729L346.648 319.919C346.287 319.973 345.923 320 345.558 320ZM373.064 187.024C372.822 187.024 372.58 187.051 372.344 187.104L287.984 206.674C287.608 206.762 287.257 206.934 286.957 207.178C286.658 207.422 286.418 207.732 286.257 208.082C286.095 208.433 286.016 208.816 286.025 209.202C286.034 209.588 286.132 209.967 286.31 210.31L340.783 315.087C341.3 316.079 342.113 316.886 343.11 317.394C344.107 317.902 345.238 318.087 346.345 317.923L428.263 305.733C428.76 305.654 429.232 305.461 429.64 305.167C430.048 304.874 430.382 304.489 430.614 304.043C430.846 303.597 430.97 303.103 430.977 302.6C430.983 302.098 430.872 301.601 430.651 301.149L375.949 188.832C375.687 188.289 375.277 187.832 374.767 187.512C374.256 187.193 373.666 187.023 373.064 187.024Z" fill="#FAF0E9"/>
<path d="M263.02 202C269.078 195.01 277.458 190.35 286.046 187.131C294.742 183.926 304.004 182.734 313.205 182.168C331.566 181.044 350.083 180.519 368 176C350.204 181.03 331.587 181.663 313.252 182.835C299.541 183.508 285.656 186.202 273.769 193.441C269.769 195.735 266.138 198.621 263 202H263.02Z" fill="#C3C6C2"/>
<path d="M267 200C276.752 190.998 290.01 186.127 303.282 185.353C318.733 184.127 334.298 184.042 349.609 181.491C356.162 180.395 362.638 178.895 369 177C352.162 182.691 334.271 184.291 316.594 185.117C307.788 185.655 298.836 185.72 290.264 187.93C281.67 190.129 273.708 194.25 267 199.974V200Z" fill="#C3C6C2"/>
<path d="M270 200C278.838 193.264 289.5 189.154 300.697 188.169C311.604 187.519 323.12 186.948 334 186C328.486 186.727 322.939 187.247 317.399 187.695C311.972 188.175 306.19 188.377 300.757 188.812C289.656 189.805 279.034 193.669 270 200Z" fill="#C3C6C2"/>
<path d="M274 199C280.665 194.834 288.057 192.018 295.769 190.705C301.575 190.009 307.422 190.392 313.228 189.738C315.161 189.571 317.087 189.348 319 189C315.209 189.88 311.352 190.436 307.47 190.663C303.617 191.011 299.704 190.823 295.858 191.394C288.208 192.535 280.865 195.437 274 199Z" fill="#C3C6C2"/>
<path d="M280.02 198C283.417 195.449 287.57 194.212 291.609 193.286C294.666 192.636 297.765 192.227 300.881 192.062C301.921 192.062 302.96 192 304 192C302.967 192.152 301.934 192.263 300.907 192.401C293.815 193.452 286.417 194.475 280 198H280.02Z" fill="#C3C6C2"/>
<path d="M268 194C276.315 184.352 289.276 179.717 301.736 179.421C322.633 179.053 343.462 176.905 364 173C343.541 177.475 322.683 179.832 301.749 180.034C289.383 180.296 276.529 184.662 268 194Z" fill="#C3C6C2"/>
<path d="M273.013 190C282.173 182.776 294.24 180.471 305.656 179.938C316.818 179.211 329.125 178.551 340.194 177.432C347.858 176.746 355.474 175.6 363 174C355.515 175.849 347.907 177.165 340.234 177.938C329.179 179.191 316.845 179.904 305.676 180.544C294.293 181.03 282.361 183.123 273 190H273.013Z" fill="#C3C6C2"/>
<path d="M261.993 199.974C259.935 191.263 256.3 180.057 248.727 174.715C240.811 169.062 231.833 165.011 223 161C229.864 163.58 236.524 166.678 242.922 170.267C246.095 172.107 249.301 174.013 251.947 176.615C257.791 182.982 260.476 191.653 262 200L261.993 199.974Z" fill="#C3C6C2"/>
<path d="M260 199.973C258.311 190.968 254.972 180.458 246.278 175.973C239.079 171.687 228.447 166.071 221 162C225.357 164.052 229.667 166.212 233.944 168.438C238.221 170.664 242.444 172.977 246.62 175.424C248.782 176.572 250.715 178.103 252.325 179.944C257.017 185.559 259.108 192.893 260 200V199.973Z" fill="#C3C6C2"/>
<path d="M258 200C257.111 193.08 255.048 185.805 250.06 180.669C244.787 175.861 238.157 172.723 231.894 169.35C227.632 167.151 223.316 165.059 219 163C228.399 166.882 237.743 171.167 246.274 176.786C247.783 177.797 249.196 178.942 250.495 180.206C255.543 185.456 257.491 192.946 258 199.966V200Z" fill="#C3C6C2"/>
<path d="M255.902 200C256.303 193.162 252.859 186.639 247.877 182.297C241.859 177.462 235.205 173.51 228.484 169.817C226.685 168.826 224.852 167.896 223 167C226.798 168.565 230.501 170.362 234.088 172.381C237.692 174.385 241.19 176.587 244.58 178.946C247.971 181.305 251.181 184.163 253.227 187.876C255.383 191.513 256.322 195.769 255.902 200Z" fill="#C3C6C2"/>
<path d="M252.993 199C252.125 195.15 249.927 191.728 247.483 188.695C244.967 185.677 242.104 182.969 238.953 180.626C238.198 180.004 237.002 179.287 236.194 178.698C235.386 178.109 234.23 177.359 233.375 176.87C226.695 172.732 219.348 169.739 212 167C216.31 168.312 220.546 169.854 224.691 171.62C233.375 175.598 241.925 180.747 247.85 188.4C250.241 191.514 252.365 195.096 253 199H252.993Z" fill="#C3C6C2"/>
<path d="M253.967 195C249.827 185.708 241.5 178.687 232.478 174.021C230.468 172.931 228.097 171.94 226 171C228.285 171.754 230.522 172.641 232.699 173.656C241.963 178.028 250.564 185.323 254 195H253.967Z" fill="#C3C6C2"/>
<path d="M250.98 196C242.456 183.839 229.69 175.234 216 170L218.624 170.88C231.451 175.296 243.91 184.256 251 196H250.98Z" fill="#C3C6C2"/>
<path d="M246 194C239.961 186.853 232.645 181.068 225 176C233.097 180.267 240.619 186.245 246 194Z" fill="#C3C6C2"/>
<path d="M261 188.973C260.465 183.351 256.716 178.727 252.809 174.983C252.452 174.67 250.459 172.985 250.056 172.672L247.693 170.993C241.383 166.589 234.155 163.665 227 161C228.835 161.566 230.67 162.172 232.505 162.765C234.043 163.278 236.353 164.298 237.891 164.891C239.429 165.483 241.587 166.703 243.112 167.422L246.868 169.647C247.693 170.153 249.607 171.599 250.432 172.172C250.842 172.532 252.828 174.211 253.198 174.544C254.431 175.725 255.578 176.994 256.63 178.341C258.954 181.372 260.921 185.076 260.987 189L261 188.973Z" fill="#C3C6C2"/>
<path d="M367.781 174L371 177.256L338 185C338 185 369.752 177.197 367.781 174Z" fill="#191715"/>
<path d="M280.126 188.016C274.201 190.769 268.687 194.321 263.743 198.573L262.073 193.42C262.326 195.61 261.747 196.567 260.836 196.837C260.595 196.894 260.345 196.899 260.101 196.853C259.858 196.807 259.628 196.71 259.425 196.57C259.222 196.429 259.051 196.247 258.924 196.036C258.797 195.825 258.716 195.59 258.687 195.346C257.796 189.151 251.902 174.068 217 164C220.263 165.955 223.295 168.265 226.04 170.888C226.04 170.888 254.324 178.674 255.188 194.719C255.761 200.737 232.306 182.923 232.306 182.923L252.661 199.226C254.583 202.683 262.592 201.931 262.592 201.931C269.576 201.707 295 195.129 295 195.129C273.514 196.62 280.126 188.016 280.126 188.016Z" fill="#191715"/>
<path d="M257.344 262C257.344 262 279.743 253.939 275.454 246.553C271.418 239.602 259.478 244.64 254.016 246.681C252.414 247.274 249.339 249.181 248.425 250.546C245.67 254.608 246.059 261.458 257.344 262Z" fill="#FCCEB6"/>
<path d="M272.184 245.564L273.942 250.064C274.011 250.238 274.019 250.427 273.965 250.605C273.911 250.783 273.798 250.94 273.643 251.053C272.023 252.214 267.201 255.401 265.377 253.3C263.225 250.825 262.576 245.584 271.214 245.004C271.417 244.986 271.622 245.031 271.796 245.132C271.971 245.233 272.107 245.384 272.184 245.564Z" fill="#FAF0E9"/>
<path d="M264.409 248C265.489 248.659 266.293 249.598 266.701 250.679C267.109 251.76 267.099 252.924 266.673 254C266.673 254 265.422 253.879 264.444 251.457C263.466 249.034 264.409 248 264.409 248Z" fill="#FAF0E9"/>
<path d="M260.497 282.626C260.497 282.626 271.566 280.437 278.695 277.136C287.059 273.266 291.993 280.286 290.832 283.223C290.16 284.946 285.998 287.513 284.038 288.94C279.118 292.522 266.719 302.308 260.228 293.277C258.859 291.383 258.241 285.104 260.497 282.626Z" fill="#FCCEB6"/>
<path d="M287.005 279.49L288.922 283.696C288.997 283.859 289.019 284.043 288.983 284.219C288.947 284.396 288.856 284.555 288.724 284.674C287.369 285.913 283.294 289.336 281.506 287.439C279.392 285.209 278.421 280.208 286.13 279.008C286.307 278.983 286.488 279.017 286.645 279.103C286.802 279.19 286.928 279.326 287.005 279.49Z" fill="#FAF0E9"/>
<path d="M280.17 283C280.866 283.498 281.408 284.254 281.717 285.156C282.026 286.057 282.084 287.055 281.882 288C281.882 288 281.112 287.968 280.39 285.955C279.668 283.941 280.17 283 280.17 283Z" fill="#FAF0E9"/>
<path d="M257.626 262L262.073 267.376C262.073 267.376 281.033 262.943 284.174 268.718C285.513 271.141 285.018 274.294 284.14 275.285C280.276 279.65 267.913 283.009 264.471 283.876C263.865 284.029 263.233 284.04 262.622 283.911C259.327 283.222 248.699 280.269 250.132 272.332C250.601 269.758 253.186 262.151 257.626 262Z" fill="#FCCEB6"/>
<path d="M282.746 269.594L283.971 273.873C284.017 274.039 284.008 274.214 283.944 274.375C283.88 274.535 283.766 274.671 283.617 274.765C282.063 275.713 277.447 278.288 275.971 276.212C274.237 273.773 274.075 268.896 281.947 269.002C282.128 269.006 282.302 269.066 282.446 269.172C282.59 269.279 282.695 269.426 282.746 269.594Z" fill="#FAF0E9"/>
<path d="M275.414 271C276.153 271.716 276.67 272.688 276.887 273.77C277.103 274.852 277.008 275.985 276.615 277C276.615 277 275.721 276.792 275.189 274.37C274.658 271.949 275.414 271 275.414 271Z" fill="#FAF0E9"/>
<path d="M262.336 289.944C264.965 288.401 276.508 293.269 276.508 293.269C276.508 293.269 288.616 286.353 291.903 288.368C298.686 292.524 287.249 300.118 282.555 302.505C281.248 303.182 279.844 303.649 278.395 303.888C269.863 305.285 256.769 293.176 262.336 289.944Z" fill="#FCCEB6"/>
<path d="M291.216 290.199L292.919 292.824C292.986 292.95 293.012 293.094 292.995 293.236C292.977 293.377 292.916 293.51 292.82 293.617C291.833 294.964 288.853 298.768 287.362 297.862C285.609 296.796 284.587 293.294 290.506 290.094C290.615 290.018 290.75 289.986 290.882 290.006C291.015 290.025 291.134 290.095 291.216 290.199Z" fill="#FAF0E9"/>
<path d="M286.113 295C286.113 295 288.407 295.368 287.936 297.982C287.936 297.982 287.253 298.211 286.468 297.024C286.243 296.736 286.094 296.403 286.032 296.051C285.97 295.7 285.998 295.34 286.113 295Z" fill="#FAF0E9"/>
<path d="M261 293.934C264.038 301.117 272.662 297.301 276.977 293.762C277.631 293.172 278.352 292.62 279 292C277.461 292.821 275.995 293.747 274.462 294.501C270.311 296.6 264.222 298.981 261 293.934Z" fill="#DDA891"/>
<path d="M261 283.177C263.313 284.375 265.813 284.094 268.233 283.415C273.489 281.812 278.474 279.309 283 276C277.987 278.166 273.167 280.715 268.04 282.498C265.72 283.365 263.373 283.805 261.047 283.22L261 283.177Z" fill="#DDA891"/>
<path d="M257.873 262L262 267.707C262 267.707 255.288 263.732 252 269C252 269 253.983 262.212 257.873 262Z" fill="#DDA891"/>
<path d="M265 283.931C265 283.931 259.25 283.554 259.25 291C259.25 291 258.209 285.766 260.377 283C261.444 283.465 262.596 283.668 263.748 283.594L265 283.931Z" fill="#DDA891"/>
<path d="M272.539 296.067C272.539 296.067 267.413 301.144 273 304C268.717 302.379 264.923 299.62 262 296C262 296 264.011 298.17 272.539 296.067Z" fill="#DDA891"/>
<path d="M496 348.874L466.837 305.447C455.375 274.888 446.817 255.889 438.722 246.462C434.919 242.037 429.861 238.839 424.201 237.281L401.183 232L377.882 235.322C377.321 235.402 376.799 235.652 376.387 236.038C375.976 236.423 375.695 236.925 375.583 237.474C373.163 249.299 398.695 246.057 398.695 246.057L408.02 250.707L397.707 249.678C396.454 249.403 395.163 249.34 393.889 249.492L369.512 252.454C368.798 252.535 368.123 252.819 367.568 253.27C367.014 253.721 366.603 254.322 366.386 254.999C362.352 267.847 391.26 262.818 391.26 262.818L406.366 268.059L394.709 266.226C394.709 266.226 375.173 264.93 370.292 270.318C369.169 271.56 369.183 273.779 369.976 275.739C371.892 280.455 391.697 279.831 391.697 279.831L403.126 284.382L388.894 282.342C388.411 282.237 387.914 282.208 387.421 282.256L374.231 283.531C373.737 283.589 373.272 283.791 372.895 284.112C372.517 284.433 372.245 284.857 372.114 285.332C369.324 294.506 386.998 293.636 386.998 293.636L403.247 303.162C403.247 303.162 415.206 322.035 427.563 325.749L436.302 349L496 348.874Z" fill="#FCCEB6"/>
<path d="M374.002 288.615L374.101 284.38C374.104 284.216 374.154 284.058 374.242 283.93C374.33 283.801 374.451 283.709 374.588 283.666C376.004 283.211 380.16 282.103 380.792 284.425C381.536 287.128 380.476 291.621 374.476 289.405C374.33 289.356 374.203 289.251 374.117 289.108C374.031 288.964 373.99 288.79 374.002 288.615Z" fill="#FAF0E9"/>
<path d="M379.799 288C379.214 287.393 378.938 286.675 379.012 285.954C379.085 285.233 379.505 284.547 380.209 284C380.209 284 381.098 284.328 380.991 285.952C380.884 287.576 379.799 288 379.799 288Z" fill="#FAF0E9"/>
<path d="M369 258.459L369.111 253.59C369.114 253.402 369.17 253.221 369.27 253.073C369.37 252.926 369.508 252.819 369.665 252.77C371.289 252.25 376.039 250.974 376.765 253.604C377.608 256.712 376.402 261.873 369.535 259.307C369.381 259.249 369.245 259.135 369.149 258.983C369.053 258.831 369.001 258.647 369 258.459Z" fill="#FAF0E9"/>
<path d="M376.399 258C376.107 257.241 375.969 256.344 376.006 255.442C376.043 254.54 376.254 253.683 376.606 253C376.606 253 377.056 253.409 376.994 255.439C376.933 257.47 376.399 258 376.399 258Z" fill="#FAF0E9"/>
<path d="M372.001 275.694L372.128 270.647C372.132 270.448 372.197 270.257 372.312 270.103C372.428 269.949 372.587 269.841 372.765 269.796C374.562 269.257 379.823 267.937 380.625 270.668C381.562 273.883 381.352 278.37 372.625 276.6C372.44 276.552 372.276 276.435 372.162 276.269C372.048 276.104 371.991 275.9 372.001 275.694Z" fill="#FAF0E9"/>
<path d="M379.8 276C379.214 275.09 378.937 274.013 379.012 272.93C379.087 271.848 379.509 270.82 380.214 270C380.214 270 381.111 270.493 380.989 272.928C380.866 275.364 379.8 276 379.8 276Z" fill="#FAF0E9"/>
<path d="M378.399 239.757L378 236.389C378.004 236.237 378.063 236.09 378.169 235.97C378.275 235.849 378.422 235.762 378.589 235.722C380.316 235.301 385.889 234.271 386.648 235.843C387.819 238.261 386.268 242.521 378.968 240.448C378.803 240.4 378.659 240.307 378.557 240.183C378.455 240.059 378.4 239.91 378.399 239.757Z" fill="#FAF0E9"/>
<path d="M385.813 240C385.234 239.259 384.949 238.358 385.007 237.448C385.066 236.538 385.463 235.673 386.133 235C386.133 235 387.106 235.306 386.99 237.388C386.875 239.469 385.813 240 385.813 240Z" fill="#FAF0E9"/>
<path d="M404 250C409.046 250.144 414.068 250.813 419 252C413.955 251.852 408.933 251.182 404 250Z" fill="#DDA891"/>
<path d="M401 267C405.05 267.054 409.079 267.725 413 269C408.95 268.945 404.921 268.273 401 267Z" fill="#DDA891"/>
<path d="M399 284C403.073 284.308 407.095 284.978 411 286C406.927 285.692 402.905 285.022 399 284Z" fill="#DDA891"/>
<path d="M424 325C427.422 326.435 431.3 326.814 435 326.073C433.241 326.832 431.27 327.135 429.32 326.945C427.371 326.755 425.524 326.08 424 325Z" fill="#DDA891"/>
<path d="M435.125 326L439 349H436.229L428 326.604C428 326.604 430.483 327.696 435.125 326Z" fill="#DDA891"/>
<path d="M399 246L407.776 250.425L419 252L399 246Z" fill="#DDA891"/>
<path d="M413 269L391 263L404.315 267.53L413 269Z" fill="#DDA891"/>
<path d="M411 286L392 280L402.813 284.248L411 286Z" fill="#DDA891"/>
<path d="M318.461 204.945C323.88 210.602 358.621 193.071 369.177 209.359C379.733 225.648 386.551 235.859 391.137 230.616C395.722 225.374 380.984 185.772 371.82 184.102C365.009 182.86 307.152 193.138 318.461 204.945Z" fill="white"/>
<path d="M226.171 91.7295C226.171 93.8367 225.772 95.6294 224.973 97.1076C224.18 98.5858 223.098 99.7149 221.727 100.495C220.362 101.269 218.827 101.655 217.123 101.655C215.405 101.655 213.864 101.265 212.499 100.486C211.134 99.7055 210.056 98.5764 209.263 97.0982C208.47 95.62 208.074 93.8304 208.074 91.7295C208.074 89.6222 208.47 87.8295 209.263 86.3513C210.056 84.8731 211.134 83.7472 212.499 82.9735C213.864 82.1935 215.405 81.8035 217.123 81.8035C218.827 81.8035 220.362 82.1935 221.727 82.9735C223.098 83.7472 224.18 84.8731 224.973 86.3513C225.772 87.8295 226.171 89.6222 226.171 91.7295ZM222.029 91.7295C222.029 90.3645 221.825 89.2134 221.416 88.2761C221.013 87.3389 220.444 86.6281 219.708 86.1437C218.972 85.6594 218.11 85.4172 217.123 85.4172C216.135 85.4172 215.273 85.6594 214.537 86.1437C213.801 86.6281 213.229 87.3389 212.82 88.2761C212.418 89.2134 212.216 90.3645 212.216 91.7295C212.216 93.0945 212.418 94.2456 212.82 95.1828C213.229 96.1201 213.801 96.8309 214.537 97.3152C215.273 97.7996 216.135 98.0417 217.123 98.0417C218.11 98.0417 218.972 97.7996 219.708 97.3152C220.444 96.8309 221.013 96.1201 221.416 95.1828C221.825 94.2456 222.029 93.0945 222.029 91.7295Z" fill="white"/>
<path d="M229.198 101.391V82.0677H233.283V90.5878H233.538L240.492 82.0677H245.389L238.218 90.7199L245.474 101.391H240.586L235.293 93.4467L233.283 95.8999V101.391H229.198Z" fill="white"/>
<path d="M252.244 82.0677L251.876 95.598H248.422L248.045 82.0677H252.244ZM250.149 101.637C249.526 101.637 248.991 101.416 248.545 100.976C248.098 100.53 247.878 99.9949 247.884 99.3721C247.878 98.7557 248.098 98.2273 248.545 97.787C248.991 97.3467 249.526 97.1265 250.149 97.1265C250.746 97.1265 251.272 97.3467 251.725 97.787C252.177 98.2273 252.407 98.7557 252.413 99.3721C252.407 99.7873 252.297 100.168 252.083 100.514C251.876 100.853 251.602 101.127 251.262 101.335C250.923 101.536 250.551 101.637 250.149 101.637Z" fill="white"/>
<path d="M390.613 61.4389V74.6607H388.198L382.446 66.339H382.349V74.6607H379.554V61.4389H382.007L387.714 69.7542H387.831V61.4389H390.613Z" fill="white"/>
<path d="M405.073 68.0498C405.073 69.4916 404.799 70.7183 404.253 71.7297C403.711 72.7411 402.97 73.5137 402.032 74.0474C401.098 74.5768 400.048 74.8415 398.882 74.8415C397.707 74.8415 396.652 74.5746 395.718 74.0409C394.784 73.5072 394.046 72.7347 393.504 71.7232C392.961 70.7118 392.69 69.4873 392.69 68.0498C392.69 66.608 392.961 65.3813 393.504 64.3699C394.046 63.3585 394.784 62.588 395.718 62.0587C396.652 61.525 397.707 61.2581 398.882 61.2581C400.048 61.2581 401.098 61.525 402.032 62.0587C402.97 62.588 403.711 63.3585 404.253 64.3699C404.799 65.3813 405.073 66.608 405.073 68.0498ZM402.239 68.0498C402.239 67.1158 402.099 66.3282 401.819 65.6869C401.544 65.0456 401.154 64.5593 400.65 64.2279C400.147 63.8965 399.557 63.7308 398.882 63.7308C398.206 63.7308 397.616 63.8965 397.113 64.2279C396.609 64.5593 396.217 65.0456 395.938 65.6869C395.662 66.3282 395.524 67.1158 395.524 68.0498C395.524 68.9838 395.662 69.7714 395.938 70.4127C396.217 71.054 396.609 71.5403 397.113 71.8717C397.616 72.2031 398.206 72.3688 398.882 72.3688C399.557 72.3688 400.147 72.2031 400.65 71.8717C401.154 71.5403 401.544 71.054 401.819 70.4127C402.099 69.7714 402.239 68.9838 402.239 68.0498Z" fill="white"/>
<path d="M410.378 61.4389L410.126 70.6967H407.763L407.505 61.4389H410.378ZM408.945 74.8286C408.519 74.8286 408.153 74.6779 407.847 74.3766C407.542 74.0711 407.391 73.7052 407.395 73.2791C407.391 72.8573 407.542 72.4958 407.847 72.1945C408.153 71.8932 408.519 71.7426 408.945 71.7426C409.354 71.7426 409.713 71.8932 410.023 72.1945C410.333 72.4958 410.49 72.8573 410.494 73.2791C410.49 73.5632 410.415 73.8236 410.268 74.0603C410.126 74.2927 409.939 74.4799 409.707 74.622C409.474 74.7597 409.22 74.8286 408.945 74.8286Z" fill="white"/>
<path d="M308.265 121.035V108.541H310.906V113.696H316.269V108.541H318.905V121.035H316.269V115.874H310.906V121.035H308.265Z" fill="white"/>
<path d="M321.083 121.035V108.541H329.502V110.719H323.724V113.696H329.069V115.874H323.724V118.857H329.526V121.035H321.083Z" fill="white"/>
<path d="M330.87 108.541H333.829L336.678 113.922H336.8L339.649 108.541H342.608L338.051 116.618V121.035H335.427V116.618L330.87 108.541Z" fill="white"/>
<path d="M347.107 108.541L346.869 117.289H344.636L344.392 108.541H347.107ZM345.753 121.194C345.35 121.194 345.005 121.052 344.716 120.767C344.427 120.478 344.285 120.132 344.289 119.73C344.285 119.331 344.427 118.99 344.716 118.705C345.005 118.42 345.35 118.278 345.753 118.278C346.139 118.278 346.479 118.42 346.772 118.705C347.065 118.99 347.213 119.331 347.217 119.73C347.213 119.998 347.142 120.244 347.004 120.468C346.869 120.688 346.692 120.865 346.473 120.999C346.253 121.129 346.013 121.194 345.753 121.194Z" fill="white"/>
<path d="M415.642 122.172C415.567 121.913 415.463 121.684 415.328 121.486C415.193 121.284 415.028 121.114 414.833 120.976C414.642 120.834 414.422 120.726 414.174 120.651C413.93 120.577 413.659 120.54 413.361 120.54C412.805 120.54 412.315 120.678 411.894 120.954C411.476 121.231 411.149 121.633 410.916 122.161C410.682 122.686 410.565 123.327 410.565 124.085C410.565 124.844 410.68 125.489 410.91 126.02C411.141 126.552 411.467 126.958 411.888 127.238C412.31 127.514 412.808 127.653 413.382 127.653C413.903 127.653 414.348 127.56 414.717 127.376C415.089 127.188 415.372 126.924 415.567 126.584C415.766 126.244 415.865 125.842 415.865 125.377L416.333 125.446H413.526V123.713H418.082V125.085C418.082 126.042 417.88 126.864 417.476 127.551C417.072 128.235 416.515 128.764 415.806 129.136C415.098 129.504 414.286 129.689 413.372 129.689C412.351 129.689 411.454 129.464 410.682 129.013C409.909 128.56 409.307 127.917 408.874 127.084C408.445 126.247 408.231 125.255 408.231 124.107C408.231 123.224 408.359 122.437 408.614 121.746C408.872 121.052 409.234 120.463 409.698 119.981C410.162 119.499 410.703 119.133 411.32 118.881C411.936 118.629 412.604 118.504 413.324 118.504C413.94 118.504 414.515 118.594 415.046 118.775C415.578 118.952 416.049 119.204 416.46 119.53C416.875 119.856 417.213 120.244 417.476 120.694C417.738 121.14 417.906 121.633 417.981 122.172H415.642Z" fill="white"/>
<path d="M419.811 129.54V118.652H424.106C424.928 118.652 425.63 118.8 426.211 119.094C426.796 119.384 427.241 119.797 427.546 120.332C427.854 120.864 428.008 121.489 428.008 122.209C428.008 122.932 427.852 123.554 427.54 124.075C427.228 124.592 426.776 124.989 426.185 125.266C425.596 125.542 424.884 125.68 424.048 125.68H421.172V123.83H423.675C424.115 123.83 424.48 123.77 424.771 123.65C425.061 123.529 425.277 123.348 425.419 123.107C425.564 122.866 425.637 122.567 425.637 122.209C425.637 121.847 425.564 121.543 425.419 121.295C425.277 121.046 425.059 120.859 424.765 120.731C424.475 120.6 424.108 120.534 423.665 120.534H422.112V129.54H419.811ZM425.69 124.585L428.396 129.54H425.855L423.208 124.585H425.69Z" fill="white"/>
<path d="M429.635 129.54V118.652H436.971V120.55H431.937V123.144H436.593V125.042H431.937V127.642H436.992V129.54H429.635Z" fill="white"/>
<path d="M440.677 129.54H438.211L441.969 118.652H444.936L448.689 129.54H446.222L443.495 121.14H443.41L440.677 129.54ZM440.523 125.26H446.35V127.057H440.523V125.26Z" fill="white"/>
<path d="M448.254 120.55V118.652H457.196V120.55H453.863V129.54H451.587V120.55H448.254Z" fill="white"/>
<path d="M445.751 216.952H442.392V207.475H445.779C446.732 207.475 447.553 207.665 448.241 208.045C448.929 208.421 449.458 208.962 449.828 209.669C450.201 210.375 450.388 211.22 450.388 212.204C450.388 213.191 450.201 214.04 449.828 214.749C449.458 215.459 448.925 216.003 448.231 216.383C447.54 216.762 446.714 216.952 445.751 216.952ZM444.396 215.235H445.668C446.26 215.235 446.758 215.13 447.163 214.92C447.57 214.708 447.875 214.379 448.079 213.935C448.285 213.488 448.389 212.911 448.389 212.204C448.389 211.504 448.285 210.932 448.079 210.488C447.875 210.043 447.571 209.716 447.167 209.507C446.763 209.297 446.265 209.192 445.673 209.192H444.396V215.235Z" fill="white"/>
<path d="M460.58 212.214C460.58 213.247 460.384 214.126 459.992 214.851C459.604 215.576 459.073 216.13 458.401 216.512C457.731 216.892 456.979 217.081 456.143 217.081C455.301 217.081 454.545 216.89 453.875 216.508C453.206 216.125 452.677 215.571 452.288 214.846C451.9 214.121 451.705 213.244 451.705 212.214C451.705 211.18 451.9 210.301 452.288 209.576C452.677 208.851 453.206 208.299 453.875 207.92C454.545 207.537 455.301 207.346 456.143 207.346C456.979 207.346 457.731 207.537 458.401 207.92C459.073 208.299 459.604 208.851 459.992 209.576C460.384 210.301 460.58 211.18 460.58 212.214ZM458.549 212.214C458.549 211.544 458.449 210.98 458.248 210.52C458.051 210.06 457.771 209.712 457.41 209.474C457.05 209.237 456.627 209.118 456.143 209.118C455.658 209.118 455.236 209.237 454.875 209.474C454.514 209.712 454.233 210.06 454.033 210.52C453.835 210.98 453.737 211.544 453.737 212.214C453.737 212.883 453.835 213.447 454.033 213.907C454.233 214.367 454.514 214.715 454.875 214.953C455.236 215.19 455.658 215.309 456.143 215.309C456.627 215.309 457.05 215.19 457.41 214.953C457.771 214.715 458.051 214.367 458.248 213.907C458.449 213.447 458.549 212.883 458.549 212.214Z" fill="white"/>
<path d="M469.991 207.475V216.952H468.26L464.137 210.987H464.068V216.952H462.064V207.475H463.823L467.913 213.435H467.996V207.475H469.991Z" fill="white"/>
<path d="M471.646 216.952V207.475H478.031V209.127H473.649V211.385H477.703V213.037H473.649V215.3H478.05V216.952H471.646Z" fill="white"/>
<path d="M280.904 159L279.158 152.898H280.567L281.577 157.138H281.628L282.742 152.898H283.949L285.06 157.147H285.114L286.124 152.898H287.533L285.787 159H284.53L283.368 155.011H283.32L282.161 159H280.904Z" fill="white"/>
<path d="M288.223 159V152.898H289.514V155.416H292.132V152.898H293.42V159H292.132V156.479H289.514V159H288.223Z" fill="white"/>
<path d="M300.09 155.949C300.09 156.614 299.964 157.181 299.712 157.647C299.462 158.114 299.12 158.471 298.687 158.717C298.256 158.961 297.771 159.083 297.233 159.083C296.691 159.083 296.204 158.96 295.773 158.714C295.342 158.468 295.002 158.111 294.751 157.644C294.501 157.178 294.376 156.613 294.376 155.949C294.376 155.284 294.501 154.718 294.751 154.251C295.002 153.784 295.342 153.429 295.773 153.184C296.204 152.938 296.691 152.815 297.233 152.815C297.771 152.815 298.256 152.938 298.687 153.184C299.12 153.429 299.462 153.784 299.712 154.251C299.964 154.718 300.09 155.284 300.09 155.949ZM298.783 155.949C298.783 155.518 298.718 155.155 298.589 154.859C298.462 154.563 298.282 154.338 298.05 154.185C297.817 154.032 297.545 153.956 297.233 153.956C296.921 153.956 296.649 154.032 296.417 154.185C296.184 154.338 296.004 154.563 295.875 154.859C295.747 155.155 295.684 155.518 295.684 155.949C295.684 156.38 295.747 156.744 295.875 157.04C296.004 157.336 296.184 157.56 296.417 157.713C296.649 157.866 296.921 157.942 297.233 157.942C297.545 157.942 297.817 157.866 298.05 157.713C298.282 157.56 298.462 157.336 298.589 157.04C298.718 156.744 298.783 156.38 298.783 155.949Z" fill="white"/>
<path d="M302.113 157.171V157.069C302.115 156.722 302.145 156.445 302.205 156.238C302.267 156.032 302.356 155.865 302.473 155.738C302.59 155.61 302.731 155.495 302.896 155.392C303.019 155.312 303.13 155.23 303.227 155.145C303.324 155.059 303.402 154.965 303.459 154.862C303.517 154.756 303.546 154.639 303.546 154.51C303.546 154.373 303.513 154.253 303.448 154.15C303.382 154.046 303.294 153.967 303.182 153.911C303.073 153.856 302.952 153.828 302.819 153.828C302.69 153.828 302.568 153.857 302.452 153.914C302.337 153.97 302.243 154.053 302.169 154.164C302.096 154.274 302.056 154.41 302.05 154.573H300.835C300.844 154.175 300.94 153.848 301.121 153.589C301.301 153.329 301.541 153.136 301.839 153.008C302.137 152.879 302.465 152.815 302.825 152.815C303.22 152.815 303.57 152.88 303.874 153.011C304.177 153.141 304.416 153.328 304.589 153.575C304.761 153.821 304.848 154.118 304.848 154.465C304.848 154.698 304.809 154.904 304.732 155.085C304.656 155.264 304.55 155.423 304.413 155.562C304.276 155.699 304.114 155.823 303.927 155.934C303.77 156.028 303.641 156.125 303.54 156.226C303.441 156.327 303.366 156.445 303.316 156.578C303.269 156.711 303.244 156.875 303.242 157.069V157.171H302.113ZM302.703 159.077C302.504 159.077 302.334 159.008 302.193 158.869C302.054 158.728 301.986 158.559 301.988 158.362C301.986 158.168 302.054 158.001 302.193 157.862C302.334 157.723 302.504 157.653 302.703 157.653C302.891 157.653 303.057 157.723 303.2 157.862C303.343 158.001 303.416 158.168 303.418 158.362C303.416 158.494 303.381 158.614 303.313 158.723C303.248 158.83 303.161 158.917 303.054 158.982C302.947 159.046 302.83 159.077 302.703 159.077Z" fill="white"/>
<path d="M315.678 48.7249C315.65 48.4436 315.53 48.225 315.319 48.0693C315.107 47.9135 314.82 47.8356 314.458 47.8356C314.211 47.8356 314.003 47.8705 313.833 47.9402C313.664 48.0077 313.533 48.1018 313.443 48.2227C313.354 48.3436 313.31 48.4808 313.31 48.6342C313.306 48.7621 313.332 48.8737 313.391 48.969C313.451 49.0643 313.533 49.1468 313.638 49.2166C313.743 49.284 313.864 49.3433 314.001 49.3944C314.138 49.4432 314.284 49.4851 314.44 49.52L315.082 49.6734C315.393 49.7431 315.679 49.8361 315.94 49.9524C316.2 50.0686 316.426 50.2116 316.616 50.3813C316.807 50.551 316.954 50.7509 317.059 50.9811C317.166 51.2113 317.221 51.4751 317.223 51.7727C317.221 52.2098 317.109 52.5887 316.888 52.9095C316.67 53.228 316.353 53.4756 315.94 53.6523C315.528 53.8267 315.032 53.9138 314.451 53.9138C313.874 53.9138 313.372 53.8255 312.944 53.6488C312.519 53.4721 312.186 53.2106 311.947 52.8642C311.71 52.5155 311.585 52.0842 311.574 51.5704H313.035C313.051 51.8099 313.12 52.0098 313.241 52.1702C313.364 52.3283 313.528 52.4481 313.732 52.5294C313.939 52.6085 314.173 52.648 314.433 52.648C314.689 52.648 314.911 52.6108 315.099 52.5364C315.29 52.462 315.437 52.3585 315.542 52.226C315.647 52.0935 315.699 51.9412 315.699 51.7692C315.699 51.6088 315.651 51.474 315.556 51.3647C315.463 51.2554 315.326 51.1624 315.145 51.0857C314.966 51.009 314.746 50.9392 314.486 50.8765L313.708 50.6812C313.106 50.5347 312.63 50.3057 312.282 49.9942C311.933 49.6827 311.76 49.2631 311.762 48.7353C311.76 48.3029 311.875 47.9251 312.107 47.602C312.342 47.2788 312.664 47.0266 313.073 46.8453C313.482 46.6639 313.947 46.5733 314.468 46.5733C314.998 46.5733 315.461 46.6639 315.856 46.8453C316.254 47.0266 316.563 47.2788 316.784 47.602C317.004 47.9251 317.118 48.2994 317.125 48.7249H315.678Z" fill="white"/>
<path d="M318.239 53.8127V46.6709H321.056C321.598 46.6709 322.059 46.7744 322.441 46.9813C322.822 47.1858 323.113 47.4706 323.312 47.8356C323.515 48.1983 323.616 48.6168 323.616 49.091C323.616 49.5653 323.514 49.9837 323.309 50.3464C323.104 50.7091 322.808 50.9916 322.42 51.1938C322.034 51.3961 321.567 51.4972 321.018 51.4972H319.222V50.2871H320.774C321.064 50.2871 321.304 50.2372 321.492 50.1372C321.683 50.0349 321.825 49.8942 321.918 49.7152C322.013 49.5339 322.061 49.3258 322.061 49.091C322.061 48.8539 322.013 48.647 321.918 48.4703C321.825 48.2913 321.683 48.153 321.492 48.0553C321.302 47.9554 321.06 47.9054 320.767 47.9054H319.749V53.8127H318.239Z" fill="white"/>
<path d="M324.597 53.8127V46.6709H329.409V47.9158H326.107V49.6176H329.161V50.8625H326.107V52.5678H329.423V53.8127H324.597Z" fill="white"/>
<path d="M331.841 53.8127H330.222L332.688 46.6709H334.634L337.096 53.8127H335.478L333.689 48.3029H333.633L331.841 53.8127ZM331.739 51.0055H335.561V52.1842H331.739V51.0055Z" fill="white"/>
<path d="M337.955 53.8127V46.6709H339.465V49.8199H339.559L342.13 46.6709H343.939L341.289 49.8687L343.971 53.8127H342.164L340.208 50.8765L339.465 51.7832V53.8127H337.955Z" fill="white"/>
<path d="M453.116 72.3367H455.323L457.447 76.349H457.538L459.662 72.3367H461.869L458.471 78.3596V81.6531H456.514V78.3596L453.116 72.3367Z" fill="white"/>
<path d="M462.945 81.6531V72.3367H469.222V73.9607H464.914V76.1806H468.899V77.8046H464.914V80.0291H469.24V81.6531H462.945Z" fill="white"/>
<path d="M475.842 75.0161C475.806 74.6492 475.65 74.3641 475.374 74.1609C475.098 73.9577 474.723 73.8561 474.25 73.8561C473.928 73.8561 473.657 73.9016 473.436 73.9926C473.214 74.0805 473.044 74.2034 472.926 74.3611C472.811 74.5188 472.753 74.6977 472.753 74.8978C472.747 75.0646 472.782 75.2102 472.858 75.3345C472.937 75.4589 473.044 75.5665 473.181 75.6575C473.317 75.7455 473.475 75.8228 473.654 75.8895C473.833 75.9532 474.024 76.0078 474.227 76.0533L475.064 76.2534C475.471 76.3444 475.844 76.4657 476.183 76.6174C476.523 76.769 476.817 76.9555 477.066 77.1769C477.314 77.3983 477.507 77.6591 477.643 77.9593C477.783 78.2595 477.854 78.6038 477.857 78.9919C477.854 79.5621 477.709 80.0564 477.421 80.4749C477.136 80.8904 476.723 81.2134 476.183 81.4439C475.646 81.6713 474.999 81.785 474.241 81.785C473.489 81.785 472.834 81.6698 472.276 81.4393C471.721 81.2088 471.287 80.8676 470.975 80.4158C470.665 79.9609 470.503 79.3983 470.488 78.7281H472.394C472.415 79.0405 472.505 79.3013 472.662 79.5105C472.823 79.7168 473.037 79.8729 473.304 79.9791C473.574 80.0822 473.878 80.1337 474.218 80.1337C474.552 80.1337 474.841 80.0852 475.087 79.9882C475.336 79.8911 475.528 79.7562 475.665 79.5833C475.801 79.4104 475.869 79.2118 475.869 78.9874C475.869 78.7781 475.807 78.6022 475.683 78.4597C475.562 78.3172 475.383 78.1959 475.146 78.0958C474.913 77.9957 474.626 77.9047 474.286 77.8228L473.272 77.5681C472.486 77.377 471.866 77.0783 471.411 76.6719C470.956 76.2656 470.731 75.7182 470.734 75.0298C470.731 74.4657 470.881 73.9729 471.184 73.5513C471.49 73.1298 471.91 72.8007 472.444 72.5642C472.978 72.3276 473.584 72.2094 474.264 72.2094C474.955 72.2094 475.559 72.3276 476.074 72.5642C476.593 72.8007 476.996 73.1298 477.284 73.5513C477.572 73.9729 477.721 74.4611 477.73 75.0161H475.842Z" fill="white"/>
<path d="M481.461 72.3367L481.284 78.86H479.619L479.437 72.3367H481.461ZM480.451 81.7714C480.151 81.7714 479.893 81.6652 479.678 81.4529C479.463 81.2376 479.357 80.9799 479.36 80.6796C479.357 80.3824 479.463 80.1277 479.678 79.9154C479.893 79.7031 480.151 79.597 480.451 79.597C480.739 79.597 480.993 79.7031 481.211 79.9154C481.429 80.1277 481.54 80.3824 481.543 80.6796C481.54 80.8798 481.487 81.0633 481.384 81.23C481.284 81.3938 481.152 81.5257 480.988 81.6258C480.824 81.7229 480.645 81.7714 480.451 81.7714Z" fill="white"/>
<defs>
<linearGradient id="paint0_linear_45_131" x1="350" y1="0" x2="350" y2="351" gradientUnits="userSpaceOnUse">
<stop stop-color="#6754E9"/>
<stop offset="0.385417" stop-color="#6754E9"/>
<stop offset="0.5" stop-color="#9566FD"/>
<stop offset="0.640625" stop-color="#CB45ED"/>
<stop offset="1" stop-color="#CB45ED"/>
</linearGradient>
<linearGradient id="paint1_linear_45_131" x1="350.5" y1="26" x2="350.5" y2="349" gradientUnits="userSpaceOnUse">
<stop stop-color="#CB45ED"/>
<stop offset="1" stop-color="#6754E9"/>
</linearGradient>
<linearGradient id="paint2_linear_45_131" x1="350.5" y1="26" x2="350.5" y2="349" gradientUnits="userSpaceOnUse">
<stop stop-color="#CB45ED"/>
<stop offset="1" stop-color="#6754E9"/>
</linearGradient>
</defs>
</svg>
