<svg width="754" height="785" viewBox="0 0 754 785" fill="none" xmlns="http://www.w3.org/2000/svg">
<path d="M699.462 178.037C696.823 173.648 694.077 169.345 691.226 165.126C653.064 109.06 589.462 70.6763 527.8 53.297C500.895 45.7899 473.192 41.5196 445.276 40.5766C263.453 34.0573 196.67 183.968 138.093 222.606C79.515 261.245 -10.3868 327.28 0.982073 465.964C9.53658 571.417 69.5294 672.242 179.068 718.115C191.443 723.309 204.142 727.691 217.087 731.233C243.305 738.348 270.24 742.492 297.384 743.588C380.211 747.277 447.47 727.306 513.251 677.028C528.547 665.341 543.764 652.16 563.608 650.713C578.029 649.664 591.704 654.847 576.63 668.792C558.901 685.169 579.349 717.4 624.332 695.012C699.462 657.614 730.373 576.934 744.938 494.903C762.746 394.205 754.081 269.052 699.462 178.037Z" fill="#CACCFB"/>
<path opacity="0.7" d="M699.462 178.037C696.823 173.648 694.077 169.345 691.226 165.126C653.064 109.06 589.462 70.6763 527.8 53.297C500.895 45.7899 473.192 41.5196 445.276 40.5766C263.453 34.0573 196.67 183.968 138.093 222.606C79.515 261.245 -10.3868 327.28 0.982073 465.964C9.53658 571.417 69.5294 672.242 179.068 718.115C191.443 723.309 204.142 727.691 217.087 731.233C243.305 738.348 270.24 742.492 297.384 743.588C380.211 747.277 447.47 727.306 513.251 677.028C528.547 665.341 543.764 652.16 563.608 650.713C578.029 649.664 591.704 654.847 576.63 668.792C558.901 685.169 579.349 717.4 624.332 695.012C699.462 657.614 730.373 576.934 744.938 494.903C762.746 394.205 754.081 269.052 699.462 178.037Z" fill="white"/>
<path d="M562.51 713.139C566.644 714.935 576.82 714.729 576.82 714.729C576.82 714.729 574.642 708.114 574.451 707.716C572.241 703.074 565.229 695.409 559.521 696.189C558.576 696.342 557.674 696.692 556.874 697.217C556.074 697.742 555.394 698.43 554.878 699.236C554.362 700.041 554.021 700.947 553.879 701.893C553.736 702.839 553.795 703.805 554.051 704.727C554.925 708.655 558.98 711.596 562.51 713.139Z" fill="#263238"/>
<path d="M584.137 782.783C583.478 783.083 582.872 783.485 582.34 783.976H593.375C590.163 782.449 586.728 781.686 584.137 782.783Z" fill="#263238"/>
<path d="M660.855 783.976H668.058C665.729 783.146 663.185 783.146 660.855 783.976Z" fill="#263238"/>
<path d="M635.112 761.969C638.022 764.561 645.622 767.105 647.642 767.741C647.483 768.95 647.324 770.142 647.18 771.351C646.672 775.612 646.163 779.826 645.59 784.071H647.912C648.357 779.937 648.771 775.787 649.184 771.621C649.343 769.84 649.55 768.075 649.725 766.31C650.472 766.596 659.265 769.856 663.542 769.49C667.374 769.22 672.176 767.9 674.402 764.402C674.947 763.618 675.321 762.728 675.501 761.79C675.681 760.852 675.663 759.887 675.447 758.957C675.232 758.027 674.823 757.152 674.249 756.389C673.675 755.626 672.947 754.992 672.113 754.528C666.993 751.888 657.802 756.754 654.177 760.379C653.891 760.649 650.551 764.831 649.756 765.928C650.17 762.033 650.615 758.169 651.219 754.369C651.992 749.236 653.097 744.158 654.527 739.168C654.876 739.295 664.067 742.745 668.424 742.427C672.256 742.157 677.058 740.758 679.284 737.339C679.828 736.555 680.203 735.665 680.383 734.727C680.563 733.79 680.544 732.825 680.329 731.894C680.113 730.964 679.705 730.089 679.13 729.326C678.556 728.564 677.828 727.929 676.994 727.465C671.874 724.825 662.684 729.691 659.042 733.316C658.756 733.603 655.178 738.087 654.59 738.961C654.67 738.675 654.733 738.357 654.813 738.071C656.401 733.096 658.423 728.27 660.855 723.649C662.159 721.089 663.558 718.72 664.973 716.43C666.563 717.241 674.116 720.898 678.123 721.057C682.13 721.216 686.884 720.342 689.46 717.193C690.093 716.477 690.568 715.635 690.854 714.722C691.139 713.81 691.23 712.848 691.119 711.898C691.008 710.948 690.698 710.033 690.209 709.211C689.721 708.389 689.065 707.679 688.283 707.128C683.513 703.948 673.83 707.764 669.807 710.976C669.584 711.151 667.565 713.17 666.102 714.649C666.754 713.631 667.406 712.566 668.058 711.612C670.459 707.987 672.828 704.807 675.07 702.072C676.31 700.482 677.471 699.098 678.584 697.795C680.603 697.795 688.745 697.508 692.306 695.839C695.868 694.169 699.764 691.164 700.606 687.189C700.836 686.259 700.867 685.291 700.698 684.349C700.529 683.406 700.163 682.51 699.625 681.718C699.087 680.926 698.387 680.256 697.573 679.752C696.759 679.248 695.847 678.922 694.898 678.793C689.174 678.173 682.368 686.028 680.285 690.719C680.095 691.132 678.012 697.795 678.107 697.795H678.234C677.153 699.035 676.008 700.355 674.784 701.849C672.542 704.6 670.014 707.716 667.533 711.39C664.804 715.228 662.298 719.22 660.028 723.347C657.48 727.959 655.351 732.791 653.668 737.784C653.668 737.784 653.668 737.912 653.668 737.975C653.668 736.29 653.668 731.615 653.588 731.202C652.921 726.113 648.643 716.637 642.983 715.603C642.041 715.452 641.079 715.501 640.157 715.747C639.236 715.993 638.377 716.431 637.636 717.031C636.895 717.631 636.289 718.38 635.857 719.23C635.424 720.08 635.176 721.011 635.128 721.963C634.794 726.002 637.736 730.057 640.598 732.617C643.778 735.511 652.793 738.293 653.509 738.516C651.899 743.642 650.63 748.869 649.709 754.162C649.168 757.247 648.707 760.363 648.294 763.496C648.294 762.033 648.294 760.729 648.294 760.554C647.626 755.45 643.364 745.989 637.704 744.94C636.762 744.794 635.801 744.847 634.881 745.095C633.96 745.342 633.102 745.78 632.361 746.379C631.62 746.978 631.013 747.725 630.577 748.572C630.142 749.42 629.888 750.349 629.833 751.3C629.308 755.307 632.234 759.362 635.112 761.969Z" fill="#263238"/>
<path d="M565.994 742.412C570.287 743.032 579.303 740.424 580.018 740.201C581.501 745.364 583.329 750.421 585.488 755.339C586.728 758.217 588.064 761.079 589.447 763.925C588.62 762.717 587.857 761.635 587.762 761.508C584.391 757.612 575.614 752.079 570.271 754.337C569.401 754.732 568.623 755.307 567.99 756.023C567.357 756.74 566.882 757.582 566.597 758.494C566.311 759.407 566.222 760.37 566.335 761.319C566.447 762.269 566.759 763.184 567.25 764.005C569.206 767.566 573.897 769.331 577.681 769.888C581.465 770.444 589.272 768.298 591.324 767.805C591.864 768.886 592.389 769.967 592.914 771.064C595.092 775.373 597.239 779.682 599.274 783.976H602.025C599.703 779.349 597.254 774.737 594.806 770.126L592.341 765.356C593.104 765.181 602.215 763.066 605.65 760.443C608.687 758.105 611.931 754.273 611.899 750.219C611.924 749.262 611.748 748.311 611.382 747.427C611.016 746.543 610.468 745.746 609.773 745.088C609.079 744.43 608.254 743.925 607.352 743.606C606.45 743.288 605.491 743.162 604.537 743.238C598.813 743.859 593.852 752.97 592.802 758.01C592.723 758.392 592.246 763.718 592.198 765.07C590.385 761.604 588.621 758.121 587.03 754.623C584.833 749.915 582.952 745.065 581.402 740.106C581.767 740.106 591.276 737.864 594.79 735.177C597.843 732.839 601.071 729.007 601.039 724.953C601.067 723.996 600.892 723.043 600.527 722.158C600.162 721.273 599.614 720.475 598.919 719.816C598.224 719.158 597.398 718.653 596.495 718.335C595.591 718.017 594.631 717.894 593.677 717.972C587.953 718.592 582.992 727.719 581.942 732.744C581.863 733.142 581.354 738.866 581.338 739.915C581.243 739.629 581.115 739.343 581.036 739.041C579.637 734.057 578.68 728.96 578.174 723.808C577.856 720.946 577.697 718.195 577.617 715.508C579.43 715.285 587.714 714.188 591.133 712.105C594.551 710.022 598.065 706.683 598.479 702.565C598.609 701.617 598.538 700.653 598.27 699.734C598.003 698.816 597.546 697.964 596.928 697.234C596.31 696.503 595.546 695.911 594.685 695.496C593.823 695.08 592.884 694.85 591.928 694.821C586.172 694.821 580.225 703.328 578.651 708.225C578.555 708.496 577.983 711.294 577.586 713.345C577.586 712.121 577.586 710.881 577.586 709.72C577.586 705.363 577.856 701.372 578.142 697.858C578.301 695.839 578.508 694.042 578.699 692.341C580.368 691.196 587.03 686.489 589.082 683.134C591.133 679.779 592.707 675.184 591.212 671.352C590.892 670.45 590.385 669.626 589.725 668.933C589.066 668.24 588.267 667.694 587.383 667.329C586.498 666.965 585.546 666.791 584.59 666.818C583.633 666.845 582.693 667.074 581.831 667.488C576.727 670.128 575.375 680.431 576.218 685.503C576.298 685.949 578.222 692.659 578.317 692.611H578.412C578.19 694.201 577.967 695.982 577.76 697.89C577.411 701.42 577.045 705.411 576.949 709.784C576.79 714.493 576.901 719.207 577.283 723.903C577.694 729.165 578.572 734.38 579.907 739.486V739.661C579.001 738.246 576.345 734.35 576.107 734.08C572.736 730.184 563.943 724.651 558.616 726.893C557.747 727.291 556.971 727.869 556.339 728.587C555.707 729.305 555.233 730.148 554.948 731.061C554.663 731.974 554.574 732.937 554.685 733.887C554.797 734.838 555.107 735.754 555.595 736.576C557.503 740.09 562.273 741.855 565.994 742.412Z" fill="#263238"/>
<path d="M622.139 783.976C623.843 782.067 624.837 779.63 624.954 777.075C624.981 776.119 624.807 775.168 624.443 774.284C624.079 773.4 623.532 772.603 622.839 771.945C622.146 771.286 621.322 770.781 620.42 770.462C619.519 770.143 618.561 770.018 617.608 770.094C612.202 770.683 607.479 778.824 606.096 783.976H622.139Z" fill="#263238"/>
<path d="M641.314 783.976C639.406 780.223 636.544 776.82 633.363 776.216C632.422 776.068 631.459 776.119 630.538 776.366C629.617 776.613 628.758 777.05 628.016 777.649C627.275 778.248 626.667 778.997 626.232 779.845C625.797 780.694 625.546 781.624 625.493 782.576C625.461 783.026 625.461 783.478 625.493 783.928L641.314 783.976Z" fill="#263238"/>
<path d="M664.736 715.365C664.831 715.365 666.58 708.639 666.644 708.209C667.343 703.105 665.722 692.849 660.538 690.353C659.666 689.96 658.721 689.755 657.764 689.752C656.808 689.748 655.861 689.947 654.987 690.334C654.112 690.721 653.329 691.288 652.688 691.998C652.047 692.708 651.563 693.546 651.268 694.455C649.869 698.272 651.634 702.962 653.733 706.19C656.181 709.974 664.736 715.349 664.736 715.365Z" fill="#263238"/>
<path d="M20.3337 744.765C23.4025 746.1 30.9235 745.926 30.9235 745.926C30.9235 745.926 29.3334 741.012 29.1585 740.71C27.5685 737.276 22.3054 731.583 18.0281 732.156C17.325 732.271 16.654 732.532 16.0588 732.924C15.4636 733.315 14.9575 733.827 14.5735 734.427C14.1895 735.027 13.9362 735.702 13.83 736.406C13.7239 737.11 13.7674 737.829 13.9576 738.516C14.7208 741.442 17.726 743.62 20.3337 744.765Z" fill="#263238"/>
<path d="M74.2689 781.05C75.9814 782.328 77.8797 783.336 79.8977 784.039H102.429C102.819 783.695 103.166 783.305 103.462 782.878C103.87 782.297 104.15 781.637 104.285 780.94C104.42 780.243 104.407 779.525 104.247 778.834C104.086 778.143 103.782 777.493 103.354 776.926C102.925 776.36 102.383 775.891 101.761 775.548C97.9608 773.577 91.1394 777.138 88.4363 779.889C88.2296 780.096 85.7492 783.196 85.1608 784.007C85.4629 781.114 85.7969 778.251 86.2421 775.421C86.8204 771.609 87.6436 767.838 88.7067 764.132C88.9611 764.227 95.7347 766.787 99.0261 766.549C101.856 766.358 105.386 765.308 107.088 762.78C107.495 762.199 107.775 761.538 107.91 760.841C108.046 760.145 108.032 759.427 107.872 758.736C107.712 758.044 107.407 757.394 106.979 756.828C106.551 756.262 106.008 755.793 105.386 755.45C101.586 753.478 94.7648 757.04 92.0617 759.791C91.8391 759.998 89.1837 763.337 88.7385 763.973C88.7385 763.766 88.8498 763.528 88.9134 763.321C90.0881 759.636 91.5831 756.06 93.3814 752.636C94.3673 750.728 95.4008 748.963 96.4502 747.277C97.6587 747.881 103.24 750.584 106.213 750.712C109.187 750.839 112.717 750.171 114.64 747.834C115.111 747.301 115.464 746.675 115.676 745.997C115.888 745.319 115.954 744.603 115.87 743.897C115.786 743.192 115.554 742.512 115.189 741.902C114.823 741.293 114.333 740.767 113.75 740.36C110.188 737.991 103.017 740.837 100.028 743.222C99.8689 743.35 98.4378 744.813 97.293 745.957C97.77 745.194 98.2629 744.367 98.7399 743.684C100.521 740.996 102.333 738.627 103.939 736.56C104.878 735.383 105.736 734.35 106.547 733.38C108.137 733.38 114.1 733.173 116.755 731.933C119.411 730.693 122.289 728.451 122.909 725.493C123.088 724.798 123.118 724.073 122.995 723.365C122.872 722.658 122.6 721.984 122.197 721.39C121.794 720.796 121.269 720.294 120.657 719.919C120.045 719.544 119.36 719.303 118.647 719.213C114.386 718.751 109.346 724.571 107.787 728.069C107.644 728.371 106.086 733.316 106.197 733.316H106.293C105.482 734.239 104.703 735.224 103.733 736.322C102.063 738.373 100.203 740.694 98.3424 743.35C96.3185 746.203 94.4604 749.171 92.7772 752.238C90.8722 755.667 89.2758 759.259 88.007 762.971C88.007 762.971 88.007 763.05 88.007 763.098C88.007 761.842 88.007 758.328 88.007 758.074C87.5141 754.289 84.3499 747.261 80.1362 746.482C79.4335 746.372 78.7154 746.411 78.0288 746.597C77.3423 746.783 76.7027 747.112 76.152 747.562C75.6012 748.013 75.1516 748.574 74.8326 749.21C74.5137 749.846 74.3324 750.542 74.3007 751.252C74.0622 754.257 76.2406 757.279 78.3713 759.203C80.7723 761.349 87.4187 763.432 87.9116 763.591C86.7147 767.398 85.7744 771.281 85.0972 775.214C84.6838 777.488 84.3499 779.81 84.0319 782.147C84.0319 781.05 84.0319 780.08 84.0319 779.953C83.539 776.168 80.3589 769.14 76.1611 768.361C75.4584 768.251 74.7403 768.29 74.0537 768.476C73.3671 768.662 72.7276 768.991 72.1768 769.442C71.6261 769.892 71.1765 770.453 70.8575 771.089C70.5385 771.725 70.3573 772.421 70.3256 773.131C69.9599 776.073 72.1383 779.094 74.2689 781.05Z" fill="#263238"/>
<path d="M22.9271 766.501C26.1072 766.962 32.8172 765.022 33.3419 764.911C34.4461 768.745 35.806 772.5 37.4125 776.153C38.3347 778.283 39.3206 780.414 40.3541 782.513C39.734 781.606 39.1934 780.811 39.098 780.716C36.6016 777.822 30.0664 773.72 26.139 775.389C25.4912 775.683 24.9129 776.11 24.4419 776.642C23.9709 777.175 23.6179 777.801 23.4062 778.48C23.1944 779.159 23.1287 779.875 23.2133 780.581C23.2979 781.287 23.5309 781.967 23.897 782.576C24.1949 783.11 24.576 783.593 25.0259 784.007H42.6756C42.6756 783.88 42.5484 783.737 42.4689 783.61C43.0413 783.483 49.8149 781.909 52.359 779.953C54.6169 778.22 57.0179 775.373 57.002 772.368C57.0223 771.657 56.8924 770.95 56.6208 770.293C56.3492 769.636 55.942 769.043 55.4258 768.554C54.9095 768.065 54.2959 767.69 53.625 767.454C52.9541 767.218 52.241 767.126 51.5322 767.185C47.2867 767.646 43.5819 774.419 42.8187 778.156C42.8187 778.442 42.4053 782.386 42.3576 783.403C41.0219 780.827 39.7181 778.236 38.5255 775.644C36.9115 772.132 35.5253 768.521 34.3755 764.831C34.6299 764.831 41.7056 763.162 44.3133 761.158C46.5712 759.425 48.9722 756.579 48.9563 753.574C48.9741 752.864 48.8425 752.157 48.57 751.501C48.2976 750.845 47.8903 750.254 47.3746 749.765C46.859 749.276 46.2464 748.901 45.5766 748.665C44.9068 748.428 44.1947 748.334 43.4865 748.39C39.2411 748.851 35.5362 755.625 34.773 759.361C34.773 759.648 34.3278 763.909 34.3119 764.688C34.3119 764.466 34.1529 764.259 34.0893 764.036C33.0419 760.311 32.3184 756.502 31.9268 752.652C31.6883 750.537 31.577 748.486 31.5293 746.498C32.8649 746.339 39.0184 745.512 41.5625 743.97C44.1066 742.427 46.6984 739.931 47.0164 736.926C47.1127 736.223 47.0598 735.507 46.8613 734.825C46.6627 734.144 46.3229 733.512 45.8639 732.971C45.4049 732.429 44.8371 731.99 44.1974 731.683C43.5577 731.375 42.8604 731.206 42.1509 731.186C37.8736 731.186 33.4532 737.546 32.2766 741.139C32.2766 741.33 31.7837 743.413 31.4975 744.94C31.4975 744.033 31.4975 743.111 31.4975 742.253C31.4975 739.072 31.7201 736.051 31.9109 733.428C32.0381 731.933 32.1971 730.597 32.3402 729.341C33.5805 728.483 38.5255 725 40.0361 722.504C41.5466 720.008 42.7392 716.557 41.6261 713.743C41.3868 713.073 41.0091 712.461 40.5177 711.946C40.0263 711.431 39.4321 711.026 38.7738 710.756C38.1155 710.486 37.4077 710.358 36.6965 710.379C35.9854 710.401 35.2866 710.572 34.6458 710.881C30.8456 712.836 29.8756 720.421 30.4798 724.253C30.4798 724.587 31.9745 729.58 32.0699 729.532C31.895 730.741 31.736 732.028 31.577 733.444C31.3226 736.067 31.0523 739.041 30.9728 742.284C30.8563 745.779 30.9412 749.278 31.2272 752.763C31.5257 756.672 32.175 760.546 33.167 764.338V764.481C32.4833 763.416 30.5116 760.522 30.3367 760.316C27.8244 757.438 21.3052 753.319 17.3619 754.989C16.7176 755.286 16.1428 755.715 15.6747 756.248C15.2065 756.781 14.8555 757.407 14.6442 758.084C14.4329 758.762 14.3661 759.476 14.448 760.181C14.5299 760.885 14.7588 761.565 15.1199 762.176C16.6304 764.784 20.065 766.087 22.9271 766.501Z" fill="#263238"/>
<path d="M96.2752 746.403C96.2752 746.403 97.6427 741.426 97.6745 741.092C98.1992 737.307 97.0067 729.691 93.1428 727.831C92.4944 727.542 91.7926 727.392 91.0827 727.391C90.3728 727.391 89.6707 727.539 89.0217 727.827C88.3728 728.114 87.7914 728.535 87.3154 729.062C86.8393 729.588 86.479 730.209 86.2579 730.884C85.2243 733.714 86.5441 737.244 88.0864 739.597C89.915 742.412 96.2593 746.403 96.2752 746.403Z" fill="#263238"/>
<path d="M670.236 253.994C669.444 253.001 668.707 251.966 668.026 250.893C665.641 247.252 651.251 228.903 627.798 227.233C591.226 224.61 581.273 253.994 574.817 259.146C568.361 264.297 552.89 255.282 542.571 259.146C532.251 263.01 532.251 274.633 524.507 277.209C516.764 279.785 511.787 272.868 498.717 274.633C489.828 275.825 487.109 281.073 484.533 284.952C481.958 288.832 474.214 287.528 466.47 287.528C458.727 287.528 452.287 296.56 452.287 296.56H730.897C730.897 296.56 723.153 269.529 711.546 261.722C699.938 253.914 690.875 266.889 683.163 264.313C677.741 262.501 672.748 257.079 670.236 253.994Z" stroke="#263238" stroke-linecap="round" stroke-linejoin="round"/>
<path d="M273.578 61.3267C272.779 60.3081 272.036 59.2464 271.352 58.1466C268.983 54.5054 254.593 36.1561 231.124 34.4866C194.552 31.8789 184.599 61.2472 178.159 66.399C171.719 71.5508 156.232 62.5352 145.913 66.399C135.593 70.2629 135.593 81.9657 127.85 84.6052C120.106 87.2447 115.129 80.2643 102.059 82.0293C93.1704 83.2218 90.4514 88.3895 87.8596 92.3487C85.2678 96.308 77.5402 94.9246 69.8125 94.9246C62.0848 94.9246 55.6133 103.956 55.6133 103.956H334.239C334.239 103.956 326.495 76.9252 314.888 69.1339C303.28 61.3426 294.217 74.2857 286.505 71.7098C281.083 69.8335 276.059 64.4115 273.578 61.3267Z" stroke="#263238" stroke-linecap="round" stroke-linejoin="round"/>
<path d="M705.372 296.496C705.372 296.496 692.651 275.269 676.941 271.914C661.232 268.559 656.271 279.737 651.246 281.963C646.222 284.189 631.704 274.712 622.768 276.382C613.832 278.051 611.638 284.762 603.767 287.003C595.896 289.245 593.161 285.318 585.338 286.431C577.515 287.544 550.15 296.56 550.15 296.56L705.372 296.496Z" stroke="#263238" stroke-linecap="round" stroke-linejoin="round"/>
<path d="M239.547 241H453V143H239.547L197 191.637L239.547 241Z" fill="url(#paint0_linear_20_961)" stroke="#263238" stroke-linecap="round" stroke-linejoin="round"/>
<path d="M474 784H459L466.118 1L474 9.02808V784Z" fill="#263238" stroke="#263238" stroke-linecap="round" stroke-linejoin="round"/>
<path d="M466 1H451V784H466V1Z" fill="white" stroke="#263238" stroke-linecap="round" stroke-linejoin="round"/>
<path d="M683.453 135H470V36H683.453L726 85.1336L683.453 135Z" fill="url(#paint1_linear_20_961)" stroke="#263238" stroke-linecap="round" stroke-linejoin="round"/>
<path d="M523.651 111.239V64.8725H515.287V55.7456H544.274V64.8725H535.974V111.239H523.651Z" fill="white"/>
<path d="M549.137 111.239V55.7456H564.401C567.688 55.6839 570.966 56.1017 574.132 56.9859C576.69 57.7016 578.93 59.259 580.493 61.4062C582.175 64.1001 582.976 67.2516 582.782 70.4219C582.806 72.4648 582.625 74.505 582.242 76.5118C581.918 78.1842 581.229 79.7644 580.222 81.1388C579.097 82.5251 577.651 83.6166 576.009 84.319L583.609 111.175H570.889L564.799 86.3065H561.301V111.239H549.137ZM561.396 79.3262H564.815C566.223 79.4042 567.624 79.0787 568.853 78.3881C569.833 77.7738 570.557 76.8245 570.889 75.7168C571.3 74.351 571.493 72.929 571.461 71.5031C571.571 69.5663 571.118 67.6389 570.157 65.9538C569.608 65.2466 568.888 64.6904 568.064 64.3372C567.241 63.9841 566.342 63.8455 565.451 63.9344H561.476L561.396 79.3262Z" fill="white"/>
<path d="M605.918 112.065C602.477 112.26 599.043 111.565 595.949 110.046C593.567 108.676 591.768 106.481 590.892 103.877C589.848 100.709 589.359 97.3844 589.445 94.0501V55.7456H601.577V95.8945C601.581 97.0446 601.671 98.1927 601.848 99.3291C601.986 100.355 602.404 101.323 603.056 102.128C603.839 102.834 604.856 103.225 605.91 103.225C606.965 103.225 607.982 102.834 608.765 102.128C609.397 101.32 609.789 100.35 609.893 99.3291C610.052 98.1911 610.132 97.0435 610.132 95.8945V55.7456H622.328V94.0501C622.41 97.3854 621.915 100.71 620.865 103.877C619.983 106.464 618.207 108.651 615.856 110.046C612.774 111.569 609.35 112.264 605.918 112.065Z" fill="white"/>
<path d="M630.168 111.239V55.7456H655.116V64.1093H642.396V77.8792H652.047V86.3701H642.396V102.954H655.195V111.239H630.168Z" fill="white"/>
<path d="M270.734 217.693V162.216H294.712V170.468H282.994V184.445H293.202V192.999H282.994V217.693H270.734Z" fill="white"/>
<path d="M295.793 217.693L306.287 162.216H320.264L330.599 217.693H319.294L317.402 205.99H309.293L307.384 217.693H295.793ZM310.39 198.612H316.289L313.331 176.956L310.39 198.612Z" fill="white"/>
<path d="M335.672 217.693V162.216H347.931V209.409H360.652V217.693H335.672Z" fill="white"/>
<path d="M380.212 218.52C377.201 218.62 374.211 217.987 371.499 216.675C369.151 215.413 367.297 213.396 366.236 210.951C364.916 207.771 364.24 204.361 364.248 200.918L374.727 199.328C374.717 201.265 374.936 203.197 375.379 205.084C375.595 206.273 376.147 207.377 376.969 208.264C377.675 208.897 378.596 209.239 379.544 209.218C380.044 209.286 380.553 209.198 381.001 208.964C381.448 208.73 381.811 208.364 382.041 207.914C382.427 207.054 382.627 206.122 382.629 205.179C382.714 203.132 382.158 201.109 381.039 199.391C379.766 197.617 378.27 196.014 376.587 194.621L371.817 190.439C369.741 188.703 367.95 186.654 366.506 184.365C364.99 181.84 364.239 178.929 364.344 175.986C364.214 173.99 364.521 171.991 365.243 170.126C365.965 168.261 367.085 166.577 368.525 165.189C371.713 162.563 375.77 161.229 379.894 161.453C382.375 161.369 384.837 161.916 387.05 163.043C388.76 163.951 390.186 165.316 391.168 166.986C392.096 168.575 392.742 170.312 393.076 172.122C393.412 173.826 393.609 175.554 393.664 177.29L383.122 178.593C383.088 177.163 382.982 175.736 382.804 174.316C382.716 173.31 382.377 172.343 381.818 171.502C381.536 171.143 381.169 170.86 380.749 170.68C380.33 170.499 379.872 170.426 379.417 170.468C378.907 170.44 378.4 170.56 377.957 170.814C377.514 171.068 377.154 171.445 376.921 171.899C376.416 172.776 376.142 173.766 376.126 174.777C376.048 176.575 376.568 178.347 377.605 179.818C378.758 181.297 380.052 182.66 381.468 183.888L386.095 187.959C388.475 189.975 390.544 192.333 392.233 194.955C393.984 197.862 394.851 201.216 394.729 204.607C394.765 207.086 394.151 209.531 392.949 211.698C391.77 213.815 390.024 215.56 387.908 216.739C385.541 217.992 382.889 218.606 380.212 218.52Z" fill="white"/>
<path d="M399.592 217.693V162.216H424.524V170.564H411.803V184.334H421.471V192.84H411.851V209.409H424.667V217.693H399.592Z" fill="white"/>
<path d="M207.915 479C207.915 479 176.537 483.928 175.133 485.676C172.34 488.306 169.395 490.769 166.311 493.052C166.311 493.052 118.724 510.268 118.022 512.732C117.32 515.196 133.528 656.052 133.528 656.052L125.424 784H358.812L354.568 727.791L387 513.193L310.156 480.383L207.915 479Z" fill="#C6BAFF" stroke="#263238" stroke-linecap="round" stroke-linejoin="round"/>
<path d="M211 448.253C211 448.253 215.361 471.881 215.361 482.513C215.361 493.144 241.923 516.392 245.485 515.995C249.047 515.598 295 471.563 295 471.563C295 471.563 289.026 447.475 289.026 427.386V388C289.026 388 277.143 393.903 275.945 399.806C274.747 405.709 274.763 410.057 271.584 414.389C268.406 418.721 211 448.253 211 448.253Z" fill="white" stroke="#263238" stroke-linecap="round" stroke-linejoin="round"/>
<path d="M274 420L227.619 463L217 440.598L274 420Z" fill="#263238" stroke="#263238" stroke-linecap="round" stroke-linejoin="round"/>
<path d="M163.184 355C163.184 355 157.191 357.469 158.092 359.629C158.994 361.79 174 371 174 371L163.785 361.124L163.184 355Z" fill="#263238" stroke="#263238" stroke-linecap="round" stroke-linejoin="round"/>
<path d="M171.773 330.07C171.773 330.07 166.636 334.178 161.835 319.458C157.033 304.737 157.37 296.522 159.434 299.271C160.688 300.957 161.726 302.793 162.523 304.737C162.523 304.737 160.794 303.378 167.324 289.681C173.854 275.983 182.416 268.455 181.039 273.586C179.663 278.716 178.303 282.824 178.303 282.824C179.181 279.397 180.846 276.22 183.165 273.546C185.484 270.872 188.395 268.773 191.666 267.416C202.981 262.621 209.494 261.95 208.118 264.347C206.698 266.327 204.963 268.06 202.981 269.478C202.981 269.478 232.124 264.683 245.487 267.416C258.85 270.149 245.839 274.609 245.839 274.609C245.839 274.609 264.34 277.358 278.743 286.26C293.147 295.163 283.544 295.85 283.544 295.85L284.921 303.394C289.174 312.207 292.283 321.526 294.171 331.125C295.553 339.434 295.204 347.939 293.147 356.107C293.147 357.146 284.921 363.651 278.055 363.987C271.189 364.322 271.541 358.169 270.517 355.42C269.493 352.671 267.092 334.194 263.667 330.438C260.243 326.682 249.264 322.223 249.264 319.474C249.264 316.724 249.952 310.923 246.863 309.548C243.775 308.173 206.405 297.912 196.467 306.463C186.529 315.014 183.44 320.512 183.44 320.512L171.773 330.07Z" fill="#263238" stroke="#263238" stroke-linecap="round" stroke-linejoin="round"/>
<path d="M179.216 309.399C179.216 309.399 170.354 322.983 171.038 333.857C171.722 344.731 174.443 388.512 179.566 406.851C184.689 425.191 202.398 450.648 212.978 450.996C223.559 451.345 269.556 425.857 274.664 419.754C279.771 413.651 279.771 403.792 279.771 403.792L280.455 399.037C285.614 396.627 290.43 393.546 294.775 389.875C300.232 384.787 304.321 371.535 302.603 363.055C300.885 354.574 295.793 352.53 295.793 352.53C295.793 352.53 293.757 350.834 289.652 352.181C286.736 353.277 283.985 354.765 281.474 356.603C281.474 356.603 282.508 357.618 280.805 358.981C279.103 360.344 276.032 360.677 275.682 359.663C275.332 358.648 275.348 352.181 273.98 349.122C272.611 346.062 270.575 344.033 271.259 342.67C271.943 341.307 273.98 337.915 272.961 334.523C271.943 331.131 256.255 322.302 257.623 317.895C258.992 313.488 268.872 312.458 263.765 307.37C258.658 302.282 207.521 294.8 199.009 296.163C190.496 297.526 180.807 305.674 179.216 309.399Z" fill="white" stroke="#263238" stroke-linecap="round" stroke-linejoin="round"/>
<path d="M199 348C199 348 191.327 376.813 193.335 378.526C196.429 380.579 199.658 382.409 203 384" stroke="#263238" stroke-linecap="round" stroke-linejoin="round"/>
<path d="M235 341.5C235 343.995 233.402 346 231.484 346C229.566 346 228 343.979 228 341.5C228 339.021 229.598 337 231.516 337C233.434 337 235 339.021 235 341.5Z" fill="#263238"/>
<path d="M180 358C180 358 184.561 351.505 191 352.03" stroke="#263238" stroke-linecap="round" stroke-linejoin="round"/>
<path d="M195.219 339.84C195.219 339.84 188.225 337.793 182.583 340.09C176.941 342.386 173.971 345.182 175.324 346.713C176.677 348.244 183.919 343.151 187.152 343.151C190.386 343.151 198.98 343.151 197.908 341.589C197.284 340.699 196.32 340.072 195.219 339.84Z" fill="#263238" stroke="#263238" stroke-linecap="round" stroke-linejoin="round"/>
<path d="M214.298 330.767C214.298 330.767 224.108 321.901 230.295 320.287C236.482 318.672 245.248 324.324 244.995 326.202C244.741 328.081 233.65 324.554 231.577 325.659C229.504 326.763 219.978 333.716 215.596 333.98C211.213 334.244 213.539 331.838 214.298 330.767Z" fill="#263238" stroke="#263238" stroke-linecap="round" stroke-linejoin="round"/>
<path d="M197 407C197 407 206.943 400.217 211.274 399.449C215.834 398.98 220.424 398.878 225 399.145" stroke="#263238" stroke-linecap="round" stroke-linejoin="round"/>
<path d="M208 377.664C208 377.664 215.209 380.481 216.815 379.928C218.42 379.375 218.453 375.97 216.553 374" stroke="#263238" stroke-linecap="round" stroke-linejoin="round"/>
<path d="M195.321 356.556C193.548 368.222 187.545 376 179.225 376C170.905 376 164 368.128 164 358.492C164 348.856 170.812 341 179.225 341C184.466 341 192.289 341.126 195.026 345.723C196.659 348.683 195.865 352.997 195.321 356.556Z" stroke="#263238" stroke-linecap="round" stroke-linejoin="round"/>
<path d="M215.061 357.2C223.654 365.578 232.696 363.816 239.558 358.61C246.419 353.403 249.898 339.498 243.983 331.632C238.067 323.766 225.049 324.967 218.123 330.174C213.794 333.378 207.446 338.376 208.039 343.855C208.407 347.139 212.416 354.653 215.061 357.2Z" stroke="#263238" stroke-linecap="round" stroke-linejoin="round"/>
<path d="M208 340.764C196.209 337.448 195 346 195 346" stroke="#263238" stroke-linecap="round" stroke-linejoin="round"/>
<path d="M243 330.062C243 330.062 249.856 328.494 251.048 329.168C252.241 329.843 289 352.044 289 352.044L284.733 353L251.645 332.743L246.028 334.593L243 330.062Z" fill="#263238" stroke="#263238" stroke-linecap="round" stroke-linejoin="round"/>
<path d="M194 483.213L209.777 522L223 488.461L208.128 467L194 483.213Z" fill="#897BEC" stroke="#263238" stroke-linecap="round" stroke-linejoin="round"/>
<path d="M349.458 733.168C346.662 732.229 345.74 726.797 345.74 726.797L159 753L182.402 678.389C200.601 678.893 218.762 680.323 236.816 682.674C263.078 686.353 347.631 675.633 354.653 674.407C361.675 673.18 377.849 675.028 380.073 676C382.081 676.726 383.896 677.906 385.378 679.447C386.86 680.988 387.969 682.849 388.62 684.888C389.383 686.911 395.642 703.557 397.469 706.918C399.297 710.279 399.598 717.017 397.771 719.772C395.939 722.194 393.898 724.448 391.671 726.51C391.671 726.51 380.375 741.197 378.23 743.028C376.085 744.86 356.877 747.616 356.877 747.616C356.877 747.616 346.789 742.121 345.581 741.244C344.374 740.368 348.012 734.506 348.012 734.506L349.458 733.168Z" fill="white" stroke="#263238" stroke-linecap="round" stroke-linejoin="round"/>
<path d="M187 706L178.543 749.381L165 751L187 706Z" fill="#263238" stroke="#263238" stroke-linecap="round" stroke-linejoin="round"/>
<path d="M373 720C373 720 380 736.545 380 739" stroke="#263238" stroke-linecap="round" stroke-linejoin="round"/>
<path d="M377 699C377 699 393.249 724.467 391.923 726" stroke="#263238" stroke-linecap="round" stroke-linejoin="round"/>
<path d="M383 684L395 701" stroke="#263238" stroke-linecap="round" stroke-linejoin="round"/>
<path d="M371.323 520.775C362.279 526.5 354.945 534.571 350.099 544.132C342.557 559.576 311.055 628.325 311.055 628.325C311.055 628.325 285.026 713.475 290.849 723.782C296.672 734.089 327.156 754 333.648 754C340.139 754 348.715 740.949 355.572 730.642C362.429 720.336 392.547 641.025 403.51 607.377C414.472 573.728 411.719 539.394 405.912 528.401C400.105 517.408 391.179 510.851 382.619 513.643" fill="#897BEC"/>
<path d="M371.323 520.775C362.279 526.5 354.945 534.571 350.099 544.132C342.557 559.576 311.055 628.325 311.055 628.325C311.055 628.325 285.026 713.475 290.849 723.782C296.672 734.089 327.156 754 333.648 754C340.139 754 348.715 740.949 355.572 730.642C362.429 720.336 392.547 641.025 403.51 607.377C414.472 573.728 411.719 539.394 405.912 528.401C400.105 517.408 391.179 510.851 382.619 513.643" stroke="#263238" stroke-linecap="round" stroke-linejoin="round"/>
<path d="M263.354 699.755C263.354 699.755 253.055 716.47 256.833 723.631C260.611 730.792 277.415 748.172 286.327 755.001C295.239 761.829 313.094 759.088 323.728 752.957C334.361 746.826 341.567 730.444 348.439 713.745C355.31 697.046 363.536 671.459 358.387 660.891C353.237 650.324 335.398 636.334 330.599 636.001C325.8 635.669 263.354 699.755 263.354 699.755Z" fill="#897BEC" stroke="#263238" stroke-linecap="round" stroke-linejoin="round"/>
<path d="M259.699 503.698C259.699 503.698 256.391 451.383 255.834 448.077C255.277 444.772 235.443 439.273 231.038 439.003C226.632 438.733 195.489 456.071 193.04 457.12C190.59 458.168 188.348 459.869 189.175 464.287C190.002 468.705 193.581 481.354 194.137 483.833C194.694 486.313 205.987 490.985 205.987 490.985C205.987 490.985 212.047 510.261 215.641 515.219C219.236 520.178 229.415 527.599 229.415 527.599C229.415 527.599 242.664 615.798 245.527 647.581C248.39 679.364 252.526 689.217 257.933 699.705C263.341 710.194 282.109 735.938 288.79 737.845C295.47 739.752 305.331 723.861 321.237 699.388C337.142 674.914 341.277 652.984 335.551 643.767C329.825 634.55 305.331 603.084 304.695 602.131C304.059 601.177 268.113 525.215 264.614 518.223C262.379 513.604 260.728 508.724 259.699 503.698Z" fill="white" stroke="#263238" stroke-linecap="round" stroke-linejoin="round"/>
<path d="M206 491L201 470" stroke="#263238" stroke-linecap="round" stroke-linejoin="round"/>
<path d="M203 477C201.504 478.687 199.349 479.764 197 480Z" fill="white"/>
<path d="M203 477C201.504 478.687 199.349 479.764 197 480" stroke="#263238" stroke-linecap="round" stroke-linejoin="round"/>
<path d="M202 471.968C202 471.968 199 472.526 196 469Z" fill="white"/>
<path d="M202 471.968C202 471.968 199 472.526 196 469" stroke="#263238" stroke-linecap="round" stroke-linejoin="round"/>
<path d="M262 492.81L272.53 519L315 480.428L301.675 456L262 492.81Z" fill="#897BEC" stroke="#263238" stroke-linecap="round" stroke-linejoin="round"/>
<path d="M118.219 513C118.219 513 108.044 522.665 105.52 533.508C102.996 544.351 78.5358 678.323 78.012 705.471C77.4882 732.619 94.2184 740.501 101.584 745.357C108.949 750.214 126.631 748.812 126.631 748.812L151.695 670.935C151.695 670.935 154.631 635.476 151.695 606.401C148.758 577.327 134.076 534.495 134.076 534.495" fill="#897BEC"/>
<path d="M118.219 513C118.219 513 108.044 522.665 105.52 533.508C102.996 544.351 78.5358 678.323 78.012 705.471C77.4882 732.619 94.2184 740.501 101.584 745.357C108.949 750.214 126.631 748.812 126.631 748.812L151.695 670.935C151.695 670.935 154.631 635.476 151.695 606.401C148.758 577.327 134.076 534.495 134.076 534.495" stroke="#263238" stroke-linecap="round" stroke-linejoin="round"/>
<path d="M146.123 666.809C146.123 666.809 120.159 699.604 117.704 720.624C115.248 741.643 119.668 750.981 124.04 752.928C128.412 754.875 157.861 761.254 161.283 759.782C164.705 758.31 193.631 692.704 195.595 686.341C197.56 679.978 198.051 674.106 193.14 672.634C188.229 671.162 148.087 660.921 146.123 666.809Z" fill="#897BEC" stroke="#263238" stroke-linecap="round" stroke-linejoin="round"/>
<path d="M109 669C109 669 115.656 660 130.76 660C145.864 660 151 663.416 151 663.416" stroke="#263238" stroke-linecap="round" stroke-linejoin="round"/>
<path d="M114 652.564C114 652.564 132.597 649.415 145 658" stroke="#263238" stroke-linecap="round" stroke-linejoin="round"/>
<defs>
<linearGradient id="paint0_linear_20_961" x1="325" y1="143" x2="325" y2="241" gradientUnits="userSpaceOnUse">
<stop stop-color="#CB45ED"/>
<stop offset="1" stop-color="#6754E9"/>
</linearGradient>
<linearGradient id="paint1_linear_20_961" x1="598" y1="36" x2="598" y2="135" gradientUnits="userSpaceOnUse">
<stop stop-color="#CB45ED"/>
<stop offset="1" stop-color="#6754E9"/>
</linearGradient>
</defs>
</svg>
