<svg width="116" height="129" viewBox="0 0 116 129" fill="none" xmlns="http://www.w3.org/2000/svg">
<path d="M94.9092 19.1668V122.42C94.9092 125.504 92.4209 127.992 89.3371 127.992H6.77763C3.69391 127.992 1.20557 125.504 1.20557 122.42V19.1668C1.20557 16.0831 3.69391 13.5947 6.77763 13.5947H89.3371C92.4209 13.5947 94.9092 16.0828 94.9092 19.1668Z" fill="#D3D9D9"/>
<path d="M13.4479 128H6.771C3.69887 128 1.2002 125.501 1.2002 122.429V19.1622C1.2002 16.0901 3.69887 13.5912 6.771 13.5912H13.4479C10.3551 13.5912 7.87659 16.0899 7.87659 19.1622V122.429C7.87634 125.501 10.3551 128 13.4479 128Z" fill="#EDEDED"/>
<path d="M94.9088 19.1625V122.429C94.9088 125.501 92.4102 128 89.338 128H82.6611C85.7539 128 88.2324 125.501 88.2324 122.429V19.1625C88.2324 16.0904 85.7537 13.5914 82.6611 13.5914H89.338C92.4102 13.5914 94.9088 16.0901 94.9088 19.1625Z" fill="#A8B2B4"/>
<path d="M86.5627 21.9393H9.55078V119.647H86.5627V21.9393Z" fill="white"/>
<path d="M71.8552 12.3221V23.0832C71.8552 24.4443 70.7494 25.5504 69.3883 25.5504H27.0028C25.6417 25.5504 24.5356 24.4445 24.5356 23.0832V12.3221C24.5356 10.961 25.6415 9.85514 27.0028 9.85514H27.9174C33.2554 9.85514 38.1469 7.38796 41.9112 3.62395C43.5275 2.00764 45.7392 1.00812 48.1852 1.00812C50.6519 1.00812 52.8638 1.98647 54.459 3.60279C58.2447 7.38821 63.1362 9.85539 68.4739 9.85539H69.3885C70.7494 9.85514 71.8552 10.9607 71.8552 12.3221Z" fill="#D5B2F6"/>
<path d="M32.8029 9.86369H33.2015V9.0224C31.5058 9.55479 29.7363 9.86369 27.9076 9.86369H27.0066C25.6344 9.86369 24.5283 10.9698 24.5283 12.3215V23.0741C24.5283 24.4463 25.6344 25.5524 27.0066 25.5524H32.8029C31.4514 25.5524 30.3453 24.4463 30.3453 23.0741V12.3215C30.345 10.9698 31.4511 9.86369 32.8029 9.86369Z" fill="#D5B2F6"/>
<path d="M63.5807 9.86369H63.1821V9.0224C64.8778 9.55479 66.6473 9.86369 68.476 9.86369H69.377C70.7492 9.86369 71.8553 10.9698 71.8553 12.3215V23.0741C71.8553 24.4463 70.7492 25.5524 69.377 25.5524H63.5807C64.9322 25.5524 66.0383 24.4463 66.0383 23.0741V12.3215C66.0383 10.9698 64.9325 9.86369 63.5807 9.86369Z" fill="#D5B2F6"/>
<path d="M53.9962 14.0445C53.9962 17.2411 51.4033 19.8342 48.1845 19.8342C44.9877 19.8342 42.3945 17.2411 42.3945 14.0445C42.3945 10.8479 44.9877 8.2547 48.1845 8.2547C51.4033 8.25495 53.9962 10.8479 53.9962 14.0445Z" fill="white"/>
<path d="M48.1846 20.8425C44.4357 20.8425 41.3862 17.7933 41.3862 14.0442C41.3862 10.2961 44.4354 7.24686 48.1846 7.24686C51.9453 7.24686 55.0043 10.2961 55.0043 14.0442C55.0046 17.7933 51.9456 20.8425 48.1846 20.8425ZM48.1846 9.26303C45.5478 9.26303 43.4022 11.4077 43.4022 14.0444C43.4022 16.6812 45.5478 18.8269 48.1846 18.8269C50.8332 18.8269 52.9887 16.6812 52.9887 14.0444C52.9887 11.4077 50.8334 9.26303 48.1846 9.26303Z" fill="#333333"/>
<path d="M76.323 109.507H43.898C43.3409 109.507 42.8901 109.057 42.8901 108.5C42.8901 107.943 43.3409 107.492 43.898 107.492H76.323C76.8801 107.492 77.3308 107.943 77.3308 108.5C77.3308 109.057 76.8801 109.507 76.323 109.507Z" fill="#333333"/>
<path d="M60.3065 102.459H43.898C43.3409 102.459 42.8901 102.008 42.8901 101.451C42.8901 100.894 43.3409 100.443 43.898 100.443H60.3065C60.8636 100.443 61.3144 100.894 61.3144 101.451C61.3144 102.008 60.8636 102.459 60.3065 102.459Z" fill="#333333"/>
<path d="M33.6573 101.199V108.753C33.6573 110.49 32.2488 111.898 30.5116 111.898H22.9372C21.2 111.898 19.7915 110.49 19.7915 108.753V101.199C19.7915 99.4614 21.2 98.0532 22.9372 98.0532H30.5116C32.2488 98.053 33.6573 99.4614 33.6573 101.199Z" fill="url(#paint0_linear_35_628)" fill-opacity="0.44"/>
<path d="M33.6627 101.192V108.75C33.6627 110.49 32.2497 111.904 30.5084 111.904H22.9305C21.1894 111.904 19.7969 110.49 19.7969 108.75V107.07H25.6753C27.4158 107.07 28.8291 105.657 28.8291 103.916V98.0582H30.5086C32.2497 98.0582 33.6627 99.4712 33.6627 101.192Z" fill="url(#paint1_linear_35_628)" fill-opacity="0.58"/>
<path d="M30.5111 112.906H22.9372C20.6469 112.906 18.7837 111.043 18.7837 108.753V101.198C18.7837 98.9081 20.6469 97.0449 22.9372 97.0449H30.5111C32.8014 97.0449 34.6646 98.9081 34.6646 101.198V108.753C34.6646 111.043 32.8014 112.906 30.5111 112.906ZM22.9372 99.061C21.7581 99.061 20.7994 100.02 20.7994 101.199V108.753C20.7994 109.932 21.7581 110.891 22.9372 110.891H30.5111C31.6903 110.891 32.649 109.932 32.649 108.753V101.199C32.649 100.02 31.6903 99.061 30.5111 99.061H22.9372Z" fill="#333333"/>
<path d="M76.323 87.9222H43.898C43.3409 87.9222 42.8901 87.4715 42.8901 86.9144C42.8901 86.3573 43.3409 85.9066 43.898 85.9066H76.323C76.8801 85.9066 77.3308 86.3573 77.3308 86.9144C77.3308 87.4715 76.8801 87.9222 76.323 87.9222Z" fill="#333333"/>
<path d="M60.3065 80.8732H43.898C43.3409 80.8732 42.8901 80.4224 42.8901 79.8653C42.8901 79.3083 43.3409 78.8575 43.898 78.8575H60.3065C60.8636 78.8575 61.3144 79.3083 61.3144 79.8653C61.3144 80.4222 60.8636 80.8732 60.3065 80.8732Z" fill="#333333"/>
<path d="M33.6573 79.6131V87.1668C33.6573 88.9041 32.2488 90.3125 30.5116 90.3125H22.9372C21.2 90.3125 19.7915 88.9041 19.7915 87.1668V79.6131C19.7915 77.8759 21.2 76.4674 22.9372 76.4674H30.5116C32.2488 76.4674 33.6573 77.8759 33.6573 79.6131Z" fill="url(#paint2_linear_35_628)" fill-opacity="0.44"/>
<path d="M33.6627 79.6063V87.1638C33.6627 88.9046 32.2497 90.3178 30.5084 90.3178H22.9305C21.1894 90.3178 19.7969 88.9046 19.7969 87.1638V85.4843H25.6753C27.4158 85.4843 28.8291 84.071 28.8291 82.3303V76.4725H30.5086C32.2497 76.4727 33.6627 77.886 33.6627 79.6063Z" fill="url(#paint3_linear_35_628)" fill-opacity="0.58"/>
<path d="M30.5111 91.3209H22.9372C20.6469 91.3209 18.7837 89.4577 18.7837 87.1674V79.6131C18.7837 77.3228 20.6469 75.4596 22.9372 75.4596H30.5111C32.8014 75.4596 34.6646 77.3228 34.6646 79.6131V87.1674C34.6646 89.4577 32.8014 91.3209 30.5111 91.3209ZM22.9372 77.4755C21.7581 77.4755 20.7994 78.4342 20.7994 79.6134V87.1676C20.7994 88.3468 21.7581 89.3055 22.9372 89.3055H30.5111C31.6903 89.3055 32.649 88.3468 32.649 87.1676V79.6134C32.649 78.4342 31.6903 77.4755 30.5111 77.4755H22.9372Z" fill="#333333"/>
<path d="M76.323 66.3367H43.898C43.3409 66.3367 42.8901 65.8859 42.8901 65.3288C42.8901 64.7717 43.3409 64.321 43.898 64.321H76.323C76.8801 64.321 77.3308 64.7717 77.3308 65.3288C77.3308 65.8859 76.8801 66.3367 76.323 66.3367Z" fill="#333333"/>
<path d="M60.3065 59.2874H43.898C43.3409 59.2874 42.8901 58.8366 42.8901 58.2795C42.8901 57.7224 43.3409 57.2717 43.898 57.2717H60.3065C60.8636 57.2717 61.3144 57.7224 61.3144 58.2795C61.3144 58.8366 60.8636 59.2874 60.3065 59.2874Z" fill="#333333"/>
<path d="M33.6573 58.0273V65.581C33.6573 67.3183 32.2488 68.7267 30.5116 68.7267H22.9372C21.2 68.7267 19.7915 67.3183 19.7915 65.581V58.0273C19.7915 56.2901 21.2 54.8816 22.9372 54.8816H30.5116C32.2488 54.8816 33.6573 56.2901 33.6573 58.0273Z" fill="url(#paint4_linear_35_628)" fill-opacity="0.44"/>
<path d="M33.6627 58.0205V65.578C33.6627 67.3188 32.2497 68.732 30.5084 68.732H22.9305C21.1894 68.732 19.7969 67.3188 19.7969 65.578V63.8984H25.6753C27.4158 63.8984 28.8291 62.4852 28.8291 60.7444V54.8866H30.5086C32.2497 54.8869 33.6627 56.3001 33.6627 58.0205Z" fill="url(#paint5_linear_35_628)" fill-opacity="0.58"/>
<path d="M30.5111 69.7353H22.9372C20.6469 69.7353 18.7837 67.8711 18.7837 65.5808V58.0276C18.7837 55.7373 20.6469 53.874 22.9372 53.874H30.5111C32.8014 53.874 34.6646 55.7373 34.6646 58.0276V65.5808C34.6646 67.8711 32.8014 69.7353 30.5111 69.7353ZM22.9372 55.8897C21.7581 55.8897 20.7994 56.8484 20.7994 58.0276V65.5808C20.7994 66.7599 21.7581 67.7196 22.9372 67.7196H30.5111C31.6903 67.7196 32.649 66.7599 32.649 65.5808V58.0276C32.649 56.8484 31.6903 55.8897 30.5111 55.8897H22.9372Z" fill="#333333"/>
<path d="M76.323 44.7461H43.898C43.3409 44.7461 42.8901 44.2954 42.8901 43.7383C42.8901 43.1812 43.3409 42.7304 43.898 42.7304H76.323C76.8801 42.7304 77.3308 43.1812 77.3308 43.7383C77.3308 44.2954 76.8801 44.7461 76.323 44.7461Z" fill="#333333"/>
<path d="M60.3065 37.6961H43.898C43.3409 37.6961 42.8901 37.2453 42.8901 36.6882C42.8901 36.1311 43.3409 35.6804 43.898 35.6804H60.3065C60.8636 35.6804 61.3144 36.1311 61.3144 36.6882C61.3144 37.2453 60.8636 37.6961 60.3065 37.6961Z" fill="#333333"/>
<path d="M33.6573 36.4363V43.99C33.6573 45.7272 32.2488 47.1357 30.5116 47.1357H22.9372C21.2 47.1357 19.7915 45.7272 19.7915 43.99V36.4363C19.7915 34.699 21.2 33.2906 22.9372 33.2906H30.5116C32.2488 33.2906 33.6573 34.699 33.6573 36.4363Z" fill="url(#paint6_linear_35_628)" fill-opacity="0.44"/>
<path d="M33.6627 36.4295V43.9869C33.6627 45.7277 32.2497 47.141 30.5084 47.141H22.9305C21.1894 47.141 19.7969 45.7277 19.7969 43.9869V42.3074H25.6753C27.4158 42.3074 28.8291 40.8942 28.8291 39.1534V33.2956H30.5086C32.2497 33.2958 33.6627 34.7091 33.6627 36.4295Z" fill="url(#paint7_linear_35_628)" fill-opacity="0.58"/>
<path d="M30.5111 48.1438H22.9372C20.6469 48.1438 18.7837 46.2805 18.7837 43.9902V36.436C18.7837 34.1457 20.6469 32.2825 22.9372 32.2825H30.5111C32.8014 32.2825 34.6646 34.1457 34.6646 36.436V43.9902C34.6646 46.2805 32.8014 48.1438 30.5111 48.1438ZM22.9372 34.2984C21.7581 34.2984 20.7994 35.2571 20.7994 36.4363V43.9905C20.7994 45.1696 21.7581 46.1283 22.9372 46.1283H30.5111C31.6903 46.1283 32.649 45.1696 32.649 43.9905V36.4363C32.649 35.2571 31.6903 34.2984 30.5111 34.2984H22.9372Z" fill="#333333"/>
<defs>
<linearGradient id="paint0_linear_35_628" x1="26.7244" y1="98.0532" x2="26.7244" y2="111.898" gradientUnits="userSpaceOnUse">
<stop stop-color="#6754E9"/>
<stop offset="1" stop-color="#CB45ED"/>
</linearGradient>
<linearGradient id="paint1_linear_35_628" x1="26.7298" y1="98.0582" x2="26.7298" y2="111.904" gradientUnits="userSpaceOnUse">
<stop stop-color="#6754E9"/>
<stop offset="1" stop-color="#CB45ED"/>
</linearGradient>
<linearGradient id="paint2_linear_35_628" x1="26.7244" y1="76.4674" x2="26.7244" y2="90.3125" gradientUnits="userSpaceOnUse">
<stop stop-color="#6754E9"/>
<stop offset="1" stop-color="#CB45ED"/>
</linearGradient>
<linearGradient id="paint3_linear_35_628" x1="26.7298" y1="76.4725" x2="26.7298" y2="90.3178" gradientUnits="userSpaceOnUse">
<stop stop-color="#6754E9"/>
<stop offset="1" stop-color="#CB45ED"/>
</linearGradient>
<linearGradient id="paint4_linear_35_628" x1="26.7244" y1="54.8816" x2="26.7244" y2="68.7267" gradientUnits="userSpaceOnUse">
<stop stop-color="#6754E9"/>
<stop offset="1" stop-color="#CB45ED"/>
</linearGradient>
<linearGradient id="paint5_linear_35_628" x1="26.7298" y1="54.8866" x2="26.7298" y2="68.732" gradientUnits="userSpaceOnUse">
<stop stop-color="#6754E9"/>
<stop offset="1" stop-color="#CB45ED"/>
</linearGradient>
<linearGradient id="paint6_linear_35_628" x1="26.7244" y1="33.2906" x2="26.7244" y2="47.1357" gradientUnits="userSpaceOnUse">
<stop stop-color="#6754E9"/>
<stop offset="1" stop-color="#CB45ED"/>
</linearGradient>
<linearGradient id="paint7_linear_35_628" x1="26.7298" y1="33.2956" x2="26.7298" y2="47.141" gradientUnits="userSpaceOnUse">
<stop stop-color="#6754E9"/>
<stop offset="1" stop-color="#CB45ED"/>
</linearGradient>
</defs>
</svg>
