<svg width="110" height="110" viewBox="0 0 110 110" fill="none" xmlns="http://www.w3.org/2000/svg">
<path d="M75.3149 84.1525L62.9399 71.7775L71.7774 62.9375L84.1524 75.3125L75.3149 84.1525ZM66.4749 71.7775L75.3149 80.6175L80.6174 75.3125L71.7774 66.4725L66.4749 71.7775Z" fill="#4D4653"/>
<path d="M108.018 100.947L100.948 108.017C99.97 108.995 98.39 108.995 97.4125 108.017L72.665 83.27C71.6875 82.2925 71.6875 80.7125 72.665 79.735L79.735 72.6625C80.7125 71.6875 82.2925 71.6875 83.27 72.6625L108.018 97.4125C108.995 98.3875 108.995 99.97 108.018 100.947Z" fill="url(#paint0_linear_10_161)" fill-opacity="0.6"/>
<path d="M99.18 109.997C98.22 109.997 97.2575 109.632 96.5275 108.902L71.78 84.155C70.3175 82.6925 70.3175 80.315 71.78 78.8525L78.85 71.78C80.31 70.32 82.6875 70.3225 84.1525 71.78L108.9 96.53C110.362 97.9925 110.362 100.372 108.9 101.835L101.83 108.905C101.1 109.632 100.14 109.997 99.18 109.997ZM81.5025 73.18C81.1825 73.18 80.8625 73.3025 80.6175 73.545L73.5475 80.6175C73.06 81.105 73.06 81.8975 73.5475 82.385L98.295 107.132C98.7825 107.62 99.575 107.62 100.062 107.132L107.132 100.062C107.62 99.575 107.62 98.7825 107.132 98.2925L82.385 73.5425C82.14 73.3025 81.8225 73.18 81.5025 73.18Z" fill="#4D4653"/>
<path d="M104.005 98.1825C103.685 98.1825 103.365 98.06 103.12 97.8175L83.675 78.3725C83.1875 77.885 83.1875 77.0925 83.675 76.605C84.1625 76.1175 84.9549 76.1175 85.4424 76.605L104.887 96.05C105.375 96.5375 105.375 97.33 104.887 97.8175C104.642 98.06 104.322 98.1825 104.005 98.1825Z" fill="#E8EAF6"/>
<path d="M41.25 81.25C63.3414 81.25 81.25 63.3414 81.25 41.25C81.25 19.1586 63.3414 1.25 41.25 1.25C19.1586 1.25 1.25 19.1586 1.25 41.25C1.25 63.3414 19.1586 81.25 41.25 81.25Z" fill="#E1F5FE" fill-opacity="0.77"/>
<path d="M41.25 82.5C18.505 82.5 0 63.995 0 41.25C0 18.505 18.505 0 41.25 0C63.995 0 82.5 18.505 82.5 41.25C82.5 50.5075 79.505 59.255 73.835 66.5475C73.4075 67.0925 72.6225 67.1875 72.0825 66.765C71.5375 66.3425 71.4375 65.5575 71.8625 65.0125C77.185 58.165 80 49.9475 80 41.25C80 19.8825 62.6175 2.5 41.25 2.5C19.8825 2.5 2.5 19.8825 2.5 41.25C2.5 62.6175 19.8825 80 41.25 80C51.3175 80 60.86 76.155 68.1125 69.175C68.6075 68.7 69.4 68.71 69.88 69.21C70.3575 69.7075 70.345 70.5 69.845 70.9775C62.125 78.4075 51.97 82.5 41.25 82.5Z" fill="#4D4653"/>
<path d="M41.25 75C59.8896 75 75 59.8896 75 41.25C75 22.6104 59.8896 7.5 41.25 7.5C22.6104 7.5 7.5 22.6104 7.5 41.25C7.5 59.8896 22.6104 75 41.25 75Z" fill="url(#paint1_linear_10_161)" fill-opacity="0.6"/>
<path d="M41.25 76.25C21.95 76.25 6.25 60.55 6.25 41.25C6.25 21.95 21.95 6.25 41.25 6.25C60.55 6.25 76.25 21.95 76.25 41.25C76.25 60.55 60.55 76.25 41.25 76.25ZM41.25 8.75C23.33 8.75 8.75 23.33 8.75 41.25C8.75 59.17 23.33 73.75 41.25 73.75C59.17 73.75 73.75 59.17 73.75 41.25C73.75 23.33 59.17 8.75 41.25 8.75Z" fill="white"/>
<path d="M39.0676 16.34C38.4226 16.34 37.8751 15.845 37.8251 15.1925C37.7701 14.505 38.2826 13.9 38.9676 13.845C39.7226 13.7825 40.4801 13.75 41.2501 13.75C41.9401 13.75 42.5001 14.31 42.5001 15C42.5001 15.69 41.9401 16.25 41.2501 16.25C40.5501 16.25 39.8576 16.28 39.1726 16.335C39.1351 16.3375 39.1026 16.34 39.0676 16.34Z" fill="white"/>
<path d="M15 42.5C14.31 42.5 13.75 41.94 13.75 41.25C13.75 29.6375 21.095 19.2225 32.0325 15.3325C32.685 15.0975 33.4 15.44 33.63 16.0925C33.8625 16.7425 33.5225 17.4575 32.8725 17.69C22.93 21.225 16.25 30.6925 16.25 41.25C16.25 41.94 15.69 42.5 15 42.5Z" fill="white"/>
<defs>
<linearGradient id="paint0_linear_10_161" x1="90.3413" y1="71.9312" x2="90.3413" y2="108.751" gradientUnits="userSpaceOnUse">
<stop stop-color="#6754E9"/>
<stop offset="1" stop-color="#CB45ED"/>
</linearGradient>
<linearGradient id="paint1_linear_10_161" x1="41.25" y1="7.5" x2="41.25" y2="75" gradientUnits="userSpaceOnUse">
<stop stop-color="#6754E9"/>
<stop offset="1" stop-color="#CB45ED"/>
</linearGradient>
</defs>
</svg>
