<svg width="84" height="103" viewBox="0 0 84 103" fill="none" xmlns="http://www.w3.org/2000/svg">
<path d="M81.7455 101.455H14.2546C13.6123 101.455 13.091 100.935 13.091 100.294L11.4546 92.7273H70.3637V10.9091H81.7455C82.3878 10.9091 82.9091 11.4292 82.9091 12.07V100.294C82.9091 100.935 82.3878 101.455 81.7455 101.455Z" fill="url(#paint0_linear_10_159)" fill-opacity="0.68"/>
<path d="M81.8182 100.364H14.1819V96.6756C14.1819 96.0338 14.7043 95.5129 15.348 95.5129C15.9917 95.5129 16.5142 96.0338 16.5142 96.6756V98.0383H79.486V14.3254H75.7869C75.1432 14.3254 74.6208 13.8045 74.6208 13.1627C74.6208 12.5209 75.1432 12 75.7869 12H81.8182V100.364Z" fill="white"/>
<path d="M81.6774 102.545H14.3226C13.0428 102.545 12 101.505 12 100.227V96.75C12 96.1102 12.5203 95.5909 13.1613 95.5909C13.8023 95.5909 14.3226 96.1102 14.3226 96.75V100.227H81.6774V12.1364H75.871C75.2276 12.1364 74.7097 11.6171 74.7097 10.9773C74.7097 10.3374 75.2276 9.81818 75.871 9.81818H81.6774C82.9572 9.81818 84 10.859 84 12.1364V100.227C84 101.505 82.9572 102.545 81.6774 102.545Z" fill="#4D4653"/>
<path d="M69.7454 91.6363H2.25446C1.61213 91.6363 1.09082 91.1163 1.09082 90.4755V19.6643L19.709 1.09088H69.7454C70.3877 1.09088 70.909 1.61094 70.909 2.25172V90.4755C70.909 91.1163 70.3877 91.6363 69.7454 91.6363Z" fill="url(#paint1_linear_10_159)" fill-opacity="0.68"/>
<path d="M69.8182 90.5455H2.18188V20.1034L20.1568 2.18182H69.8182V90.5455ZM4.51417 88.2201H67.486V4.50718H21.1224L4.51417 21.0661V88.2201Z" fill="white"/>
<path d="M69.6774 93.8182H2.32258C1.04284 93.8182 0 92.7651 0 91.4727V19.4509L19.2588 0H69.6774C70.9572 0 72 1.05311 72 2.34545V91.4727C72 92.7651 70.9572 93.8182 69.6774 93.8182ZM2.32258 20.4219V91.4727H69.6774V2.34545H20.2227L2.32258 20.4219Z" fill="#4D4653"/>
<path d="M18.4772 19.6363H1.09082L19.6363 1.09088V18.4772C19.6363 19.1171 19.117 19.6363 18.4772 19.6363Z" fill="#6754E9"/>
<path d="M7.73891 17.4546C7.43353 17.4546 7.12814 17.3377 6.89433 17.1062C6.4291 16.641 6.4291 15.8846 6.89433 15.4194L15.4188 6.89441C15.884 6.42916 16.6403 6.42916 17.1056 6.89441C17.5708 7.35967 17.5708 8.11601 17.1056 8.58127L8.5811 17.1062C8.34968 17.3377 8.04429 17.4546 7.73891 17.4546Z" fill="white"/>
<path d="M18.4244 20.7273H1.15248C0.687294 20.7273 0.265861 20.4463 0.0885361 20.0157C-0.0910913 19.585 0.00793361 19.0899 0.337251 18.7605L18.7606 0.336809C19.2097 -0.11227 19.9397 -0.11227 20.3887 0.336809C20.8378 0.785887 20.8378 1.51593 20.3887 1.96501L3.9321 18.4243H18.4244V8.06096C18.4244 7.42534 18.9402 6.90947 19.5758 6.90947C20.2114 6.90947 20.7273 7.42534 20.7273 8.06096V18.4243C20.7273 19.6932 19.6933 20.7273 18.4244 20.7273Z" fill="#4D4653"/>
<path d="M57.1668 58.3332H15.1671C14.5232 58.3332 14.0005 57.8105 14.0005 57.1665C14.0005 56.5225 14.5232 55.9999 15.1671 55.9999H57.1668C57.8108 55.9999 58.3335 56.5225 58.3335 57.1665C58.3335 57.8105 57.8108 58.3332 57.1668 58.3332Z" fill="white"/>
<path d="M57.1668 51.3332H15.1671C14.5232 51.3332 14.0005 50.8105 14.0005 50.1665C14.0005 49.5225 14.5232 48.9999 15.1671 48.9999H57.1668C57.8108 48.9999 58.3335 49.5225 58.3335 50.1665C58.3335 50.8105 57.8108 51.3332 57.1668 51.3332Z" fill="white"/>
<path d="M57.1668 44.3333H15.1671C14.5232 44.3333 14.0005 43.8107 14.0005 43.1667C14.0005 42.5227 14.5232 42 15.1671 42H57.1668C57.8108 42 58.3335 42.5227 58.3335 43.1667C58.3335 43.8107 57.8108 44.3333 57.1668 44.3333Z" fill="white"/>
<path d="M45.5003 65.3331H15.1671C14.5232 65.3331 14.0005 64.8105 14.0005 64.1665C14.0005 63.5225 14.5232 62.9998 15.1671 62.9998H45.5003C46.1443 62.9998 46.6669 63.5225 46.6669 64.1665C46.6669 64.8105 46.1443 65.3331 45.5003 65.3331Z" fill="white"/>
<path d="M45.5002 30.3334H26.8337C26.1897 30.3334 25.667 29.8107 25.667 29.1667C25.667 28.5227 26.1897 28.0001 26.8337 28.0001H45.5002C46.1442 28.0001 46.6668 28.5227 46.6668 29.1667C46.6668 29.8107 46.1442 30.3334 45.5002 30.3334Z" fill="white"/>
<path d="M57.1668 37.3333H15.1671C14.5232 37.3333 14.0005 36.8107 14.0005 36.1667C14.0005 35.5227 14.5232 35 15.1671 35H57.1668C57.8108 35 58.3335 35.5227 58.3335 36.1667C58.3335 36.8107 57.8108 37.3333 57.1668 37.3333Z" fill="white"/>
<defs>
<linearGradient id="paint0_linear_10_159" x1="48" y1="10.9091" x2="48" y2="101.455" gradientUnits="userSpaceOnUse">
<stop stop-color="#6754E9"/>
<stop offset="1" stop-color="#CB45ED"/>
</linearGradient>
<linearGradient id="paint1_linear_10_159" x1="35.9999" y1="1.09088" x2="35.9999" y2="91.6363" gradientUnits="userSpaceOnUse">
<stop stop-color="#6754E9"/>
<stop offset="1" stop-color="#CB45ED"/>
</linearGradient>
</defs>
</svg>
