<svg width="120" height="124" viewBox="0 0 120 124" fill="none" xmlns="http://www.w3.org/2000/svg">
<path d="M42.8699 16.6138C42.8699 46.4077 67.0132 70.5511 96.8072 70.5511C105.129 70.5511 112.963 68.6247 120 65.2601V0.406921H45.3613C43.7431 5.51812 42.8699 10.9632 42.8699 16.6138Z" fill="#9D4CEB" fill-opacity="0.24"/>
<path d="M24.0428 92.3314C30.1991 92.3314 35.1898 87.3407 35.1898 81.1844C35.1898 75.0281 30.1991 70.0374 24.0428 70.0374C17.8865 70.0374 12.8958 75.0281 12.8958 81.1844C12.8958 87.3407 17.8865 92.3314 24.0428 92.3314Z" fill="white"/>
<path d="M46.1827 121.124C45.4378 109.54 35.8318 100.371 24.0684 100.371C12.3049 100.371 2.67327 109.54 1.9541 121.124H46.1827Z" fill="url(#paint0_linear_10_179)" fill-opacity="0.6"/>
<path d="M92.6973 92.3314C98.8537 92.3314 103.844 87.3407 103.844 81.1844C103.844 75.0281 98.8537 70.0374 92.6973 70.0374C86.541 70.0374 81.5503 75.0281 81.5503 81.1844C81.5503 87.3407 86.541 92.3314 92.6973 92.3314Z" fill="white"/>
<path d="M114.812 121.124C114.067 109.54 104.461 100.371 92.6973 100.371C80.9338 100.371 71.3022 109.54 70.583 121.124H114.812Z" fill="url(#paint1_linear_10_179)" fill-opacity="0.6"/>
<path d="M67.4498 16.3313V2.97537H12.2026V36.5963H20.1134V48.6679L30.4386 36.5963H39.8134" fill="url(#paint2_linear_10_179)" fill-opacity="0.6"/>
<path d="M95.0861 16.3313V49.9522H87.1753V62.0238L76.8502 49.9522H39.8132V16.3313H95.0861Z" fill="#E6E7E8"/>
<path d="M10.9695 81.1844C10.9695 88.4017 16.8255 94.2578 24.0428 94.2578C31.2602 94.2578 37.1162 88.4017 37.1162 81.1844C37.1162 73.9671 31.2602 68.111 24.0428 68.111C16.8255 68.111 10.9695 73.9928 10.9695 81.1844ZM33.2636 81.1844C33.2636 86.2699 29.1284 90.4051 24.0428 90.4051C18.9573 90.4051 14.8221 86.2699 14.8221 81.1844C14.8221 76.0989 18.9573 71.9637 24.0428 71.9637C29.1284 71.9637 33.2636 76.0989 33.2636 81.1844Z" fill="#505050"/>
<path d="M24.043 98.4187C11.3806 98.4187 0.798631 108.333 0.00241422 120.995C-0.0232702 121.535 0.156521 122.048 0.516103 122.434C0.875684 122.819 1.38937 123.05 1.92875 123.05H46.183C46.7224 123.05 47.2361 122.819 47.5956 122.434C47.9552 122.048 48.135 121.535 48.1093 120.995C47.2874 108.333 36.7054 98.4187 24.043 98.4187ZM4.08624 119.172C5.70435 109.54 14.1032 102.271 24.043 102.271C33.9829 102.271 42.4074 109.54 43.9998 119.172H4.08624Z" fill="#505050"/>
<path d="M79.624 81.1844C79.624 88.4017 85.4801 94.2578 92.6974 94.2578C99.9147 94.2578 105.771 88.4017 105.771 81.1844C105.771 73.9671 99.9147 68.111 92.6974 68.111C85.4801 68.111 79.624 73.9928 79.624 81.1844ZM101.918 81.1844C101.918 86.2699 97.7829 90.4051 92.6974 90.4051C87.6119 90.4051 83.4767 86.2699 83.4767 81.1844C83.4767 76.0989 87.6119 71.9637 92.6974 71.9637C97.7829 71.9637 101.918 76.0989 101.918 81.1844Z" fill="#505050"/>
<path d="M92.6978 98.4187C80.0354 98.4187 69.4534 108.333 68.6572 120.995C68.6315 121.535 68.8113 122.048 69.1709 122.434C69.5305 122.819 70.0442 123.05 70.5835 123.05H114.838C115.377 123.05 115.891 122.819 116.25 122.434C116.61 122.048 116.79 121.535 116.764 120.995C115.917 108.333 105.36 98.4187 92.6978 98.4187ZM72.7153 119.172C74.3335 109.54 82.7323 102.271 92.6721 102.271C102.638 102.271 111.036 109.54 112.629 119.172H72.7153Z" fill="#505050"/>
<path d="M39.8389 27.4012C40.9028 27.4012 41.7653 26.5388 41.7653 25.4749C41.7653 24.411 40.9028 23.5486 39.8389 23.5486C38.775 23.5486 37.9126 24.411 37.9126 25.4749C37.9126 26.5388 38.775 27.4012 39.8389 27.4012Z" fill="#505050"/>
<path d="M12.2027 38.5226H18.1872V48.6679C18.1872 49.4642 18.7009 50.1833 19.4457 50.4658C19.6512 50.5429 19.8823 50.5943 20.1135 50.5943C20.6529 50.5943 21.1922 50.3631 21.5775 49.9265L31.3376 38.5226H37.9128V49.9778C37.9128 50.4915 38.1183 50.9795 38.4779 51.3391C38.8374 51.6987 39.3254 51.9042 39.8391 51.9042H75.9771L85.7115 63.3081C86.0968 63.7447 86.6105 63.9758 87.1755 63.9758C87.4067 63.9758 87.6378 63.9502 87.8433 63.8474C88.6138 63.5906 89.1018 62.8457 89.1018 62.0495V51.9042H95.0863C95.6 51.9042 96.088 51.6987 96.4476 51.3391C96.8072 50.9795 97.0126 50.4915 97.0126 49.9778V16.3313C97.0126 15.8176 96.8072 15.3296 96.4476 14.97C96.088 14.6104 95.6 14.4049 95.0863 14.4049H69.4019V2.94968C69.4019 1.89662 68.5286 1.02335 67.4756 1.02335H12.2027C11.1496 1.02335 10.2764 1.89662 10.2764 2.94968V36.5706C10.2764 37.6493 11.1496 38.5226 12.2027 38.5226ZM14.129 4.87601H65.5235V14.4049H39.8391C39.3254 14.4049 38.8374 14.6104 38.4779 14.97C38.1183 15.3039 37.9128 15.8176 37.9128 16.3313V20.338C37.9128 21.4168 38.7604 22.2644 39.8391 22.2644C40.8922 22.2644 41.7655 21.4168 41.7655 20.338V18.2576H93.16V48.0258H87.1755C86.6875 48.0258 86.1738 48.2313 85.8142 48.5909C85.4546 48.9505 85.2492 49.4385 85.2492 49.9522V56.8099L78.3144 48.6936C77.9548 48.257 77.4154 48.0258 76.8504 48.0258H41.7655V30.6118C41.7655 29.5587 40.8922 28.6855 39.8391 28.6855C38.7604 28.6855 37.9128 29.5587 37.9128 30.6118V34.6442H30.4386C29.8736 34.6442 29.3342 34.9011 28.9746 35.312L22.0398 43.4283V36.5706C22.0398 35.5175 21.1666 34.6442 20.1135 34.6442H14.129V4.87601Z" fill="#505050"/>
<path d="M49.3936 27.7351H85.5059C86.559 27.7351 87.4322 26.8619 87.4322 25.8088C87.4322 24.7557 86.559 23.8825 85.5059 23.8825H49.3936C48.3406 23.8825 47.4673 24.7557 47.4673 25.8088C47.4673 26.8619 48.3149 27.7351 49.3936 27.7351Z" fill="#505050"/>
<path d="M49.3936 35.6716H85.5059C86.559 35.6716 87.4322 34.7983 87.4322 33.7453C87.4322 32.6922 86.559 31.819 85.5059 31.819H49.3936C48.3406 31.819 47.4673 32.6922 47.4673 33.7453C47.4673 34.7983 48.3149 35.6716 49.3936 35.6716Z" fill="#505050"/>
<path d="M49.3936 43.6338H71.7391C72.7921 43.6338 73.6654 42.7605 73.6654 41.7075C73.6654 40.6544 72.7921 39.7811 71.7391 39.7811H49.3936C48.3406 39.7811 47.4673 40.6544 47.4673 41.7075C47.4673 42.7605 48.3149 43.6338 49.3936 43.6338Z" fill="#505050"/>
<defs>
<linearGradient id="paint0_linear_10_179" x1="24.0684" y1="100.371" x2="24.0684" y2="121.124" gradientUnits="userSpaceOnUse">
<stop stop-color="#6754E9"/>
<stop offset="1" stop-color="#CB45ED"/>
</linearGradient>
<linearGradient id="paint1_linear_10_179" x1="92.6973" y1="100.371" x2="92.6973" y2="121.124" gradientUnits="userSpaceOnUse">
<stop stop-color="#6754E9"/>
<stop offset="1" stop-color="#CB45ED"/>
</linearGradient>
<linearGradient id="paint2_linear_10_179" x1="39.8262" y1="2.97537" x2="39.8262" y2="48.6679" gradientUnits="userSpaceOnUse">
<stop stop-color="#6754E9"/>
<stop offset="1" stop-color="#CB45ED"/>
</linearGradient>
</defs>
</svg>
