<svg width="80" height="113" viewBox="0 0 80 113" fill="none" xmlns="http://www.w3.org/2000/svg">
<path d="M75.7192 10.176L75.8566 99.3348C75.8566 105.096 71.1438 109.803 65.3829 109.803H3.19702V10.176H75.7192Z" fill="url(#paint0_linear_10_130)" fill-opacity="0.61"/>
<path d="M65.3824 113H3.19655C1.43101 113 0 111.569 0 109.802V10.176C0 8.4105 1.43101 6.97949 3.19655 6.97949H75.72C77.483 6.97949 78.914 8.40796 78.9166 10.171L79.0527 99.3297C79.0514 106.869 72.9203 113 65.3824 113ZM6.39183 106.608H65.3824C69.3943 106.608 72.6596 103.345 72.6596 99.3335L72.5273 13.3713H6.39183V106.608Z" fill="#423F6B"/>
<path d="M59.82 62.8562H19.8689C18.1046 62.8562 16.6736 61.4252 16.6736 59.661C16.6736 57.8941 18.1046 56.4631 19.8689 56.4631H59.82C61.5843 56.4631 63.0153 57.8941 63.0153 59.661C63.0153 61.4252 61.5843 62.8562 59.82 62.8562Z" fill="white"/>
<path d="M59.82 44.6156H19.8689C18.1046 44.6156 16.6736 43.1846 16.6736 41.4191C16.6736 39.6535 18.1046 38.2225 19.8689 38.2225H59.82C61.5843 38.2225 63.0153 39.6535 63.0153 41.4191C63.0153 43.1846 61.5843 44.6156 59.82 44.6156Z" fill="white"/>
<path d="M30.9531 80.8653H19.8689C18.1046 80.8653 16.6736 79.4343 16.6736 77.67C16.6736 75.9032 18.1046 74.4722 19.8689 74.4722H30.9531C32.7187 74.4722 34.1497 75.9032 34.1497 77.67C34.1497 79.4343 32.7187 80.8653 30.9531 80.8653Z" fill="white"/>
<path d="M49.8261 80.8653H45.1363C43.3707 80.8653 41.9397 79.4343 41.9397 77.67C41.9397 75.9032 43.3707 74.4722 45.1363 74.4722H49.8261C51.593 74.4722 53.024 75.9032 53.024 77.67C53.024 79.4343 51.593 80.8653 49.8261 80.8653Z" fill="white"/>
<path d="M17.3548 18.9733C15.588 18.9733 14.157 17.5422 14.157 15.7767V3.19655C14.157 1.43101 15.588 0 17.3548 0C19.1191 0 20.5501 1.43101 20.5501 3.19655V15.7767C20.5488 17.5422 19.1178 18.9733 17.3548 18.9733Z" fill="#423F6B"/>
<path d="M39.5193 18.9733C37.7538 18.9733 36.3228 17.5422 36.3228 15.7767V3.19655C36.3228 1.43101 37.7538 0 39.5193 0C41.2849 0 42.7159 1.43101 42.7159 3.19655V15.7767C42.7159 17.5422 41.2849 18.9733 39.5193 18.9733Z" fill="#423F6B"/>
<path d="M61.6853 18.9733C59.9198 18.9733 58.4888 17.5422 58.4888 15.7767V3.19655C58.4888 1.43101 59.9198 0 61.6853 0C63.4509 0 64.8819 1.43101 64.8819 3.19655V15.7767C64.8819 17.5422 63.4509 18.9733 61.6853 18.9733Z" fill="#423F6B"/>
<defs>
<linearGradient id="paint0_linear_10_130" x1="39.5268" y1="10.176" x2="39.5268" y2="109.803" gradientUnits="userSpaceOnUse">
<stop stop-color="#6754E9"/>
<stop offset="1" stop-color="#CB45ED"/>
</linearGradient>
</defs>
</svg>
