<svg width="115" height="132" viewBox="0 0 115 132" fill="none" xmlns="http://www.w3.org/2000/svg">
<path d="M89.3998 58.6652C89.3981 53.892 88.3216 49.1799 86.2497 44.876C84.1778 40.572 81.1632 36.7858 77.4278 33.7961C73.6925 30.8064 69.3316 28.6894 64.6662 27.6009C60.0008 26.5125 55.1497 26.4802 50.4701 27.5067C45.7905 28.5331 41.4016 30.592 37.6266 33.5318C33.8516 36.4716 30.7866 40.2174 28.6572 44.4934C26.5279 48.7695 25.3885 53.4668 25.3228 58.2396C25.2572 63.0124 26.267 67.7391 28.278 72.0716L43.8138 105.96H70.9058L86.4416 72.0716C88.3957 67.8706 89.4053 63.2952 89.3998 58.6652Z" fill="url(#paint0_linear_10_128)" fill-opacity="0.62"/>
<path d="M57.6449 26.76C56.2244 26.7705 54.8062 26.8767 53.3999 27.078C58.3252 27.743 63.0263 29.5611 67.1246 32.3859C71.2229 35.2106 74.6038 38.963 76.995 43.3409C79.3863 47.7189 80.7211 52.5999 80.8919 57.5911C81.0628 62.5822 80.0649 67.5439 77.9786 72.0766L62.5807 105.96H71.0706L86.4686 72.0766C88.7055 67.2134 89.6884 61.8627 89.3267 56.5174C88.9651 51.1722 87.2706 46.0044 84.3994 41.4902C81.5281 36.976 77.5724 33.2606 72.8969 30.6864C68.2213 28.1122 62.9762 26.7619 57.6449 26.76Z" fill="#9D4CEB"/>
<path d="M57 3V13.08" stroke="#423F6B" stroke-width="5" stroke-linecap="round" stroke-linejoin="round"/>
<path d="M96.5999 19.56L89.3999 26.76" stroke="#423F6B" stroke-width="5" stroke-linecap="round" stroke-linejoin="round"/>
<path d="M111.72 59.16H101.64" stroke="#423F6B" stroke-width="5" stroke-linecap="round" stroke-linejoin="round"/>
<path d="M18.1201 19.56L25.3201 26.76" stroke="#423F6B" stroke-width="5" stroke-linecap="round" stroke-linejoin="round"/>
<path d="M3 59.16H13.08" stroke="#423F6B" stroke-width="5" stroke-linecap="round" stroke-linejoin="round"/>
<path d="M89.3998 58.6652C89.3981 53.892 88.3216 49.1799 86.2497 44.876C84.1778 40.572 81.1632 36.7858 77.4278 33.7961C73.6925 30.8064 69.3316 28.6894 64.6662 27.6009C60.0008 26.5125 55.1497 26.4802 50.4701 27.5067C45.7905 28.5331 41.4016 30.592 37.6266 33.5318C33.8516 36.4716 30.7866 40.2174 28.6572 44.4934C26.5279 48.7695 25.3885 53.4668 25.3228 58.2396C25.2572 63.0124 26.267 67.7391 28.278 72.0716L43.8138 105.96H70.9058L86.4416 72.0716C88.3957 67.8706 89.4053 63.2952 89.3998 58.6652Z" stroke="#423F6B" stroke-width="5" stroke-linecap="round" stroke-linejoin="round"/>
<path d="M44.04 105.96H70.68V115.706C70.68 119.232 69.2767 122.613 66.7787 125.106C64.2807 127.599 60.8927 129 57.36 129C53.8274 129 50.4394 127.599 47.9414 125.106C45.4434 122.613 44.04 119.232 44.04 115.706V105.96Z" fill="#727373"/>
<path d="M62.3798 105.96V115.71C62.377 118.498 61.5085 121.215 59.897 123.477C58.2855 125.738 56.0127 127.43 53.3999 128.312C54.7363 128.766 56.1364 128.998 57.5461 129C59.2708 129 60.9787 128.656 62.5722 127.988C64.1656 127.319 65.6135 126.34 66.8331 125.105C68.0527 123.87 69.0201 122.404 69.6802 120.791C70.3402 119.177 70.6799 117.448 70.6799 115.702V105.96H62.3798Z" fill="#606161"/>
<path d="M44.04 105.96H70.68V115.706C70.68 119.232 69.2767 122.613 66.7787 125.106C64.2807 127.599 60.8927 129 57.36 129C53.8274 129 50.4394 127.599 47.9414 125.106C45.4434 122.613 44.04 119.232 44.04 115.706V105.96Z" stroke="#423F6B" stroke-width="5" stroke-linecap="round" stroke-linejoin="round"/>
<path d="M40.4399 115.32H74.2799" stroke="#423F6B" stroke-width="5" stroke-linecap="round" stroke-linejoin="round"/>
<path d="M40.4399 105.96H74.2799" stroke="#423F6B" stroke-width="5" stroke-linecap="round" stroke-linejoin="round"/>
<defs>
<linearGradient id="paint0_linear_10_128" x1="57.3598" y1="26.76" x2="57.3598" y2="105.96" gradientUnits="userSpaceOnUse">
<stop stop-color="#6754E9"/>
<stop offset="1" stop-color="#CB45ED"/>
</linearGradient>
</defs>
</svg>
