<svg width="776" height="658" viewBox="0 0 776 658" fill="none" xmlns="http://www.w3.org/2000/svg">
<path d="M398.59 49.0923C398.59 49.0923 309.052 45.1636 258.499 125.82C207.946 206.477 170.959 171.051 114.311 232.651C57.6638 294.252 69.4164 423.665 75.9475 476.367C82.4786 529.069 105.413 588.084 105.413 588.084H706.996C706.996 588.084 768.445 335.504 715.71 241.835C662.974 148.167 549.074 143.516 517.594 96.3042C486.114 49.0923 398.59 49.0923 398.59 49.0923Z" fill="#E5E5EC"/>
<path d="M14.347 584.642C14.347 584.642 186.221 570.69 754.308 588.705C767.455 589.125 803.535 626.095 737.082 637.042C670.63 647.989 613.764 637.042 517.594 652.405C421.424 667.767 324.885 639.829 233.248 639.829C141.611 639.829 136.893 635.195 93.4925 630.477C23.4637 622.889 -25.6287 591.946 14.347 584.642Z" fill="#DAD7EB"/>
<path d="M597.411 561.926C587.606 560.617 579.446 585.431 579.446 585.431L579.362 585.331C577.687 580.018 576.512 574.56 575.853 569.028C577.683 567.651 587.522 560.13 589.889 557.024C592.508 553.582 592.34 545.271 587.455 544.784C582.569 544.297 575.534 564.696 575.534 564.696L575.266 564.277C574.745 559.408 574.376 554.438 574.141 549.754C576.659 547.034 582.535 540.469 583.862 537.263C585.541 533.183 585.658 529.103 582.065 529.103C579.312 529.103 575.484 537.346 573.822 541.275C573.721 537.38 573.687 533.972 573.687 531.353C575.777 527.011 577.463 522.487 578.724 517.837C579.547 513.27 579.547 506.252 576.441 505.43C573.335 504.607 569.91 508.687 568.768 516.041C567.895 521.615 570.682 528.482 572.126 531.487C572.126 534.056 572.126 537.363 572.227 541.141C570.548 536.406 566.3 525.46 561.448 523.881C558.644 522.975 555.571 525.997 556.881 531.554C558.191 537.111 570.598 547.89 570.598 547.89L572.596 550.509C572.781 554.069 573.033 557.779 573.385 561.49C570.38 557.124 564.503 549.435 558.275 545.926C554.01 543.491 543.416 548.377 549.628 556.369C554.883 563.085 569.775 567.702 574.174 568.944C574.77 573.605 575.673 578.221 576.877 582.762C571.84 577.49 559.937 566.308 551.911 567.803C541.468 569.767 539.504 579.891 548.654 584.139C557.805 588.386 579.345 588.705 579.345 588.705C579.345 588.705 592.408 582.829 597.31 578.9C602.213 574.972 607.199 563.236 597.411 561.926Z" fill="#A7A3D1"/>
<path d="M21.7839 469.584C21.7839 469.584 17.8216 485.853 29.0202 512.414C40.2188 538.975 83.821 567.819 83.821 567.819C84.7545 546.469 80.5152 525.209 71.4639 505.849C56.5045 474.671 21.7839 469.584 21.7839 469.584Z" fill="url(#paint0_linear_35_631)"/>
<path d="M84.1068 481.488C84.1068 481.488 75.158 489.883 71.2965 510.466C67.4349 531.05 82.4111 566.224 82.4111 566.224C91.5357 553.599 97.4795 538.958 99.7378 523.545C103.196 498.529 84.1068 481.488 84.1068 481.488Z" fill="url(#paint1_linear_35_631)"/>
<path d="M1.93945 541.09C1.93945 541.09 7.51355 551.953 26.3513 561.238C45.1891 570.522 83.0325 565.704 83.0325 565.704C73.3668 553.477 60.8911 543.766 46.6665 537.397C23.5307 527.357 1.93945 541.09 1.93945 541.09Z" fill="url(#paint2_linear_35_631)"/>
<path d="M46.4145 584.642H150.207C149.403 580.247 147.695 576.066 145.193 572.364C142.69 568.662 139.446 565.519 135.667 563.135C122.605 554.606 107.612 563.135 107.612 563.135C107.612 563.135 100.409 545.019 73.8316 545.019C47.2539 545.019 43.3588 564.831 43.3588 564.831C43.3588 564.831 18.544 558.938 15.0518 584.642H46.4145Z" fill="url(#paint3_linear_35_631)"/>
<path d="M419.761 588.084H523.554C522.749 583.689 521.042 579.508 518.539 575.806C516.037 572.104 512.793 568.961 509.014 566.577C495.952 558.048 480.959 566.577 480.959 566.577C480.959 566.577 473.756 548.461 447.279 548.461C420.802 548.461 416.789 568.273 416.789 568.273C416.789 568.273 391.975 562.379 388.482 588.084H419.761Z" fill="url(#paint4_linear_35_631)"/>
<path d="M686.916 566.375C686.916 566.375 683.995 553.447 684.616 543.81C685.237 534.173 696.453 532.88 696.721 525.14C696.99 517.4 694.236 507.511 703.521 502.139C712.805 496.766 705.552 491.561 711.194 482.277C716.835 472.992 723.45 475.931 726.875 479.406C730.3 482.881 722.224 498.999 726.203 507.394C730.183 515.789 717.372 531.201 718.833 534.66C720.294 538.119 725.414 544.448 724.76 554.589C724.527 557.631 723.688 560.596 722.292 563.309C720.897 566.023 718.973 568.429 716.633 570.388L686.916 566.375Z" fill="url(#paint5_linear_35_631)"/>
<path d="M696.855 561.977C696.855 561.977 698.534 548.83 702.295 539.966C706.056 531.101 717.104 533.653 719.958 526.45C722.812 519.247 723.551 509.023 734.111 507.075C744.672 505.127 739.585 497.824 748.03 490.974C756.475 484.124 761.696 489.11 763.745 493.543C765.793 497.975 752.781 510.433 753.671 519.667C754.561 528.901 737.335 539.109 737.536 542.87C737.738 546.631 740.441 554.304 736.428 563.639C735.179 566.422 733.388 568.929 731.16 571.013C728.931 573.097 726.311 574.717 723.45 575.777L696.855 561.977Z" fill="url(#paint6_linear_35_631)"/>
<path d="M641.432 588.705H745.225C744.424 584.31 742.72 580.13 740.221 576.427C737.721 572.725 734.479 569.582 730.702 567.198C717.64 558.669 702.63 567.198 702.63 567.198C702.63 567.198 695.427 549.099 668.9 549.099C642.372 549.099 638.427 568.894 638.427 568.894C638.427 568.894 613.495 563.001 610.137 588.705H641.432Z" fill="url(#paint7_linear_35_631)"/>
<path d="M290.366 537.615C290.366 537.615 294.933 538.27 305.712 548.73C312.014 554.574 315.75 562.673 316.104 571.261C316.104 571.261 319.748 546.446 333.146 537.682C337.39 549.815 337.378 563.031 333.112 575.156C341.642 564.115 353.989 556.66 367.732 554.253C367.732 554.253 366.053 575.626 348.777 588.621H298.526C292.466 581.77 288.482 573.335 287.037 564.303C285.592 555.272 286.747 546.015 290.366 537.615Z" fill="#A7A3D1"/>
<path d="M227.221 553.884C217.416 552.574 209.256 577.389 209.256 577.389L209.155 577.272C207.492 571.957 206.323 566.499 205.663 560.969C207.493 559.592 217.332 552.071 219.699 548.965C222.318 545.607 222.15 537.212 217.248 536.725C212.345 536.238 205.344 556.688 205.344 556.688L205.075 556.268C204.538 551.382 204.186 546.413 203.95 541.728C206.469 539.009 212.345 532.444 213.672 529.254C215.35 525.157 215.468 521.077 211.875 521.077C209.122 521.077 205.294 529.338 203.631 533.25C203.531 529.355 203.497 525.946 203.497 523.327C205.586 518.986 207.272 514.462 208.534 509.812C209.357 505.245 209.357 498.227 206.251 497.404C203.145 496.582 199.719 500.678 198.578 508.015C197.705 513.589 200.492 520.456 201.936 523.462C201.936 526.047 201.936 529.338 202.036 533.116C200.357 528.381 196.093 517.434 191.258 515.856C188.454 514.949 185.381 517.988 186.691 523.529C188 529.069 200.475 539.898 200.475 539.898L202.456 542.518C202.658 546.077 202.909 549.787 203.262 553.498C200.257 549.133 194.38 541.443 188.152 537.934C183.887 535.5 173.293 540.385 179.505 548.377C184.76 555.093 199.652 559.727 204.051 560.952C204.64 565.619 205.544 570.241 206.754 574.787C201.717 569.498 189.814 558.316 181.788 559.811C171.345 561.775 169.381 571.899 178.531 576.147C187.681 580.395 209.222 580.714 209.222 580.714C209.222 580.714 222.285 574.837 227.187 570.925C232.09 567.013 237.009 555.194 227.221 553.884Z" fill="#E7B142"/>
<path d="M232.374 107.671C232.374 104.817 256.87 0 383.916 0C469.357 0 545.699 55.8249 545.699 136.146C545.699 191.987 504.111 226.154 449.428 249.525C430.053 258.071 429.482 274.021 429.482 292.808V324.708H335.461V262.587C335.461 237.52 336.586 217.02 362.224 200.466C396.978 178.237 429.381 176.524 429.381 136.078C429.381 108.745 408.882 89.3702 383.244 89.3702C342.227 89.3702 322.282 123.554 316.086 148.133L232.374 107.671ZM447.716 422.137C447.666 435.016 443.804 447.592 436.618 458.28C429.432 468.968 419.242 477.289 407.334 482.195C395.425 487.101 382.331 488.371 369.702 485.846C357.073 483.321 345.473 477.114 336.367 468.007C327.26 458.9 321.052 447.301 318.528 434.672C316.003 422.043 317.273 408.948 322.179 397.04C327.085 385.132 335.406 374.942 346.094 367.756C356.781 360.57 369.358 356.708 382.237 356.658C390.845 356.611 399.376 358.274 407.337 361.549C415.298 364.824 422.529 369.647 428.612 375.737C434.695 381.828 439.508 389.066 442.773 397.031C446.038 404.995 447.689 413.529 447.632 422.137H447.716Z" fill="url(#paint8_linear_35_631)"/>
<path opacity="0.47" d="M230.696 126.206C230.696 123.537 256.099 10.527 374.901 10.527C454.819 10.527 526.207 62.7422 526.207 137.858C526.207 190.057 487.306 222.024 436.166 243.867C418.05 251.859 417.529 266.768 417.529 284.346V314.181H329.754V256.157C329.754 232.651 330.829 213.528 354.787 198.082C387.292 177.313 417.664 175.702 417.664 137.892C417.664 112.321 398.473 94.2392 374.515 94.2392C336.151 94.2392 315.013 141.25 309.153 164.083L230.696 126.206ZM449.95 414.8C449.897 426.841 446.281 438.597 439.558 448.586C432.835 458.576 423.307 466.352 412.172 470.935C401.037 475.519 388.795 476.704 376.988 474.342C365.182 471.98 354.338 466.176 345.824 457.662C337.309 449.147 331.505 438.304 329.143 426.497C326.781 414.69 327.967 402.448 332.55 391.313C337.133 380.179 344.909 370.65 354.899 363.927C364.888 357.204 376.644 353.589 388.685 353.535C396.747 353.475 404.741 355.019 412.201 358.076C419.661 361.134 426.439 365.644 432.14 371.345C437.841 377.046 442.352 383.824 445.409 391.284C448.467 398.744 450.01 406.738 449.95 414.8Z" stroke="white" stroke-miterlimit="10"/>
<path d="M123.646 145.732C123.445 145.128 120.825 121.22 147.588 111.784C165.603 105.438 185.834 111.532 191.794 128.456C195.941 140.209 189.729 150.517 179.924 159.5C176.566 162.74 177.557 166.216 178.95 170.111L181.318 176.826L161.506 183.811L156.822 170.732C154.958 165.443 153.682 161.044 157.863 155.621C163.521 148.352 170.254 145.548 167.248 137.052C166.839 135.74 166.165 134.526 165.268 133.484C164.372 132.442 163.272 131.595 162.036 130.994C160.8 130.393 159.454 130.052 158.08 129.991C156.707 129.93 155.336 130.15 154.052 130.639C145.405 133.694 143.743 142.391 144.247 147.999L123.646 145.732ZM192.483 196C193.427 198.717 193.547 201.652 192.826 204.437C192.105 207.221 190.577 209.73 188.433 211.647C186.289 213.565 183.626 214.805 180.779 215.212C177.932 215.619 175.028 215.174 172.433 213.934C169.838 212.693 167.668 210.713 166.196 208.242C164.725 205.77 164.017 202.919 164.163 200.047C164.309 197.174 165.301 194.409 167.015 192.099C168.73 189.79 171.089 188.039 173.796 187.068C175.604 186.426 177.52 186.148 179.436 186.25C181.351 186.352 183.228 186.831 184.957 187.662C186.686 188.492 188.234 189.656 189.511 191.087C190.788 192.518 191.77 194.188 192.399 196H192.483Z" fill="url(#paint9_linear_35_631)"/>
<path d="M581.276 158.509C581.494 157.922 594.707 137.858 621.386 147.714C639.283 154.329 650.952 171.958 644.723 188.781C640.391 200.533 629.025 204.428 615.761 205.083C611.027 205.369 609.683 208.659 608.223 212.605L605.738 219.321L586.044 212.034L590.862 199.022C592.81 193.767 594.64 189.553 601.289 188.075C610.305 186.128 617.239 188.277 620.378 179.798C620.912 178.523 621.178 177.152 621.159 175.77C621.14 174.388 620.837 173.025 620.268 171.765C619.7 170.505 618.878 169.375 617.854 168.447C616.83 167.518 615.626 166.81 614.317 166.367C605.738 163.193 598.905 168.801 595.681 173.452L581.276 158.509ZM602.011 241.046C601.002 243.746 599.217 246.086 596.88 247.773C594.543 249.459 591.759 250.415 588.879 250.521C585.999 250.627 583.153 249.878 580.698 248.368C578.243 246.857 576.291 244.654 575.087 242.036C573.883 239.418 573.482 236.502 573.933 233.655C574.384 230.809 575.669 228.16 577.624 226.043C579.579 223.926 582.117 222.435 584.918 221.758C587.719 221.082 590.658 221.25 593.364 222.242C595.174 222.898 596.836 223.908 598.253 225.211C599.67 226.515 600.814 228.087 601.618 229.837C602.422 231.586 602.871 233.478 602.939 235.402C603.006 237.326 602.691 239.245 602.011 241.046Z" fill="url(#paint10_linear_35_631)"/>
<path d="M252.908 189.133C253.025 188.814 260.178 177.985 274.549 183.29C284.22 186.867 290.516 196.386 287.141 205.469C284.808 211.782 278.747 213.864 271.511 214.25C268.959 214.418 268.237 216.198 267.447 218.313L266.104 221.923L255.477 217.994L258.079 210.976C259.137 208.139 260.11 205.855 263.703 205.066C268.572 204.009 272.316 205.184 274.012 200.6C274.286 199.908 274.415 199.166 274.393 198.422C274.371 197.677 274.197 196.945 273.883 196.27C273.569 195.594 273.121 194.99 272.566 194.493C272.011 193.997 271.36 193.618 270.654 193.381C266.02 191.702 262.26 194.707 260.581 197.209L252.908 189.133ZM264.09 233.709C263.557 235.175 262.601 236.449 261.344 237.371C260.086 238.293 258.583 238.821 257.025 238.887C255.467 238.954 253.924 238.556 252.592 237.745C251.261 236.934 250.2 235.745 249.544 234.33C248.889 232.916 248.668 231.338 248.91 229.797C249.152 228.257 249.846 226.823 250.904 225.677C251.962 224.532 253.337 223.726 254.853 223.363C256.369 222.999 257.96 223.094 259.422 223.636C260.392 223.988 261.283 224.528 262.043 225.226C262.804 225.923 263.418 226.765 263.852 227.701C264.286 228.637 264.53 229.65 264.571 230.681C264.612 231.713 264.448 232.742 264.09 233.709Z" fill="#B6B6CE"/>
<path d="M561.012 58.0412C561.012 57.6382 562.506 42.3598 580.471 40.0429C592.559 38.4647 604.379 44.9622 605.84 56.3286C606.864 64.2197 601.609 69.7602 594.305 74.1255C591.72 75.6869 591.938 77.9535 592.29 80.6062L592.878 85.1225L579.581 86.8015L578.439 78.0206C577.969 74.478 577.768 71.5567 581.092 68.736C585.592 64.9584 590.158 64.1189 589.487 58.4105C589.401 57.5387 589.138 56.6935 588.716 55.9262C588.293 55.1589 587.719 54.4854 587.028 53.9469C586.337 53.4083 585.544 53.0157 584.697 52.7931C583.849 52.5705 582.966 52.5224 582.099 52.6518C576.29 53.3905 574.107 58.5952 573.705 62.1714L561.012 58.0412ZM597.243 98.5709C597.472 100.392 597.156 102.241 596.337 103.883C595.517 105.526 594.229 106.889 592.636 107.801C591.043 108.713 589.215 109.134 587.384 109.009C585.552 108.885 583.798 108.221 582.343 107.102C580.888 105.982 579.797 104.458 579.207 102.719C578.617 100.981 578.554 99.1067 579.027 97.3329C579.5 95.5591 580.487 93.9649 581.865 92.7511C583.242 91.5373 584.948 90.7582 586.767 90.512C587.99 90.3428 589.235 90.42 590.429 90.739C591.622 91.0579 592.74 91.6123 593.716 92.3693C594.692 93.1264 595.507 94.071 596.113 95.1475C596.718 96.224 597.103 97.4108 597.243 98.6381V98.5709Z" fill="#E5E5EC"/>
<path d="M500.553 505.379L536.852 581.587L535.895 592.735C541.133 595.505 554.245 577.288 554.245 577.288L550.451 572.638C550.451 572.638 539.135 513.791 529.766 505.379H500.553Z" fill="#D36762"/>
<path d="M535.995 590.149C535.995 590.149 533.46 594.229 530.354 598.258C527.248 602.288 524.058 606.838 525.435 608.953C526.812 611.069 541.301 601.012 551.794 593.843C562.288 586.674 560.877 586.472 560.693 585.297C560.508 584.122 553.692 576.214 553.692 576.214C553.692 576.214 545.868 586.372 541.234 589.41C536.6 592.449 535.995 590.149 535.995 590.149Z" fill="#282E4E"/>
<path d="M533.242 505.379L503.676 497.673L512.188 594.582L503.676 602.976H530.841L529.548 595.304C530.136 586.456 534.82 522.387 533.242 505.379Z" fill="#FF897F"/>
<path d="M535.173 364.23C535.173 364.23 547.076 391.648 548.873 403.551C550.669 415.455 533.007 433.117 533.007 433.117L535.173 364.23Z" fill="#FF897F"/>
<path d="M499.327 304.712L497.413 310.37C497.413 310.37 492.829 310.37 492.376 311.814C491.923 313.258 494.777 315.658 494.777 315.658C494.777 315.658 491.704 327.797 495.129 333.388C498.554 338.979 519.122 335.923 519.122 335.923C521.979 335.392 524.667 334.181 526.958 332.393C529.248 330.604 531.076 328.291 532.285 325.648C536.969 316.263 540.394 309.043 538.597 299.675C537.54 294.185 527.718 290.39 518.181 290.676C513.984 290.818 509.929 292.238 506.56 294.747C503.191 297.255 500.667 300.731 499.327 304.712Z" fill="#FF897F"/>
<path d="M507.034 334.832L505.774 347.273L526.509 344.402L528.172 331.289L507.034 334.832Z" fill="#FF897F"/>
<path d="M519.173 342.857C519.173 342.857 502.719 342.857 496.037 358.102C486.92 378.972 495.735 409.444 495.735 409.444L494.056 425.965C494.056 425.965 496.944 433.118 540.898 425.545L535.173 409.679C535.173 409.679 540.395 372.911 539.085 361.309C537.339 345.712 519.173 342.857 519.173 342.857Z" fill="#BDBED1"/>
<path d="M507.721 293.966C507.655 298.999 509.087 303.937 511.835 308.154C516.351 314.735 518.869 315.726 518.869 315.726C518.869 315.726 517.778 319.503 518.416 320.595C519.054 321.686 521.573 316.716 524.729 317.438C527.885 318.16 528.087 324.372 525.082 327.982C524.21 329.04 523.085 329.86 521.81 330.365C520.536 330.87 519.155 331.043 517.795 330.87C517.795 330.87 516.435 340.524 521.757 348.18C524.408 352.015 528.306 354.812 532.788 356.095C537.27 357.378 542.059 357.067 546.337 355.214C550.245 353.607 553.462 350.675 555.424 346.933C557.386 343.19 557.967 338.876 557.065 334.748C555.622 326.723 545.162 320.578 545.162 320.578C545.162 320.578 549.225 302.848 542.274 294.05C535.323 285.253 515.864 285.337 508.46 288.577C508.46 288.577 501.341 285.975 496.825 290.743C495.795 291.878 495.019 293.22 494.548 294.679C494.077 296.138 493.923 297.68 494.094 299.203C494.266 300.726 494.76 302.195 495.543 303.513C496.327 304.83 497.382 305.966 498.638 306.844C498.638 306.844 502.332 296.905 507.721 293.966Z" fill="#282E4E"/>
<path d="M507.856 354.912L482.151 385.133L493.232 397.104L524.713 372.44C526.03 371.409 527.122 370.119 527.921 368.65C528.72 367.18 529.21 365.562 529.359 363.896C529.509 362.229 529.315 360.55 528.79 358.962C528.265 357.373 527.42 355.91 526.308 354.66C525.141 353.358 523.709 352.321 522.107 351.619C520.506 350.916 518.773 350.565 517.025 350.589C515.276 350.613 513.553 351.011 511.972 351.757C510.39 352.503 508.987 353.579 507.856 354.912Z" fill="#D3D5E2"/>
<path d="M470.198 341.027C470.198 341.027 472.599 378.653 473.321 386.241C474.043 393.83 477.351 399.824 483.966 400.294C487.341 400.418 490.642 399.287 493.233 397.121L482.455 340.037L470.198 341.027Z" fill="#FF897F"/>
<path d="M475.654 325.161C474.823 325.707 474.142 326.451 473.672 327.327C472.343 327.799 471.247 328.768 470.617 330.03C469.943 330.897 469.379 331.845 468.938 332.851C467.981 334.899 470.617 342.773 470.617 342.773L482.739 341.766C483.805 339.496 484.719 337.157 485.475 334.765C486.013 332.481 484.384 329.728 483.914 328.872C483.444 328.015 482.588 328.284 482.235 329.124C482.124 330.491 482.226 331.867 482.537 333.203L481.681 334.412C480.797 333.335 480.369 331.956 480.489 330.567C480.674 328.167 484.099 322.273 482.907 320.645C481.715 319.016 478.81 324.255 478.81 324.255C477.715 324.382 476.649 324.688 475.654 325.161Z" fill="#FF897F"/>
<path d="M494.055 425.965L497.178 505.379H533.241C533.241 505.379 544.238 439.481 540.897 425.545C540.897 425.545 511.079 429.877 494.055 425.965Z" fill="url(#paint11_linear_35_631)"/>
<path d="M507.419 599.283C507.419 599.283 503.071 601.314 498.269 602.993C493.467 604.672 488.279 606.72 488.279 609.239C488.279 611.757 505.908 611.287 518.618 611.052C531.327 610.817 531.798 610.448 532.284 609.373C532.771 608.299 529.85 597.335 529.85 597.335C529.85 597.335 517.745 601.549 512.204 601.549C506.664 601.549 507.419 599.283 507.419 599.283Z" fill="#282E4E"/>
<path d="M514.32 334.345C512.033 335.677 509.484 336.496 506.849 336.746" stroke="#BA6561" stroke-linecap="round" stroke-linejoin="round"/>
<path d="M471.271 341.548L478.457 340.591" stroke="#BA6561" stroke-linecap="round" stroke-linejoin="round"/>
<path d="M277.841 603.01H255.914V615.955H277.841V603.01Z" fill="#FF897F"/>
<path d="M255.881 614.393C255.881 614.393 255.512 628.412 255.881 630.696C255.881 630.696 266.777 631.3 272.284 631.3C277.791 631.3 293.489 631.888 298.409 630.696C303.328 629.504 301.397 627.455 300.205 625.424C299.013 623.392 277.321 614.393 277.321 614.393C277.321 614.393 264.897 616.324 255.881 614.393Z" fill="#282E4E"/>
<path d="M245 428.802C245 428.802 244.278 447.842 245 474.453C245.722 501.064 252.303 607.325 252.303 607.325L280.845 608.651L291.389 428.802H245Z" fill="url(#paint12_linear_35_631)"/>
<path d="M275.221 280.703L277.135 286.327C277.135 286.327 281.685 286.327 282.172 287.771C282.659 289.215 279.788 291.599 279.788 291.599C279.788 291.599 282.844 303.704 279.419 309.278C275.994 314.853 255.51 311.797 255.51 311.797C252.666 311.253 249.994 310.032 247.72 308.238C245.447 306.443 243.639 304.128 242.448 301.488C237.781 292.136 234.356 284.951 236.152 275.599C237.21 270.142 246.998 266.348 256.501 266.633C260.681 266.798 264.712 268.233 268.057 270.746C271.401 273.26 273.9 276.733 275.221 280.703Z" fill="#FF897F"/>
<path d="M267.549 310.722L268.808 323.113L248.124 320.242L246.495 307.18L267.549 310.722Z" fill="#FF897F"/>
<path d="M267.834 270.629C265.327 274.277 261.774 277.081 257.643 278.671C257.643 278.671 260.095 288.56 258.181 289.652C256.267 290.743 256.384 288.124 252.556 287.771C248.728 287.419 248.359 292.321 249.551 296.754C250.021 298.353 251.031 299.74 252.408 300.68C253.785 301.619 255.445 302.053 257.106 301.908C258.785 301.555 259.255 303.587 255.914 306.575C253.185 308.844 250.263 310.872 247.183 312.636C247.183 312.636 232.073 298.735 229.42 291.633C226.767 284.531 229.42 280.585 229.42 280.585C229.42 280.585 227.506 271.368 235.061 266.684C242.617 261.999 257.945 260.925 264.174 261.529C270.403 262.134 269.799 265.492 269.799 265.492C270.709 265.678 271.549 266.112 272.228 266.746C272.906 267.38 273.396 268.189 273.644 269.084C273.957 270.121 273.999 271.221 273.767 272.279C273.535 273.337 273.036 274.318 272.317 275.129C271.004 273.459 269.499 271.949 267.834 270.629Z" fill="#282E4E"/>
<path d="M247.872 318.278C242.72 325.927 238.594 334.219 235.598 342.941C231.703 355.517 245.001 428.853 245.001 428.853H291.373C291.373 428.853 289.963 357.682 286.554 345.309C283.648 335.6 277.35 327.258 268.808 321.803L247.872 318.278Z" fill="url(#paint13_linear_35_631)"/>
<path d="M261.823 429.927L260.715 602.137" stroke="#F96786" stroke-linecap="round" stroke-linejoin="round"/>
<path d="M251.968 602.137H281.769" stroke="#F96786" stroke-linecap="round" stroke-linejoin="round"/>
<path d="M238.418 339.835C231.837 351.789 219.53 376.084 212.646 401.839L232.055 409.747L263.065 353.049C264.123 351.143 264.721 349.017 264.812 346.839C264.902 344.662 264.482 342.493 263.586 340.507C263.548 340.403 263.503 340.302 263.451 340.205C258.549 330.03 243.892 329.862 238.418 339.835Z" fill="url(#paint14_linear_35_631)"/>
<path d="M269.698 440.169C269.698 440.169 274.617 441.109 274.617 440.169C274.617 439.229 272.166 438.02 269.463 437.97C268.724 437.97 268.002 437.97 267.314 437.97V437.432L269.396 437.013C269.396 437.013 273.879 438.692 274.164 437.785C274.45 436.878 271.125 434.427 269.127 434.645C267.823 434.789 266.528 435.007 265.249 435.3L263.1 435.485C264.779 434.393 266.323 433.806 265.937 433.134C265.551 432.463 264.577 432.463 261.69 433.588C260.122 434.216 258.634 435.028 257.257 436.005L256.35 436.089L232.006 409.696L212.597 401.788C212.597 401.788 207.023 414.364 215.653 424.622C224.283 434.88 253.58 448.513 253.58 448.513C256.787 449.907 266.239 446.146 266.239 446.146V446.062L268.053 445.76C268.053 445.76 272.972 446.7 272.972 445.76C272.972 444.82 270.538 443.594 267.818 443.56H266.558V443.409L269.312 442.939C269.312 442.939 274.231 443.879 274.231 442.939C274.231 441.999 271.78 440.79 269.077 440.74C268.321 440.74 267.583 440.74 266.877 440.74V440.538L269.698 440.169Z" fill="#FF897F"/>
<path d="M258.902 309.262C258.902 309.262 263.587 312.855 267.734 312.62" stroke="#BA6561" stroke-linecap="round" stroke-linejoin="round"/>
<path d="M256.4 436.14C256.4 436.14 258.936 441.613 258.583 443.963" stroke="#BA6561" stroke-linecap="round" stroke-linejoin="round"/>
<path d="M636.43 334.211C636.43 334.211 623.317 357.901 614.033 376.621L589.05 356.155L587.489 354.358C587.08 353.033 586.443 351.789 585.608 350.681C583.728 348.348 583.308 343.361 582.099 345.846C581.444 347.172 581.982 349.674 582.62 351.739L577.415 351.386C574.601 350.366 571.643 349.799 568.651 349.707C565.293 349.943 566.132 351.219 566.317 351.386C566.502 351.554 570.817 352.142 573.906 353.284L573.805 353.519C571.527 352.775 569.149 352.385 566.754 352.36C563.396 352.612 564.235 353.888 564.42 354.14C567.228 354.682 569.999 355.406 572.714 356.306V356.457C570.671 355.817 568.541 355.5 566.401 355.517C563.043 355.752 563.899 357.028 564.084 357.196C564.269 357.363 568.298 357.918 571.371 358.992C569.881 358.722 568.362 358.654 566.854 358.791C563.58 359.244 564.453 360.47 564.655 360.705C564.856 360.94 567.828 361.074 570.665 361.678L582.418 365.758C586.145 372.474 599.325 394.653 611.8 400.311C615.594 401.99 620.782 400.009 623.384 396.768L637.89 378.72L636.43 334.211Z" fill="#FF897F"/>
<path d="M643.264 559.072L647.176 601.835L640.359 609.743C640.359 609.743 642.458 616.24 663.294 608.668L661.094 599.232C661.094 599.232 664.016 569.347 663.294 560.063L643.264 559.072Z" fill="#FF897F"/>
<path d="M693.111 559.072L702.631 601.835L703.605 610.129C706.268 612.997 709.818 614.888 713.685 615.497C717.552 616.106 721.511 615.398 724.927 613.487L716.062 599.383L712.402 559.089L693.111 559.072Z" fill="#FF897F"/>
<path d="M641.08 608.366C641.08 608.366 627.514 618.691 627.262 620.756C627.01 622.822 628.252 623.443 631.661 623.812C635.069 624.181 652.312 621.613 658.423 620.454C664.534 619.296 664.77 618.137 664.77 618.137C665.021 614.233 664.36 610.324 662.839 606.72C662.839 606.72 657.802 611.455 644.941 610.817C644.134 610.804 643.347 610.568 642.665 610.135C641.984 609.703 641.435 609.09 641.08 608.366Z" fill="#464F96"/>
<path d="M701.657 448.665C699.606 436.707 695.249 425.263 688.83 414.968L685.187 397.02C688.545 387.82 699.307 356.726 699.206 336.343L673.317 328.855L659.046 328.351C659.046 328.351 650.416 330.03 636.43 334.211C636.43 334.211 630.084 359.395 630.923 371.534C631.643 379.094 633.116 386.563 635.322 393.83L635.003 415.656L631.645 592.13L667.558 594.951L666.215 468.174L669.035 469.332L690.727 597.923L724.994 593.524C724.994 593.524 704.041 461.324 701.657 448.665Z" fill="url(#paint15_linear_35_631)"/>
<path d="M653.874 330.265C653.874 330.265 649.929 333.875 652.195 336.83C654.462 339.785 660.103 336.225 660.103 336.225C661.64 337.519 663.454 338.442 665.405 338.922C667.355 339.403 669.39 339.428 671.352 338.996C677.547 337.317 678.907 330.265 678.907 330.265" stroke="#F96786" stroke-linecap="round" stroke-linejoin="round"/>
<path d="M699.608 336.343C699.608 336.343 688.779 348.23 688.175 360.436C687.705 370.258 707.869 390.993 714.719 399.69L688.645 423.195L687.738 423.346C686.784 422.855 685.775 422.478 684.733 422.221C682.706 421.659 680.564 421.659 678.538 422.221C678.269 422.557 678.538 423.077 679.763 423.279C680.528 423.415 681.303 423.488 682.08 423.497L683.171 424.085L678.789 424.807C676.747 424.819 674.712 425.033 672.712 425.445C670.21 426.116 667.675 428.047 668.128 428.903C668.581 429.76 671.486 428.416 672.98 427.678H677.463L677.614 427.93C676.24 427.989 674.874 428.174 673.534 428.484C671.033 429.155 668.498 431.069 668.951 431.925C669.404 432.782 672.409 431.439 673.803 430.717L679.411 430.633L679.495 430.75C678.364 430.828 677.241 430.996 676.137 431.254C673.635 431.925 671.1 433.856 671.553 434.713C672.006 435.569 674.911 434.226 676.405 433.487H681.325C680.827 433.561 680.334 433.662 679.847 433.789C677.346 434.461 674.81 436.375 675.264 437.231C675.717 438.087 678.705 436.744 680.116 436.005H682.953C682.953 436.005 691.348 436.929 694.941 431.506C700.968 428.668 728.805 411.358 732.113 405.381C736.881 396.584 699.608 336.343 699.608 336.343Z" fill="#FF897F"/>
<path d="M643.396 304.695C643.396 304.695 639.77 316.448 640.206 324.271C640.643 332.095 648.181 330.568 650.045 329.879C651.909 329.191 654.729 332.498 657.147 331.441C659.565 330.383 656.341 324.389 656.341 324.389L643.396 304.695Z" fill="#282E4E"/>
<path d="M655.839 320.443L656.259 335.151C656.259 335.151 657.719 336.276 661.917 336.343C666.114 336.41 672.343 332.347 672.343 332.347L671.537 317.556L655.839 320.443Z" fill="#FF897F"/>
<path d="M680.267 299.02C679.197 298.929 678.12 299.072 677.111 299.44C677.571 294.977 677.8 290.494 677.799 286.008L643.716 283.977C643.716 283.977 641.534 301.488 643.347 311.562C644.335 315.973 646.843 319.895 650.432 322.643C652.285 324.162 654.529 325.125 656.906 325.422C659.282 325.719 661.695 325.338 663.864 324.322C668.355 322.511 671.968 319.025 673.937 314.601C673.937 314.382 674.105 314.164 674.173 313.963C676.755 313.119 679.122 311.721 681.107 309.866C685.119 306.005 685.69 299.389 680.267 299.02Z" fill="#FF897F"/>
<path d="M655.469 292.204C662.05 295.142 670.764 293.547 670.764 293.547C669.98 296.128 669.864 298.867 670.428 301.505C671.486 305.048 673.602 305.383 673.602 305.383C673.602 305.383 676.154 299.591 679.528 300.145C682.903 300.699 681.761 307.264 679.192 310.017C677.897 311.575 676.038 312.559 674.021 312.754C674.021 312.754 670.563 316.968 671.587 321.149C671.587 321.149 672.225 330.215 672.393 332.314C672.393 332.314 673.719 333.875 677.077 332.079C680.435 330.282 684.834 333.758 690.828 329.997C696.821 326.236 696.066 320.628 692.842 312.821C690.722 307.235 689.235 301.429 688.41 295.511C688.41 295.511 688.175 284.296 685.052 278.571C681.929 272.845 676.288 270.629 669.824 269.336C666.02 268.54 662.064 268.932 658.491 270.461C658.491 270.461 644.774 272.14 640.258 280.25C632.216 294.823 642.726 300.565 642.726 300.565C645.898 296.026 647.846 290.747 648.384 285.236C650.022 288.195 652.483 290.616 655.469 292.204Z" fill="#282E4E"/>
<path d="M637.891 378.72C637.891 378.72 647.31 375.53 653.001 375.53C658.693 375.53 673.87 380.566 673.87 380.566" stroke="#F96786" stroke-miterlimit="10"/>
<path d="M660.087 336.226C658.922 341.569 658.359 347.026 658.408 352.495" stroke="#F96786" stroke-linecap="round" stroke-linejoin="round"/>
<path d="M651.876 459.074C651.876 459.074 664.888 462.432 669.052 469.366" stroke="#F96786" stroke-linecap="round" stroke-linejoin="round"/>
<path d="M689.435 590.619L723.819 586.573" stroke="#F96786" stroke-linecap="round" stroke-linejoin="round"/>
<path d="M631.796 585.146L667.507 588.705" stroke="#F96786" stroke-linecap="round" stroke-linejoin="round"/>
<path d="M614.033 376.621C614.461 380.83 614.461 385.071 614.033 389.28" stroke="#BA6561" stroke-linecap="round" stroke-linejoin="round"/>
<path d="M656.343 325.497C656.343 325.497 663.059 326.891 670.446 319.822" stroke="#BA6561" stroke-linecap="round" stroke-linejoin="round"/>
<path d="M95.676 557.914L99.9573 597.637L95.676 618.339C95.676 618.339 94.6183 619.85 104.071 621.344C113.523 622.838 118.594 618.993 118.594 618.993L115.236 596.983L116.73 561.322L95.676 557.914Z" fill="#FF897F"/>
<path d="M150.777 559.408L159.105 595.505L161.674 612.58L196.915 613.436L176.616 595.505L170.001 556.201L150.777 559.408Z" fill="#FF897F"/>
<path d="M98.4619 605.881C99.008 607.593 100.025 609.117 101.397 610.278C102.769 611.439 104.44 612.19 106.219 612.446C115.436 613.436 116.561 606.267 116.561 606.267C116.561 606.267 119.818 619.195 119.919 622.184C120.02 625.172 113.438 629.017 106.84 629.017C104.34 629.154 101.848 628.636 99.6096 627.514C97.3715 626.392 95.4653 624.705 94.0798 622.62C92.3673 620.051 98.4619 605.881 98.4619 605.881Z" fill="#464F96"/>
<path d="M159.845 600.34C159.5 603.891 159.5 607.468 159.845 611.019C160.499 614.225 161.238 616.257 161.994 616.458C162.749 616.66 175.123 617.231 178.111 617.382C181.1 617.533 194.901 618.087 199.149 617.382C203.396 616.677 204.068 616.458 204.706 614.645C205.344 612.832 186.036 603.749 186.036 603.749C182.311 605.013 178.417 605.709 174.485 605.814C167.433 606.166 162.816 600.189 159.845 600.34Z" fill="#464F96"/>
<path d="M118.34 298.617V312.67L101.249 311.629L98.5625 291.834L118.34 298.617Z" fill="#FF897F"/>
<path d="M210.633 315.088C208.328 314.496 205.922 314.41 203.581 314.836V314.063C206.653 313.493 212.563 312.569 209.541 311.663C206.049 310.605 200.509 312.166 200.509 312.166L195.237 310.739C196.714 308.624 197.957 304.124 196.731 304.745C195.505 305.367 191.123 311.461 189.881 313.006L166.896 337.837L134.039 308.288C130.513 312.032 129.489 330.114 134.677 338.794C139.865 347.474 167.383 357.649 167.383 357.649C178.33 357.33 191.912 331.844 195.925 323.818L201.482 323.701C201.482 323.701 203.044 323.701 204.085 323.516C207.258 323.197 211.405 322.744 208.853 321.736C207.273 321.216 205.611 320.994 203.95 321.081V320.376C206.989 319.923 213.151 319.251 210.129 318.194C208.065 317.647 205.91 317.533 203.799 317.858V317.371C206.301 316.934 213.907 316.229 210.633 315.088Z" fill="#FF897F"/>
<path d="M123.73 258.49C123.73 258.49 129.841 279.578 130.345 288.93C130.849 298.281 124.855 303.755 117.014 303.755C111.819 303.531 106.784 301.888 102.458 299.003L92.6528 280.988C90.8874 277.751 90.4134 273.965 91.326 270.392C92.2387 266.819 94.4703 263.725 97.5721 261.731C100.315 259.957 103.222 258.45 106.252 257.231C116.628 253.185 123.73 258.49 123.73 258.49Z" fill="#FF897F"/>
<path d="M95.7422 281.912C95.7422 281.912 90.3025 280.014 88.5396 283.439C86.7767 286.865 90.9908 292.17 94.7349 293.933C98.4789 295.696 103.969 293.933 103.969 293.933L95.7422 281.912Z" fill="#FF897F"/>
<path d="M154.119 401.788C154.119 401.788 145.724 406.825 127.776 407.866C120.235 408.226 112.68 408.181 105.144 407.732C95.4565 407.228 88.1195 406.355 88.1195 406.355L90.873 372.004L77.0889 315.591C83.1666 310.773 100.594 306.693 100.594 306.693C100.594 306.693 108.468 312.754 116.141 311.998C118.777 311.747 118.357 305.887 118.357 305.887C118.357 305.887 128.246 305.266 132.712 306.978C133.332 307.162 133.905 307.477 134.391 307.902C145.523 319 142.551 370.224 142.551 370.224L154.119 401.788Z" fill="url(#paint16_linear_35_631)"/>
<path d="M121.278 257.836C120.334 261.691 118.293 265.19 115.402 267.909C110.365 273.131 105.53 273.416 105.53 273.416C104.75 275.08 103.601 276.544 102.172 277.698L100.09 279.108C100.979 281.637 101.272 284.338 100.946 286.999C100.946 286.999 96.8159 281.022 92.9543 281.442C89.0927 281.861 87.4642 286.378 90.0162 289.836C92.2526 292.552 95.4536 294.297 98.9482 294.705L100.291 304.091C98.0469 304.589 95.7037 304.39 93.5755 303.52L93.3741 303.436C91.4769 302.596 89.2942 305.35 85.3151 305.434C81.336 305.518 80.5637 303.066 77.2394 304.107C73.9151 305.148 67.5519 306.29 65.3693 299.557C63.1866 292.825 68.5089 290.827 66.7964 286.831C65.0838 282.835 67.2665 279.813 70.7755 277.916C74.2845 276.019 70.7755 266.046 75.997 262.05C81.2185 258.054 82.5616 257.684 83.7033 255.216C84.845 252.748 89.6972 250.28 94.096 250.465C99.6029 250.683 98.3773 245.193 106.1 245.949C115.217 246.838 117.014 250.666 117.014 250.666C120.293 250.896 123.389 252.269 125.761 254.545C133.249 261.076 131.839 269.84 128.296 275.951C128.279 275.968 123.561 260.27 121.278 257.836Z" fill="#282E4E"/>
<path d="M77.7273 314.282L47.5063 346.518L22.5068 323.734C21.1469 322.24 16.194 316.548 14.9852 316.078C13.7763 315.608 15.3209 319.957 16.9663 321.938L11.9295 323.801C11.9295 323.801 6.25464 322.71 2.87996 324.053C-0.058197 325.228 5.91885 325.648 9.00811 325.95V326.672C6.64232 326.435 4.25332 326.716 2.00691 327.495C-1.18309 328.939 6.4729 328.972 9.09205 329.174V329.661C6.96224 329.508 4.82386 329.799 2.8128 330.517C-0.108564 331.827 6.08674 331.978 9.15921 332.196V332.918C7.50149 332.97 5.86775 333.329 4.34064 333.976C1.87259 335.201 6.01959 335.302 9.22637 335.353C10.2841 335.353 11.8455 335.353 11.8455 335.353L17.47 335.067C22.1375 342.706 37.8356 366.967 48.7655 366.329C48.7655 366.329 80.7998 349.355 85.249 340.322C89.6982 331.289 81.5385 317.724 77.7273 314.282Z" fill="#FF897F"/>
<path d="M178.548 558.971L170.153 560.331L149.435 563.689L127.71 449.235L124.721 445.374V563.689H90.9911C90.9911 563.689 82.0088 480.413 82.0088 455.196C82.0088 429.978 88.6238 399.992 88.6238 399.992C121.733 410.066 152.524 397.524 152.524 397.524C152.843 398.296 153.129 399.203 153.465 400.009C165.587 435.3 178.548 558.971 178.548 558.971Z" fill="url(#paint17_linear_35_631)"/>
<path d="M47.4893 346.517C50.109 349.298 52.5008 352.285 54.6416 355.449" stroke="#BA6561" stroke-linecap="round" stroke-linejoin="round"/>
<path d="M166.896 337.837C166.073 341.02 166.073 344.359 166.896 347.542" stroke="#BA6561" stroke-linecap="round" stroke-linejoin="round"/>
<path d="M118.341 303.755C118.341 303.755 106.471 305.434 100.896 296.116" stroke="#BA6561" stroke-linecap="round" stroke-linejoin="round"/>
<path d="M92.3008 371.097L98.5465 373.196" stroke="#F96786" stroke-linecap="round" stroke-linejoin="round"/>
<path d="M84.7285 422.104C88.1452 421.192 91.2003 419.254 93.4818 416.553C95.7634 413.851 97.1618 410.514 97.4885 406.993" stroke="#7954B3" stroke-miterlimit="10"/>
<path d="M87.6826 404.609C87.6826 404.609 122.94 415.992 154.118 401.788" stroke="#7954B3" stroke-miterlimit="10"/>
<path d="M124.721 445.357C124.721 445.357 127.256 437.667 133.737 434.058" stroke="#7954B3" stroke-miterlimit="10"/>
<path d="M147.487 404.407C147.487 404.407 151.315 416.026 158.35 418.477" stroke="#7954B3" stroke-miterlimit="10"/>
<path d="M89.9668 553.951C89.9668 553.951 102.156 555.781 124.721 553.951" stroke="#7954B3" stroke-miterlimit="10"/>
<path d="M177.406 548.612C167.587 550.986 157.583 552.519 147.504 553.196" stroke="#7954B3" stroke-miterlimit="10"/>
<path d="M96.0439 307.784C101.045 312.215 107.447 314.742 114.126 314.92C124.838 314.92 121.413 305.736 121.413 305.736" stroke="#F96786" stroke-linecap="round" stroke-linejoin="round"/>
<path d="M104.96 350.178C114.704 348.31 124.557 347.065 134.459 346.45" stroke="#F96786" stroke-linecap="round" stroke-linejoin="round"/>
<defs>
<linearGradient id="paint0_linear_35_631" x1="21.1044" y1="518.717" x2="83.9497" y2="518.717" gradientUnits="userSpaceOnUse">
<stop stop-color="#A797F2"/>
<stop offset="1" stop-color="#CB45ED"/>
</linearGradient>
<linearGradient id="paint1_linear_35_631" x1="70.6606" y1="523.87" x2="100.158" y2="523.87" gradientUnits="userSpaceOnUse">
<stop stop-color="#A797F2"/>
<stop offset="1" stop-color="#CB45ED"/>
</linearGradient>
<linearGradient id="paint2_linear_35_631" x1="1.94061" y1="550.345" x2="83.0352" y2="550.345" gradientUnits="userSpaceOnUse">
<stop stop-color="#A797F2"/>
<stop offset="1" stop-color="#CB45ED"/>
</linearGradient>
<linearGradient id="paint3_linear_35_631" x1="77.6093" y1="498.193" x2="82.2599" y2="578.329" gradientUnits="userSpaceOnUse">
<stop stop-color="#FFE9EC"/>
<stop offset="1" stop-color="#A7A3D1"/>
</linearGradient>
<linearGradient id="paint4_linear_35_631" x1="388.484" y1="568.279" x2="523.558" y2="568.279" gradientUnits="userSpaceOnUse">
<stop stop-color="#A797F2"/>
<stop offset="1" stop-color="#CB45ED"/>
</linearGradient>
<linearGradient id="paint5_linear_35_631" x1="701.514" y1="426.479" x2="709.25" y2="574.189" gradientUnits="userSpaceOnUse">
<stop stop-color="#FFE9EC"/>
<stop offset="1" stop-color="#A7A3D1"/>
</linearGradient>
<linearGradient id="paint6_linear_35_631" x1="709.985" y1="510.567" x2="733.406" y2="529.439" gradientUnits="userSpaceOnUse">
<stop stop-color="#FFE9EC"/>
<stop offset="1" stop-color="#A7A3D1"/>
</linearGradient>
<linearGradient id="paint7_linear_35_631" x1="610.139" y1="568.909" x2="745.229" y2="568.909" gradientUnits="userSpaceOnUse">
<stop stop-color="#A797F2"/>
<stop offset="1" stop-color="#CB45ED"/>
</linearGradient>
<linearGradient id="paint8_linear_35_631" x1="389.036" y1="0" x2="389.036" y2="487.112" gradientUnits="userSpaceOnUse">
<stop stop-color="#6754E9"/>
<stop offset="1" stop-color="#CB45ED"/>
</linearGradient>
<linearGradient id="paint9_linear_35_631" x1="123.488" y1="162.361" x2="193.293" y2="162.361" gradientUnits="userSpaceOnUse">
<stop stop-color="#A797F2"/>
<stop offset="1" stop-color="#CB45ED"/>
</linearGradient>
<linearGradient id="paint10_linear_35_631" x1="573.754" y1="197.78" x2="646.419" y2="197.78" gradientUnits="userSpaceOnUse">
<stop stop-color="#A797F2"/>
<stop offset="1" stop-color="#CB45ED"/>
</linearGradient>
<linearGradient id="paint11_linear_35_631" x1="530.555" y1="488.086" x2="502.601" y2="433.117" gradientUnits="userSpaceOnUse">
<stop offset="0.15" stop-color="#464F96"/>
<stop offset="0.4" stop-color="#4A4F98"/>
<stop offset="0.63" stop-color="#55509F"/>
<stop offset="0.85" stop-color="#6852A9"/>
<stop offset="1" stop-color="#7954B3"/>
</linearGradient>
<linearGradient id="paint12_linear_35_631" x1="329.266" y1="466.142" x2="230.493" y2="544.415" gradientUnits="userSpaceOnUse">
<stop stop-color="#CD536C"/>
<stop offset="1" stop-color="#8B1F5A"/>
</linearGradient>
<linearGradient id="paint13_linear_35_631" x1="286.789" y1="474.084" x2="253.227" y2="335" gradientUnits="userSpaceOnUse">
<stop offset="0.15" stop-color="#464F96"/>
<stop offset="0.4" stop-color="#4A4F98"/>
<stop offset="0.63" stop-color="#55509F"/>
<stop offset="0.85" stop-color="#6852A9"/>
<stop offset="1" stop-color="#7954B3"/>
</linearGradient>
<linearGradient id="paint14_linear_35_631" x1="233.012" y1="381.372" x2="256.517" y2="334.782" gradientUnits="userSpaceOnUse">
<stop stop-color="#464F96"/>
<stop offset="0.28" stop-color="#4A4F98"/>
<stop offset="0.56" stop-color="#56519F"/>
<stop offset="0.84" stop-color="#6A53AB"/>
<stop offset="1" stop-color="#7954B3"/>
</linearGradient>
<linearGradient id="paint15_linear_35_631" x1="630.856" y1="463.137" x2="724.927" y2="463.137" gradientUnits="userSpaceOnUse">
<stop stop-color="#CD536C"/>
<stop offset="1" stop-color="#8B1F5A"/>
</linearGradient>
<linearGradient id="paint16_linear_35_631" x1="100.141" y1="310.957" x2="129.959" y2="423.715" gradientUnits="userSpaceOnUse">
<stop stop-color="#CD536C"/>
<stop offset="1" stop-color="#8B1F5A"/>
</linearGradient>
<linearGradient id="paint17_linear_35_631" x1="99.9231" y1="396.987" x2="145.104" y2="567.819" gradientUnits="userSpaceOnUse">
<stop stop-color="#464F96"/>
<stop offset="0.28" stop-color="#4A4F98"/>
<stop offset="0.56" stop-color="#56519F"/>
<stop offset="0.84" stop-color="#6A53AB"/>
<stop offset="1" stop-color="#7954B3"/>
</linearGradient>
</defs>
</svg>
