<svg width="679" height="367" viewBox="0 0 679 367" fill="none" xmlns="http://www.w3.org/2000/svg">
<rect x="1" y="1" width="677" height="365" rx="19" fill="white" stroke="#CDCDCD" stroke-width="2"/>
<path d="M300.5 354C392.455 354 467 279.679 467 188C467 96.3207 392.455 22 300.5 22C208.545 22 134 96.3207 134 188C134 279.679 208.545 354 300.5 354Z" fill="#EEEEEE"/>
<path d="M88.0127 165.144V365.311H98.0457V356.6H165.503V365.311H175.561V165.144H88.0127ZM165.528 345.893H98.0716V295.52H165.528V345.893ZM165.528 286.68H98.0716V236.308H165.528V286.68ZM165.528 227.493H98.0716V177.121H165.528V227.493Z" fill="#F9E8CA"/>
<path d="M165.528 295.495H98.0713V345.867H165.528V295.495Z" fill="#E8C8A6"/>
<path d="M163.921 296.713H99.6787V344.674H163.921V296.713Z" fill="#F9E8CA"/>
<path d="M114.638 304.957H148.962C148.962 304.957 131.67 314.394 114.638 304.957Z" fill="#E8C8A6"/>
<path d="M165.528 236.308H98.0713V286.68H165.528V236.308Z" fill="#E8C8A6"/>
<path d="M163.921 237.526H99.6787V285.487H163.921V237.526Z" fill="#F9E8CA"/>
<path d="M114.638 245.744H148.962C148.962 245.744 131.67 255.207 114.638 245.744Z" fill="#E8C8A6"/>
<path d="M165.528 177.121H98.0713V227.493H165.528V177.121Z" fill="#E8C8A6"/>
<path d="M163.921 178.313H99.6787V226.275H163.921V178.313Z" fill="#F9E8CA"/>
<path d="M114.638 186.558H148.962C148.962 186.558 131.67 195.994 114.638 186.558Z" fill="#E8C8A6"/>
<path opacity="0.2" d="M99.6787 226.275V202.294C99.6787 202.294 107.223 222.438 130.841 222.438C154.458 222.438 163.895 203.124 163.895 203.124V226.249H99.6787V226.275Z" fill="#E8C8A6"/>
<path opacity="0.2" d="M99.6787 285.487V261.507C99.6787 261.507 107.223 281.651 130.841 281.651C154.458 281.651 163.895 262.336 163.895 262.336V285.462H99.6787V285.487Z" fill="#E8C8A6"/>
<path opacity="0.2" d="M99.6787 344.674V320.693C99.6787 320.693 107.223 340.837 130.841 340.837C154.458 340.837 163.895 321.523 163.895 321.523V344.674H99.6787Z" fill="#E8C8A6"/>
<path d="M73.8386 130.922C73.8386 130.922 91.312 113.786 105.597 123.975C105.597 123.975 108.993 126.645 111.482 132.815L115.526 132.996C115.526 132.996 110.937 117.727 95.2526 118.271C79.5421 118.815 73.1646 130.845 73.1646 130.845C73.1646 130.845 72.8534 131.519 73.0868 131.571C73.2942 131.622 73.8386 130.922 73.8386 130.922Z" fill="#94BF36"/>
<path d="M94.7081 119.127C108.137 118.66 113.4 129.73 114.67 132.945L115.526 132.971C115.526 132.971 110.937 117.701 95.2525 118.245C80.3456 118.764 73.8644 129.6 73.2422 130.715C75.1088 127.889 81.7197 119.593 94.7081 119.127Z" fill="#86AF2C"/>
<path d="M83.4564 99.6573C83.4564 99.6573 107.8 103.987 115.37 134.475L111.844 134.06C111.844 134.06 108.163 116.664 93.8524 106.45C90.4821 104.039 81.0454 99.7869 81.0713 99.735C81.1232 99.1388 83.4564 99.6573 83.4564 99.6573Z" fill="#94BF36"/>
<path d="M146.844 95.7683C146.844 95.7683 123.252 103.157 119.648 134.397L123.096 133.541C123.096 133.541 124.522 115.834 137.407 103.857C140.44 101.031 149.255 95.6127 149.229 95.5868C149.073 94.9646 146.844 95.7683 146.844 95.7683Z" fill="#94BF36"/>
<path d="M148.633 109.379C148.633 109.379 129.007 118.686 126.571 133.489L122.06 133.282C122.06 133.282 131.833 113.657 147.414 108.705C147.414 108.705 150.577 107.513 151.018 107.85C151.303 108.083 148.633 109.379 148.633 109.379Z" fill="#94BF36"/>
<path d="M119.519 133.178C120.089 126.645 121.23 123.042 122.111 120.708C122.552 119.516 123.433 117.053 122.967 116.923C122.526 116.794 121.23 119.075 120.556 120.345C119.882 121.59 119.337 122.886 116.434 133.049L119.519 133.178Z" fill="#94BF36"/>
<path d="M111.067 97.2461C111.067 97.2461 117.289 113.579 118.43 133.282L113.556 132.919C113.556 132.919 115.293 122.704 111.456 104.868C110.393 99.8645 109.2 96.8831 110.056 96.0276C110.341 95.7165 111.067 97.2461 111.067 97.2461Z" fill="#94BF36"/>
<path d="M124.029 84.4133C124.029 84.4133 114.904 115.601 114.229 133.308L118.403 132.789C118.403 132.789 116.9 124.39 122.396 99.9943C124.781 89.3132 127.607 80.6542 126.129 79.9024C125.611 79.6172 124.029 84.4133 124.029 84.4133Z" fill="#94BF36"/>
<path d="M150.343 107.85C149.85 108.29 148.01 109.172 148.01 109.172C148.01 109.172 128.333 118.531 125.507 133.438L126.57 133.489C128.981 118.66 148.632 109.379 148.632 109.379C148.632 109.379 151.302 108.083 151.017 107.875C150.913 107.772 150.68 107.798 150.343 107.85Z" fill="#86AF2C"/>
<path d="M148.658 95.3535C146.195 96.909 139.792 100.979 137.251 103.312C124.678 114.849 122.448 131.493 122.215 133.748L123.096 133.515C123.096 133.515 124.522 115.808 137.407 103.831C140.44 101.005 149.255 95.5868 149.229 95.5609C149.177 95.3794 148.944 95.3535 148.658 95.3535Z" fill="#86AF2C"/>
<path d="M122.941 116.923C122.811 116.872 122.604 117.053 122.37 117.338C122.215 118.246 121.696 119.671 121.385 120.527C120.478 122.912 119.337 126.593 118.715 133.152L119.493 133.178C120.063 126.645 121.204 123.042 122.085 120.708C122.552 119.516 123.407 117.053 122.941 116.923Z" fill="#86AF2C"/>
<path d="M126.129 79.8764C126.077 79.8504 126 79.9023 125.922 79.9801C125.948 82.9355 123.666 90.5056 121.67 99.4238C116.718 121.538 117.315 130.923 117.522 132.867L118.429 132.763C118.429 132.763 116.926 124.364 122.422 99.9682C124.781 89.2871 127.607 80.6282 126.129 79.8764Z" fill="#86AF2C"/>
<path d="M110.419 97.5572C110.419 97.5572 116.563 113.683 117.755 133.23L118.429 133.282C117.289 113.579 111.067 97.2461 111.067 97.2461C111.067 97.2461 110.341 95.7165 110.056 96.0276C109.926 96.1572 109.848 96.3387 109.822 96.572C110.107 96.935 110.419 97.5572 110.419 97.5572Z" fill="#86AF2C"/>
<path d="M82.1602 99.9682C82.1602 99.9682 106.219 104.246 113.918 134.319L115.344 134.474C107.774 103.961 83.4306 99.6571 83.4306 99.6571C83.4306 99.6571 81.0973 99.1386 81.0195 99.7608C81.0195 99.7608 81.0714 99.7868 81.1492 99.8386C81.6936 99.8905 82.1602 99.9682 82.1602 99.9682Z" fill="#86AF2C"/>
<path d="M98.9336 134.008L138.028 131.182V138.441L134.84 139.763L131.651 165.248H109.952L104.974 142.2H100.359L98.9336 134.008Z" fill="#5E4E57"/>
<path d="M98.9336 134.008L138.054 131.182V138.441L134.866 139.763L131.677 165.274H109.978C109.978 165.274 123.899 165.455 125.196 161.774C126.492 158.092 127.581 142.771 127.581 142.771L105.026 142.226C105.026 142.226 125.973 139.504 126.284 136.523C126.57 133.489 98.9336 134.008 98.9336 134.008Z" fill="#4C3D45"/>
<path d="M108.733 145.337L122.785 146.426C122.785 146.426 116.511 161.54 113.918 161.333C111.326 161.099 108.733 145.337 108.733 145.337Z" fill="#776971"/>
<path d="M102.252 136.056L102.9 139.737C102.9 139.737 115.214 137.793 115.007 136.704C114.8 135.615 102.252 136.056 102.252 136.056Z" fill="#776971"/>
<path d="M305.835 253.393H218.208C218.208 248.648 222.045 244.812 226.789 244.812H297.279C301.998 244.837 305.835 248.674 305.835 253.393Z" fill="#FFB624"/>
<path d="M297.279 244.837H260.414C265.158 244.837 268.995 248.674 268.995 253.419H305.861C305.835 248.674 301.998 244.837 297.279 244.837Z" fill="#FFA227"/>
<path d="M218.338 251.915C218.26 252.408 218.208 252.9 218.208 253.419H305.835C305.835 252.9 305.783 252.408 305.705 251.915H218.338Z" fill="#FFA227"/>
<path d="M264.814 356.918V257.443H259.241V356.918H264.814Z" fill="#A86F49"/>
<path d="M264.819 356.913V257.438H262.771V356.913H264.819Z" fill="#91552C"/>
<path d="M264.812 281.551V258.84H259.238V281.551H264.812Z" fill="#91552C"/>
<path d="M309.283 253.056H214.786V264.618H309.283V253.056Z" fill="#A86F49"/>
<path d="M309.282 253.056H248.203V264.618H309.282V253.056Z" fill="#91552C"/>
<path d="M290.642 362.278H233.426V360.385L256.395 355.822H267.647L290.642 360.385V362.278Z" fill="#A86F49"/>
<path d="M268.995 356.341H255.073L257.64 342.186H266.402L268.995 356.341Z" fill="#A86F49"/>
<path d="M257.641 342.186H266.403L268.996 356.341L290.643 360.385H252.481L259.248 356.911L261.063 343.897L257.641 342.186Z" fill="#91552C"/>
<path d="M309.283 253.056H214.786V254.456H309.283V253.056Z" fill="#CE955B"/>
<path d="M319.653 229.541C319.653 229.541 321.701 233.611 317.916 238.615C314.131 243.593 312.705 244.759 312.705 244.759H286.262C286.262 244.759 298.135 214.142 319.653 229.541Z" fill="#41466D"/>
<path d="M312.056 326.656C312.056 326.656 308.919 332.801 309.412 333.889C309.541 334.149 314.882 345.737 316.334 347.656C316.334 347.656 320.404 351.285 327.041 350.404C327.093 348.148 324.708 347.474 322.634 343.248C319.963 337.83 317.449 334.771 317.215 328.342C317.086 324.712 312.056 326.656 312.056 326.656Z" fill="#363956"/>
<path d="M312.057 326.656C312.057 326.656 313.145 344.882 320.897 344.882C323.153 344.882 322.401 343.482 321.312 340.785C319.108 335.315 317.812 333.267 317.397 327.382C317.397 327.382 314.468 323.338 312.057 326.656Z" fill="#E2A36A"/>
<path d="M309.412 333.889C309.412 333.889 309.749 336.378 309.645 338.919C309.542 341.46 309.179 345.815 309.179 345.815L309.697 345.945C309.697 345.945 311.253 339.956 312.679 337.182C312.679 337.208 312.834 331.815 309.412 333.889Z" fill="#363956"/>
<path d="M302.256 236.593C299.716 242.97 294.997 254.896 294.375 268.61C293.753 282.325 309.671 301.613 312.263 329.664C312.263 329.664 312.445 331.686 317.837 331.452C315.271 314.809 315.4 261.481 317.889 236.308C318.408 230.941 319.626 227.001 313.015 226.223C304.978 225.653 304.797 230.215 302.256 236.593Z" fill="#E2A36A"/>
<path d="M273.532 329.353C273.532 329.353 268.529 336.69 267.725 342.523C267.414 345.685 269.825 349.185 269.825 349.185C269.825 349.185 274.336 347.759 275.658 344.182C277.188 338.504 277.706 329.69 277.706 329.69C277.706 329.69 278.147 324.608 273.532 329.353Z" fill="#363956"/>
<path d="M273.532 328.938C273.532 328.938 265.858 341.564 271.484 343.093C277.136 344.623 277.706 329.716 277.706 329.716C277.706 329.716 276.902 325.127 273.532 328.938Z" fill="#F4BE84"/>
<path d="M292.354 238.719C287.48 246.03 283.669 249.633 279.314 262.7C274.958 275.766 276.747 305.424 273.144 329.379L277.447 330.312C289.373 289.402 295.724 287.899 301.298 274.495C306.872 261.092 306.924 256.633 312.472 237.449C314.52 230.371 312.627 227.986 308.816 226.171C302.309 223.112 297.202 231.434 292.354 238.719Z" fill="#F4BE84"/>
<path d="M312.498 237.474C313.379 234.286 315.065 228.53 308.843 226.197C303.658 224.253 300.935 226.767 296.684 232.601C305.006 225.679 309.88 234.208 308.324 244.111C307.002 252.485 304.669 258.526 300.573 268.947C296.476 279.369 277.784 307.446 277.629 329.69C277.629 329.69 277.655 329.69 277.655 329.664C289.477 289.273 295.776 287.847 301.324 274.521C306.898 261.144 307.157 256.737 312.498 237.474Z" fill="#E2A36A"/>
<path d="M212.868 219.275C214.346 228.582 223.394 244.734 228.034 244.734C232.649 244.734 287.843 244.734 287.843 244.734C287.843 244.734 300.858 222.723 319.653 229.542C314.624 214.09 306.976 208.361 286.132 193.247C283.799 191.561 218.442 193.48 218.442 193.48C210.302 206.105 212.168 214.92 212.868 219.275Z" fill="#383838"/>
<path d="M293.598 198.69C292.975 199.676 277.446 205.69 262.384 206.157C242.318 206.779 230.678 203.875 230.678 203.875C230.678 203.875 237.885 209.475 249.629 212.664C265.651 217.019 288.283 220.779 295.646 235.504C299.638 232.03 305.653 227.934 313.56 228.504C317.319 228.634 319.652 229.541 319.652 229.541C314.96 215.075 306.431 208.957 293.598 198.69Z" fill="#323232"/>
<path d="M274.906 141.811C278.665 166.673 281.361 173.984 288.309 174.399C300.598 175.151 295.231 154.1 293.364 138.026C289.683 106.605 286.78 103.131 277.835 103.391C268.373 103.676 270.499 108.135 274.906 141.811Z" fill="#5956E9"/>
<path d="M324.89 161.929C324.89 161.929 334.767 164.599 336.115 165.04C341.274 166.725 340.963 168.307 340.937 168.825C340.937 168.825 342.83 171.34 342.545 171.755C342.078 172.481 341.533 171.703 338.889 169.188C338.293 168.644 336.66 167.322 336.374 167.529C336.089 167.736 337.697 168.747 338.682 169.577C339.511 170.251 341.767 173.803 340.626 174.347C339.874 174.684 338.137 171.547 337.256 170.666C336.582 170.018 334.663 168.851 334.3 169.11C333.937 169.37 335.908 171.081 336.219 171.521C336.53 171.962 338.215 174.321 337.567 174.71C336.556 175.281 335.804 173.362 334.274 171.858C333.134 170.744 329.375 168.903 328.882 168.903C328.312 168.903 328.934 170.329 329.738 171.392C330.541 172.455 331.163 174.192 330.334 174.399C329.504 174.607 327.949 171.392 326.056 169.318C324.164 167.244 323.801 164.392 323.801 164.392C323.801 164.392 324.345 161.981 324.89 161.929Z" fill="#F4BE84"/>
<path d="M330.619 173.907C329.789 174.114 328.234 170.899 326.341 168.825C324.448 166.751 323.774 164.366 323.774 164.366C323.774 164.366 324.137 167.192 326.03 169.292C327.922 171.366 329.478 174.607 330.308 174.373C330.541 174.321 330.645 174.114 330.696 173.855C330.67 173.881 330.645 173.907 330.619 173.907Z" fill="#E2A36A"/>
<path d="M316.049 160.97L324.941 161.955L324.811 165.352L315.063 166.751L316.049 160.97Z" fill="#F4BE84"/>
<path d="M315.245 165.637L315.063 166.751L324.811 165.352L324.863 164.263L315.245 165.637Z" fill="#E2A36A"/>
<path d="M288.36 174.529C299.897 176.37 314.545 168.618 318.33 167.711L318.278 160.4C318.278 160.4 297.849 158.559 289.009 159.907C282.761 160.866 281.542 163.692 281.776 167.114C281.905 170.044 282.294 173.57 288.36 174.529Z" fill="#5956E9"/>
<path d="M318.278 160.581L318.304 167.166L321.545 166.829C321.545 166.829 321.493 165.403 319.549 164.833C322.063 163.407 321.078 160.529 321.078 160.529L318.278 160.581Z" fill="#F9E8CA"/>
<path d="M285.768 171.625C284.317 171.314 283.176 170.899 282.269 170.407C282.943 172.273 284.472 173.933 288.335 174.555C299.872 176.396 314.519 168.644 318.304 167.737V166.207C311.849 167.84 297.409 174.01 285.768 171.625Z" fill="#41466D"/>
<path d="M270.213 160.036C270.213 153.218 281.672 142.433 284.031 133.956C286.416 125.478 282.605 103.831 282.605 103.831C282.605 103.831 261.995 99.0349 251.158 99.7348C240.322 100.409 214.76 110.909 214.76 110.909C217.819 143.781 239.311 154.488 239.311 161.177C239.311 167.866 221.008 185.495 215.589 199.728C210.171 213.96 287.842 210.461 293.598 198.691C285.042 188.45 270.213 168.54 270.213 160.036Z" fill="#2A26E3"/>
<path d="M276.357 174.969C272.494 169.421 270.239 163.07 270.239 160.037C270.239 153.218 281.698 142.434 284.057 133.956C284.057 133.956 279.65 147.074 262.358 149.537C240.218 152.7 232.751 146.815 222.926 137.845C230.133 150.704 239.31 156.77 239.31 161.151C239.31 163.744 236.536 168.021 232.829 173.103C232.829 173.103 248.514 164.548 259.143 164.314C265.313 164.211 272.131 169.81 276.357 174.969Z" fill="#5956E9"/>
<path d="M228.033 105.879C228.033 105.879 234.774 124.701 259.636 136.445C259.636 136.445 273.35 120.63 274.18 102.094C274.18 102.094 258.158 98.5423 251.158 99.7089C241.125 99.3978 228.033 105.879 228.033 105.879Z" fill="#F9E8CA"/>
<path d="M239.104 72.2543C239.104 72.2543 243.822 91.9054 235.682 102.768L255.229 111.245L267.595 100.824C267.595 100.824 261.166 103.675 260.57 70.6729L239.104 72.2543Z" fill="#D69356"/>
<path d="M232.025 102.275L237.055 94.8608L251.962 105.723L245.869 115.886L232.025 102.275Z" fill="#FFF4E3"/>
<path d="M257.848 105.49L262.359 114.305L268.918 99.1644L263.94 93.7461L257.848 105.49Z" fill="#FFF4E3"/>
<path d="M228.033 105.879L233.348 103.598L245.87 115.886L251.962 105.724L255.229 111.272L257.821 105.516L262.332 114.331L268.061 101.083L274.154 102.12C274.154 102.12 274.335 109.716 270.732 117.468L261.736 115.238L260.128 112.671L255.954 116.742L248.903 113.164L246.025 117.934L239.129 111.375L233.581 115.601C233.633 115.601 229.304 109.975 228.033 105.879Z" fill="#EFD9B4"/>
<path d="M259.636 136.445C259.636 136.445 259.765 136.315 259.973 136.056L255.514 110.624L255.229 111.246L254.943 110.779L259.454 136.367C259.532 136.393 259.584 136.419 259.636 136.445Z" fill="#DDC29B"/>
<path d="M254.633 120.864C254.633 121.304 254.27 121.667 253.829 121.667C253.388 121.667 253.025 121.304 253.025 120.864C253.025 120.423 253.388 120.06 253.829 120.06C254.27 120.06 254.633 120.423 254.633 120.864Z" fill="#DDC29B"/>
<path d="M256.292 127.449C256.292 127.889 255.929 128.252 255.488 128.252C255.048 128.252 254.685 127.889 254.685 127.449C254.685 127.008 255.048 126.645 255.488 126.645C255.929 126.645 256.292 126.982 256.292 127.449Z" fill="#DDC29B"/>
<path d="M201.642 144.507C194.02 168.462 193.242 176.214 199.283 179.662C209.964 185.754 214.475 164.521 219.867 149.252C230.445 119.438 229.382 115.03 221.215 111.323C212.634 107.409 212.582 112.334 201.642 144.507Z" fill="#5956E9"/>
<path d="M245.974 161.955L257.252 161.359L257.77 165.014L245.896 168.307L245.974 161.955Z" fill="#F4BE84"/>
<path d="M245.896 167.088V168.307L257.77 165.014L257.589 163.848L245.896 167.088Z" fill="#E2A36A"/>
<path d="M206.024 181.166C220.749 181.684 245.248 170.718 249.837 169.24L248.774 161.385C248.774 161.385 215.59 161.722 204.676 164.314C196.95 166.155 195.991 170.381 196.717 174.036C197.339 177.173 198.298 180.906 206.024 181.166Z" fill="#5956E9"/>
<path d="M248.826 161.592L249.759 168.695L253.752 167.918C253.752 167.918 253.493 166.388 251.004 166.025C253.985 164.159 252.352 161.177 252.352 161.177L248.826 161.592Z" fill="#F9E8CA"/>
<path d="M202.368 178.365C200.501 178.236 199.024 177.925 197.831 177.484C198.92 179.428 201.072 181.01 205.997 181.165C220.723 181.684 245.222 170.717 249.811 169.24L249.577 167.606C241.748 170.225 217.301 179.48 202.368 178.365Z" fill="#41466D"/>
<path d="M256.032 161.384C256.032 161.384 264.562 161.851 269.513 162.94C269.513 162.94 272.676 163.355 274.906 164.625C276.124 165.325 278.276 167.399 277.809 168.151C277.317 168.877 275.995 167.399 273.947 166.31C272.78 165.688 269.954 165.195 269.85 165.377C269.721 165.558 272.21 166.362 273.247 167.14C274.102 167.788 276.772 171.002 276.15 171.573C275.321 172.325 274.439 170.769 272.132 168.695C271.302 168.047 268.295 167.088 268.165 167.321C268.01 167.554 270.265 168.514 270.991 169.395C271.717 170.277 273.532 172.817 272.78 173.388C272.028 173.958 270.862 171.988 269.591 170.717C268.917 170.043 266.325 168.773 266.221 168.825C266.117 168.877 267.206 169.706 267.673 170.614C268.139 171.521 268.788 173.725 268.165 173.88C267.543 174.036 267.206 172.999 265.91 171.21C265.495 170.665 263.862 169.421 263.862 169.421C263.862 169.421 259.818 168.851 255.799 164.858C255.773 164.858 254.529 161.825 256.032 161.384Z" fill="#F4BE84"/>
<path d="M268.243 173.232C267.621 173.388 267.284 172.351 265.987 170.562C265.573 170.018 263.654 168.721 263.654 168.721C263.654 168.721 255.617 164.003 255.514 164.003C255.566 164.34 255.773 164.807 255.773 164.807C259.765 168.799 263.836 169.369 263.836 169.369C263.836 169.369 265.469 170.614 265.884 171.158C267.206 172.921 267.543 173.958 268.139 173.829C268.347 173.777 268.398 173.466 268.372 173.077C268.347 173.18 268.295 173.206 268.243 173.232Z" fill="#E2A36A"/>
<path d="M231.015 26.7299C231.015 26.7299 223.497 17.3191 215.331 21.7005C207.164 26.0818 209.057 34.2482 209.057 34.2482C209.057 34.2482 198.402 35.8037 199.646 46.7959C200.89 57.7621 205.298 63.4138 218.468 64.373C218.468 64.373 215.953 70.3358 220.049 74.0949C224.119 77.854 229.952 74.7689 229.952 74.7689L231.015 26.7299Z" fill="#915533"/>
<path d="M210.794 36.0112C210.794 36.0112 202.498 35.8038 201.331 42.9072C200.164 49.9848 208.746 54.6253 219.427 50.4773C230.108 46.3553 228.889 26.4967 226.556 24.6301C224.249 22.7635 219.841 19.5229 214.942 23.282C210.042 27.0411 210.56 31.3706 210.794 36.0112Z" fill="#A3643A"/>
<path d="M279.417 38.448C279.417 38.448 281.31 40.2369 282.139 41.5072C283.15 43.0627 285.847 45.707 285.924 49.1291C285.976 52.2142 279.651 55.1697 280.065 56.44C280.48 57.7103 284.654 60.8213 283.824 63.1286C282.995 65.436 280.48 66.6804 280.48 66.6804C280.48 66.6804 281.932 62.7138 281.31 61.2361C280.688 59.7843 278.717 58.3066 278.717 56.4141C278.717 54.5215 282.165 50.0106 281.75 47.4959C281.336 44.9811 278.38 42.596 277.965 38.2147C277.551 33.8334 279.417 38.448 279.417 38.448Z" fill="#915533"/>
<path d="M281.518 42.8816C274.492 57.0885 263.681 82.9876 247.323 83.5061C227.568 84.1283 218.779 57.1663 220.983 39.5891C223.29 21.2342 235.501 14.1826 251.885 14.1826C268.244 14.1826 289.995 25.797 281.518 42.8816Z" fill="#915533"/>
<path d="M279.469 66.5768C279.002 85.9169 264.432 96.2609 260.673 96.2609C256.914 96.2609 236.381 89.9871 234.878 70.6989C232.907 45.0331 235.915 28.3115 258.495 28.3115C281.076 28.3115 280.013 44.6183 279.469 66.5768Z" fill="#F4BE84"/>
<path d="M262.851 95.4833C259.869 95.4833 245.74 87.9651 244.729 71.6842C243.226 48.1443 246.674 32.1745 258.521 28.3117C234.904 26.9895 233.037 46.6147 234.904 70.699C236.381 89.9872 256.94 96.2611 260.699 96.2611C261.321 96.2611 262.255 95.9759 263.343 95.4055C263.162 95.4315 262.98 95.4833 262.851 95.4833Z" fill="#E2A36A"/>
<path d="M237.678 65.6435C237.678 68.6767 235.215 71.1137 232.207 71.1137C229.174 71.1137 226.737 68.6508 226.737 65.6435C226.737 62.6362 229.2 60.1733 232.207 60.1733C235.241 60.1733 237.678 62.6362 237.678 65.6435Z" fill="#E2A36A"/>
<path d="M275.554 25.1746C275.554 25.1746 282.554 16.4897 270.214 12.1084C250.614 5.13458 233.556 18.4341 233.556 18.4341L275.554 25.1746Z" fill="#915533"/>
<path d="M273.584 32.5891C273.584 32.5891 271.925 34.0668 264.614 33.5224C257.303 32.9779 249.811 30.3336 247.452 34.0668C245.092 37.8 250.2 44.359 248.903 47.2626C247.607 50.1662 239 52.1106 239.156 54.6253C239.311 57.14 245.3 61.6251 243.381 63.6991C241.463 65.7471 237.885 66.499 237.73 69.0137C237.6 71.5543 241.126 73.058 242.189 71.1914C242.189 71.1914 240.789 75.3394 238.17 74.2505C235.552 73.1876 235.033 68.0285 236.407 66.473C237.807 64.9175 241.255 63.6213 240.478 61.5214C239.674 59.4214 237.237 55.8179 237.47 53.9513C237.704 52.0847 245.092 49.0514 244.315 44.8775C243.537 40.6777 237.574 34.7149 242.267 29.7892C246.985 24.8634 278.51 22.6079 273.584 32.5891Z" fill="#915533"/>
<path d="M244.289 35.9333C235.293 52.0327 240.478 61.5212 237.133 62.7138C234.722 63.5693 232.648 57.7103 232.648 57.7103C232.648 57.7103 233.841 30.0742 242.811 28.5965C251.833 27.1447 244.289 35.9333 244.289 35.9333Z" fill="#915533"/>
<path d="M236.07 18.8229C250.459 16.8267 257.277 25.4338 268.995 24.3709C272.391 24.0598 274.621 22.7376 274.854 20.3525C275.373 15.012 270.732 11.9009 262.099 11.5639C253.492 11.2269 242.24 13.6639 236.07 18.8229Z" fill="#A3643A"/>
<path d="M248.152 27.7672C248.152 27.7672 251.963 23.2821 247.53 21.5192C243.097 19.7563 233.867 19.3415 231.093 21.3896C228.345 23.4636 220.983 32.8744 229.201 34.6632C237.419 36.4261 247.633 28.8042 248.152 27.7672Z" fill="#A3643A"/>
<path d="M267.466 52.292C267.466 52.292 262.748 57.7622 262.722 61.625C262.696 65.4878 269.203 69.921 269.203 69.921C269.203 69.921 266.325 73.3431 261.633 74.2764C261.633 74.2764 268.555 75.5986 270.758 70.4136C270.758 69.5062 265.314 66.81 265.003 61.4694C264.77 56.7511 267.466 52.292 267.466 52.292Z" fill="#D69356"/>
<path d="M258.963 48.4555C259.092 49.0518 256.707 49.674 253.259 50.3999C249.785 51.1517 246.571 51.7479 246.415 51.1517C246.286 50.5554 249.319 48.974 252.767 48.2222C256.215 47.4703 258.833 47.8333 258.963 48.4555Z" fill="#915533"/>
<path d="M273.351 49.2328C273.221 49.8291 275.606 50.4513 279.054 51.1772C280.869 51.255 281.387 49.855 279.521 48.9995C276.073 48.2477 273.48 48.6106 273.351 49.2328Z" fill="#915533"/>
<path d="M248.229 60.4067C248.229 60.4067 250.744 63.5696 254.011 63.5696C257.277 63.5696 257.796 60.3549 257.796 60.3549C257.796 60.3549 257.07 56.2587 254.348 56.4661C251.626 56.6735 248.229 60.4067 248.229 60.4067Z" fill="#FFE5CC"/>
<path d="M256.993 60.2255C256.993 62.0662 255.671 63.5698 254.012 63.5698C252.378 63.5698 251.03 62.0662 251.03 60.2255C251.03 58.3848 252.352 56.8812 254.012 56.8812C255.671 56.8553 256.993 58.3589 256.993 60.2255Z" fill="#794830"/>
<path d="M258.47 61.5734C258.47 61.5734 256.085 56.6477 253.622 57.2439C251.159 57.8402 247.478 61.029 247.478 61.029L244.704 58.1254L247.815 58.9809C247.815 58.9809 255.981 49.5183 258.47 61.5734Z" fill="#6B3D2B"/>
<path d="M269.799 60.3808C269.799 60.3808 271.147 63.44 274.31 63.44C277.473 63.44 277.965 60.329 277.965 60.329C277.965 60.329 277.265 56.3625 274.621 56.5699C272.002 56.7773 269.799 60.3808 269.799 60.3808Z" fill="#FFE5CC"/>
<path d="M277.187 60.1996C277.187 61.9884 275.891 63.4402 274.309 63.4402C272.728 63.4402 271.432 61.9884 271.432 60.1996C271.432 58.4108 272.728 56.959 274.309 56.959C275.891 56.959 277.187 58.4108 277.187 60.1996Z" fill="#794830"/>
<path d="M278.613 61.5216C278.613 61.5216 277.187 57.4773 274.647 57.3736C272.184 57.2699 269.047 61.5735 269.047 61.5735C269.41 59.6291 275.476 50.3479 278.717 59.4735L280.972 58.7995L278.613 61.5216Z" fill="#6B3D2B"/>
<path d="M254.14 79.2022C254.063 79.4096 253.415 79.3059 253.233 79.2281C253.026 79.1504 252.948 78.917 253.026 78.7096C253.103 78.5022 253.337 78.4245 253.544 78.5022C253.752 78.6059 254.244 79.0207 254.14 79.2022Z" fill="#6B3D2B"/>
<path d="M270.395 79.5134C270.525 79.6949 271.121 79.4875 271.303 79.3578C271.484 79.2282 271.536 78.9949 271.406 78.8134C271.277 78.6319 271.043 78.5801 270.862 78.7097C270.68 78.8653 270.292 79.3578 270.395 79.5134Z" fill="#794830"/>
<path d="M253.674 78.9946L270.81 79.3317C270.81 79.3317 267.881 84.413 262.411 84.413C256.914 84.413 253.674 78.9946 253.674 78.9946Z" fill="#9B6335"/>
<path opacity="0.5" d="M253.674 78.9946L270.81 79.3317C270.81 79.3317 267.881 84.413 262.411 84.413C256.914 84.413 253.674 78.9946 253.674 78.9946Z" fill="url(#paint0_linear_1035_10)"/>
<path d="M254.918 79.4873L268.788 79.7466C268.788 79.7466 265.988 84.1279 261.425 83.6872C256.836 83.2205 254.918 79.4873 254.918 79.4873Z" fill="#F9E8CA"/>
<path d="M254.918 79.4873L268.788 79.7466L267.984 80.7836C267.984 80.7836 266.506 79.9021 261.944 79.9021C257.381 79.9021 255.54 80.4465 255.54 80.4465C255.54 80.4465 255.099 79.7725 254.918 79.4873Z" fill="#D6B799"/>
<path d="M262.41 87.7574C263.857 87.7574 265.029 87.3744 265.029 86.9019C265.029 86.4294 263.857 86.0464 262.41 86.0464C260.964 86.0464 259.792 86.4294 259.792 86.9019C259.792 87.3744 260.964 87.7574 262.41 87.7574Z" fill="#E2A36A"/>
<path d="M231.352 65.7214C231.352 64.3992 232.208 63.2844 233.401 62.8696C233.038 62.714 232.623 62.6104 232.208 62.6104C230.549 62.6104 229.175 63.9584 229.175 65.6436C229.175 67.3287 230.523 68.6768 232.208 68.6768C232.545 68.6768 232.882 68.599 233.167 68.4953C232.104 68.0287 231.352 66.9658 231.352 65.7214Z" fill="#D69356"/>
<path d="M158.425 196.85H152.67V365.311H158.425V196.85Z" fill="#C48C58"/>
<path d="M425.868 196.85H420.112V365.311H425.868V196.85Z" fill="#A8693F"/>
<path d="M227.438 196.85H224.016V365.311H227.438V196.85Z" fill="#C48C58"/>
<path d="M230.86 196.85H227.438V365.311H230.86V196.85Z" fill="#A8693F"/>
<path d="M227.438 197.343H152.67V214.142H227.438V197.343Z" fill="#C48C58"/>
<path d="M356.648 196.85H350.893V365.311H356.648V196.85Z" fill="#9E623A"/>
<path d="M425.867 197.343H227.438V214.142H425.867V197.343Z" fill="#A8693F"/>
<path d="M229.589 191.562H142.403V202.58H229.589V191.562Z" fill="#D39B67"/>
<path d="M437.456 191.562H227.334V202.58H437.456V191.562Z" fill="#B7784E"/>
<path d="M437.456 191.562H142.403V193.843H437.456V191.562Z" fill="#E8AB73"/>
<path d="M392.217 184.769L298.031 184.691L317.916 111.66L412.101 111.738L392.217 184.769Z" fill="#809EB4"/>
<path d="M391.698 185.78H260.232V191.457H391.698V185.78Z" fill="#A2CAD7"/>
<path d="M392.295 184.691H300.261L319.756 113.086H411.79L392.295 184.691Z" fill="#A2CAD7"/>
<path d="M364.814 148.11C363.647 151.584 359.577 154.41 355.74 154.41C351.903 154.41 349.7 151.584 350.866 148.11C352.033 144.637 356.103 141.811 359.94 141.811C363.803 141.785 365.981 144.611 364.814 148.11Z" fill="#809EB4"/>
<path opacity="0.2" d="M300.261 184.691L319.756 113.086H411.79L300.261 184.691Z" fill="#A2CAD7"/>
<path d="M297.746 185.78H260.232V191.457H297.746V185.78Z" fill="#809EB4"/>
<path d="M326.86 184.691H309.594V187.18H326.86V184.691Z" fill="#809EB4"/>
<path d="M385.969 184.691H371.191V187.18H385.969V184.691Z" fill="#809EB4"/>
<path d="M320.353 113.993H411.531L411.79 113.086H319.756L300.261 184.691H301.116L320.353 113.993Z" fill="#B7E0F2"/>
<path d="M203.612 174.762L232.752 180.776L234.878 182.928L204.001 177.406L203.612 174.762Z" fill="#E88B23"/>
<path d="M153.11 177.484L204.001 177.406L205.142 163.173L154.251 163.251L153.11 177.484Z" fill="#FF9F38"/>
<path d="M205.142 163.173L236.719 173.206L234.437 174.217L204.883 166.414L205.142 163.173Z" fill="#E88B23"/>
<path d="M234.438 174.217L232.752 180.777L204.209 174.866L204.883 166.414L234.438 174.217Z" fill="#FFF0B3"/>
<path d="M234.438 174.217L204.883 166.414L204.209 174.866L234.438 174.217Z" fill="#FCDB9B"/>
<path d="M205.142 163.173L203.794 177.302L206.723 177.251L208.253 164.133L205.142 163.173Z" fill="#E88B23"/>
<path d="M160.706 173.491L182.69 173.543L183.131 167.036L161.354 167.373L160.706 173.491Z" fill="#FFEC95"/>
<path d="M169.909 173.284L167.343 167.529L174.343 167.425L176.961 173.284H169.909Z" fill="#FFFFAD"/>
<path d="M177.972 173.284L175.354 167.399L177.816 167.347L180.461 173.284H177.972Z" fill="#FFFFAD"/>
<path d="M189.717 168.203C188.135 169.966 188.057 172.429 189.535 173.699C191.013 174.995 193.528 174.606 195.109 172.869C196.69 171.107 196.768 168.644 195.29 167.373C193.813 166.077 191.324 166.44 189.717 168.203Z" fill="#FFEC95"/>
<path d="M190.546 168.722C189.327 170.07 189.25 171.962 190.416 172.947C191.583 173.933 193.475 173.647 194.694 172.299C195.912 170.951 195.99 169.059 194.824 168.073C193.709 167.088 191.79 167.374 190.546 168.722Z" fill="#E57C25"/>
<path d="M190.546 168.721C191.324 167.866 192.387 167.451 193.346 167.503C192.594 167.632 191.843 168.021 191.246 168.695C190.028 170.044 189.95 171.936 191.117 172.921C191.531 173.284 192.05 173.466 192.594 173.492C191.791 173.621 190.987 173.466 190.391 172.947C189.276 171.962 189.328 170.069 190.546 168.721Z" fill="#FF9B49"/>
<path d="M189.846 173.336C187.798 171.392 189.872 168.333 189.872 168.333C188.369 169.992 188.291 172.325 189.691 173.543C191.091 174.762 193.45 174.399 194.953 172.766C194.979 172.74 192.024 175.177 189.846 173.336Z" fill="#FFB868"/>
<path d="M195.031 167.866C194.538 167.425 193.89 167.244 193.242 167.244L193.346 166.829C194.02 166.881 194.642 167.088 195.161 167.529C196.224 168.436 196.431 169.992 195.835 171.418H195.575C196.146 170.122 195.99 168.722 195.031 167.866Z" fill="#FFFFAD"/>
<path d="M192.776 167.27C192.62 167.296 192.439 167.348 192.283 167.374L192.335 166.881C192.491 166.855 192.646 166.829 192.828 166.803L192.776 167.27Z" fill="#FFFFAD"/>
<path d="M202.886 188.58L234.877 189.591L237.573 191.457L202.989 191.535L202.886 188.58Z" fill="#B71B28"/>
<path d="M155.78 191.535H202.99L204.312 188.813L204.804 180.698L204.104 177.302L156.895 177.354L155.78 191.535Z" fill="#C62734"/>
<path d="M203.897 177.302L238.714 183.602L235.629 185.495L203.819 180.672L203.897 177.302Z" fill="#B71B28"/>
<path d="M235.629 185.494L234.877 189.591L204.312 188.813L204.804 180.698L235.629 185.494Z" fill="#FFD6A6"/>
<path d="M162.677 187.413L184.143 187.465L184.557 180.932L163.299 181.269L162.677 187.413Z" fill="#FFA38B"/>
<path d="M171.647 187.205L169.132 181.424L176.002 181.32L178.543 187.205H171.647Z" fill="#FFC3AD"/>
<path d="M179.528 187.205L176.961 181.294L179.372 181.269L181.964 187.205H179.528Z" fill="#FFC3AD"/>
<path d="M235.629 185.494L204.804 180.698L204.312 188.813L235.629 185.494Z" fill="#FFC18E"/>
<path d="M189.924 182.176C188.368 183.939 188.29 186.402 189.742 187.672C191.194 188.968 193.631 188.58 195.186 186.843C196.742 185.08 196.82 182.617 195.368 181.347C193.89 180.05 191.453 180.413 189.924 182.176Z" fill="#FFA38B"/>
<path d="M190.727 182.695C189.535 184.043 189.483 185.935 190.598 186.921C191.712 187.906 193.605 187.621 194.798 186.272C195.99 184.924 196.042 183.032 194.927 182.047C193.786 181.061 191.92 181.347 190.727 182.695Z" fill="#B21825"/>
<path d="M190.728 182.694C191.479 181.839 192.516 181.424 193.476 181.476C192.75 181.606 191.998 181.995 191.428 182.669C190.235 184.017 190.183 185.909 191.298 186.894C191.713 187.257 192.205 187.439 192.75 187.465C191.972 187.594 191.194 187.439 190.598 186.92C189.457 185.935 189.535 184.043 190.728 182.694Z" fill="#E57D62"/>
<path d="M190.027 187.309C188.031 185.365 190.053 182.306 190.053 182.306C188.575 183.965 188.523 186.298 189.897 187.517C191.271 188.735 193.579 188.372 195.056 186.739C195.03 186.713 192.153 189.15 190.027 187.309Z" fill="#E57D62"/>
<path d="M195.083 181.839C194.59 181.399 193.994 181.217 193.346 181.217L193.449 180.802C194.098 180.854 194.72 181.061 195.212 181.502C196.249 182.41 196.457 183.965 195.886 185.391H195.653C196.197 184.095 196.042 182.695 195.083 181.839Z" fill="#FFBCA3"/>
<path d="M192.879 181.243C192.723 181.269 192.568 181.321 192.412 181.347L192.464 180.854C192.62 180.828 192.775 180.802 192.931 180.776L192.879 181.243Z" fill="#FFBCA3"/>
<path d="M202.912 191.276L203.897 177.302L205.168 177.536L204.26 191.276H202.912Z" fill="#B71B28"/>
<path opacity="0.4" d="M200.215 177.302L156.324 184.743L156.895 177.354L200.215 177.302Z" fill="#C62734"/>
<path d="M356.933 48V36.57H352.451V35.31H362.891V36.57H358.427V48H356.933ZM364.557 48V34.752H366.015V40.962H365.781C366.033 40.254 366.453 39.72 367.041 39.36C367.641 38.988 368.331 38.802 369.111 38.802C370.191 38.802 370.995 39.096 371.523 39.684C372.051 40.26 372.315 41.136 372.315 42.312V48H370.857V42.402C370.857 41.562 370.689 40.95 370.353 40.566C370.029 40.182 369.501 39.99 368.769 39.99C367.929 39.99 367.257 40.248 366.753 40.764C366.261 41.28 366.015 41.958 366.015 42.798V48H364.557ZM379.118 48.162C377.702 48.162 376.586 47.754 375.77 46.938C374.954 46.11 374.546 44.964 374.546 43.5C374.546 42.552 374.726 41.73 375.086 41.034C375.446 40.326 375.95 39.78 376.598 39.396C377.246 39 377.99 38.802 378.83 38.802C379.658 38.802 380.354 38.976 380.918 39.324C381.482 39.672 381.914 40.17 382.214 40.818C382.514 41.454 382.664 42.21 382.664 43.086V43.626H375.662V42.708H381.71L381.404 42.942C381.404 41.982 381.188 41.232 380.756 40.692C380.324 40.152 379.682 39.882 378.83 39.882C377.93 39.882 377.228 40.2 376.724 40.836C376.22 41.46 375.968 42.306 375.968 43.374V43.536C375.968 44.664 376.244 45.522 376.796 46.11C377.36 46.686 378.146 46.974 379.154 46.974C379.694 46.974 380.198 46.896 380.666 46.74C381.146 46.572 381.602 46.302 382.034 45.93L382.538 46.956C382.142 47.34 381.638 47.64 381.026 47.856C380.426 48.06 379.79 48.162 379.118 48.162ZM384.429 52.086L384.087 50.88C384.651 50.748 385.119 50.592 385.491 50.412C385.875 50.244 386.193 50.016 386.445 49.728C386.697 49.44 386.913 49.08 387.093 48.648L387.561 47.586L387.525 48.198L383.583 38.964H385.167L388.425 46.902H387.957L391.179 38.964H392.709L388.533 48.756C388.293 49.332 388.029 49.812 387.741 50.196C387.453 50.592 387.141 50.91 386.805 51.15C386.481 51.402 386.121 51.6 385.725 51.744C385.329 51.888 384.897 52.002 384.429 52.086ZM394.908 39.198L394.224 38.676C394.548 38.34 394.758 38.028 394.854 37.74C394.962 37.44 395.016 37.146 395.016 36.858L395.466 37.146H394.152V35.31H395.988V36.606C395.988 37.086 395.91 37.536 395.754 37.956C395.598 38.376 395.316 38.79 394.908 39.198ZM398.482 48V41.142C398.482 40.782 398.47 40.416 398.446 40.044C398.434 39.672 398.41 39.312 398.374 38.964H399.778L399.958 41.16L399.706 41.178C399.826 40.638 400.036 40.194 400.336 39.846C400.636 39.498 400.99 39.24 401.398 39.072C401.806 38.892 402.232 38.802 402.676 38.802C402.856 38.802 403.012 38.808 403.144 38.82C403.288 38.832 403.42 38.862 403.54 38.91L403.522 40.206C403.342 40.146 403.174 40.11 403.018 40.098C402.874 40.074 402.706 40.062 402.514 40.062C401.986 40.062 401.524 40.188 401.128 40.44C400.744 40.692 400.45 41.016 400.246 41.412C400.054 41.808 399.958 42.228 399.958 42.672V48H398.482ZM408.965 48.162C407.549 48.162 406.433 47.754 405.617 46.938C404.801 46.11 404.393 44.964 404.393 43.5C404.393 42.552 404.573 41.73 404.933 41.034C405.293 40.326 405.797 39.78 406.445 39.396C407.093 39 407.837 38.802 408.677 38.802C409.505 38.802 410.201 38.976 410.765 39.324C411.329 39.672 411.761 40.17 412.061 40.818C412.361 41.454 412.511 42.21 412.511 43.086V43.626H405.509V42.708H411.557L411.251 42.942C411.251 41.982 411.035 41.232 410.603 40.692C410.171 40.152 409.529 39.882 408.677 39.882C407.777 39.882 407.075 40.2 406.571 40.836C406.067 41.46 405.815 42.306 405.815 43.374V43.536C405.815 44.664 406.091 45.522 406.643 46.11C407.207 46.686 407.993 46.974 409.001 46.974C409.541 46.974 410.045 46.896 410.513 46.74C410.993 46.572 411.449 46.302 411.881 45.93L412.385 46.956C411.989 47.34 411.485 47.64 410.873 47.856C410.273 48.06 409.637 48.162 408.965 48.162ZM419.436 48V34.752H420.894V48H419.436ZM427.739 48.162C426.323 48.162 425.207 47.754 424.391 46.938C423.575 46.11 423.167 44.964 423.167 43.5C423.167 42.552 423.347 41.73 423.707 41.034C424.067 40.326 424.571 39.78 425.219 39.396C425.867 39 426.611 38.802 427.451 38.802C428.279 38.802 428.975 38.976 429.539 39.324C430.103 39.672 430.535 40.17 430.835 40.818C431.135 41.454 431.285 42.21 431.285 43.086V43.626H424.283V42.708H430.331L430.025 42.942C430.025 41.982 429.809 41.232 429.377 40.692C428.945 40.152 428.303 39.882 427.451 39.882C426.551 39.882 425.849 40.2 425.345 40.836C424.841 41.46 424.589 42.306 424.589 43.374V43.536C424.589 44.664 424.865 45.522 425.417 46.11C425.981 46.686 426.767 46.974 427.775 46.974C428.315 46.974 428.819 46.896 429.287 46.74C429.767 46.572 430.223 46.302 430.655 45.93L431.159 46.956C430.763 47.34 430.259 47.64 429.647 47.856C429.047 48.06 428.411 48.162 427.739 48.162ZM436.522 48.162C435.802 48.162 435.13 48.066 434.506 47.874C433.882 47.67 433.366 47.388 432.958 47.028L433.462 46.002C433.906 46.35 434.386 46.608 434.902 46.776C435.43 46.944 435.976 47.028 436.54 47.028C437.26 47.028 437.8 46.902 438.16 46.65C438.532 46.386 438.718 46.026 438.718 45.57C438.718 45.222 438.598 44.946 438.358 44.742C438.13 44.526 437.752 44.358 437.224 44.238L435.55 43.896C434.782 43.728 434.206 43.446 433.822 43.05C433.438 42.642 433.246 42.126 433.246 41.502C433.246 40.974 433.384 40.512 433.66 40.116C433.936 39.708 434.338 39.39 434.866 39.162C435.394 38.922 436.012 38.802 436.72 38.802C437.38 38.802 437.986 38.904 438.538 39.108C439.102 39.3 439.57 39.582 439.942 39.954L439.42 40.962C439.06 40.614 438.646 40.356 438.178 40.188C437.722 40.008 437.248 39.918 436.756 39.918C436.048 39.918 435.514 40.062 435.154 40.35C434.806 40.626 434.632 40.992 434.632 41.448C434.632 41.796 434.74 42.084 434.956 42.312C435.184 42.528 435.532 42.69 436 42.798L437.674 43.14C438.49 43.32 439.096 43.602 439.492 43.986C439.9 44.358 440.104 44.862 440.104 45.498C440.104 46.038 439.954 46.512 439.654 46.92C439.354 47.316 438.934 47.622 438.394 47.838C437.866 48.054 437.242 48.162 436.522 48.162ZM452.827 48.162C451.555 48.162 450.475 47.898 449.587 47.37C448.699 46.842 448.015 46.092 447.535 45.12C447.067 44.148 446.833 42.99 446.833 41.646C446.833 40.302 447.067 39.15 447.535 38.19C448.015 37.218 448.699 36.468 449.587 35.94C450.475 35.412 451.555 35.148 452.827 35.148C453.727 35.148 454.531 35.286 455.239 35.562C455.947 35.838 456.565 36.24 457.093 36.768L456.535 37.956C455.959 37.452 455.389 37.086 454.825 36.858C454.261 36.618 453.601 36.498 452.845 36.498C451.393 36.498 450.289 36.948 449.533 37.848C448.777 38.748 448.399 40.014 448.399 41.646C448.399 43.278 448.777 44.55 449.533 45.462C450.289 46.362 451.393 46.812 452.845 46.812C453.601 46.812 454.261 46.698 454.825 46.47C455.389 46.23 455.959 45.852 456.535 45.336L457.093 46.542C456.565 47.058 455.947 47.46 455.239 47.748C454.531 48.024 453.727 48.162 452.827 48.162ZM462.519 48.162C461.655 48.162 460.899 47.976 460.251 47.604C459.615 47.22 459.123 46.68 458.775 45.984C458.427 45.276 458.253 44.442 458.253 43.482C458.253 42.51 458.427 41.676 458.775 40.98C459.123 40.284 459.615 39.75 460.251 39.378C460.899 38.994 461.655 38.802 462.519 38.802C463.395 38.802 464.151 38.994 464.787 39.378C465.435 39.75 465.933 40.284 466.281 40.98C466.641 41.676 466.821 42.51 466.821 43.482C466.821 44.442 466.641 45.276 466.281 45.984C465.933 46.68 465.435 47.22 464.787 47.604C464.151 47.976 463.395 48.162 462.519 48.162ZM462.519 46.974C463.383 46.974 464.067 46.68 464.571 46.092C465.075 45.492 465.327 44.622 465.327 43.482C465.327 42.33 465.069 41.46 464.553 40.872C464.049 40.272 463.371 39.972 462.519 39.972C461.667 39.972 460.989 40.272 460.485 40.872C459.981 41.46 459.729 42.33 459.729 43.482C459.729 44.622 459.981 45.492 460.485 46.092C460.989 46.68 461.667 46.974 462.519 46.974ZM469.094 48V41.052C469.094 40.716 469.076 40.374 469.04 40.026C469.016 39.666 468.986 39.312 468.95 38.964H470.354L470.534 40.944H470.318C470.558 40.26 470.936 39.732 471.452 39.36C471.98 38.988 472.616 38.802 473.36 38.802C474.116 38.802 474.728 38.982 475.196 39.342C475.676 39.702 476 40.26 476.168 41.016H475.898C476.126 40.332 476.528 39.792 477.104 39.396C477.68 39 478.352 38.802 479.12 38.802C480.116 38.802 480.866 39.09 481.37 39.666C481.874 40.23 482.126 41.124 482.126 42.348V48H480.668V42.438C480.668 41.586 480.518 40.968 480.218 40.584C479.918 40.188 479.438 39.99 478.778 39.99C478.022 39.99 477.422 40.254 476.978 40.782C476.546 41.298 476.33 41.994 476.33 42.87V48H474.872V42.438C474.872 41.586 474.722 40.968 474.422 40.584C474.122 40.188 473.642 39.99 472.982 39.99C472.226 39.99 471.632 40.254 471.2 40.782C470.768 41.298 470.552 41.994 470.552 42.87V48H469.094ZM484.897 51.888V41.052C484.897 40.716 484.879 40.374 484.843 40.026C484.819 39.666 484.789 39.312 484.753 38.964H486.157L486.355 41.106H486.139C486.331 40.398 486.721 39.84 487.309 39.432C487.897 39.012 488.599 38.802 489.415 38.802C490.231 38.802 490.933 38.988 491.521 39.36C492.121 39.732 492.589 40.266 492.925 40.962C493.261 41.658 493.429 42.498 493.429 43.482C493.429 44.454 493.261 45.288 492.925 45.984C492.601 46.68 492.139 47.22 491.539 47.604C490.939 47.976 490.231 48.162 489.415 48.162C488.611 48.162 487.915 47.958 487.327 47.55C486.739 47.142 486.349 46.584 486.157 45.876H486.355V51.888H484.897ZM489.127 46.974C489.991 46.974 490.675 46.68 491.179 46.092C491.695 45.492 491.953 44.622 491.953 43.482C491.953 42.33 491.695 41.46 491.179 40.872C490.675 40.272 489.991 39.972 489.127 39.972C488.275 39.972 487.591 40.272 487.075 40.872C486.571 41.46 486.319 42.33 486.319 43.482C486.319 44.622 486.571 45.492 487.075 46.092C487.591 46.68 488.275 46.974 489.127 46.974ZM495.69 48V34.752H497.148V48H495.69ZM499.979 48V38.964H501.437V48H499.979ZM499.799 36.912V35.274H501.599V36.912H499.799ZM508.066 48.162C507.178 48.162 506.404 47.97 505.744 47.586C505.096 47.202 504.592 46.656 504.232 45.948C503.884 45.24 503.71 44.4 503.71 43.428C503.71 42.444 503.89 41.61 504.25 40.926C504.61 40.23 505.114 39.702 505.762 39.342C506.422 38.982 507.19 38.802 508.066 38.802C508.642 38.802 509.2 38.904 509.74 39.108C510.292 39.312 510.748 39.6 511.108 39.972L510.586 41.016C510.226 40.668 509.83 40.41 509.398 40.242C508.978 40.074 508.564 39.99 508.156 39.99C507.22 39.99 506.494 40.284 505.978 40.872C505.462 41.46 505.204 42.318 505.204 43.446C505.204 44.562 505.462 45.426 505.978 46.038C506.494 46.65 507.22 46.956 508.156 46.956C508.552 46.956 508.96 46.878 509.38 46.722C509.812 46.566 510.214 46.308 510.586 45.948L511.108 46.974C510.736 47.358 510.274 47.652 509.722 47.856C509.17 48.06 508.618 48.162 508.066 48.162ZM516.548 48.162C515.744 48.162 515.042 47.976 514.442 47.604C513.842 47.22 513.374 46.68 513.038 45.984C512.714 45.288 512.552 44.454 512.552 43.482C512.552 42.498 512.714 41.658 513.038 40.962C513.374 40.266 513.842 39.732 514.442 39.36C515.042 38.988 515.744 38.802 516.548 38.802C517.364 38.802 518.066 39.012 518.654 39.432C519.254 39.84 519.65 40.398 519.842 41.106H519.626L519.824 38.964H521.228C521.192 39.312 521.156 39.666 521.12 40.026C521.096 40.374 521.084 40.716 521.084 41.052V48H519.626V45.876H519.824C519.632 46.584 519.236 47.142 518.636 47.55C518.036 47.958 517.34 48.162 516.548 48.162ZM516.836 46.974C517.7 46.974 518.384 46.68 518.888 46.092C519.392 45.492 519.644 44.622 519.644 43.482C519.644 42.33 519.392 41.46 518.888 40.872C518.384 40.272 517.7 39.972 516.836 39.972C515.984 39.972 515.3 40.272 514.784 40.872C514.28 41.46 514.028 42.33 514.028 43.482C514.028 44.622 514.28 45.492 514.784 46.092C515.3 46.68 515.984 46.974 516.836 46.974ZM527.106 48.162C526.218 48.162 525.54 47.91 525.072 47.406C524.604 46.89 524.37 46.116 524.37 45.084V40.098H522.606V38.964H524.37V36.498L525.828 36.084V38.964H528.42V40.098H525.828V44.922C525.828 45.642 525.948 46.158 526.188 46.47C526.44 46.77 526.812 46.92 527.304 46.92C527.532 46.92 527.736 46.902 527.916 46.866C528.096 46.818 528.258 46.764 528.402 46.704V47.928C528.234 48 528.03 48.054 527.79 48.09C527.562 48.138 527.334 48.162 527.106 48.162ZM534.122 48.162C532.706 48.162 531.59 47.754 530.774 46.938C529.958 46.11 529.55 44.964 529.55 43.5C529.55 42.552 529.73 41.73 530.09 41.034C530.45 40.326 530.954 39.78 531.602 39.396C532.25 39 532.994 38.802 533.834 38.802C534.662 38.802 535.358 38.976 535.922 39.324C536.486 39.672 536.918 40.17 537.218 40.818C537.518 41.454 537.668 42.21 537.668 43.086V43.626H530.666V42.708H536.714L536.408 42.942C536.408 41.982 536.192 41.232 535.76 40.692C535.328 40.152 534.686 39.882 533.834 39.882C532.934 39.882 532.232 40.2 531.728 40.836C531.224 41.46 530.972 42.306 530.972 43.374V43.536C530.972 44.664 531.248 45.522 531.8 46.11C532.364 46.686 533.15 46.974 534.158 46.974C534.698 46.974 535.202 46.896 535.67 46.74C536.15 46.572 536.606 46.302 537.038 45.93L537.542 46.956C537.146 47.34 536.642 47.64 536.03 47.856C535.43 48.06 534.794 48.162 534.122 48.162ZM543.319 48.162C542.527 48.162 541.831 47.976 541.231 47.604C540.631 47.22 540.163 46.68 539.827 45.984C539.503 45.288 539.341 44.454 539.341 43.482C539.341 42.498 539.503 41.658 539.827 40.962C540.163 40.266 540.631 39.732 541.231 39.36C541.831 38.988 542.527 38.802 543.319 38.802C544.135 38.802 544.837 39.006 545.425 39.414C546.025 39.822 546.427 40.374 546.631 41.07H546.415V34.752H547.873V48H546.433V45.84H546.631C546.439 46.56 546.043 47.13 545.443 47.55C544.843 47.958 544.135 48.162 543.319 48.162ZM543.625 46.974C544.477 46.974 545.161 46.68 545.677 46.092C546.193 45.492 546.451 44.622 546.451 43.482C546.451 42.33 546.193 41.46 545.677 40.872C545.161 40.272 544.477 39.972 543.625 39.972C542.773 39.972 542.089 40.272 541.573 40.872C541.069 41.46 540.817 42.33 540.817 43.482C540.817 44.622 541.069 45.492 541.573 46.092C542.089 46.68 542.773 46.974 543.625 46.974ZM558.823 48.162C558.019 48.162 557.317 47.976 556.717 47.604C556.117 47.22 555.649 46.68 555.313 45.984C554.989 45.288 554.827 44.454 554.827 43.482C554.827 42.498 554.989 41.658 555.313 40.962C555.649 40.266 556.117 39.732 556.717 39.36C557.317 38.988 558.019 38.802 558.823 38.802C559.639 38.802 560.341 39.012 560.929 39.432C561.529 39.84 561.925 40.398 562.117 41.106H561.901L562.099 38.964H563.503C563.467 39.312 563.431 39.666 563.395 40.026C563.371 40.374 563.359 40.716 563.359 41.052V48H561.901V45.876H562.099C561.907 46.584 561.511 47.142 560.911 47.55C560.311 47.958 559.615 48.162 558.823 48.162ZM559.111 46.974C559.975 46.974 560.659 46.68 561.163 46.092C561.667 45.492 561.919 44.622 561.919 43.482C561.919 42.33 561.667 41.46 561.163 40.872C560.659 40.272 559.975 39.972 559.111 39.972C558.259 39.972 557.575 40.272 557.059 40.872C556.555 41.46 556.303 42.33 556.303 43.482C556.303 44.622 556.555 45.492 557.059 46.092C557.575 46.68 558.259 46.974 559.111 46.974ZM566.178 48V41.052C566.178 40.716 566.16 40.374 566.124 40.026C566.1 39.666 566.07 39.312 566.034 38.964H567.438L567.618 40.944H567.402C567.666 40.248 568.086 39.72 568.662 39.36C569.25 38.988 569.928 38.802 570.696 38.802C571.764 38.802 572.568 39.09 573.108 39.666C573.66 40.23 573.936 41.124 573.936 42.348V48H572.478V42.438C572.478 41.586 572.304 40.968 571.956 40.584C571.62 40.188 571.092 39.99 570.372 39.99C569.532 39.99 568.866 40.248 568.374 40.764C567.882 41.28 567.636 41.97 567.636 42.834V48H566.178ZM580.145 48.162C579.353 48.162 578.657 47.976 578.057 47.604C577.457 47.22 576.989 46.68 576.653 45.984C576.329 45.288 576.167 44.454 576.167 43.482C576.167 42.498 576.329 41.658 576.653 40.962C576.989 40.266 577.457 39.732 578.057 39.36C578.657 38.988 579.353 38.802 580.145 38.802C580.961 38.802 581.663 39.006 582.251 39.414C582.851 39.822 583.253 40.374 583.457 41.07H583.241V34.752H584.699V48H583.259V45.84H583.457C583.265 46.56 582.869 47.13 582.269 47.55C581.669 47.958 580.961 48.162 580.145 48.162ZM580.451 46.974C581.303 46.974 581.987 46.68 582.503 46.092C583.019 45.492 583.277 44.622 583.277 43.482C583.277 42.33 583.019 41.46 582.503 40.872C581.987 40.272 581.303 39.972 580.451 39.972C579.599 39.972 578.915 40.272 578.399 40.872C577.895 41.46 577.643 42.33 577.643 43.482C577.643 44.622 577.895 45.492 578.399 46.092C578.915 46.68 579.599 46.974 580.451 46.974ZM592.211 48V34.752H593.669V48H592.211ZM600.514 48.162C599.098 48.162 597.982 47.754 597.166 46.938C596.35 46.11 595.942 44.964 595.942 43.5C595.942 42.552 596.122 41.73 596.482 41.034C596.842 40.326 597.346 39.78 597.994 39.396C598.642 39 599.386 38.802 600.226 38.802C601.054 38.802 601.75 38.976 602.314 39.324C602.878 39.672 603.31 40.17 603.61 40.818C603.91 41.454 604.06 42.21 604.06 43.086V43.626H597.058V42.708H603.106L602.8 42.942C602.8 41.982 602.584 41.232 602.152 40.692C601.72 40.152 601.078 39.882 600.226 39.882C599.326 39.882 598.624 40.2 598.12 40.836C597.616 41.46 597.364 42.306 597.364 43.374V43.536C597.364 44.664 597.64 45.522 598.192 46.11C598.756 46.686 599.542 46.974 600.55 46.974C601.09 46.974 601.594 46.896 602.062 46.74C602.542 46.572 602.998 46.302 603.43 45.93L603.934 46.956C603.538 47.34 603.034 47.64 602.422 47.856C601.822 48.06 601.186 48.162 600.514 48.162ZM609.297 48.162C608.577 48.162 607.905 48.066 607.281 47.874C606.657 47.67 606.141 47.388 605.733 47.028L606.237 46.002C606.681 46.35 607.161 46.608 607.677 46.776C608.205 46.944 608.751 47.028 609.315 47.028C610.035 47.028 610.575 46.902 610.935 46.65C611.307 46.386 611.493 46.026 611.493 45.57C611.493 45.222 611.373 44.946 611.133 44.742C610.905 44.526 610.527 44.358 609.999 44.238L608.325 43.896C607.557 43.728 606.981 43.446 606.597 43.05C606.213 42.642 606.021 42.126 606.021 41.502C606.021 40.974 606.159 40.512 606.435 40.116C606.711 39.708 607.113 39.39 607.641 39.162C608.169 38.922 608.787 38.802 609.495 38.802C610.155 38.802 610.761 38.904 611.313 39.108C611.877 39.3 612.345 39.582 612.717 39.954L612.195 40.962C611.835 40.614 611.421 40.356 610.953 40.188C610.497 40.008 610.023 39.918 609.531 39.918C608.823 39.918 608.289 40.062 607.929 40.35C607.581 40.626 607.407 40.992 607.407 41.448C607.407 41.796 607.515 42.084 607.731 42.312C607.959 42.528 608.307 42.69 608.775 42.798L610.449 43.14C611.265 43.32 611.871 43.602 612.267 43.986C612.675 44.358 612.879 44.862 612.879 45.498C612.879 46.038 612.729 46.512 612.429 46.92C612.129 47.316 611.709 47.622 611.169 47.838C610.641 48.054 610.017 48.162 609.297 48.162ZM618.227 48.162C617.507 48.162 616.835 48.066 616.211 47.874C615.587 47.67 615.071 47.388 614.663 47.028L615.167 46.002C615.611 46.35 616.091 46.608 616.607 46.776C617.135 46.944 617.681 47.028 618.245 47.028C618.965 47.028 619.505 46.902 619.865 46.65C620.237 46.386 620.423 46.026 620.423 45.57C620.423 45.222 620.303 44.946 620.063 44.742C619.835 44.526 619.457 44.358 618.929 44.238L617.255 43.896C616.487 43.728 615.911 43.446 615.527 43.05C615.143 42.642 614.951 42.126 614.951 41.502C614.951 40.974 615.089 40.512 615.365 40.116C615.641 39.708 616.043 39.39 616.571 39.162C617.099 38.922 617.717 38.802 618.425 38.802C619.085 38.802 619.691 38.904 620.243 39.108C620.807 39.3 621.275 39.582 621.647 39.954L621.125 40.962C620.765 40.614 620.351 40.356 619.883 40.188C619.427 40.008 618.953 39.918 618.461 39.918C617.753 39.918 617.219 40.062 616.859 40.35C616.511 40.626 616.337 40.992 616.337 41.448C616.337 41.796 616.445 42.084 616.661 42.312C616.889 42.528 617.237 42.69 617.705 42.798L619.379 43.14C620.195 43.32 620.801 43.602 621.197 43.986C621.605 44.358 621.809 44.862 621.809 45.498C621.809 46.038 621.659 46.512 621.359 46.92C621.059 47.316 620.639 47.622 620.099 47.838C619.571 48.054 618.947 48.162 618.227 48.162ZM426.507 76.162C425.619 76.162 424.941 75.91 424.473 75.406C424.005 74.89 423.771 74.116 423.771 73.084V68.098H422.007V66.964H423.771V64.498L425.229 64.084V66.964H427.821V68.098H425.229V72.922C425.229 73.642 425.349 74.158 425.589 74.47C425.841 74.77 426.213 74.92 426.705 74.92C426.933 74.92 427.137 74.902 427.317 74.866C427.497 74.818 427.659 74.764 427.803 74.704V75.928C427.635 76 427.431 76.054 427.191 76.09C426.963 76.138 426.735 76.162 426.507 76.162ZM429.596 76V66.964H431.054V76H429.596ZM429.416 64.912V63.274H431.216V64.912H429.416ZM433.885 76V69.052C433.885 68.716 433.867 68.374 433.831 68.026C433.807 67.666 433.777 67.312 433.741 66.964H435.145L435.325 68.944H435.109C435.349 68.26 435.727 67.732 436.243 67.36C436.771 66.988 437.407 66.802 438.151 66.802C438.907 66.802 439.519 66.982 439.987 67.342C440.467 67.702 440.791 68.26 440.959 69.016H440.689C440.917 68.332 441.319 67.792 441.895 67.396C442.471 67 443.143 66.802 443.911 66.802C444.907 66.802 445.657 67.09 446.161 67.666C446.665 68.23 446.917 69.124 446.917 70.348V76H445.459V70.438C445.459 69.586 445.309 68.968 445.009 68.584C444.709 68.188 444.229 67.99 443.569 67.99C442.813 67.99 442.213 68.254 441.769 68.782C441.337 69.298 441.121 69.994 441.121 70.87V76H439.663V70.438C439.663 69.586 439.513 68.968 439.213 68.584C438.913 68.188 438.433 67.99 437.773 67.99C437.017 67.99 436.423 68.254 435.991 68.782C435.559 69.298 435.343 69.994 435.343 70.87V76H433.885ZM453.702 76.162C452.286 76.162 451.17 75.754 450.354 74.938C449.538 74.11 449.13 72.964 449.13 71.5C449.13 70.552 449.31 69.73 449.67 69.034C450.03 68.326 450.534 67.78 451.182 67.396C451.83 67 452.574 66.802 453.414 66.802C454.242 66.802 454.938 66.976 455.502 67.324C456.066 67.672 456.498 68.17 456.798 68.818C457.098 69.454 457.248 70.21 457.248 71.086V71.626H450.246V70.708H456.294L455.988 70.942C455.988 69.982 455.772 69.232 455.34 68.692C454.908 68.152 454.266 67.882 453.414 67.882C452.514 67.882 451.812 68.2 451.308 68.836C450.804 69.46 450.552 70.306 450.552 71.374V71.536C450.552 72.664 450.828 73.522 451.38 74.11C451.944 74.686 452.73 74.974 453.738 74.974C454.278 74.974 454.782 74.896 455.25 74.74C455.73 74.572 456.186 74.302 456.618 73.93L457.122 74.956C456.726 75.34 456.222 75.64 455.61 75.856C455.01 76.06 454.374 76.162 453.702 76.162ZM467.97 76.162C467.082 76.162 466.308 75.97 465.648 75.586C465 75.202 464.496 74.656 464.136 73.948C463.788 73.24 463.614 72.4 463.614 71.428C463.614 70.444 463.794 69.61 464.154 68.926C464.514 68.23 465.018 67.702 465.666 67.342C466.326 66.982 467.094 66.802 467.97 66.802C468.546 66.802 469.104 66.904 469.644 67.108C470.196 67.312 470.652 67.6 471.012 67.972L470.49 69.016C470.13 68.668 469.734 68.41 469.302 68.242C468.882 68.074 468.468 67.99 468.06 67.99C467.124 67.99 466.398 68.284 465.882 68.872C465.366 69.46 465.108 70.318 465.108 71.446C465.108 72.562 465.366 73.426 465.882 74.038C466.398 74.65 467.124 74.956 468.06 74.956C468.456 74.956 468.864 74.878 469.284 74.722C469.716 74.566 470.118 74.308 470.49 73.948L471.012 74.974C470.64 75.358 470.178 75.652 469.626 75.856C469.074 76.06 468.522 76.162 467.97 76.162ZM476.616 76.162C475.752 76.162 474.996 75.976 474.348 75.604C473.712 75.22 473.22 74.68 472.872 73.984C472.524 73.276 472.35 72.442 472.35 71.482C472.35 70.51 472.524 69.676 472.872 68.98C473.22 68.284 473.712 67.75 474.348 67.378C474.996 66.994 475.752 66.802 476.616 66.802C477.492 66.802 478.248 66.994 478.884 67.378C479.532 67.75 480.03 68.284 480.378 68.98C480.738 69.676 480.918 70.51 480.918 71.482C480.918 72.442 480.738 73.276 480.378 73.984C480.03 74.68 479.532 75.22 478.884 75.604C478.248 75.976 477.492 76.162 476.616 76.162ZM476.616 74.974C477.48 74.974 478.164 74.68 478.668 74.092C479.172 73.492 479.424 72.622 479.424 71.482C479.424 70.33 479.166 69.46 478.65 68.872C478.146 68.272 477.468 67.972 476.616 67.972C475.764 67.972 475.086 68.272 474.582 68.872C474.078 69.46 473.826 70.33 473.826 71.482C473.826 72.622 474.078 73.492 474.582 74.092C475.086 74.68 475.764 74.974 476.616 74.974ZM483.192 76V69.052C483.192 68.716 483.174 68.374 483.138 68.026C483.114 67.666 483.084 67.312 483.048 66.964H484.452L484.632 68.944H484.416C484.68 68.248 485.1 67.72 485.676 67.36C486.264 66.988 486.942 66.802 487.71 66.802C488.778 66.802 489.582 67.09 490.122 67.666C490.674 68.23 490.95 69.124 490.95 70.348V76H489.492V70.438C489.492 69.586 489.318 68.968 488.97 68.584C488.634 68.188 488.106 67.99 487.386 67.99C486.546 67.99 485.88 68.248 485.388 68.764C484.896 69.28 484.65 69.97 484.65 70.834V76H483.192ZM496.744 76.162C496.024 76.162 495.352 76.066 494.728 75.874C494.104 75.67 493.588 75.388 493.18 75.028L493.684 74.002C494.128 74.35 494.608 74.608 495.124 74.776C495.652 74.944 496.198 75.028 496.762 75.028C497.482 75.028 498.022 74.902 498.382 74.65C498.754 74.386 498.94 74.026 498.94 73.57C498.94 73.222 498.82 72.946 498.58 72.742C498.352 72.526 497.974 72.358 497.446 72.238L495.772 71.896C495.004 71.728 494.428 71.446 494.044 71.05C493.66 70.642 493.468 70.126 493.468 69.502C493.468 68.974 493.606 68.512 493.882 68.116C494.158 67.708 494.56 67.39 495.088 67.162C495.616 66.922 496.234 66.802 496.942 66.802C497.602 66.802 498.208 66.904 498.76 67.108C499.324 67.3 499.792 67.582 500.164 67.954L499.642 68.962C499.282 68.614 498.868 68.356 498.4 68.188C497.944 68.008 497.47 67.918 496.978 67.918C496.27 67.918 495.736 68.062 495.376 68.35C495.028 68.626 494.854 68.992 494.854 69.448C494.854 69.796 494.962 70.084 495.178 70.312C495.406 70.528 495.754 70.69 496.222 70.798L497.896 71.14C498.712 71.32 499.318 71.602 499.714 71.986C500.122 72.358 500.326 72.862 500.326 73.498C500.326 74.038 500.176 74.512 499.876 74.92C499.576 75.316 499.156 75.622 498.616 75.838C498.088 76.054 497.464 76.162 496.744 76.162ZM505.854 76.162C504.786 76.162 503.976 75.868 503.424 75.28C502.884 74.692 502.614 73.792 502.614 72.58V66.964H504.072V72.544C504.072 73.372 504.24 73.984 504.576 74.38C504.912 74.764 505.434 74.956 506.142 74.956C506.934 74.956 507.57 74.698 508.05 74.182C508.53 73.666 508.77 72.976 508.77 72.112V66.964H510.228V76H508.806V73.966H509.04C508.788 74.662 508.38 75.202 507.816 75.586C507.264 75.97 506.61 76.162 505.854 76.162ZM513.057 76V69.052C513.057 68.716 513.039 68.374 513.003 68.026C512.979 67.666 512.949 67.312 512.913 66.964H514.317L514.497 68.944H514.281C514.521 68.26 514.899 67.732 515.415 67.36C515.943 66.988 516.579 66.802 517.323 66.802C518.079 66.802 518.691 66.982 519.159 67.342C519.639 67.702 519.963 68.26 520.131 69.016H519.861C520.089 68.332 520.491 67.792 521.067 67.396C521.643 67 522.315 66.802 523.083 66.802C524.079 66.802 524.829 67.09 525.333 67.666C525.837 68.23 526.089 69.124 526.089 70.348V76H524.631V70.438C524.631 69.586 524.481 68.968 524.181 68.584C523.881 68.188 523.401 67.99 522.741 67.99C521.985 67.99 521.385 68.254 520.941 68.782C520.509 69.298 520.293 69.994 520.293 70.87V76H518.835V70.438C518.835 69.586 518.685 68.968 518.385 68.584C518.085 68.188 517.605 67.99 516.945 67.99C516.189 67.99 515.595 68.254 515.163 68.782C514.731 69.298 514.515 69.994 514.515 70.87V76H513.057ZM528.86 76V66.964H530.318V76H528.86ZM528.68 64.912V63.274H530.48V64.912H528.68ZM533.149 76V69.052C533.149 68.716 533.131 68.374 533.095 68.026C533.071 67.666 533.041 67.312 533.005 66.964H534.409L534.589 68.944H534.373C534.637 68.248 535.057 67.72 535.633 67.36C536.221 66.988 536.899 66.802 537.667 66.802C538.735 66.802 539.539 67.09 540.079 67.666C540.631 68.23 540.907 69.124 540.907 70.348V76H539.449V70.438C539.449 69.586 539.275 68.968 538.927 68.584C538.591 68.188 538.063 67.99 537.343 67.99C536.503 67.99 535.837 68.248 535.345 68.764C534.853 69.28 534.607 69.97 534.607 70.834V76H533.149ZM547.673 80.014C546.893 80.014 546.173 79.918 545.513 79.726C544.853 79.534 544.259 79.24 543.731 78.844L544.163 77.746C544.535 78.01 544.901 78.22 545.261 78.376C545.621 78.532 545.993 78.646 546.377 78.718C546.761 78.802 547.169 78.844 547.601 78.844C548.489 78.844 549.161 78.61 549.617 78.142C550.073 77.674 550.301 77.008 550.301 76.144V73.498H550.481C550.289 74.206 549.893 74.77 549.293 75.19C548.693 75.598 547.991 75.802 547.187 75.802C546.359 75.802 545.639 75.622 545.027 75.262C544.427 74.89 543.959 74.368 543.623 73.696C543.299 73.012 543.137 72.208 543.137 71.284C543.137 70.372 543.299 69.58 543.623 68.908C543.959 68.236 544.427 67.72 545.027 67.36C545.639 66.988 546.359 66.802 547.187 66.802C548.003 66.802 548.705 67.006 549.293 67.414C549.893 67.822 550.289 68.386 550.481 69.106L550.301 68.926L550.463 66.964H551.885C551.837 67.312 551.801 67.666 551.777 68.026C551.753 68.374 551.741 68.716 551.741 69.052V75.946C551.741 77.29 551.393 78.304 550.697 78.988C550.013 79.672 549.005 80.014 547.673 80.014ZM547.457 74.614C548.333 74.614 549.023 74.326 549.527 73.75C550.031 73.162 550.283 72.34 550.283 71.284C550.283 70.228 550.031 69.412 549.527 68.836C549.023 68.26 548.333 67.972 547.457 67.972C546.593 67.972 545.903 68.26 545.387 68.836C544.871 69.412 544.613 70.228 544.613 71.284C544.613 72.34 544.871 73.162 545.387 73.75C545.903 74.326 546.593 74.614 547.457 74.614Z" fill="#5E5E5E"/>
<g filter="url(#filter0_d_1035_10)">
<rect x="308.5" y="197" width="281" height="98" rx="9.5" fill="white" stroke="#333333"/>
<path d="M383.648 198V154L356 198H369.824H383.648Z" fill="white" stroke="#333333"/>
<path d="M355 197.5H385V201H355V197.5Z" fill="white"/>
</g>
<path d="M340.567 229L336.385 217.015H337.864L341.519 227.81H340.924L344.766 217.015H345.888L349.526 227.81H348.982L352.739 217.015H354.133L349.917 229H348.659L345.123 218.613H345.48L341.791 229H340.567ZM356.059 229V216.488H357.436V222.353H357.215C357.453 221.684 357.849 221.18 358.405 220.84C358.971 220.489 359.623 220.313 360.36 220.313C361.38 220.313 362.139 220.591 362.638 221.146C363.136 221.69 363.386 222.517 363.386 223.628V229H362.009V223.713C362.009 222.92 361.85 222.342 361.533 221.979C361.227 221.616 360.728 221.435 360.037 221.435C359.243 221.435 358.609 221.679 358.133 222.166C357.668 222.653 357.436 223.294 357.436 224.087V229H356.059ZM369.267 229.153C368.507 229.153 367.844 228.977 367.278 228.626C366.711 228.263 366.269 227.753 365.952 227.096C365.646 226.439 365.493 225.651 365.493 224.733C365.493 223.804 365.646 223.01 365.952 222.353C366.269 221.696 366.711 221.191 367.278 220.84C367.844 220.489 368.507 220.313 369.267 220.313C370.037 220.313 370.7 220.511 371.256 220.908C371.822 221.293 372.196 221.82 372.378 222.489H372.174L372.361 220.466H373.687C373.653 220.795 373.619 221.129 373.585 221.469C373.562 221.798 373.551 222.121 373.551 222.438V229H372.174V226.994H372.361C372.179 227.663 371.805 228.19 371.239 228.575C370.672 228.96 370.015 229.153 369.267 229.153ZM369.539 228.031C370.355 228.031 371.001 227.753 371.477 227.198C371.953 226.631 372.191 225.81 372.191 224.733C372.191 223.645 371.953 222.823 371.477 222.268C371.001 221.701 370.355 221.418 369.539 221.418C368.734 221.418 368.088 221.701 367.601 222.268C367.125 222.823 366.887 223.645 366.887 224.733C366.887 225.81 367.125 226.631 367.601 227.198C368.088 227.753 368.734 228.031 369.539 228.031ZM379.239 229.153C378.4 229.153 377.76 228.915 377.318 228.439C376.876 227.952 376.655 227.221 376.655 226.246V221.537H374.989V220.466H376.655V218.137L378.032 217.746V220.466H380.48V221.537H378.032V226.093C378.032 226.773 378.145 227.26 378.372 227.555C378.61 227.838 378.961 227.98 379.426 227.98C379.641 227.98 379.834 227.963 380.004 227.929C380.174 227.884 380.327 227.833 380.463 227.776V228.932C380.304 229 380.112 229.051 379.885 229.085C379.67 229.13 379.454 229.153 379.239 229.153ZM386.589 229V220.466H387.966V229H386.589ZM386.419 218.528V216.981H388.119V218.528H386.419ZM393.479 229.153C392.799 229.153 392.164 229.062 391.575 228.881C390.986 228.688 390.498 228.422 390.113 228.082L390.589 227.113C391.008 227.442 391.462 227.685 391.949 227.844C392.448 228.003 392.963 228.082 393.496 228.082C394.176 228.082 394.686 227.963 395.026 227.725C395.377 227.476 395.553 227.136 395.553 226.705C395.553 226.376 395.44 226.116 395.213 225.923C394.998 225.719 394.641 225.56 394.142 225.447L392.561 225.124C391.836 224.965 391.292 224.699 390.929 224.325C390.566 223.94 390.385 223.452 390.385 222.863C390.385 222.364 390.515 221.928 390.776 221.554C391.037 221.169 391.416 220.868 391.915 220.653C392.414 220.426 392.997 220.313 393.666 220.313C394.289 220.313 394.862 220.409 395.383 220.602C395.916 220.783 396.358 221.05 396.709 221.401L396.216 222.353C395.876 222.024 395.485 221.781 395.043 221.622C394.612 221.452 394.165 221.367 393.7 221.367C393.031 221.367 392.527 221.503 392.187 221.775C391.858 222.036 391.694 222.381 391.694 222.812C391.694 223.141 391.796 223.413 392 223.628C392.215 223.832 392.544 223.985 392.986 224.087L394.567 224.41C395.338 224.58 395.91 224.846 396.284 225.209C396.669 225.56 396.862 226.036 396.862 226.637C396.862 227.147 396.72 227.595 396.437 227.98C396.154 228.354 395.757 228.643 395.247 228.847C394.748 229.051 394.159 229.153 393.479 229.153ZM403.166 232.859L402.843 231.72C403.376 231.595 403.818 231.448 404.169 231.278C404.532 231.119 404.832 230.904 405.07 230.632C405.308 230.36 405.512 230.02 405.682 229.612L406.124 228.609L406.09 229.187L402.367 220.466H403.863L406.94 227.963H406.498L409.541 220.466H410.986L407.042 229.714C406.815 230.258 406.566 230.711 406.294 231.074C406.022 231.448 405.727 231.748 405.41 231.975C405.104 232.213 404.764 232.4 404.39 232.536C404.016 232.672 403.608 232.78 403.166 232.859ZM415.923 229.153C415.107 229.153 414.393 228.977 413.781 228.626C413.18 228.263 412.716 227.753 412.387 227.096C412.058 226.427 411.894 225.64 411.894 224.733C411.894 223.815 412.058 223.027 412.387 222.37C412.716 221.713 413.18 221.208 413.781 220.857C414.393 220.494 415.107 220.313 415.923 220.313C416.75 220.313 417.464 220.494 418.065 220.857C418.677 221.208 419.147 221.713 419.476 222.37C419.816 223.027 419.986 223.815 419.986 224.733C419.986 225.64 419.816 226.427 419.476 227.096C419.147 227.753 418.677 228.263 418.065 228.626C417.464 228.977 416.75 229.153 415.923 229.153ZM415.923 228.031C416.739 228.031 417.385 227.753 417.861 227.198C418.337 226.631 418.575 225.81 418.575 224.733C418.575 223.645 418.331 222.823 417.844 222.268C417.368 221.701 416.728 221.418 415.923 221.418C415.118 221.418 414.478 221.701 414.002 222.268C413.526 222.823 413.288 223.645 413.288 224.733C413.288 225.81 413.526 226.631 414.002 227.198C414.478 227.753 415.118 228.031 415.923 228.031ZM425.142 229.153C424.133 229.153 423.368 228.875 422.847 228.32C422.337 227.765 422.082 226.915 422.082 225.77V220.466H423.459V225.736C423.459 226.518 423.618 227.096 423.935 227.47C424.252 227.833 424.745 228.014 425.414 228.014C426.162 228.014 426.763 227.77 427.216 227.283C427.669 226.796 427.896 226.144 427.896 225.328V220.466H429.273V229H427.93V227.079H428.151C427.913 227.736 427.528 228.246 426.995 228.609C426.474 228.972 425.856 229.153 425.142 229.153ZM431.911 229V222.523C431.911 222.183 431.899 221.837 431.877 221.486C431.865 221.135 431.843 220.795 431.809 220.466H433.135L433.305 222.54L433.067 222.557C433.18 222.047 433.378 221.628 433.662 221.299C433.945 220.97 434.279 220.727 434.665 220.568C435.05 220.398 435.452 220.313 435.872 220.313C436.042 220.313 436.189 220.319 436.314 220.33C436.45 220.341 436.574 220.37 436.688 220.415L436.671 221.639C436.501 221.582 436.342 221.548 436.195 221.537C436.059 221.514 435.9 221.503 435.719 221.503C435.22 221.503 434.784 221.622 434.41 221.86C434.047 222.098 433.769 222.404 433.577 222.778C433.395 223.152 433.305 223.549 433.305 223.968V229H431.911ZM442.995 229V221.537H441.329V220.466H443.369L442.995 220.823V219.395C442.995 218.432 443.239 217.695 443.726 217.185C444.213 216.675 444.91 216.42 445.817 216.42C446.044 216.42 446.276 216.443 446.514 216.488C446.763 216.522 446.967 216.573 447.126 216.641V217.78C446.99 217.723 446.82 217.678 446.616 217.644C446.423 217.599 446.225 217.576 446.021 217.576C445.67 217.576 445.369 217.65 445.12 217.797C444.871 217.933 444.684 218.143 444.559 218.426C444.434 218.709 444.372 219.072 444.372 219.514V220.755L444.151 220.466H446.752V221.537H444.372V229H442.995ZM451.461 229.153C450.702 229.153 450.039 228.977 449.472 228.626C448.905 228.263 448.463 227.753 448.146 227.096C447.84 226.439 447.687 225.651 447.687 224.733C447.687 223.804 447.84 223.01 448.146 222.353C448.463 221.696 448.905 221.191 449.472 220.84C450.039 220.489 450.702 220.313 451.461 220.313C452.232 220.313 452.895 220.511 453.45 220.908C454.017 221.293 454.391 221.82 454.572 222.489H454.368L454.555 220.466H455.881C455.847 220.795 455.813 221.129 455.779 221.469C455.756 221.798 455.745 222.121 455.745 222.438V229H454.368V226.994H454.555C454.374 227.663 454 228.19 453.433 228.575C452.866 228.96 452.209 229.153 451.461 229.153ZM451.733 228.031C452.549 228.031 453.195 227.753 453.671 227.198C454.147 226.631 454.385 225.81 454.385 224.733C454.385 223.645 454.147 222.823 453.671 222.268C453.195 221.701 452.549 221.418 451.733 221.418C450.928 221.418 450.282 221.701 449.795 222.268C449.319 222.823 449.081 223.645 449.081 224.733C449.081 225.81 449.319 226.631 449.795 227.198C450.282 227.753 450.928 228.031 451.733 228.031ZM460.84 229L457.185 220.466H458.681L461.741 227.98H461.282L464.376 220.466H465.804L462.149 229H460.84ZM470.741 229.153C469.925 229.153 469.211 228.977 468.599 228.626C467.999 228.263 467.534 227.753 467.205 227.096C466.877 226.427 466.712 225.64 466.712 224.733C466.712 223.815 466.877 223.027 467.205 222.37C467.534 221.713 467.999 221.208 468.599 220.857C469.211 220.494 469.925 220.313 470.741 220.313C471.569 220.313 472.283 220.494 472.883 220.857C473.495 221.208 473.966 221.713 474.294 222.37C474.634 223.027 474.804 223.815 474.804 224.733C474.804 225.64 474.634 226.427 474.294 227.096C473.966 227.753 473.495 228.263 472.883 228.626C472.283 228.977 471.569 229.153 470.741 229.153ZM470.741 228.031C471.557 228.031 472.203 227.753 472.679 227.198C473.155 226.631 473.393 225.81 473.393 224.733C473.393 223.645 473.15 222.823 472.662 222.268C472.186 221.701 471.546 221.418 470.741 221.418C469.937 221.418 469.296 221.701 468.82 222.268C468.344 222.823 468.106 223.645 468.106 224.733C468.106 225.81 468.344 226.631 468.82 227.198C469.296 227.753 469.937 228.031 470.741 228.031ZM476.917 229V222.523C476.917 222.183 476.906 221.837 476.883 221.486C476.872 221.135 476.849 220.795 476.815 220.466H478.141L478.311 222.54L478.073 222.557C478.187 222.047 478.385 221.628 478.668 221.299C478.952 220.97 479.286 220.727 479.671 220.568C480.057 220.398 480.459 220.313 480.878 220.313C481.048 220.313 481.196 220.319 481.32 220.33C481.456 220.341 481.581 220.37 481.694 220.415L481.677 221.639C481.507 221.582 481.349 221.548 481.201 221.537C481.065 221.514 480.907 221.503 480.725 221.503C480.227 221.503 479.79 221.622 479.416 221.86C479.054 222.098 478.776 222.404 478.583 222.778C478.402 223.152 478.311 223.549 478.311 223.968V229H476.917ZM483.127 229V220.466H484.504V229H483.127ZM482.957 218.528V216.981H484.657V218.528H482.957ZM490.204 229.153C489.365 229.153 488.725 228.915 488.283 228.439C487.841 227.952 487.62 227.221 487.62 226.246V221.537H485.954V220.466H487.62V218.137L488.997 217.746V220.466H491.445V221.537H488.997V226.093C488.997 226.773 489.11 227.26 489.337 227.555C489.575 227.838 489.926 227.98 490.391 227.98C490.606 227.98 490.799 227.963 490.969 227.929C491.139 227.884 491.292 227.833 491.428 227.776V228.932C491.269 229 491.077 229.051 490.85 229.085C490.635 229.13 490.419 229.153 490.204 229.153ZM496.829 229.153C495.492 229.153 494.438 228.768 493.667 227.997C492.897 227.215 492.511 226.133 492.511 224.75C492.511 223.855 492.681 223.078 493.021 222.421C493.361 221.752 493.837 221.237 494.449 220.874C495.061 220.5 495.764 220.313 496.557 220.313C497.339 220.313 497.997 220.477 498.529 220.806C499.062 221.135 499.47 221.605 499.753 222.217C500.037 222.818 500.178 223.532 500.178 224.359V224.869H493.565V224.002H499.277L498.988 224.223C498.988 223.316 498.784 222.608 498.376 222.098C497.968 221.588 497.362 221.333 496.557 221.333C495.707 221.333 495.044 221.633 494.568 222.234C494.092 222.823 493.854 223.622 493.854 224.631V224.784C493.854 225.849 494.115 226.66 494.636 227.215C495.169 227.759 495.911 228.031 496.863 228.031C497.373 228.031 497.849 227.957 498.291 227.81C498.745 227.651 499.175 227.396 499.583 227.045L500.059 228.014C499.685 228.377 499.209 228.66 498.631 228.864C498.065 229.057 497.464 229.153 496.829 229.153ZM510.305 229.153C509.466 229.153 508.735 228.972 508.112 228.609C507.5 228.246 507.024 227.731 506.684 227.062C506.355 226.393 506.191 225.6 506.191 224.682C506.191 223.753 506.361 222.965 506.701 222.319C507.041 221.662 507.517 221.163 508.129 220.823C508.752 220.483 509.478 220.313 510.305 220.313C510.849 220.313 511.376 220.409 511.886 220.602C512.407 220.795 512.838 221.067 513.178 221.418L512.685 222.404C512.345 222.075 511.971 221.832 511.563 221.673C511.166 221.514 510.775 221.435 510.39 221.435C509.506 221.435 508.82 221.713 508.333 222.268C507.846 222.823 507.602 223.634 507.602 224.699C507.602 225.753 507.846 226.569 508.333 227.147C508.82 227.725 509.506 228.014 510.39 228.014C510.764 228.014 511.149 227.94 511.546 227.793C511.954 227.646 512.334 227.402 512.685 227.062L513.178 228.031C512.827 228.394 512.39 228.671 511.869 228.864C511.348 229.057 510.826 229.153 510.305 229.153ZM518.471 229.153C517.655 229.153 516.941 228.977 516.329 228.626C515.728 228.263 515.264 227.753 514.935 227.096C514.606 226.427 514.442 225.64 514.442 224.733C514.442 223.815 514.606 223.027 514.935 222.37C515.264 221.713 515.728 221.208 516.329 220.857C516.941 220.494 517.655 220.313 518.471 220.313C519.298 220.313 520.012 220.494 520.613 220.857C521.225 221.208 521.695 221.713 522.024 222.37C522.364 223.027 522.534 223.815 522.534 224.733C522.534 225.64 522.364 226.427 522.024 227.096C521.695 227.753 521.225 228.263 520.613 228.626C520.012 228.977 519.298 229.153 518.471 229.153ZM518.471 228.031C519.287 228.031 519.933 227.753 520.409 227.198C520.885 226.631 521.123 225.81 521.123 224.733C521.123 223.645 520.879 222.823 520.392 222.268C519.916 221.701 519.276 221.418 518.471 221.418C517.666 221.418 517.026 221.701 516.55 222.268C516.074 222.823 515.836 223.645 515.836 224.733C515.836 225.81 516.074 226.631 516.55 227.198C517.026 227.753 517.666 228.031 518.471 228.031ZM525.04 229V221.537H523.374V220.466H525.414L525.04 220.823V219.395C525.04 218.432 525.284 217.695 525.771 217.185C526.258 216.675 526.955 216.42 527.862 216.42C528.089 216.42 528.321 216.443 528.559 216.488C528.808 216.522 529.012 216.573 529.171 216.641V217.78C529.035 217.723 528.865 217.678 528.661 217.644C528.468 217.599 528.27 217.576 528.066 217.576C527.715 217.576 527.414 217.65 527.165 217.797C526.916 217.933 526.729 218.143 526.604 218.426C526.479 218.709 526.417 219.072 526.417 219.514V220.755L526.196 220.466H528.797V221.537H526.417V229H525.04ZM530.518 229V221.537H528.852V220.466H530.892L530.518 220.823V219.395C530.518 218.432 530.762 217.695 531.249 217.185C531.737 216.675 532.434 216.42 533.34 216.42C533.567 216.42 533.799 216.443 534.037 216.488C534.287 216.522 534.491 216.573 534.649 216.641V217.78C534.513 217.723 534.343 217.678 534.139 217.644C533.947 217.599 533.748 217.576 533.544 217.576C533.193 217.576 532.893 217.65 532.643 217.797C532.394 217.933 532.207 218.143 532.082 218.426C531.958 218.709 531.895 219.072 531.895 219.514V220.755L531.674 220.466H534.275V221.537H531.895V229H530.518ZM539.379 229.153C538.042 229.153 536.988 228.768 536.217 227.997C535.446 227.215 535.061 226.133 535.061 224.75C535.061 223.855 535.231 223.078 535.571 222.421C535.911 221.752 536.387 221.237 536.999 220.874C537.611 220.5 538.314 220.313 539.107 220.313C539.889 220.313 540.546 220.477 541.079 220.806C541.612 221.135 542.02 221.605 542.303 222.217C542.586 222.818 542.728 223.532 542.728 224.359V224.869H536.115V224.002H541.827L541.538 224.223C541.538 223.316 541.334 222.608 540.926 222.098C540.518 221.588 539.912 221.333 539.107 221.333C538.257 221.333 537.594 221.633 537.118 222.234C536.642 222.823 536.404 223.622 536.404 224.631V224.784C536.404 225.849 536.665 226.66 537.186 227.215C537.719 227.759 538.461 228.031 539.413 228.031C539.923 228.031 540.399 227.957 540.841 227.81C541.294 227.651 541.725 227.396 542.133 227.045L542.609 228.014C542.235 228.377 541.759 228.66 541.181 228.864C540.614 229.057 540.014 229.153 539.379 229.153ZM548.626 229.153C547.289 229.153 546.235 228.768 545.464 227.997C544.694 227.215 544.308 226.133 544.308 224.75C544.308 223.855 544.478 223.078 544.818 222.421C545.158 221.752 545.634 221.237 546.246 220.874C546.858 220.5 547.561 220.313 548.354 220.313C549.136 220.313 549.794 220.477 550.326 220.806C550.859 221.135 551.267 221.605 551.55 222.217C551.834 222.818 551.975 223.532 551.975 224.359V224.869H545.362V224.002H551.074L550.785 224.223C550.785 223.316 550.581 222.608 550.173 222.098C549.765 221.588 549.159 221.333 548.354 221.333C547.504 221.333 546.841 221.633 546.365 222.234C545.889 222.823 545.651 223.622 545.651 224.631V224.784C545.651 225.849 545.912 226.66 546.433 227.215C546.966 227.759 547.708 228.031 548.66 228.031C549.17 228.031 549.646 227.957 550.088 227.81C550.542 227.651 550.972 227.396 551.38 227.045L551.856 228.014C551.482 228.377 551.006 228.66 550.428 228.864C549.862 229.057 549.261 229.153 548.626 229.153ZM555.497 225.872V225.379C555.497 224.801 555.605 224.263 555.82 223.764C556.047 223.254 556.444 222.682 557.01 222.047C557.452 221.56 557.764 221.135 557.945 220.772C558.127 220.398 558.217 220.018 558.217 219.633C558.217 219.146 558.042 218.766 557.69 218.494C557.339 218.211 556.852 218.069 556.228 218.069C555.786 218.069 555.361 218.131 554.953 218.256C554.545 218.369 554.154 218.528 553.78 218.732V217.457C554.154 217.264 554.562 217.117 555.004 217.015C555.458 216.913 555.911 216.862 556.364 216.862C557.01 216.862 557.577 216.97 558.064 217.185C558.552 217.389 558.931 217.689 559.203 218.086C559.487 218.471 559.628 218.947 559.628 219.514C559.628 219.877 559.572 220.228 559.458 220.568C559.345 220.897 559.169 221.231 558.931 221.571C558.693 221.9 558.387 222.262 558.013 222.659C557.458 223.226 557.067 223.724 556.84 224.155C556.614 224.574 556.478 225.005 556.432 225.447L556.381 225.872H555.497ZM555.055 229V227.266H556.806V229H555.055Z" fill="#6D737A"/>
<rect x="329" y="239" width="53" height="39" rx="6" fill="#EEEEEE"/>
<path d="M363.75 254.667H364.958C366.24 254.667 367.47 255.176 368.376 256.082C369.282 256.989 369.792 258.218 369.792 259.5C369.792 260.782 369.282 262.011 368.376 262.918C367.47 263.824 366.24 264.333 364.958 264.333H363.75" stroke="#B2B2B2" stroke-width="2" stroke-linecap="round" stroke-linejoin="round"/>
<path d="M344.417 254.667H363.75V265.542C363.75 266.823 363.241 268.053 362.335 268.959C361.428 269.866 360.199 270.375 358.917 270.375H349.25C347.968 270.375 346.739 269.866 345.833 268.959C344.926 268.053 344.417 266.823 344.417 265.542V254.667Z" stroke="#B2B2B2" stroke-width="2" stroke-linecap="round" stroke-linejoin="round"/>
<path d="M349.25 246.208V249.833" stroke="#B2B2B2" stroke-width="2" stroke-linecap="round" stroke-linejoin="round"/>
<path d="M354.083 246.208V249.833" stroke="#B2B2B2" stroke-width="2" stroke-linecap="round" stroke-linejoin="round"/>
<path d="M358.917 246.208V249.833" stroke="#B2B2B2" stroke-width="2" stroke-linecap="round" stroke-linejoin="round"/>
<rect x="388" y="239" width="53" height="39" rx="6" fill="#EEEEEE"/>
<path d="M422.75 254.667H423.958C425.24 254.667 426.47 255.176 427.376 256.082C428.282 256.989 428.792 258.218 428.792 259.5C428.792 260.782 428.282 262.011 427.376 262.918C426.47 263.824 425.24 264.333 423.958 264.333H422.75" stroke="#B2B2B2" stroke-width="2" stroke-linecap="round" stroke-linejoin="round"/>
<path d="M403.417 254.667H422.75V265.542C422.75 266.823 422.241 268.053 421.335 268.959C420.428 269.866 419.199 270.375 417.917 270.375H408.25C406.968 270.375 405.739 269.866 404.833 268.959C403.926 268.053 403.417 266.823 403.417 265.542V254.667Z" stroke="#B2B2B2" stroke-width="2" stroke-linecap="round" stroke-linejoin="round"/>
<path d="M408.25 246.208V249.833" stroke="#B2B2B2" stroke-width="2" stroke-linecap="round" stroke-linejoin="round"/>
<path d="M413.083 246.208V249.833" stroke="#B2B2B2" stroke-width="2" stroke-linecap="round" stroke-linejoin="round"/>
<path d="M417.917 246.208V249.833" stroke="#B2B2B2" stroke-width="2" stroke-linecap="round" stroke-linejoin="round"/>
<rect x="447" y="240" width="53" height="39" rx="6" fill="#EEEEEE"/>
<path d="M481.75 255.667H482.958C484.24 255.667 485.47 256.176 486.376 257.082C487.282 257.989 487.792 259.218 487.792 260.5C487.792 261.782 487.282 263.011 486.376 263.918C485.47 264.824 484.24 265.333 482.958 265.333H481.75" stroke="#B2B2B2" stroke-width="2" stroke-linecap="round" stroke-linejoin="round"/>
<path d="M462.417 255.667H481.75V266.542C481.75 267.823 481.241 269.053 480.335 269.959C479.428 270.866 478.199 271.375 476.917 271.375H467.25C465.968 271.375 464.739 270.866 463.833 269.959C462.926 269.053 462.417 267.823 462.417 266.542V255.667Z" stroke="#B2B2B2" stroke-width="2" stroke-linecap="round" stroke-linejoin="round"/>
<path d="M467.25 247.208V250.833" stroke="#B2B2B2" stroke-width="2" stroke-linecap="round" stroke-linejoin="round"/>
<path d="M472.083 247.208V250.833" stroke="#B2B2B2" stroke-width="2" stroke-linecap="round" stroke-linejoin="round"/>
<path d="M476.917 247.208V250.833" stroke="#B2B2B2" stroke-width="2" stroke-linecap="round" stroke-linejoin="round"/>
<rect x="506" y="241" width="53" height="39" rx="6" fill="#EEEEEE"/>
<path d="M540.75 256.667H541.958C543.24 256.667 544.47 257.176 545.376 258.082C546.282 258.989 546.792 260.218 546.792 261.5C546.792 262.782 546.282 264.011 545.376 264.918C544.47 265.824 543.24 266.333 541.958 266.333H540.75" stroke="#B2B2B2" stroke-width="2" stroke-linecap="round" stroke-linejoin="round"/>
<path d="M521.417 256.667H540.75V267.542C540.75 268.823 540.241 270.053 539.335 270.959C538.428 271.866 537.199 272.375 535.917 272.375H526.25C524.968 272.375 523.739 271.866 522.833 270.959C521.926 270.053 521.417 268.823 521.417 267.542V256.667Z" stroke="#B2B2B2" stroke-width="2" stroke-linecap="round" stroke-linejoin="round"/>
<path d="M526.25 248.208V251.833" stroke="#B2B2B2" stroke-width="2" stroke-linecap="round" stroke-linejoin="round"/>
<path d="M531.083 248.208V251.833" stroke="#B2B2B2" stroke-width="2" stroke-linecap="round" stroke-linejoin="round"/>
<path d="M535.917 248.208V251.833" stroke="#B2B2B2" stroke-width="2" stroke-linecap="round" stroke-linejoin="round"/>
<g filter="url(#filter1_d_1035_10)">
<path d="M149.767 20.0736C136.089 24.3088 128.434 38.8303 132.669 52.5082C136.904 66.1861 151.426 73.8409 165.104 69.6057C169.525 68.2366 173.317 65.7926 176.282 62.6497C177.799 61.0415 197.297 77.4231 198.354 75.4993C199.301 73.7758 181.855 53.7729 182.392 51.8726C183.709 47.2162 183.739 42.138 182.201 37.1711C177.966 23.4932 163.445 15.8384 149.767 20.0736Z" fill="white"/>
<path d="M149.915 20.5512C136.5 24.7048 128.993 38.9462 133.147 52.3603C137.3 65.7744 151.542 73.2816 164.956 69.1281C169.293 67.7851 173.011 65.3885 175.918 62.3066C176.187 62.0219 176.57 62.018 176.836 62.0548C177.128 62.0949 177.463 62.2074 177.819 62.3591C178.536 62.665 179.453 63.1822 180.486 63.8249C182.559 65.1136 185.184 66.9598 187.778 68.7838L187.779 68.7841C190.381 70.6142 192.951 72.4214 194.936 73.6521C195.933 74.2697 196.757 74.7268 197.354 74.9708C197.567 75.058 197.732 75.1098 197.853 75.1357C197.851 75.1306 197.85 75.1255 197.848 75.1202C197.786 74.923 197.665 74.6512 197.478 74.3043C197.107 73.6145 196.518 72.7031 195.774 71.6333C194.288 69.4972 192.22 66.7855 190.13 64.0562C189.995 63.8797 189.86 63.7031 189.724 63.5266C187.774 60.9798 185.837 58.4507 184.386 56.4136C183.611 55.3256 182.966 54.3663 182.53 53.6132C182.313 53.2379 182.139 52.8996 182.028 52.6139C181.972 52.471 181.927 52.3287 181.902 52.1931C181.878 52.0641 181.865 51.9006 181.911 51.7365C183.203 47.1703 183.232 42.1909 181.724 37.319C177.57 23.9049 163.329 16.3977 149.915 20.5512ZM198.041 75.1558C198.041 75.1558 198.039 75.1559 198.037 75.1563C198.04 75.1561 198.041 75.1559 198.041 75.1558ZM197.892 75.3278C197.891 75.3295 197.891 75.3304 197.891 75.3304C197.892 75.3305 197.892 75.3296 197.892 75.3278Z" stroke="#9B9B9B"/>
</g>
<path d="M168.002 40H162V34.026C162 32.907 161.093 32 159.974 32C159.359 32 158.776 32.28 158.392 32.76L151 42H151.001H151V52L154 54H166.473C167.365 54 168.149 53.408 168.394 52.549L170.884 43.824C171.43 41.908 169.993 40 168.002 40Z" stroke="#E541ED" stroke-width="2" stroke-miterlimit="10" stroke-linecap="round" stroke-linejoin="round"/>
<path d="M151 40H145V54H151V40Z" stroke="#E541ED" stroke-width="2" stroke-miterlimit="10" stroke-linecap="round" stroke-linejoin="round"/>
<path d="M148 51C148.552 51 149 50.5523 149 50C149 49.4477 148.552 49 148 49C147.448 49 147 49.4477 147 50C147 50.5523 147.448 51 148 51Z" fill="#E541ED"/>
<defs>
<filter id="filter0_d_1035_10" x="304" y="152.265" width="290" height="151.235" filterUnits="userSpaceOnUse" color-interpolation-filters="sRGB">
<feFlood flood-opacity="0" result="BackgroundImageFix"/>
<feColorMatrix in="SourceAlpha" type="matrix" values="0 0 0 0 0 0 0 0 0 0 0 0 0 0 0 0 0 0 127 0" result="hardAlpha"/>
<feOffset dy="4"/>
<feGaussianBlur stdDeviation="2"/>
<feComposite in2="hardAlpha" operator="out"/>
<feColorMatrix type="matrix" values="0 0 0 0 0 0 0 0 0 0 0 0 0 0 0 0 0 0 0.25 0"/>
<feBlend mode="normal" in2="BackgroundImageFix" result="effect1_dropShadow_1035_10"/>
<feBlend mode="normal" in="SourceGraphic" in2="effect1_dropShadow_1035_10" result="shape"/>
</filter>
<filter id="filter1_d_1035_10" x="127.502" y="18.9067" width="74.8896" height="64.75" filterUnits="userSpaceOnUse" color-interpolation-filters="sRGB">
<feFlood flood-opacity="0" result="BackgroundImageFix"/>
<feColorMatrix in="SourceAlpha" type="matrix" values="0 0 0 0 0 0 0 0 0 0 0 0 0 0 0 0 0 0 127 0" result="hardAlpha"/>
<feOffset dy="4"/>
<feGaussianBlur stdDeviation="2"/>
<feComposite in2="hardAlpha" operator="out"/>
<feColorMatrix type="matrix" values="0 0 0 0 0 0 0 0 0 0 0 0 0 0 0 0 0 0 0.25 0"/>
<feBlend mode="normal" in2="BackgroundImageFix" result="effect1_dropShadow_1035_10"/>
<feBlend mode="normal" in="SourceGraphic" in2="effect1_dropShadow_1035_10" result="shape"/>
</filter>
<linearGradient id="paint0_linear_1035_10" x1="270.443" y1="81.3025" x2="258.431" y2="81.6901" gradientUnits="userSpaceOnUse">
<stop stop-color="#9B6335"/>
<stop offset="0.2998" stop-color="#996134"/>
<stop offset="0.4756" stop-color="#905A31"/>
<stop offset="0.6194" stop-color="#824D2C"/>
<stop offset="0.746" stop-color="#6E3C25"/>
<stop offset="0.8611" stop-color="#54251C"/>
<stop offset="0.9665" stop-color="#350A11"/>
<stop offset="1" stop-color="#29000D"/>
</linearGradient>
</defs>
</svg>
