<svg width="679" height="367" viewBox="0 0 679 367" fill="none" xmlns="http://www.w3.org/2000/svg">
<rect x="0.5" y="0.5" width="678" height="366" rx="19.5" fill="white" stroke="#CDCDCD"/>
<path d="M245 346C332.261 346 403 275.261 403 188C403 100.739 332.261 30 245 30C157.739 30 87 100.739 87 188C87 275.261 157.739 346 245 346Z" fill="#EEEEEE"/>
<path d="M441.948 260.515H438.632L438.425 334.659H441.948V260.515Z" fill="#9E7657"/>
<path d="M447.566 268.459H445.355L443.605 339.471H446.369L447.566 268.459Z" fill="#9E7657"/>
<path d="M441.948 260.515H441.073L440.336 334.659H441.948V260.515Z" fill="#896146"/>
<path d="M447.566 268.459H446.922L444.826 339.471H446.369L447.566 268.459Z" fill="#896146"/>
<path d="M434.856 286.419H432.53L433.267 334.659H435.984L434.856 286.419Z" fill="#9E7657"/>
<path d="M434.856 286.419H434.073L434.58 334.659H435.984L434.856 286.419Z" fill="#896146"/>
<path d="M440.589 233.483C440.589 233.483 430.78 204.632 449.477 197.194C449.477 197.194 451.135 196.941 449.777 197.632C449.777 197.632 438.448 205.806 443.629 232.078L440.589 233.483Z" fill="#4F8509"/>
<path d="M459.516 329.777L439.323 329.8L419.129 329.777C419.129 329.777 418.968 344.997 429.79 365.191H449.523C460.207 345.113 459.516 329.777 459.516 329.777Z" fill="#F2ECE1"/>
<path d="M459.517 329.777L439.323 329.8L419.359 329.777C421.432 330.883 425.807 332.172 445.77 333.968C459.056 335.165 453.967 363.994 429.629 365.145C435.639 365.56 449.523 365.214 449.523 365.214C460.207 345.113 459.517 329.777 459.517 329.777Z" fill="#D8C3B0"/>
<path d="M455.28 339.701C455.28 339.701 453.322 339.793 450.375 339.862C448.901 339.885 447.174 339.908 445.332 339.954C443.49 339.977 441.533 339.977 439.553 340C437.596 339.977 435.615 339.977 433.773 339.954C431.931 339.931 430.204 339.885 428.731 339.862C425.783 339.793 423.826 339.701 423.826 339.701C423.826 339.701 425.783 339.609 428.731 339.54C430.204 339.517 431.931 339.494 433.773 339.448C435.615 339.425 437.573 339.425 439.553 339.402C441.51 339.425 443.49 339.425 445.332 339.448C447.174 339.471 448.901 339.517 450.375 339.54C453.322 339.632 455.28 339.701 455.28 339.701Z" fill="#D8C3B0"/>
<path d="M454.819 345.666C454.819 345.666 453.483 345.758 451.457 345.827C450.444 345.85 449.27 345.896 448.003 345.919C446.737 345.942 445.401 345.942 444.043 345.965C442.707 345.942 441.349 345.942 440.082 345.919C438.816 345.919 437.642 345.85 436.628 345.827C434.602 345.758 433.267 345.666 433.267 345.666C433.267 345.666 434.602 345.573 436.628 345.504C437.642 345.481 438.816 345.435 440.082 345.412C441.349 345.389 442.684 345.389 444.043 345.366C445.378 345.389 446.737 345.389 448.003 345.412C449.27 345.412 450.444 345.481 451.457 345.504C453.483 345.573 454.819 345.666 454.819 345.666Z" fill="#D8C3B0"/>
<path d="M452.562 352.297C452.562 352.297 450.95 352.389 448.533 352.458C447.335 352.481 445.908 352.504 444.411 352.55C442.891 352.573 441.28 352.573 439.691 352.596C438.079 352.573 436.467 352.573 434.97 352.55C433.451 352.55 432.046 352.481 430.849 352.458C428.431 352.389 426.819 352.297 426.819 352.297C426.819 352.297 428.431 352.205 430.849 352.136C432.046 352.113 433.474 352.067 434.97 352.044C436.49 352.021 438.102 352.021 439.691 351.998C441.303 352.021 442.914 352.021 444.411 352.044C445.931 352.067 447.335 352.113 448.533 352.136C450.95 352.205 452.562 352.297 452.562 352.297Z" fill="#D8C3B0"/>
<path d="M449.016 358.56C449.016 358.56 448.095 358.652 446.691 358.721C445.286 358.79 443.421 358.836 441.556 358.836C439.691 358.836 437.826 358.79 436.421 358.721C435.017 358.652 434.096 358.56 434.096 358.56C434.096 358.56 435.017 358.468 436.421 358.399C437.826 358.33 439.691 358.284 441.556 358.284C443.421 358.284 445.286 358.33 446.691 358.399C448.095 358.468 449.016 358.56 449.016 358.56Z" fill="#D8C3B0"/>
<path d="M437.78 334.452C437.78 334.452 436.859 334.544 435.455 334.613C434.05 334.682 432.185 334.728 430.32 334.728C428.455 334.728 426.59 334.682 425.185 334.613C423.78 334.544 422.859 334.452 422.859 334.452C422.859 334.452 423.78 334.36 425.185 334.29C426.59 334.221 428.455 334.175 430.32 334.175C432.185 334.175 434.05 334.221 435.455 334.29C436.859 334.36 437.78 334.452 437.78 334.452Z" fill="#D8C3B0"/>
<path d="M439.323 332.011L459.493 331.988C459.562 330.56 459.516 329.777 459.516 329.777L439.323 329.8L419.129 329.777C419.129 329.777 419.175 330.56 419.336 331.988L439.323 332.011Z" fill="#C4A891"/>
<path d="M432.599 288.538C432.599 288.538 430.941 271.821 417.356 273.294C417.356 273.294 413.441 274.123 408.468 277.6C408.468 277.6 410.724 271.015 418.047 268.39C430.55 263.923 435.385 275.321 433.819 288.538H432.599Z" fill="#4F8509"/>
<path d="M440.819 267.838C440.819 267.838 446.737 245.502 430.458 215.315C430.458 215.315 429.721 256.44 439.162 269.15C440.037 271.614 440.819 267.838 440.819 267.838Z" fill="#4F8509"/>
<path d="M441.418 241.933C441.418 241.933 446.069 218.378 437.158 193.487C437.158 193.487 434.28 231.963 439.99 242.762C440.382 244.719 441.418 241.933 441.418 241.933Z" fill="#619E19"/>
<path d="M432.415 275.252C432.415 275.252 424.586 245.802 404.899 249.992C404.899 249.992 403.379 250.706 404.899 250.522C404.899 250.522 418.853 251.052 429.122 275.781L432.415 275.252Z" fill="#619E19"/>
<path d="M445.195 269.38C445.195 269.38 438.609 248.519 452.678 219.253C452.678 219.253 455.211 258.121 446.83 270.578C446.093 272.926 445.195 269.38 445.195 269.38Z" fill="#4F8509"/>
<path d="M449.155 256.785C449.155 256.785 456.984 227.358 476.671 231.526C476.671 231.526 478.191 232.24 476.671 232.056C476.671 232.056 462.718 232.585 452.448 257.315L449.155 256.785Z" fill="#619E19"/>
<path d="M405.751 249.854C423.665 248.426 430.872 275.436 430.872 275.436L429.099 275.712C429.099 275.735 429.122 275.735 429.122 275.758L432.415 275.229C432.415 275.252 424.793 246.722 405.751 249.854Z" fill="#4F8509"/>
<path d="M435.224 288.308C435.224 288.308 441.809 267.446 427.74 238.18C427.74 238.18 425.207 277.048 433.589 289.505C434.303 291.831 435.224 288.308 435.224 288.308Z" fill="#619E19"/>
<path d="M427.741 238.18C427.741 238.18 427.718 238.618 427.672 239.355C439.553 267.538 433.244 287.179 432.853 288.308C433.083 288.722 433.336 289.137 433.567 289.505C434.303 291.854 435.201 288.308 435.201 288.308C435.201 288.308 441.81 267.423 427.741 238.18Z" fill="#4F8509"/>
<path d="M437.159 193.464C437.159 193.464 437.113 194.201 437.021 195.467C443.261 216.743 440.152 236.315 439.254 241.012C439.484 241.634 439.738 242.21 439.991 242.716C440.382 244.673 441.418 241.887 441.418 241.887C441.418 241.887 446.07 218.378 437.159 193.464Z" fill="#4F8509"/>
<path d="M440.29 260.515C440.29 260.515 435.201 236.591 451.481 206.427C451.481 206.427 451.389 249.14 441.948 261.851C441.073 264.291 440.29 260.515 440.29 260.515Z" fill="#619E19"/>
<path d="M451.227 206.888C450.858 213.588 448.579 247.782 440.151 259.801C440.22 260.262 440.29 260.515 440.29 260.515C440.29 260.515 441.072 264.291 441.97 261.851C451.411 249.14 451.503 206.427 451.503 206.427C451.388 206.588 451.319 206.727 451.227 206.888Z" fill="#4F8509"/>
<path d="M476.671 231.526C476.579 231.502 476.51 231.503 476.441 231.479C474.3 231.618 461.773 233.345 451.159 255.334L449.685 255.012C449.316 256.117 449.155 256.785 449.155 256.785L452.448 257.315C462.718 232.585 476.671 232.055 476.671 232.055C478.191 232.239 476.671 231.526 476.671 231.526Z" fill="#4F8509"/>
<path d="M463.063 254.39C463.063 254.39 466.977 255.219 471.951 258.696C471.951 258.696 469.695 252.111 462.372 249.486C449.869 245.019 446.784 262.242 446.6 269.633C454.544 267.999 449.455 252.894 463.063 254.39Z" fill="#619E19"/>
<path d="M471.145 256.992C471.306 257.338 471.375 257.545 471.375 257.545C466.402 254.068 462.487 253.239 462.487 253.239C449.294 251.788 453.646 265.926 446.669 268.252C446.646 268.735 446.623 269.196 446.6 269.61C454.544 267.976 449.478 252.894 463.063 254.367C463.063 254.367 466.977 255.196 471.951 258.673C471.928 258.696 471.698 258.005 471.145 256.992Z" fill="#4F8509"/>
<path d="M80.0983 330.007H73.7432V365.352H80.0983V330.007Z" fill="#995969"/>
<path d="M367.6 330.007H361.245V365.352H367.6V330.007Z" fill="#995969"/>
<path d="M367.599 330.099H73.6738V334.014H367.599V330.099Z" fill="#874757"/>
<path d="M80.0761 330.007H78.4873V365.352H80.0761V330.007Z" fill="#874757"/>
<path d="M367.577 330.007H365.988V365.352H367.577V330.007Z" fill="#874757"/>
<path d="M375.359 227.173H73.6738V330.007H375.359V227.173Z" fill="#F0DBB2"/>
<path d="M351.413 250.153H91.6348V312.461H351.413V250.153Z" fill="#DDC39E"/>
<path d="M91.6345 227.173H69.2764V330.007H91.6345V227.173Z" fill="#FFFACF"/>
<path d="M374.002 227.173H351.644V330.007H374.002V227.173Z" fill="#FFFACF"/>
<path d="M374.001 312.484H73.6738V330.007H374.001V312.484Z" fill="#FFFACF"/>
<path d="M349.226 272.626C349.226 274.422 347.844 275.896 346.117 275.896H96.9308C95.2269 275.896 93.8223 274.445 93.8223 272.626V200.003C93.8223 191.46 100.408 184.529 108.513 184.529H334.512C342.617 184.529 349.203 191.46 349.203 200.003V272.626H349.226Z" fill="#FFFACF"/>
<path d="M345.334 189.549V261.759C345.334 263.555 343.998 265.028 342.34 265.028H311.923L310.956 263.624L309.989 265.005H276.141L275.174 263.624L274.207 265.005H241.073L239.415 263.624L238.448 264.821H204.6L203.632 263.624L202.665 264.821H168.817L167.85 263.624L166.883 264.821H133.035L132.068 263.624L131.101 264.706H100.684C99.0257 264.706 97.6902 263.255 97.6902 261.436V189.526C95.2725 192.289 93.7988 195.951 93.7988 200.003V272.627C93.7988 274.423 95.1804 275.896 96.9073 275.896H346.117C347.821 275.896 349.225 274.446 349.225 272.627V200.003C349.225 195.974 347.729 192.312 345.334 189.549Z" fill="#F0DEB3"/>
<path d="M334.534 184.529H108.535C100.43 184.529 93.8447 191.46 93.8447 200.003V272.626C93.8447 273.962 94.6046 275.113 95.7098 275.62V201.407C95.7098 193.256 101.973 186.648 109.71 186.648H333.107C340.844 186.648 347.107 193.256 347.107 201.407V275.712C348.327 275.274 349.225 274.077 349.225 272.626V200.003C349.225 191.46 342.64 184.529 334.534 184.529Z" fill="#FFFFE1"/>
<path d="M349.226 307.142C349.226 308.846 347.844 310.251 346.117 310.251H96.9308C95.2269 310.251 93.8223 308.869 93.8223 307.142V277.277C93.8223 275.574 95.2038 274.169 96.9308 274.169H346.117C347.821 274.169 349.226 275.551 349.226 277.277V307.142Z" fill="#FFFACF"/>
<path d="M346.117 274.169H96.9308C95.2269 274.169 93.8223 275.551 93.8223 277.277V279.925C93.8223 278.222 95.2038 276.817 96.9308 276.817H346.117C347.821 276.817 349.226 278.198 349.226 279.925V277.277C349.226 275.551 347.821 274.169 346.117 274.169Z" fill="#FFFFE1"/>
<path d="M167.712 191.138C167.712 191.138 165.916 217.571 167.712 270.462C167.712 270.462 170.245 234.15 167.712 191.138Z" fill="#F0DEB3"/>
<path d="M203.471 191.138C203.471 191.138 201.675 217.571 203.471 270.462C203.471 270.462 206.004 234.15 203.471 191.138Z" fill="#F0DEB3"/>
<path d="M239.253 191.138C239.253 191.138 237.457 217.571 239.253 270.462C239.253 270.462 241.763 234.15 239.253 191.138Z" fill="#F0DEB3"/>
<path d="M275.013 191.138C275.013 191.138 273.217 217.571 275.013 270.462C275.013 270.462 277.546 234.15 275.013 191.138Z" fill="#F0DEB3"/>
<path d="M131.93 191.138C131.93 191.138 130.134 217.571 131.93 270.462C131.93 270.462 134.463 234.15 131.93 191.138Z" fill="#F0DEB3"/>
<path d="M310.772 191.138C310.772 191.138 308.976 217.571 310.772 270.462C310.772 270.462 313.305 234.15 310.772 191.138Z" fill="#F0DEB3"/>
<path d="M347.268 216.835C347.268 216.835 263.453 215.039 95.6865 216.835C95.6865 216.835 210.885 219.368 347.268 216.835Z" fill="#F0DEB3"/>
<path d="M347.268 249.692C347.268 249.692 263.453 247.896 95.6865 249.692C95.6865 249.692 210.885 252.202 347.268 249.692Z" fill="#F0DEB3"/>
<g opacity="0.2">
<path d="M124.446 217.134C124.446 217.134 132.091 216.005 132.091 209.236V217.134H124.446Z" fill="#F0C49D"/>
<path d="M139.758 217.134C139.758 217.134 132.113 216.005 132.113 209.236V217.134H139.758Z" fill="#F0C49D"/>
<path d="M124.446 217.134C124.446 217.134 132.091 218.262 132.091 225.032V217.134H124.446Z" fill="#F0C49D"/>
<path d="M139.758 217.134C139.758 217.134 132.113 218.262 132.113 225.032V217.134H139.758Z" fill="#F0C49D"/>
</g>
<g opacity="0.2">
<path d="M160.229 217.134C160.229 217.134 167.873 216.005 167.873 209.236V217.134H160.229Z" fill="#F0C49D"/>
<path d="M175.518 217.134C175.518 217.134 167.873 216.005 167.873 209.236V217.134H175.518Z" fill="#F0C49D"/>
<path d="M160.229 217.134C160.229 217.134 167.873 218.262 167.873 225.032V217.134H160.229Z" fill="#F0C49D"/>
<path d="M175.518 217.134C175.518 217.134 167.873 218.262 167.873 225.032V217.134H175.518Z" fill="#F0C49D"/>
</g>
<g opacity="0.2">
<path d="M195.987 217.134C195.987 217.134 203.632 216.005 203.632 209.236V217.134H195.987Z" fill="#F0C49D"/>
<path d="M211.3 217.134C211.3 217.134 203.655 216.005 203.655 209.236V217.134H211.3Z" fill="#F0C49D"/>
<path d="M195.987 217.134C195.987 217.134 203.632 218.262 203.632 225.032V217.134H195.987Z" fill="#F0C49D"/>
<path d="M211.3 217.134C211.3 217.134 203.655 218.262 203.655 225.032V217.134H211.3Z" fill="#F0C49D"/>
</g>
<g opacity="0.2">
<path d="M231.747 217.134C231.747 217.134 239.392 216.005 239.392 209.236V217.134H231.747Z" fill="#F0C49D"/>
<path d="M247.06 217.134C247.06 217.134 239.415 216.005 239.415 209.236V217.134H247.06Z" fill="#F0C49D"/>
<path d="M231.747 217.134C231.747 217.134 239.392 218.262 239.392 225.032V217.134H231.747Z" fill="#F0C49D"/>
<path d="M247.06 217.134C247.06 217.134 239.415 218.262 239.415 225.032V217.134H247.06Z" fill="#F0C49D"/>
</g>
<g opacity="0.2">
<path d="M267.529 217.134C267.529 217.134 275.174 216.005 275.174 209.236V217.134H267.529Z" fill="#F0C49D"/>
<path d="M282.818 217.134C282.818 217.134 275.174 216.005 275.174 209.236V217.134H282.818Z" fill="#F0C49D"/>
<path d="M267.529 217.134C267.529 217.134 275.174 218.262 275.174 225.032V217.134H267.529Z" fill="#F0C49D"/>
<path d="M282.818 217.134C282.818 217.134 275.174 218.262 275.174 225.032V217.134H282.818Z" fill="#F0C49D"/>
</g>
<g opacity="0.2">
<path d="M303.289 217.134C303.289 217.134 310.934 216.006 310.934 209.236V217.134H303.289Z" fill="#F0C49D"/>
<path d="M318.602 217.134C318.602 217.134 310.957 216.006 310.957 209.236V217.134H318.602Z" fill="#F0C49D"/>
<path d="M303.289 217.134C303.289 217.134 310.934 218.263 310.934 225.032V217.134H303.289Z" fill="#F0C49D"/>
<path d="M318.602 217.134C318.602 217.134 310.957 218.263 310.957 225.032V217.134H318.602Z" fill="#F0C49D"/>
</g>
<g opacity="0.2">
<path d="M124.446 249.853C124.446 249.853 132.091 248.725 132.091 241.956V249.853H124.446Z" fill="#F0C49D"/>
<path d="M139.758 249.853C139.758 249.853 132.113 248.725 132.113 241.956V249.853H139.758Z" fill="#F0C49D"/>
<path d="M124.446 249.854C124.446 249.854 132.091 250.982 132.091 257.751V249.854H124.446Z" fill="#F0C49D"/>
<path d="M139.758 249.854C139.758 249.854 132.113 250.982 132.113 257.751V249.854H139.758Z" fill="#F0C49D"/>
</g>
<g opacity="0.2">
<path d="M160.229 249.853C160.229 249.853 167.873 248.725 167.873 241.956V249.853H160.229Z" fill="#F0C49D"/>
<path d="M175.518 249.853C175.518 249.853 167.873 248.725 167.873 241.956V249.853H175.518Z" fill="#F0C49D"/>
<path d="M160.229 249.854C160.229 249.854 167.873 250.982 167.873 257.751V249.854H160.229Z" fill="#F0C49D"/>
<path d="M175.518 249.854C175.518 249.854 167.873 250.982 167.873 257.751V249.854H175.518Z" fill="#F0C49D"/>
</g>
<g opacity="0.2">
<path d="M195.987 249.853C195.987 249.853 203.632 248.725 203.632 241.956V249.853H195.987Z" fill="#F0C49D"/>
<path d="M211.3 249.853C211.3 249.853 203.655 248.725 203.655 241.956V249.853H211.3Z" fill="#F0C49D"/>
<path d="M195.987 249.854C195.987 249.854 203.632 250.982 203.632 257.751V249.854H195.987Z" fill="#F0C49D"/>
<path d="M211.3 249.854C211.3 249.854 203.655 250.982 203.655 257.751V249.854H211.3Z" fill="#F0C49D"/>
</g>
<g opacity="0.2">
<path d="M231.747 249.853C231.747 249.853 239.392 248.725 239.392 241.956V249.853H231.747Z" fill="#F0C49D"/>
<path d="M247.06 249.853C247.06 249.853 239.415 248.725 239.415 241.956V249.853H247.06Z" fill="#F0C49D"/>
<path d="M231.747 249.854C231.747 249.854 239.392 250.982 239.392 257.751V249.854H231.747Z" fill="#F0C49D"/>
<path d="M247.06 249.854C247.06 249.854 239.415 250.982 239.415 257.751V249.854H247.06Z" fill="#F0C49D"/>
</g>
<g opacity="0.2">
<path d="M267.529 249.853C267.529 249.853 275.174 248.725 275.174 241.956V249.853H267.529Z" fill="#F0C49D"/>
<path d="M282.818 249.853C282.818 249.853 275.174 248.725 275.174 241.956V249.853H282.818Z" fill="#F0C49D"/>
<path d="M267.529 249.854C267.529 249.854 275.174 250.982 275.174 257.751V249.854H267.529Z" fill="#F0C49D"/>
<path d="M282.818 249.854C282.818 249.854 275.174 250.982 275.174 257.751V249.854H282.818Z" fill="#F0C49D"/>
</g>
<g opacity="0.2">
<path d="M303.289 249.854C303.289 249.854 310.934 248.726 310.934 241.956V249.854H303.289Z" fill="#F0C49D"/>
<path d="M318.602 249.854C318.602 249.854 310.957 248.726 310.957 241.956V249.854H318.602Z" fill="#F0C49D"/>
<path d="M303.289 249.854C303.289 249.854 310.934 250.982 310.934 257.752V249.854H303.289Z" fill="#F0C49D"/>
<path d="M318.602 249.854C318.602 249.854 310.957 250.982 310.957 257.752V249.854H318.602Z" fill="#F0C49D"/>
</g>
<path d="M351.643 312.484H91.6348V319.3H351.643V312.484Z" fill="#F0DEB3"/>
<path d="M346.117 302.514H96.9308C95.2269 302.514 93.8223 301.133 93.8223 299.406V307.119C93.8223 308.823 95.2038 310.228 96.9308 310.228H346.117C347.821 310.228 349.226 308.846 349.226 307.119V299.406C349.226 301.133 347.821 302.514 346.117 302.514Z" fill="#F0DEB3"/>
<path d="M188.447 272.239C188.447 272.239 175.323 298.997 212.459 365.051C224.055 367.271 230.814 368.003 245.38 365.051C245.38 365.051 272.22 308.681 267.554 278.581C232.511 252.993 188.447 272.239 188.447 272.239Z" fill="#282828"/>
<path d="M216.249 365.734C216.249 365.734 217.946 363.709 218.285 360.612C218.653 357.514 191.275 322.243 186.523 293.777C186.523 293.777 187.655 320.828 212.459 365.051L216.249 365.734Z" fill="#343436"/>
<path d="M235.254 366.66C235.254 366.66 237.234 360.855 237.63 359.221C239.242 352.732 238.337 320.315 241.929 315.046C245.521 309.802 261.613 301.46 267.977 282.58C267.977 282.58 271.399 310.948 245.379 365.026C245.379 365.05 238.224 366.416 235.254 366.66Z" fill="#343436"/>
<path d="M286.277 182.671C311.505 188.525 318.774 191.919 318.661 199.075C318.435 211.746 297.251 204.534 280.903 201.309C248.944 194.974 250.047 192.711 251.065 183.548C252.083 173.847 252.055 175.402 286.277 182.671Z" fill="#5956E9"/>
<path d="M272.504 220.654L262.718 226.933L264.5 230.299L276.407 225.915L272.504 220.654Z" fill="#F4BE84"/>
<path d="M315.211 206.258C304.435 216.949 278.217 225.745 273.72 227.838L269.025 221.134C269.025 221.134 294.367 198.197 304.435 192.541C311.563 188.553 315.239 191.07 317.247 194.351C318.973 197.151 320.868 200.658 315.211 206.258Z" fill="#3B4CD2"/>
<path d="M269.336 221.588L273.38 227.358L269.816 229.564C269.816 229.564 268.968 228.234 270.58 226.198C267.045 226.877 266.168 223.455 266.168 223.455L269.336 221.588Z" fill="#F9E8CA"/>
<path d="M317.275 194.379C316.823 193.644 316.286 192.937 315.635 192.343C315.692 192.456 315.776 192.541 315.833 192.654C317.53 195.454 319.425 198.933 313.768 204.533C303.106 215.082 277.368 223.822 272.447 226.056L273.72 227.866C278.217 225.773 304.435 216.949 315.211 206.286C320.867 200.658 318.972 197.151 317.275 194.379Z" fill="#3B4CD2"/>
<path d="M252.847 228.942C252.847 228.942 250.924 232.166 250.697 232.845C250.471 233.524 250.726 236.974 251.121 237.087C251.885 237.2 252.055 236.409 251.97 234.005L253.837 230.752L252.847 228.942Z" fill="#E2A36A"/>
<path d="M254.628 231.855C254.628 231.855 253.752 234.797 253.78 235.165C253.808 235.532 255.279 237.427 255.618 237.314C255.986 237.201 257.4 235.561 256.863 235.221C256.608 235.08 256.382 234.118 255.929 233.354C255.392 232.506 254.628 231.855 254.628 231.855Z" fill="#E2A36A"/>
<path d="M253.638 230.498C253.638 230.498 252.422 234.57 252.478 235.334C252.563 236.041 254.232 238.699 254.656 238.728C255.42 238.643 255.109 237.37 253.836 235.306L254.996 232.025L253.638 230.498Z" fill="#E2A36A"/>
<path d="M255.703 233.127C255.703 233.127 255.251 235.39 255.505 235.814C255.76 236.21 257.372 235.927 257.683 235.645C257.966 235.362 258.277 233.919 258.051 233.806C257.825 233.665 255.703 233.127 255.703 233.127Z" fill="#E2A36A"/>
<path d="M256.778 234.768C256.778 234.768 259.352 234.259 264.16 229.989L263.707 228.772C263.707 228.772 254.543 233.722 256.778 234.768Z" fill="#E2A36A"/>
<path d="M262.604 226.622C262.604 226.622 253.469 228.064 252.875 228.941C252.253 229.846 255.618 233.947 256.495 233.947C257.4 233.947 263.877 229.394 263.877 229.394C263.877 229.394 264.471 226.537 262.604 226.622Z" fill="#F4BE84"/>
<path d="M263.334 224.033L260.113 225.559L263.262 232.204L266.482 230.679L263.334 224.033Z" fill="#5956E9"/>
<path d="M263.622 228.998C261.755 229.875 259.719 229.422 259.012 227.952C258.305 226.481 259.266 224.614 261.133 223.738C263 222.861 265.036 223.313 265.743 224.784C266.422 226.226 265.489 228.121 263.622 228.998Z" fill="#525B66"/>
<path d="M263.537 228.715C261.67 229.592 259.634 229.14 258.927 227.669C258.22 226.198 259.181 224.332 261.048 223.455C262.915 222.578 264.951 223.031 265.658 224.501C266.365 225.972 265.375 227.839 263.537 228.715Z" fill="#5956E9"/>
<path d="M263.396 228.433C261.756 229.225 259.917 228.8 259.324 227.499C258.701 226.198 259.55 224.53 261.19 223.766C262.831 222.974 264.669 223.398 265.263 224.699C265.885 225.972 265.037 227.641 263.396 228.433Z" fill="#EFD9B4"/>
<path d="M262.435 226.396C262.208 226.509 261.954 226.453 261.869 226.255C261.784 226.085 261.897 225.83 262.124 225.746C262.35 225.633 262.604 225.689 262.689 225.887C262.774 226.057 262.661 226.311 262.435 226.396Z" fill="#5956E9"/>
<path d="M261.494 224.001L261.161 224.16L261.283 224.416L261.616 224.257L261.494 224.001Z" fill="#5956E9"/>
<path d="M263.223 227.725L262.891 227.884L263.013 228.14L263.346 227.981L263.223 227.725Z" fill="#5956E9"/>
<path d="M265.018 224.848L264.896 224.592L264.563 224.751L264.685 225.007L265.018 224.848Z" fill="#5956E9"/>
<path d="M260.06 227.276L259.938 227.021L259.605 227.18L259.727 227.436L260.06 227.276Z" fill="#5956E9"/>
<path d="M265.018 224.848L264.896 224.592L264.563 224.751L264.685 225.007L265.018 224.848Z" fill="#5956E9"/>
<path d="M260.06 227.276L259.938 227.021L259.605 227.18L259.727 227.436L260.06 227.276Z" fill="#5956E9"/>
<path d="M262.917 223.965H262.576L262.633 223.681L263.002 223.653L262.917 223.965Z" fill="#5956E9"/>
<path d="M261.955 228.434H261.614L261.671 228.122H262.011L261.955 228.434Z" fill="#5956E9"/>
<path d="M264.047 224.304L263.792 224.162L264.018 223.879L264.273 224.021L264.047 224.304Z" fill="#5956E9"/>
<path d="M260.568 228.206L260.313 228.065L260.54 227.811L260.794 227.952L260.568 228.206Z" fill="#5956E9"/>
<path d="M264.697 226.086L264.754 225.802L265.123 225.774L265.038 226.086H264.697Z" fill="#5956E9"/>
<path d="M259.465 226.313L259.55 226.001H259.89L259.834 226.285L259.465 226.313Z" fill="#5956E9"/>
<path d="M264.075 227.16L264.301 226.877L264.556 227.019L264.33 227.302L264.075 227.16Z" fill="#5956E9"/>
<path d="M260.031 225.067L260.258 224.812L260.512 224.925L260.286 225.208L260.031 225.067Z" fill="#5956E9"/>
<path d="M262.462 225.802C262.462 225.802 263.65 225.208 263.763 225.293C263.876 225.378 262.518 226.085 262.518 226.085L262.462 225.802Z" fill="#5956E9"/>
<path d="M262.18 226.198C262.18 226.198 260.54 225.519 260.54 225.378C260.54 225.237 262.35 225.972 262.35 225.972L262.18 226.198Z" fill="#5956E9"/>
<path opacity="0.2" d="M263.227 223.398C262.576 223.342 261.869 223.455 261.19 223.766C259.55 224.558 258.701 226.227 259.324 227.499C259.663 228.235 260.427 228.687 261.303 228.772L263.227 223.398Z" fill="#EFD9B4"/>
<path d="M265.978 229.586L262.758 231.112L263.279 232.211L266.499 230.685L265.978 229.586Z" fill="#525B66"/>
<path d="M265.67 229.107L262.449 230.632L262.582 230.913L265.803 229.388L265.67 229.107Z" fill="#525B66"/>
<path d="M265.474 228.595L262.254 230.121L262.387 230.402L265.608 228.876L265.474 228.595Z" fill="#525B66"/>
<path d="M247.728 235.447C247.728 228.432 259.522 217.317 261.954 208.578C264.386 199.839 260.483 177.552 260.483 177.552C260.483 177.552 239.243 172.63 228.071 173.338C216.899 174.045 190.568 184.849 190.568 184.849C193.707 218.703 215.853 229.733 215.853 236.634C215.853 243.535 194.019 258.723 188.419 273.374C182.819 288.024 268.713 293.483 267.667 281.972C266.677 270.404 247.728 244.186 247.728 235.447Z" fill="#5956E9"/>
<path d="M254.375 251.54C250.387 245.826 247.728 238.586 247.728 235.447C247.728 228.433 259.522 217.317 261.955 208.578C261.955 208.578 257.429 222.097 239.611 224.643C216.787 227.895 209.122 221.843 198.997 212.594C206.435 225.831 215.854 232.081 215.854 236.606C215.854 239.293 210.989 244.639 207.171 249.871C207.171 249.871 226.573 237.992 237.518 237.766C243.91 237.624 250.019 246.194 254.375 251.54Z" fill="#3B4CD2"/>
<path d="M204.285 179.645C204.285 179.645 211.243 199.047 236.839 211.152C236.839 211.152 250.98 194.861 251.828 175.77C251.828 175.77 235.311 172.093 228.127 173.338C217.748 172.97 204.285 179.645 204.285 179.645Z" fill="#F9E8CA"/>
<path d="M215.26 142.934C215.26 142.934 220.548 165.277 212.148 176.449L232.286 185.188L245.013 174.469C245.013 174.469 238.395 177.41 237.773 143.414L215.26 142.934Z" fill="#D69356"/>
<path d="M208.386 175.939L213.561 168.303L228.919 179.474L222.64 189.967L208.386 175.939Z" fill="#FFF4E3"/>
<path d="M234.973 179.249L239.611 188.327L246.371 172.744L241.251 167.144L234.973 179.249Z" fill="#FFF4E3"/>
<path d="M204.285 179.645L209.744 177.297L222.641 189.968L228.919 179.503L232.285 185.217L234.972 179.277L239.639 188.356L245.55 174.724L251.828 175.798C251.828 175.798 252.026 183.633 248.321 191.608L239.073 189.289L237.433 186.659L233.134 190.845L225.865 187.168L222.895 192.089L215.796 185.33L210.083 189.685C210.055 189.657 205.586 183.887 204.285 179.645Z" fill="#EFD9B4"/>
<path d="M236.839 211.123C236.839 211.123 236.952 210.981 237.179 210.727L232.597 184.537L232.314 185.159L232.031 184.678L236.67 211.038C236.726 211.066 236.783 211.123 236.839 211.123Z" fill="#DDC29B"/>
<path d="M231.691 195.087C231.691 195.539 231.324 195.907 230.871 195.907C230.418 195.907 230.051 195.539 230.051 195.087C230.051 194.634 230.418 194.267 230.871 194.267C231.324 194.267 231.691 194.634 231.691 195.087Z" fill="#DDC29B"/>
<path d="M232.54 202.667C232.993 202.667 233.36 202.3 233.36 201.847C233.36 201.394 232.993 201.026 232.54 201.026C232.087 201.026 231.72 201.394 231.72 201.847C231.72 202.3 232.087 202.667 232.54 202.667Z" fill="#DDC29B"/>
<path d="M168.394 214.32C154.196 235.956 151.255 243.451 156.289 248.542C165.198 257.536 175.55 237.738 185.137 224.106C203.917 197.463 204.059 192.825 197.016 186.857C189.578 180.578 188.135 185.443 168.394 214.32Z" fill="#5956E9"/>
<path d="M212.684 287.684L168.846 273.826L186.353 218.448L222.724 229.959L228.975 231.289L212.684 287.684Z" fill="#E5CAA3"/>
<path d="M230.062 232.73L186.217 218.86L168.85 273.761L212.694 287.631L230.062 232.73Z" fill="#EFD9B4"/>
<path d="M230.824 233.736L184.795 219.175L166.976 275.504L213.004 290.065L230.824 233.736Z" fill="#E541ED"/>
<path opacity="0.2" d="M166.951 275.552L184.769 219.212L230.814 233.778C207 243.281 185.533 256.942 166.951 275.552Z" fill="#E541ED"/>
<path d="M216.495 227.309L200.208 222.157L198.792 226.633L215.079 231.786L216.495 227.309Z" fill="#B0C1D1"/>
<path opacity="0.2" d="M215.032 231.855L198.741 226.707L200.155 222.239C200.155 222.239 200.41 226.255 207.085 228.178C213.759 230.13 216.446 227.386 216.446 227.386L215.032 231.855Z" fill="#525B66"/>
<path d="M202.05 224.218C202.05 224.501 201.796 224.727 201.513 224.727C201.23 224.727 201.004 224.473 201.004 224.19C201.004 223.907 201.258 223.681 201.541 223.681C201.824 223.709 202.05 223.935 202.05 224.218Z" fill="#525B66"/>
<path d="M214.693 228.263C214.693 228.546 214.438 228.773 214.156 228.773C213.873 228.773 213.646 228.518 213.646 228.235C213.646 227.952 213.901 227.726 214.184 227.726C214.495 227.754 214.721 227.981 214.693 228.263Z" fill="#525B66"/>
<path d="M214.212 228.489C214.184 228.489 214.156 228.489 214.127 228.461C213.958 228.404 213.873 228.235 213.929 228.065L214.721 225.633L202.588 221.786L201.796 224.247C201.739 224.416 201.57 224.501 201.4 224.445C201.23 224.388 201.145 224.218 201.202 224.049L202.079 221.305C202.135 221.136 202.305 221.051 202.475 221.107L215.202 225.123C215.287 225.152 215.343 225.208 215.372 225.265C215.4 225.35 215.428 225.435 215.4 225.491L214.523 228.235C214.467 228.404 214.354 228.489 214.212 228.489Z" fill="#B0C1D1"/>
<path d="M212.6 263.361C214.24 261.495 215.315 261.297 216.503 260.476C217.974 259.486 218.935 257.987 219.218 258.355C220.83 260.335 215.089 262.004 217.267 263.361C219.133 264.521 224.083 263.785 224.168 264.832C224.281 266.416 220.745 265.822 220.802 266.02C220.83 266.218 223.998 266.246 224.026 267.236C224.083 268.905 220.406 267.321 220.321 267.575C220.265 267.83 223.432 267.943 222.98 269.272C222.612 270.375 220.123 269.018 220.095 269.188C219.982 269.555 222.131 269.668 221.509 270.658C221.198 271.167 220.434 270.969 219.162 270.602C216.39 270.093 213.335 268.084 212.147 266.359C210.79 264.379 212.6 263.361 212.6 263.361Z" fill="#F4BE84"/>
<path d="M221.537 270.205C221.226 270.714 220.462 270.517 219.189 270.149C216.418 269.64 213.929 267.773 213.42 265.737C213.42 265.737 211.666 264.945 211.666 264.549C211.553 265.001 211.61 265.595 212.119 266.331C213.307 268.056 216.361 270.064 219.133 270.573C220.406 270.969 221.169 271.139 221.48 270.63C221.593 270.432 221.593 270.29 221.537 270.149C221.537 270.177 221.537 270.177 221.537 270.205Z" fill="#E2A36A"/>
<path d="M203.663 258.61L214.297 263.277L213.081 266.869L200.637 264.437L203.663 258.61Z" fill="#F4BE84"/>
<path d="M201.202 263.305L200.637 264.436L213.081 266.868L213.477 265.737L201.202 263.305Z" fill="#E2A36A"/>
<path d="M159.23 251.115C171.561 259.968 198.825 264.521 203.605 265.907L207.197 258.554C207.197 258.554 178.547 239.915 167.714 235.899C160.05 233.071 156.797 236.154 155.327 239.717C154.082 242.744 152.753 246.477 159.23 251.115Z" fill="#3B4CD2"/>
<path d="M206.943 259.034L203.86 265.369L207.735 266.982C207.735 266.982 208.386 265.539 206.462 263.786C210.083 263.899 210.365 260.392 210.365 260.392L206.943 259.034Z" fill="#F9E8CA"/>
<path d="M157.704 246.646C156.176 245.459 155.102 244.356 154.31 243.309C154.14 245.572 155.073 248.174 159.203 251.143C171.534 259.996 198.799 264.549 203.578 265.935L204.314 264.408C196.112 262.117 169.894 256.093 157.704 246.646Z" fill="#3B4CD2"/>
<path d="M215.344 91.1763C215.344 91.1763 209.574 80.0329 200.354 82.8612C191.133 85.6895 191.388 94.4006 191.388 94.4006C191.388 94.4006 180.16 93.8349 179.226 105.318C178.265 116.8 181.602 123.447 194.867 127.095C194.867 127.095 191.105 132.667 194.499 137.362C197.893 142.029 204.483 140.077 204.483 140.077L215.344 91.1763Z" fill="#915533"/>
<path d="M192.775 96.5787C192.775 96.5787 184.346 94.6838 181.688 101.698C179.057 108.712 186.863 115.16 198.629 113.124C210.366 111.059 213.166 90.5545 211.187 88.1504C209.207 85.7747 205.36 81.5606 199.591 84.4171C193.849 87.2171 193.51 91.7707 192.775 96.5787Z" fill="#A3643A"/>
<path d="M262.435 113.011C262.435 113.011 264.019 115.217 264.585 116.688C265.292 118.498 267.526 121.75 266.876 125.257C266.31 128.425 259.239 130.15 259.409 131.536C259.579 132.894 263.227 136.966 261.898 139.144C260.569 141.322 257.769 142.085 257.769 142.085C257.769 142.085 260.059 138.324 259.72 136.712C259.381 135.1 257.684 133.205 258.051 131.281C258.419 129.358 262.888 125.427 262.973 122.797C263.057 120.138 260.512 117.112 260.993 112.558C261.445 107.92 262.435 113.011 262.435 113.011Z" fill="#915533"/>
<path d="M263.651 117.96C253.582 131.026 237.292 155.293 220.463 152.493C200.156 149.127 196.649 119.77 202.475 102.263C208.556 83.9638 222.471 79.2689 239.215 82.578C255.93 85.9436 275.784 102.235 263.651 117.96Z" fill="#915533"/>
<path d="M256.75 141.746C252.338 161.403 235.369 169.011 231.522 168.247C227.676 167.483 207.963 156.906 210.367 136.881C213.563 110.239 220.068 93.7785 243.118 98.3886C266.197 102.97 261.756 119.431 256.75 141.746Z" fill="#F4BE84"/>
<path d="M233.898 167.879C230.843 167.285 217.946 156.707 220.209 139.879C223.462 115.527 230.249 99.9437 243.146 98.3881C219.276 92.2225 213.393 111.907 210.395 136.881C207.991 156.877 227.704 167.483 231.55 168.247C232.201 168.36 233.191 168.275 234.435 167.907C234.209 167.907 234.039 167.907 233.898 167.879Z" fill="#E2A36A"/>
<path d="M214.241 132.3C213.619 135.382 210.621 137.39 207.538 136.768C204.455 136.146 202.447 133.148 203.069 130.065C203.691 126.982 206.689 124.974 209.772 125.597C212.855 126.219 214.863 129.217 214.241 132.3Z" fill="#E2A36A"/>
<path d="M261.163 98.6428C261.163 98.6428 270.072 91.2044 258.363 84.2186C239.781 73.1035 219.615 83.2004 219.615 83.2004L261.163 98.6428Z" fill="#915533"/>
<path d="M257.627 105.827C257.627 105.827 255.619 106.986 248.265 104.95C240.912 102.914 233.785 98.6994 230.617 102.008C227.449 105.346 231.324 113.095 229.401 115.782C227.478 118.497 218.286 118.724 217.946 121.326C217.607 123.928 222.811 129.726 220.435 131.451C218.059 133.176 214.241 133.176 213.591 135.75C212.94 138.295 216.221 140.586 217.72 138.889C217.72 138.889 215.429 142.821 212.997 141.208C210.536 139.596 211.045 134.223 212.799 132.922C214.524 131.621 218.342 130.998 217.946 128.679C217.55 126.36 215.797 122.202 216.419 120.336C217.041 118.469 225.187 116.885 225.272 112.445C225.356 108.004 220.463 100.707 226.261 96.6065C232.059 92.5055 264.726 96.6347 257.627 105.827Z" fill="#915533"/>
<path d="M227.054 103.282C214.582 117.904 217.947 128.651 214.299 129.189C211.669 129.585 210.735 123.165 210.735 123.165C210.735 123.165 217.58 95.1646 227.054 95.504C236.529 95.8434 227.054 103.282 227.054 103.282Z" fill="#915533"/>
<path d="M222.133 84.1341C237.236 85.0392 242.44 95.221 254.63 96.4937C258.165 96.8614 260.71 95.9846 261.446 93.5806C263.058 88.2351 258.929 84.1058 250.218 82.0129C241.478 79.92 229.486 80.118 222.133 84.1341Z" fill="#A3643A"/>
<path d="M232.653 95.7299C232.653 95.7299 237.461 91.94 233.304 89.2249C229.118 86.5097 219.784 84.2189 216.532 85.7461C213.308 87.3017 203.861 95.4188 211.893 98.8976C219.926 102.405 231.889 96.6633 232.653 95.7299Z" fill="#A3643A"/>
<path d="M247.727 125.286C247.727 125.286 241.788 129.925 240.968 133.856C240.176 137.787 245.889 143.642 245.889 143.642C245.889 143.642 242.24 146.555 237.263 146.555C237.263 146.555 244.051 149.298 247.388 144.462C247.586 143.529 242.552 139.682 243.343 134.139C244.051 129.302 247.727 125.286 247.727 125.286Z" fill="#D69356"/>
<path d="M239.695 120.845C239.667 121.495 237.122 121.495 233.445 121.382C229.768 121.269 226.318 121.071 226.346 120.421C226.374 119.77 229.825 118.922 233.501 119.035C237.206 119.148 239.724 120.194 239.695 120.845Z" fill="#915533"/>
<path d="M251.631 123.306C251.376 123.928 254.431 125.342 258.9 127.293C261.275 127.972 262.18 126.643 259.861 125.087C255.393 123.136 251.886 122.712 251.631 123.306Z" fill="#915533"/>
<path d="M226.403 129.669C226.403 129.669 228.468 133.77 231.805 134.448C235.143 135.099 236.189 131.564 236.189 131.564C236.189 131.564 236.302 127.83 233.474 127.519C230.674 127.18 226.403 129.669 226.403 129.669Z" fill="#FFE5CC"/>
<path d="M235.398 132.299C235.087 133.826 233.475 134.788 231.806 134.449C230.137 134.109 229.006 132.61 229.317 131.083C229.628 129.556 231.24 128.594 232.909 128.933C234.578 129.273 235.681 130.772 235.398 132.299Z" fill="#794830"/>
<path d="M236.641 132.922C236.641 132.922 234.944 128.85 232.286 128.906C229.033 128.991 225.498 130.122 225.498 130.122L223.264 126.587L226.262 128.114C226.262 128.114 236.585 122.542 236.641 132.922Z" fill="#6B3D2B"/>
<path d="M247.728 134.28C247.728 134.28 248.887 138.098 251.97 138.72C255.053 139.342 256.099 135.581 256.099 135.581C256.099 135.581 256.071 132.554 253.469 132.243C250.839 131.96 247.728 134.28 247.728 134.28Z" fill="#FFE5CC"/>
<path d="M255.28 136.655C254.997 138.126 253.498 139.059 251.943 138.748C250.387 138.437 249.369 136.966 249.652 135.496C249.934 134.025 251.433 133.091 252.989 133.403C254.545 133.742 255.563 135.184 255.28 136.655Z" fill="#794830"/>
<path d="M256.496 136.909C256.496 136.909 255.591 134.137 253.159 133.543C250.783 132.95 246.965 135.325 246.965 135.325C247.842 132.78 254.997 128.481 257.033 134.844L259.353 134.59L256.496 136.909Z" fill="#6B3D2B"/>
<path d="M228.609 150.089C228.468 150.287 227.845 150.061 227.676 149.92C227.506 149.778 227.449 149.524 227.591 149.354C227.732 149.156 227.987 149.128 228.157 149.269C228.326 149.382 228.751 149.891 228.609 150.089Z" fill="#6B3D2B"/>
<path d="M245.182 153.71C245.267 153.908 245.918 153.823 246.144 153.738C246.342 153.653 246.455 153.399 246.342 153.201C246.257 153.003 246.003 152.89 245.805 153.003C245.607 153.088 245.069 153.512 245.182 153.71Z" fill="#794830"/>
<path d="M228.185 149.75L245.635 153.597C245.635 153.597 241.619 158.179 236.019 157.076C230.391 155.973 228.185 149.75 228.185 149.75Z" fill="#9B6335"/>
<path opacity="0.5" d="M228.185 149.75L245.635 153.597C245.635 153.597 241.619 158.179 236.019 157.076C230.391 155.973 228.185 149.75 228.185 149.75Z" fill="url(#paint0_linear_1035_11)"/>
<path d="M229.344 150.514L243.457 153.596C243.457 153.596 239.724 157.528 235.113 156.114C230.503 154.7 229.344 150.514 229.344 150.514Z" fill="#F9E8CA"/>
<path d="M229.344 150.514L243.457 153.596L242.41 154.473C242.41 154.473 241.081 153.285 236.414 152.352C231.748 151.419 229.768 151.588 229.768 151.588C229.768 151.588 229.485 150.853 229.344 150.514Z" fill="#D6B799"/>
<path d="M238.197 160.158C238.112 160.639 236.811 160.808 235.34 160.497C233.869 160.214 232.738 159.564 232.823 159.083C232.908 158.602 234.209 158.433 235.679 158.744C237.15 159.055 238.281 159.677 238.197 160.158Z" fill="#E2A36A"/>
<path d="M207.764 131.112C208.047 129.754 209.15 128.792 210.451 128.623C210.112 128.396 209.716 128.198 209.263 128.114C207.566 127.774 205.898 128.877 205.558 130.574C205.219 132.271 206.322 133.94 208.019 134.279C208.358 134.336 208.726 134.336 209.037 134.308C208.047 133.6 207.51 132.384 207.764 131.112Z" fill="#D69356"/>
<path d="M327.759 61V49.57H323.277V48.31H333.717V49.57H329.253V61H327.759ZM335.382 61V47.752H336.84V53.962H336.606C336.858 53.254 337.278 52.72 337.866 52.36C338.466 51.988 339.156 51.802 339.936 51.802C341.016 51.802 341.82 52.096 342.348 52.684C342.876 53.26 343.14 54.136 343.14 55.312V61H341.682V55.402C341.682 54.562 341.514 53.95 341.178 53.566C340.854 53.182 340.326 52.99 339.594 52.99C338.754 52.99 338.082 53.248 337.578 53.764C337.086 54.28 336.84 54.958 336.84 55.798V61H335.382ZM349.943 61.162C348.527 61.162 347.411 60.754 346.595 59.938C345.779 59.11 345.371 57.964 345.371 56.5C345.371 55.552 345.551 54.73 345.911 54.034C346.271 53.326 346.775 52.78 347.423 52.396C348.071 52 348.815 51.802 349.655 51.802C350.483 51.802 351.179 51.976 351.743 52.324C352.307 52.672 352.739 53.17 353.039 53.818C353.339 54.454 353.489 55.21 353.489 56.086V56.626H346.487V55.708H352.535L352.229 55.942C352.229 54.982 352.013 54.232 351.581 53.692C351.149 53.152 350.507 52.882 349.655 52.882C348.755 52.882 348.053 53.2 347.549 53.836C347.045 54.46 346.793 55.306 346.793 56.374V56.536C346.793 57.664 347.069 58.522 347.621 59.11C348.185 59.686 348.971 59.974 349.979 59.974C350.519 59.974 351.023 59.896 351.491 59.74C351.971 59.572 352.427 59.302 352.859 58.93L353.363 59.956C352.967 60.34 352.463 60.64 351.851 60.856C351.251 61.06 350.615 61.162 349.943 61.162ZM355.254 65.086L354.912 63.88C355.476 63.748 355.944 63.592 356.316 63.412C356.7 63.244 357.018 63.016 357.27 62.728C357.522 62.44 357.738 62.08 357.918 61.648L358.386 60.586L358.35 61.198L354.408 51.964H355.992L359.25 59.902H358.782L362.004 51.964H363.534L359.358 61.756C359.118 62.332 358.854 62.812 358.566 63.196C358.278 63.592 357.966 63.91 357.63 64.15C357.306 64.402 356.946 64.6 356.55 64.744C356.154 64.888 355.722 65.002 355.254 65.086ZM369.87 61V47.752H371.328V53.962H371.094C371.346 53.254 371.766 52.72 372.354 52.36C372.954 51.988 373.644 51.802 374.424 51.802C375.504 51.802 376.308 52.096 376.836 52.684C377.364 53.26 377.628 54.136 377.628 55.312V61H376.17V55.402C376.17 54.562 376.002 53.95 375.666 53.566C375.342 53.182 374.814 52.99 374.082 52.99C373.242 52.99 372.57 53.248 372.066 53.764C371.574 54.28 371.328 54.958 371.328 55.798V61H369.87ZM384.431 61.162C383.015 61.162 381.899 60.754 381.083 59.938C380.267 59.11 379.859 57.964 379.859 56.5C379.859 55.552 380.039 54.73 380.399 54.034C380.759 53.326 381.263 52.78 381.911 52.396C382.559 52 383.303 51.802 384.143 51.802C384.971 51.802 385.667 51.976 386.231 52.324C386.795 52.672 387.227 53.17 387.527 53.818C387.827 54.454 387.977 55.21 387.977 56.086V56.626H380.975V55.708H387.023L386.717 55.942C386.717 54.982 386.501 54.232 386.069 53.692C385.637 53.152 384.995 52.882 384.143 52.882C383.243 52.882 382.541 53.2 382.037 53.836C381.533 54.46 381.281 55.306 381.281 56.374V56.536C381.281 57.664 381.557 58.522 382.109 59.11C382.673 59.686 383.459 59.974 384.467 59.974C385.007 59.974 385.511 59.896 385.979 59.74C386.459 59.572 386.915 59.302 387.347 58.93L387.851 59.956C387.455 60.34 386.951 60.64 386.339 60.856C385.739 61.06 385.103 61.162 384.431 61.162ZM390.208 61V47.752H391.666V61H390.208ZM394.497 64.888V54.052C394.497 53.716 394.479 53.374 394.443 53.026C394.419 52.666 394.389 52.312 394.353 51.964H395.757L395.955 54.106H395.739C395.931 53.398 396.321 52.84 396.909 52.432C397.497 52.012 398.199 51.802 399.015 51.802C399.831 51.802 400.533 51.988 401.121 52.36C401.721 52.732 402.189 53.266 402.525 53.962C402.861 54.658 403.029 55.498 403.029 56.482C403.029 57.454 402.861 58.288 402.525 58.984C402.201 59.68 401.739 60.22 401.139 60.604C400.539 60.976 399.831 61.162 399.015 61.162C398.211 61.162 397.515 60.958 396.927 60.55C396.339 60.142 395.949 59.584 395.757 58.876H395.955V64.888H394.497ZM398.727 59.974C399.591 59.974 400.275 59.68 400.779 59.092C401.295 58.492 401.553 57.622 401.553 56.482C401.553 55.33 401.295 54.46 400.779 53.872C400.275 53.272 399.591 52.972 398.727 52.972C397.875 52.972 397.191 53.272 396.675 53.872C396.171 54.46 395.919 55.33 395.919 56.482C395.919 57.622 396.171 58.492 396.675 59.092C397.191 59.68 397.875 59.974 398.727 59.974ZM409.948 61V54.142C409.948 53.782 409.936 53.416 409.912 53.044C409.9 52.672 409.876 52.312 409.84 51.964H411.244L411.424 54.16L411.172 54.178C411.292 53.638 411.502 53.194 411.802 52.846C412.102 52.498 412.456 52.24 412.864 52.072C413.272 51.892 413.698 51.802 414.142 51.802C414.322 51.802 414.478 51.808 414.61 51.82C414.754 51.832 414.886 51.862 415.006 51.91L414.988 53.206C414.808 53.146 414.64 53.11 414.484 53.098C414.34 53.074 414.172 53.062 413.98 53.062C413.452 53.062 412.99 53.188 412.594 53.44C412.21 53.692 411.916 54.016 411.712 54.412C411.52 54.808 411.424 55.228 411.424 55.672V61H409.948ZM420.431 61.162C419.015 61.162 417.899 60.754 417.083 59.938C416.267 59.11 415.859 57.964 415.859 56.5C415.859 55.552 416.039 54.73 416.399 54.034C416.759 53.326 417.263 52.78 417.911 52.396C418.559 52 419.303 51.802 420.143 51.802C420.971 51.802 421.667 51.976 422.231 52.324C422.795 52.672 423.227 53.17 423.527 53.818C423.827 54.454 423.977 55.21 423.977 56.086V56.626H416.975V55.708H423.023L422.717 55.942C422.717 54.982 422.501 54.232 422.069 53.692C421.637 53.152 420.995 52.882 420.143 52.882C419.243 52.882 418.541 53.2 418.037 53.836C417.533 54.46 417.281 55.306 417.281 56.374V56.536C417.281 57.664 417.557 58.522 418.109 59.11C418.673 59.686 419.459 59.974 420.467 59.974C421.007 59.974 421.511 59.896 421.979 59.74C422.459 59.572 422.915 59.302 423.347 58.93L423.851 59.956C423.455 60.34 422.951 60.64 422.339 60.856C421.739 61.06 421.103 61.162 420.431 61.162ZM429.214 61.162C428.494 61.162 427.822 61.066 427.198 60.874C426.574 60.67 426.058 60.388 425.65 60.028L426.154 59.002C426.598 59.35 427.078 59.608 427.594 59.776C428.122 59.944 428.668 60.028 429.232 60.028C429.952 60.028 430.492 59.902 430.852 59.65C431.224 59.386 431.41 59.026 431.41 58.57C431.41 58.222 431.29 57.946 431.05 57.742C430.822 57.526 430.444 57.358 429.916 57.238L428.242 56.896C427.474 56.728 426.898 56.446 426.514 56.05C426.13 55.642 425.938 55.126 425.938 54.502C425.938 53.974 426.076 53.512 426.352 53.116C426.628 52.708 427.03 52.39 427.558 52.162C428.086 51.922 428.704 51.802 429.412 51.802C430.072 51.802 430.678 51.904 431.23 52.108C431.794 52.3 432.262 52.582 432.634 52.954L432.112 53.962C431.752 53.614 431.338 53.356 430.87 53.188C430.414 53.008 429.94 52.918 429.448 52.918C428.74 52.918 428.206 53.062 427.846 53.35C427.498 53.626 427.324 53.992 427.324 54.448C427.324 54.796 427.432 55.084 427.648 55.312C427.876 55.528 428.224 55.69 428.692 55.798L430.366 56.14C431.182 56.32 431.788 56.602 432.184 56.986C432.592 57.358 432.796 57.862 432.796 58.498C432.796 59.038 432.646 59.512 432.346 59.92C432.046 60.316 431.626 60.622 431.086 60.838C430.558 61.054 429.934 61.162 429.214 61.162ZM435.138 64.888V54.052C435.138 53.716 435.12 53.374 435.084 53.026C435.06 52.666 435.03 52.312 434.994 51.964H436.398L436.596 54.106H436.38C436.572 53.398 436.962 52.84 437.55 52.432C438.138 52.012 438.84 51.802 439.656 51.802C440.472 51.802 441.174 51.988 441.762 52.36C442.362 52.732 442.83 53.266 443.166 53.962C443.502 54.658 443.67 55.498 443.67 56.482C443.67 57.454 443.502 58.288 443.166 58.984C442.842 59.68 442.38 60.22 441.78 60.604C441.18 60.976 440.472 61.162 439.656 61.162C438.852 61.162 438.156 60.958 437.568 60.55C436.98 60.142 436.59 59.584 436.398 58.876H436.596V64.888H435.138ZM439.368 59.974C440.232 59.974 440.916 59.68 441.42 59.092C441.936 58.492 442.194 57.622 442.194 56.482C442.194 55.33 441.936 54.46 441.42 53.872C440.916 53.272 440.232 52.972 439.368 52.972C438.516 52.972 437.832 53.272 437.316 53.872C436.812 54.46 436.56 55.33 436.56 56.482C436.56 57.622 436.812 58.492 437.316 59.092C437.832 59.68 438.516 59.974 439.368 59.974ZM449.639 61.162C448.775 61.162 448.019 60.976 447.371 60.604C446.735 60.22 446.243 59.68 445.895 58.984C445.547 58.276 445.373 57.442 445.373 56.482C445.373 55.51 445.547 54.676 445.895 53.98C446.243 53.284 446.735 52.75 447.371 52.378C448.019 51.994 448.775 51.802 449.639 51.802C450.515 51.802 451.271 51.994 451.907 52.378C452.555 52.75 453.053 53.284 453.401 53.98C453.761 54.676 453.941 55.51 453.941 56.482C453.941 57.442 453.761 58.276 453.401 58.984C453.053 59.68 452.555 60.22 451.907 60.604C451.271 60.976 450.515 61.162 449.639 61.162ZM449.639 59.974C450.503 59.974 451.187 59.68 451.691 59.092C452.195 58.492 452.447 57.622 452.447 56.482C452.447 55.33 452.189 54.46 451.673 53.872C451.169 53.272 450.491 52.972 449.639 52.972C448.787 52.972 448.109 53.272 447.605 53.872C447.101 54.46 446.849 55.33 446.849 56.482C446.849 57.622 447.101 58.492 447.605 59.092C448.109 59.68 448.787 59.974 449.639 59.974ZM456.214 61V54.052C456.214 53.716 456.196 53.374 456.16 53.026C456.136 52.666 456.106 52.312 456.07 51.964H457.474L457.654 53.944H457.438C457.702 53.248 458.122 52.72 458.698 52.36C459.286 51.988 459.964 51.802 460.732 51.802C461.8 51.802 462.604 52.09 463.144 52.666C463.696 53.23 463.972 54.124 463.972 55.348V61H462.514V55.438C462.514 54.586 462.34 53.968 461.992 53.584C461.656 53.188 461.128 52.99 460.408 52.99C459.568 52.99 458.902 53.248 458.41 53.764C457.918 54.28 457.672 54.97 457.672 55.834V61H456.214ZM470.181 61.162C469.389 61.162 468.693 60.976 468.093 60.604C467.493 60.22 467.025 59.68 466.689 58.984C466.365 58.288 466.203 57.454 466.203 56.482C466.203 55.498 466.365 54.658 466.689 53.962C467.025 53.266 467.493 52.732 468.093 52.36C468.693 51.988 469.389 51.802 470.181 51.802C470.997 51.802 471.699 52.006 472.287 52.414C472.887 52.822 473.289 53.374 473.493 54.07H473.277V47.752H474.735V61H473.295V58.84H473.493C473.301 59.56 472.905 60.13 472.305 60.55C471.705 60.958 470.997 61.162 470.181 61.162ZM470.487 59.974C471.339 59.974 472.023 59.68 472.539 59.092C473.055 58.492 473.313 57.622 473.313 56.482C473.313 55.33 473.055 54.46 472.539 53.872C472.023 53.272 471.339 52.972 470.487 52.972C469.635 52.972 468.951 53.272 468.435 53.872C467.931 54.46 467.679 55.33 467.679 56.482C467.679 57.622 467.931 58.492 468.435 59.092C468.951 59.68 469.635 59.974 470.487 59.974ZM481.568 61.162C480.152 61.162 479.036 60.754 478.22 59.938C477.404 59.11 476.996 57.964 476.996 56.5C476.996 55.552 477.176 54.73 477.536 54.034C477.896 53.326 478.4 52.78 479.048 52.396C479.696 52 480.44 51.802 481.28 51.802C482.108 51.802 482.804 51.976 483.368 52.324C483.932 52.672 484.364 53.17 484.664 53.818C484.964 54.454 485.114 55.21 485.114 56.086V56.626H478.112V55.708H484.16L483.854 55.942C483.854 54.982 483.638 54.232 483.206 53.692C482.774 53.152 482.132 52.882 481.28 52.882C480.38 52.882 479.678 53.2 479.174 53.836C478.67 54.46 478.418 55.306 478.418 56.374V56.536C478.418 57.664 478.694 58.522 479.246 59.11C479.81 59.686 480.596 59.974 481.604 59.974C482.144 59.974 482.648 59.896 483.116 59.74C483.596 59.572 484.052 59.302 484.484 58.93L484.988 59.956C484.592 60.34 484.088 60.64 483.476 60.856C482.876 61.06 482.24 61.162 481.568 61.162ZM487.345 61V54.052C487.345 53.716 487.327 53.374 487.291 53.026C487.267 52.666 487.237 52.312 487.201 51.964H488.605L488.785 53.944H488.569C488.833 53.248 489.253 52.72 489.829 52.36C490.417 51.988 491.095 51.802 491.863 51.802C492.931 51.802 493.735 52.09 494.275 52.666C494.827 53.23 495.103 54.124 495.103 55.348V61H493.645V55.438C493.645 54.586 493.471 53.968 493.123 53.584C492.787 53.188 492.259 52.99 491.539 52.99C490.699 52.99 490.033 53.248 489.541 53.764C489.049 54.28 488.803 54.97 488.803 55.834V61H487.345ZM501.096 61.162C500.208 61.162 499.53 60.91 499.062 60.406C498.594 59.89 498.36 59.116 498.36 58.084V53.098H496.596V51.964H498.36V49.498L499.818 49.084V51.964H502.41V53.098H499.818V57.922C499.818 58.642 499.938 59.158 500.178 59.47C500.43 59.77 500.802 59.92 501.294 59.92C501.522 59.92 501.726 59.902 501.906 59.866C502.086 59.818 502.248 59.764 502.392 59.704V60.928C502.224 61 502.02 61.054 501.78 61.09C501.552 61.138 501.324 61.162 501.096 61.162ZM507.191 61.162C506.471 61.162 505.799 61.066 505.175 60.874C504.551 60.67 504.035 60.388 503.627 60.028L504.131 59.002C504.575 59.35 505.055 59.608 505.571 59.776C506.099 59.944 506.645 60.028 507.209 60.028C507.929 60.028 508.469 59.902 508.829 59.65C509.201 59.386 509.387 59.026 509.387 58.57C509.387 58.222 509.267 57.946 509.027 57.742C508.799 57.526 508.421 57.358 507.893 57.238L506.219 56.896C505.451 56.728 504.875 56.446 504.491 56.05C504.107 55.642 503.915 55.126 503.915 54.502C503.915 53.974 504.053 53.512 504.329 53.116C504.605 52.708 505.007 52.39 505.535 52.162C506.063 51.922 506.681 51.802 507.389 51.802C508.049 51.802 508.655 51.904 509.207 52.108C509.771 52.3 510.239 52.582 510.611 52.954L510.089 53.962C509.729 53.614 509.315 53.356 508.847 53.188C508.391 53.008 507.917 52.918 507.425 52.918C506.717 52.918 506.183 53.062 505.823 53.35C505.475 53.626 505.301 53.992 505.301 54.448C505.301 54.796 505.409 55.084 505.625 55.312C505.853 55.528 506.201 55.69 506.669 55.798L508.343 56.14C509.159 56.32 509.765 56.602 510.161 56.986C510.569 57.358 510.773 57.862 510.773 58.498C510.773 59.038 510.623 59.512 510.323 59.92C510.023 60.316 509.603 60.622 509.063 60.838C508.535 61.054 507.911 61.162 507.191 61.162ZM521.606 61.162C520.718 61.162 519.944 60.97 519.284 60.586C518.636 60.202 518.132 59.656 517.772 58.948C517.424 58.24 517.25 57.4 517.25 56.428C517.25 55.444 517.43 54.61 517.79 53.926C518.15 53.23 518.654 52.702 519.302 52.342C519.962 51.982 520.73 51.802 521.606 51.802C522.182 51.802 522.74 51.904 523.28 52.108C523.832 52.312 524.288 52.6 524.648 52.972L524.126 54.016C523.766 53.668 523.37 53.41 522.938 53.242C522.518 53.074 522.104 52.99 521.696 52.99C520.76 52.99 520.034 53.284 519.518 53.872C519.002 54.46 518.744 55.318 518.744 56.446C518.744 57.562 519.002 58.426 519.518 59.038C520.034 59.65 520.76 59.956 521.696 59.956C522.092 59.956 522.5 59.878 522.92 59.722C523.352 59.566 523.754 59.308 524.126 58.948L524.648 59.974C524.276 60.358 523.814 60.652 523.262 60.856C522.71 61.06 522.158 61.162 521.606 61.162ZM530.252 61.162C529.388 61.162 528.632 60.976 527.984 60.604C527.348 60.22 526.856 59.68 526.508 58.984C526.16 58.276 525.986 57.442 525.986 56.482C525.986 55.51 526.16 54.676 526.508 53.98C526.856 53.284 527.348 52.75 527.984 52.378C528.632 51.994 529.388 51.802 530.252 51.802C531.128 51.802 531.884 51.994 532.52 52.378C533.168 52.75 533.666 53.284 534.014 53.98C534.374 54.676 534.554 55.51 534.554 56.482C534.554 57.442 534.374 58.276 534.014 58.984C533.666 59.68 533.168 60.22 532.52 60.604C531.884 60.976 531.128 61.162 530.252 61.162ZM530.252 59.974C531.116 59.974 531.8 59.68 532.304 59.092C532.808 58.492 533.06 57.622 533.06 56.482C533.06 55.33 532.802 54.46 532.286 53.872C531.782 53.272 531.104 52.972 530.252 52.972C529.4 52.972 528.722 53.272 528.218 53.872C527.714 54.46 527.462 55.33 527.462 56.482C527.462 57.622 527.714 58.492 528.218 59.092C528.722 59.68 529.4 59.974 530.252 59.974ZM536.827 61V54.052C536.827 53.716 536.809 53.374 536.773 53.026C536.749 52.666 536.719 52.312 536.683 51.964H538.087L538.267 53.944H538.051C538.291 53.26 538.669 52.732 539.185 52.36C539.713 51.988 540.349 51.802 541.093 51.802C541.849 51.802 542.461 51.982 542.929 52.342C543.409 52.702 543.733 53.26 543.901 54.016H543.631C543.859 53.332 544.261 52.792 544.837 52.396C545.413 52 546.085 51.802 546.853 51.802C547.849 51.802 548.599 52.09 549.103 52.666C549.607 53.23 549.859 54.124 549.859 55.348V61H548.401V55.438C548.401 54.586 548.251 53.968 547.951 53.584C547.651 53.188 547.171 52.99 546.511 52.99C545.755 52.99 545.155 53.254 544.711 53.782C544.279 54.298 544.063 54.994 544.063 55.87V61H542.605V55.438C542.605 54.586 542.455 53.968 542.155 53.584C541.855 53.188 541.375 52.99 540.715 52.99C539.959 52.99 539.365 53.254 538.933 53.782C538.501 54.298 538.285 54.994 538.285 55.87V61H536.827ZM552.63 64.888V54.052C552.63 53.716 552.612 53.374 552.576 53.026C552.552 52.666 552.522 52.312 552.486 51.964H553.89L554.088 54.106H553.872C554.064 53.398 554.454 52.84 555.042 52.432C555.63 52.012 556.332 51.802 557.148 51.802C557.964 51.802 558.666 51.988 559.254 52.36C559.854 52.732 560.322 53.266 560.658 53.962C560.994 54.658 561.162 55.498 561.162 56.482C561.162 57.454 560.994 58.288 560.658 58.984C560.334 59.68 559.872 60.22 559.272 60.604C558.672 60.976 557.964 61.162 557.148 61.162C556.344 61.162 555.648 60.958 555.06 60.55C554.472 60.142 554.082 59.584 553.89 58.876H554.088V64.888H552.63ZM556.86 59.974C557.724 59.974 558.408 59.68 558.912 59.092C559.428 58.492 559.686 57.622 559.686 56.482C559.686 55.33 559.428 54.46 558.912 53.872C558.408 53.272 557.724 52.972 556.86 52.972C556.008 52.972 555.324 53.272 554.808 53.872C554.304 54.46 554.052 55.33 554.052 56.482C554.052 57.622 554.304 58.492 554.808 59.092C555.324 59.68 556.008 59.974 556.86 59.974ZM563.387 61V54.142C563.387 53.782 563.375 53.416 563.351 53.044C563.339 52.672 563.315 52.312 563.279 51.964H564.683L564.863 54.16L564.611 54.178C564.731 53.638 564.941 53.194 565.241 52.846C565.541 52.498 565.895 52.24 566.303 52.072C566.711 51.892 567.137 51.802 567.581 51.802C567.761 51.802 567.917 51.808 568.049 51.82C568.193 51.832 568.325 51.862 568.445 51.91L568.427 53.206C568.247 53.146 568.079 53.11 567.923 53.098C567.779 53.074 567.611 53.062 567.419 53.062C566.891 53.062 566.429 53.188 566.033 53.44C565.649 53.692 565.355 54.016 565.151 54.412C564.959 54.808 564.863 55.228 564.863 55.672V61H563.387ZM573.871 61.162C572.455 61.162 571.339 60.754 570.523 59.938C569.707 59.11 569.299 57.964 569.299 56.5C569.299 55.552 569.479 54.73 569.839 54.034C570.199 53.326 570.703 52.78 571.351 52.396C571.999 52 572.743 51.802 573.583 51.802C574.411 51.802 575.107 51.976 575.671 52.324C576.235 52.672 576.667 53.17 576.967 53.818C577.267 54.454 577.417 55.21 577.417 56.086V56.626H570.415V55.708H576.463L576.157 55.942C576.157 54.982 575.941 54.232 575.509 53.692C575.077 53.152 574.435 52.882 573.583 52.882C572.683 52.882 571.981 53.2 571.477 53.836C570.973 54.46 570.721 55.306 570.721 56.374V56.536C570.721 57.664 570.997 58.522 571.549 59.11C572.113 59.686 572.899 59.974 573.907 59.974C574.447 59.974 574.951 59.896 575.419 59.74C575.899 59.572 576.355 59.302 576.787 58.93L577.291 59.956C576.895 60.34 576.391 60.64 575.779 60.856C575.179 61.06 574.543 61.162 573.871 61.162ZM579.648 61V47.752H581.106V53.962H580.872C581.124 53.254 581.544 52.72 582.132 52.36C582.732 51.988 583.422 51.802 584.202 51.802C585.282 51.802 586.086 52.096 586.614 52.684C587.142 53.26 587.406 54.136 587.406 55.312V61H585.948V55.402C585.948 54.562 585.78 53.95 585.444 53.566C585.12 53.182 584.592 52.99 583.86 52.99C583.02 52.99 582.348 53.248 581.844 53.764C581.352 54.28 581.106 54.958 581.106 55.798V61H579.648ZM594.208 61.162C592.792 61.162 591.676 60.754 590.86 59.938C590.044 59.11 589.636 57.964 589.636 56.5C589.636 55.552 589.816 54.73 590.176 54.034C590.536 53.326 591.04 52.78 591.688 52.396C592.336 52 593.08 51.802 593.92 51.802C594.748 51.802 595.444 51.976 596.008 52.324C596.572 52.672 597.004 53.17 597.304 53.818C597.604 54.454 597.754 55.21 597.754 56.086V56.626H590.752V55.708H596.8L596.494 55.942C596.494 54.982 596.278 54.232 595.846 53.692C595.414 53.152 594.772 52.882 593.92 52.882C593.02 52.882 592.318 53.2 591.814 53.836C591.31 54.46 591.058 55.306 591.058 56.374V56.536C591.058 57.664 591.334 58.522 591.886 59.11C592.45 59.686 593.236 59.974 594.244 59.974C594.784 59.974 595.288 59.896 595.756 59.74C596.236 59.572 596.692 59.302 597.124 58.93L597.628 59.956C597.232 60.34 596.728 60.64 596.116 60.856C595.516 61.06 594.88 61.162 594.208 61.162ZM599.985 61V54.052C599.985 53.716 599.967 53.374 599.931 53.026C599.907 52.666 599.877 52.312 599.841 51.964H601.245L601.425 53.944H601.209C601.473 53.248 601.893 52.72 602.469 52.36C603.057 51.988 603.735 51.802 604.503 51.802C605.571 51.802 606.375 52.09 606.915 52.666C607.467 53.23 607.743 54.124 607.743 55.348V61H606.285V55.438C606.285 54.586 606.111 53.968 605.763 53.584C605.427 53.188 604.899 52.99 604.179 52.99C603.339 52.99 602.673 53.248 602.181 53.764C601.689 54.28 601.443 54.97 601.443 55.834V61H599.985ZM613.952 61.162C613.16 61.162 612.464 60.976 611.864 60.604C611.264 60.22 610.796 59.68 610.46 58.984C610.136 58.288 609.974 57.454 609.974 56.482C609.974 55.498 610.136 54.658 610.46 53.962C610.796 53.266 611.264 52.732 611.864 52.36C612.464 51.988 613.16 51.802 613.952 51.802C614.768 51.802 615.47 52.006 616.058 52.414C616.658 52.822 617.06 53.374 617.264 54.07H617.048V47.752H618.506V61H617.066V58.84H617.264C617.072 59.56 616.676 60.13 616.076 60.55C615.476 60.958 614.768 61.162 613.952 61.162ZM614.258 59.974C615.11 59.974 615.794 59.68 616.31 59.092C616.826 58.492 617.084 57.622 617.084 56.482C617.084 55.33 616.826 54.46 616.31 53.872C615.794 53.272 615.11 52.972 614.258 52.972C613.406 52.972 612.722 53.272 612.206 53.872C611.702 54.46 611.45 55.33 611.45 56.482C611.45 57.622 611.702 58.492 612.206 59.092C612.722 59.68 613.406 59.974 614.258 59.974ZM369.211 91V77.752H370.669V83.962H370.435C370.687 83.254 371.107 82.72 371.695 82.36C372.295 81.988 372.985 81.802 373.765 81.802C374.845 81.802 375.649 82.096 376.177 82.684C376.705 83.26 376.969 84.136 376.969 85.312V91H375.511V85.402C375.511 84.562 375.343 83.95 375.007 83.566C374.683 83.182 374.155 82.99 373.423 82.99C372.583 82.99 371.911 83.248 371.407 83.764C370.915 84.28 370.669 84.958 370.669 85.798V91H369.211ZM383.466 91.162C382.602 91.162 381.846 90.976 381.198 90.604C380.562 90.22 380.07 89.68 379.722 88.984C379.374 88.276 379.2 87.442 379.2 86.482C379.2 85.51 379.374 84.676 379.722 83.98C380.07 83.284 380.562 82.75 381.198 82.378C381.846 81.994 382.602 81.802 383.466 81.802C384.342 81.802 385.098 81.994 385.734 82.378C386.382 82.75 386.88 83.284 387.228 83.98C387.588 84.676 387.768 85.51 387.768 86.482C387.768 87.442 387.588 88.276 387.228 88.984C386.88 89.68 386.382 90.22 385.734 90.604C385.098 90.976 384.342 91.162 383.466 91.162ZM383.466 89.974C384.33 89.974 385.014 89.68 385.518 89.092C386.022 88.492 386.274 87.622 386.274 86.482C386.274 85.33 386.016 84.46 385.5 83.872C384.996 83.272 384.318 82.972 383.466 82.972C382.614 82.972 381.936 83.272 381.432 83.872C380.928 84.46 380.676 85.33 380.676 86.482C380.676 87.622 380.928 88.492 381.432 89.092C381.936 89.68 382.614 89.974 383.466 89.974ZM392.33 91L388.982 81.964H390.53L393.32 89.92H392.852L395.732 81.964H396.992L399.818 89.92H399.368L402.176 81.964H403.652L400.286 91H398.882L395.966 82.918H396.686L393.752 91H392.33ZM413.46 91.162C412.572 91.162 411.894 90.91 411.426 90.406C410.958 89.89 410.724 89.116 410.724 88.084V83.098H408.96V81.964H410.724V79.498L412.182 79.084V81.964H414.774V83.098H412.182V87.922C412.182 88.642 412.302 89.158 412.542 89.47C412.794 89.77 413.166 89.92 413.658 89.92C413.886 89.92 414.09 89.902 414.27 89.866C414.45 89.818 414.612 89.764 414.756 89.704V90.928C414.588 91 414.384 91.054 414.144 91.09C413.916 91.138 413.688 91.162 413.46 91.162ZM416.549 91V77.752H418.007V83.962H417.773C418.025 83.254 418.445 82.72 419.033 82.36C419.633 81.988 420.323 81.802 421.103 81.802C422.183 81.802 422.987 82.096 423.515 82.684C424.043 83.26 424.307 84.136 424.307 85.312V91H422.849V85.402C422.849 84.562 422.681 83.95 422.345 83.566C422.021 83.182 421.493 82.99 420.761 82.99C419.921 82.99 419.249 83.248 418.745 83.764C418.253 84.28 418.007 84.958 418.007 85.798V91H416.549ZM431.11 91.162C429.694 91.162 428.578 90.754 427.762 89.938C426.946 89.11 426.538 87.964 426.538 86.5C426.538 85.552 426.718 84.73 427.078 84.034C427.438 83.326 427.942 82.78 428.59 82.396C429.238 82 429.982 81.802 430.822 81.802C431.65 81.802 432.346 81.976 432.91 82.324C433.474 82.672 433.906 83.17 434.206 83.818C434.506 84.454 434.656 85.21 434.656 86.086V86.626H427.654V85.708H433.702L433.396 85.942C433.396 84.982 433.18 84.232 432.748 83.692C432.316 83.152 431.674 82.882 430.822 82.882C429.922 82.882 429.22 83.2 428.716 83.836C428.212 84.46 427.96 85.306 427.96 86.374V86.536C427.96 87.664 428.236 88.522 428.788 89.11C429.352 89.686 430.138 89.974 431.146 89.974C431.686 89.974 432.19 89.896 432.658 89.74C433.138 89.572 433.594 89.302 434.026 88.93L434.53 89.956C434.134 90.34 433.63 90.64 433.018 90.856C432.418 91.06 431.782 91.162 431.11 91.162ZM436.421 95.086L436.079 93.88C436.643 93.748 437.111 93.592 437.483 93.412C437.867 93.244 438.185 93.016 438.437 92.728C438.689 92.44 438.905 92.08 439.085 91.648L439.553 90.586L439.517 91.198L435.575 81.964H437.159L440.417 89.902H439.949L443.171 81.964H444.701L440.525 91.756C440.285 92.332 440.021 92.812 439.733 93.196C439.445 93.592 439.133 93.91 438.797 94.15C438.473 94.402 438.113 94.6 437.717 94.744C437.321 94.888 436.889 95.002 436.421 95.086ZM454.043 91.162C453.323 91.162 452.651 91.066 452.027 90.874C451.403 90.67 450.887 90.388 450.479 90.028L450.983 89.002C451.427 89.35 451.907 89.608 452.423 89.776C452.951 89.944 453.497 90.028 454.061 90.028C454.781 90.028 455.321 89.902 455.681 89.65C456.053 89.386 456.239 89.026 456.239 88.57C456.239 88.222 456.119 87.946 455.879 87.742C455.651 87.526 455.273 87.358 454.745 87.238L453.071 86.896C452.303 86.728 451.727 86.446 451.343 86.05C450.959 85.642 450.767 85.126 450.767 84.502C450.767 83.974 450.905 83.512 451.181 83.116C451.457 82.708 451.859 82.39 452.387 82.162C452.915 81.922 453.533 81.802 454.241 81.802C454.901 81.802 455.507 81.904 456.059 82.108C456.623 82.3 457.091 82.582 457.463 82.954L456.941 83.962C456.581 83.614 456.167 83.356 455.699 83.188C455.243 83.008 454.769 82.918 454.277 82.918C453.569 82.918 453.035 83.062 452.675 83.35C452.327 83.626 452.153 83.992 452.153 84.448C452.153 84.796 452.261 85.084 452.477 85.312C452.705 85.528 453.053 85.69 453.521 85.798L455.195 86.14C456.011 86.32 456.617 86.602 457.013 86.986C457.421 87.358 457.625 87.862 457.625 88.498C457.625 89.038 457.475 89.512 457.175 89.92C456.875 90.316 456.455 90.622 455.915 90.838C455.387 91.054 454.763 91.162 454.043 91.162ZM459.967 91V77.752H461.425V83.962H461.191C461.443 83.254 461.863 82.72 462.451 82.36C463.051 81.988 463.741 81.802 464.521 81.802C465.601 81.802 466.405 82.096 466.933 82.684C467.461 83.26 467.725 84.136 467.725 85.312V91H466.267V85.402C466.267 84.562 466.099 83.95 465.763 83.566C465.439 83.182 464.911 82.99 464.179 82.99C463.339 82.99 462.667 83.248 462.163 83.764C461.671 84.28 461.425 84.958 461.425 85.798V91H459.967ZM474.222 91.162C473.358 91.162 472.602 90.976 471.954 90.604C471.318 90.22 470.826 89.68 470.478 88.984C470.13 88.276 469.956 87.442 469.956 86.482C469.956 85.51 470.13 84.676 470.478 83.98C470.826 83.284 471.318 82.75 471.954 82.378C472.602 81.994 473.358 81.802 474.222 81.802C475.098 81.802 475.854 81.994 476.49 82.378C477.138 82.75 477.636 83.284 477.984 83.98C478.344 84.676 478.524 85.51 478.524 86.482C478.524 87.442 478.344 88.276 477.984 88.984C477.636 89.68 477.138 90.22 476.49 90.604C475.854 90.976 475.098 91.162 474.222 91.162ZM474.222 89.974C475.086 89.974 475.77 89.68 476.274 89.092C476.778 88.492 477.03 87.622 477.03 86.482C477.03 85.33 476.772 84.46 476.256 83.872C475.752 83.272 475.074 82.972 474.222 82.972C473.37 82.972 472.692 83.272 472.188 83.872C471.684 84.46 471.432 85.33 471.432 86.482C471.432 87.622 471.684 88.492 472.188 89.092C472.692 89.68 473.37 89.974 474.222 89.974ZM483.983 91.162C482.915 91.162 482.105 90.868 481.553 90.28C481.013 89.692 480.743 88.792 480.743 87.58V81.964H482.201V87.544C482.201 88.372 482.369 88.984 482.705 89.38C483.041 89.764 483.563 89.956 484.271 89.956C485.063 89.956 485.699 89.698 486.179 89.182C486.659 88.666 486.899 87.976 486.899 87.112V81.964H488.357V91H486.935V88.966H487.169C486.917 89.662 486.509 90.202 485.945 90.586C485.393 90.97 484.739 91.162 483.983 91.162ZM491.186 91V77.752H492.644V91H491.186ZM498.895 91.162C498.103 91.162 497.407 90.976 496.807 90.604C496.207 90.22 495.739 89.68 495.403 88.984C495.079 88.288 494.917 87.454 494.917 86.482C494.917 85.498 495.079 84.658 495.403 83.962C495.739 83.266 496.207 82.732 496.807 82.36C497.407 81.988 498.103 81.802 498.895 81.802C499.711 81.802 500.413 82.006 501.001 82.414C501.601 82.822 502.003 83.374 502.207 84.07H501.991V77.752H503.449V91H502.009V88.84H502.207C502.015 89.56 501.619 90.13 501.019 90.55C500.419 90.958 499.711 91.162 498.895 91.162ZM499.201 89.974C500.053 89.974 500.737 89.68 501.253 89.092C501.769 88.492 502.027 87.622 502.027 86.482C502.027 85.33 501.769 84.46 501.253 83.872C500.737 83.272 500.053 82.972 499.201 82.972C498.349 82.972 497.665 83.272 497.149 83.872C496.645 84.46 496.393 85.33 496.393 86.482C496.393 87.622 496.645 88.492 497.149 89.092C497.665 89.68 498.349 89.974 499.201 89.974ZM514.399 91.162C513.595 91.162 512.893 90.976 512.293 90.604C511.693 90.22 511.225 89.68 510.889 88.984C510.565 88.288 510.403 87.454 510.403 86.482C510.403 85.498 510.565 84.658 510.889 83.962C511.225 83.266 511.693 82.732 512.293 82.36C512.893 81.988 513.595 81.802 514.399 81.802C515.215 81.802 515.917 82.012 516.505 82.432C517.105 82.84 517.501 83.398 517.693 84.106H517.477L517.675 81.964H519.079C519.043 82.312 519.007 82.666 518.971 83.026C518.947 83.374 518.935 83.716 518.935 84.052V91H517.477V88.876H517.675C517.483 89.584 517.087 90.142 516.487 90.55C515.887 90.958 515.191 91.162 514.399 91.162ZM514.687 89.974C515.551 89.974 516.235 89.68 516.739 89.092C517.243 88.492 517.495 87.622 517.495 86.482C517.495 85.33 517.243 84.46 516.739 83.872C516.235 83.272 515.551 82.972 514.687 82.972C513.835 82.972 513.151 83.272 512.635 83.872C512.131 84.46 511.879 85.33 511.879 86.482C511.879 87.622 512.131 88.492 512.635 89.092C513.151 89.68 513.835 89.974 514.687 89.974ZM521.754 91V84.052C521.754 83.716 521.736 83.374 521.7 83.026C521.676 82.666 521.646 82.312 521.61 81.964H523.014L523.194 83.944H522.978C523.242 83.248 523.662 82.72 524.238 82.36C524.826 81.988 525.504 81.802 526.272 81.802C527.34 81.802 528.144 82.09 528.684 82.666C529.236 83.23 529.512 84.124 529.512 85.348V91H528.054V85.438C528.054 84.586 527.88 83.968 527.532 83.584C527.196 83.188 526.668 82.99 525.948 82.99C525.108 82.99 524.442 83.248 523.95 83.764C523.458 84.28 523.212 84.97 523.212 85.834V91H521.754ZM535.307 91.162C534.587 91.162 533.915 91.066 533.291 90.874C532.667 90.67 532.151 90.388 531.743 90.028L532.247 89.002C532.691 89.35 533.171 89.608 533.687 89.776C534.215 89.944 534.761 90.028 535.325 90.028C536.045 90.028 536.585 89.902 536.945 89.65C537.317 89.386 537.503 89.026 537.503 88.57C537.503 88.222 537.383 87.946 537.143 87.742C536.915 87.526 536.537 87.358 536.009 87.238L534.335 86.896C533.567 86.728 532.991 86.446 532.607 86.05C532.223 85.642 532.031 85.126 532.031 84.502C532.031 83.974 532.169 83.512 532.445 83.116C532.721 82.708 533.123 82.39 533.651 82.162C534.179 81.922 534.797 81.802 535.505 81.802C536.165 81.802 536.771 81.904 537.323 82.108C537.887 82.3 538.355 82.582 538.727 82.954L538.205 83.962C537.845 83.614 537.431 83.356 536.963 83.188C536.507 83.008 536.033 82.918 535.541 82.918C534.833 82.918 534.299 83.062 533.939 83.35C533.591 83.626 533.417 83.992 533.417 84.448C533.417 84.796 533.525 85.084 533.741 85.312C533.969 85.528 534.317 85.69 534.785 85.798L536.459 86.14C537.275 86.32 537.881 86.602 538.277 86.986C538.685 87.358 538.889 87.862 538.889 88.498C538.889 89.038 538.739 89.512 538.439 89.92C538.139 90.316 537.719 90.622 537.179 90.838C536.651 91.054 536.027 91.162 535.307 91.162ZM543.467 91L540.119 81.964H541.667L544.457 89.92H543.989L546.869 81.964H548.129L550.955 89.92H550.505L553.313 81.964H554.789L551.423 91H550.019L547.103 82.918H547.823L544.889 91H543.467ZM560.59 91.162C559.174 91.162 558.058 90.754 557.242 89.938C556.426 89.11 556.018 87.964 556.018 86.5C556.018 85.552 556.198 84.73 556.558 84.034C556.918 83.326 557.422 82.78 558.07 82.396C558.718 82 559.462 81.802 560.302 81.802C561.13 81.802 561.826 81.976 562.39 82.324C562.954 82.672 563.386 83.17 563.686 83.818C563.986 84.454 564.136 85.21 564.136 86.086V86.626H557.134V85.708H563.182L562.876 85.942C562.876 84.982 562.66 84.232 562.228 83.692C561.796 83.152 561.154 82.882 560.302 82.882C559.402 82.882 558.7 83.2 558.196 83.836C557.692 84.46 557.44 85.306 557.44 86.374V86.536C557.44 87.664 557.716 88.522 558.268 89.11C558.832 89.686 559.618 89.974 560.626 89.974C561.166 89.974 561.67 89.896 562.138 89.74C562.618 89.572 563.074 89.302 563.506 88.93L564.01 89.956C563.614 90.34 563.11 90.64 562.498 90.856C561.898 91.06 561.262 91.162 560.59 91.162ZM566.331 91V84.142C566.331 83.782 566.319 83.416 566.295 83.044C566.283 82.672 566.259 82.312 566.223 81.964H567.627L567.807 84.16L567.555 84.178C567.675 83.638 567.885 83.194 568.185 82.846C568.485 82.498 568.839 82.24 569.247 82.072C569.655 81.892 570.081 81.802 570.525 81.802C570.705 81.802 570.861 81.808 570.993 81.82C571.137 81.832 571.269 81.862 571.389 81.91L571.371 83.206C571.191 83.146 571.023 83.11 570.867 83.098C570.723 83.074 570.555 83.062 570.363 83.062C569.835 83.062 569.373 83.188 568.977 83.44C568.593 83.692 568.299 84.016 568.095 84.412C567.903 84.808 567.807 85.228 567.807 85.672V91H566.331ZM572.249 91V89.164H574.085V91H572.249Z" fill="#6D737A"/>
<g filter="url(#filter0_d_1035_11)">
<path d="M120.523 78.1895C106.428 82.554 98.539 97.5188 102.903 111.614C107.268 125.71 122.233 133.598 136.328 129.234C140.885 127.823 144.793 125.304 147.848 122.065C149.411 120.408 169.505 137.29 170.594 135.307C171.57 133.531 153.591 112.918 154.145 110.959C155.502 106.161 155.533 100.928 153.948 95.809C149.583 81.7135 134.618 73.825 120.523 78.1895Z" fill="white"/>
<path d="M120.671 78.6671C106.839 82.95 99.0983 97.6347 103.381 111.466C107.664 125.298 122.349 133.039 136.18 128.756C140.652 127.371 144.487 124.9 147.484 121.722C147.756 121.435 148.143 121.43 148.417 121.467C148.715 121.508 149.06 121.624 149.426 121.78C150.163 122.095 151.107 122.627 152.172 123.289C154.308 124.617 157.013 126.52 159.686 128.399L159.687 128.4C162.369 130.286 165.018 132.148 167.064 133.417C168.09 134.053 168.941 134.525 169.557 134.777C169.792 134.873 169.971 134.928 170.099 134.953C170.095 134.94 170.091 134.926 170.087 134.912C170.023 134.708 169.897 134.426 169.705 134.069C169.321 133.357 168.714 132.417 167.947 131.315C166.415 129.113 164.284 126.318 162.131 123.506C161.991 123.324 161.852 123.142 161.713 122.96C159.702 120.335 157.706 117.729 156.211 115.63C155.413 114.509 154.749 113.521 154.3 112.745C154.076 112.359 153.897 112.011 153.783 111.718C153.726 111.571 153.68 111.425 153.654 111.287C153.63 111.155 153.617 110.989 153.664 110.823C154.995 106.115 155.026 100.98 153.47 95.9569C149.187 82.1252 134.503 74.3843 120.671 78.6671ZM170.273 134.968C170.273 134.968 170.272 134.968 170.269 134.969C170.272 134.969 170.273 134.968 170.273 134.968ZM170.132 135.132C170.132 135.133 170.132 135.134 170.132 135.134C170.132 135.134 170.132 135.133 170.132 135.132Z" stroke="#9B9B9B"/>
</g>
<path d="M115 103.846L120.049 114L143 96" stroke="#E541ED" stroke-width="3"/>
<defs>
<filter id="filter0_d_1035_11" x="97.7012" y="76.9868" width="76.9316" height="66.4824" filterUnits="userSpaceOnUse" color-interpolation-filters="sRGB">
<feFlood flood-opacity="0" result="BackgroundImageFix"/>
<feColorMatrix in="SourceAlpha" type="matrix" values="0 0 0 0 0 0 0 0 0 0 0 0 0 0 0 0 0 0 127 0" result="hardAlpha"/>
<feOffset dy="4"/>
<feGaussianBlur stdDeviation="2"/>
<feComposite in2="hardAlpha" operator="out"/>
<feColorMatrix type="matrix" values="0 0 0 0 0 0 0 0 0 0 0 0 0 0 0 0 0 0 0.25 0"/>
<feBlend mode="normal" in2="BackgroundImageFix" result="effect1_dropShadow_1035_11"/>
<feBlend mode="normal" in="SourceGraphic" in2="effect1_dropShadow_1035_11" result="shape"/>
</filter>
<linearGradient id="paint0_linear_1035_11" x1="244.848" y1="155.536" x2="232.496" y2="153.488" gradientUnits="userSpaceOnUse">
<stop stop-color="#9B6335"/>
<stop offset="0.2998" stop-color="#996134"/>
<stop offset="0.4756" stop-color="#905A31"/>
<stop offset="0.6194" stop-color="#824D2C"/>
<stop offset="0.746" stop-color="#6E3C25"/>
<stop offset="0.8611" stop-color="#54251C"/>
<stop offset="0.9665" stop-color="#350A11"/>
<stop offset="1" stop-color="#29000D"/>
</linearGradient>
</defs>
</svg>
