<svg width="1106" height="657" viewBox="0 0 1106 657" fill="none" xmlns="http://www.w3.org/2000/svg">
<path d="M875.746 140.164C875.746 140.164 838.117 109.559 863.091 81.259C863.091 81.259 882.042 64.5141 899.592 62.4132C899.592 62.4132 882.469 108.117 891.188 110.736C899.907 113.355 906.595 58.4423 906.595 58.4423C906.595 58.4423 954.217 44.961 971.13 49.6252C971.13 49.6252 935.862 91.0215 944.945 91.4627C954.028 91.9039 992.736 50.5286 992.736 50.5286C992.736 50.5286 1039.22 50.0244 1041.79 77.9675C1044.37 105.911 1030.38 117.186 1023.42 117.725C1016.46 118.264 973.757 110.225 973.897 115.974C974.037 121.724 1001.4 135.653 1018.39 133.482C1018.39 133.482 992.959 174.305 969.996 168.016C947.032 161.727 942.305 146.025 928.053 142.426C913.801 138.826 902.554 140.857 909.102 146.004C915.65 151.152 940.568 152.797 950.513 164.752C960.457 176.707 968.84 184.466 946.388 185.139C923.935 185.811 885.508 176.258 880.627 158.225L875.746 140.164Z" fill="#D5D6DA"/>
<path d="M1019.75 82.7577C1019.75 82.7577 896.441 100.266 875.746 140.185C875.746 140.185 873.008 159.177 857.538 178.829L856.081 187.163C856.081 187.163 873.246 160.942 880.593 158.211C880.621 158.19 860.885 116.955 1019.75 82.7577Z" fill="#D5D6DA"/>
<path d="M857.566 178.843C857.566 178.843 834.798 203.046 839.273 238.104L844.119 237.67C844.119 237.67 846.003 200.231 858.63 183.437C871.257 166.643 857.566 178.843 857.566 178.843Z" fill="#599DAD"/>
<path d="M833.088 436.22C833.088 436.22 790.558 483.793 800.838 550.906L810.125 549.834C810.125 549.834 811.932 477.862 835.337 444.995C858.742 412.129 833.088 436.22 833.088 436.22Z" fill="#D5D6DA"/>
<path d="M454.631 376.636C454.631 376.636 453.861 306.982 399.725 309.762C399.725 309.762 363.959 316.065 345.912 333.951C345.912 333.951 412.597 355.549 407.807 367.714C403.017 379.879 335.239 338.3 335.239 338.3C335.239 338.3 277.553 379.753 267.657 402.976C267.657 402.976 345.716 400.321 338.089 410.931C330.463 421.541 249.351 428.068 249.351 428.068C249.351 428.068 207.247 479.893 236.353 507.752C265.458 535.611 290.677 529.994 297.47 522.627C304.263 515.259 333.432 460.08 339.77 465.389C346.108 470.697 337.312 513.894 319.657 531.031C319.657 531.031 388.289 538.923 401.728 507.493C415.167 476.062 401.728 456.719 410.391 437.46C419.054 418.201 431.401 407.388 431.352 419.349C431.303 431.311 410.86 460.795 415.412 482.659C419.965 504.523 421.197 520.89 442.025 496.252C462.853 471.615 486.461 419.867 470.549 398.269L454.631 376.636Z" fill="#D5D6DA"/>
<path d="M261.391 487.232C261.391 487.232 391.259 364.22 454.632 376.636C454.632 376.636 478.443 390.545 514.328 390.734L525.001 396.561C525.001 396.561 480.18 392.422 470.544 398.241C470.551 398.241 441.837 339.218 261.391 487.232Z" fill="#D5D6DA"/>
<path d="M514.335 390.734C514.335 390.734 561.894 386.784 597.317 423.145L592.491 428.208C592.491 428.208 548.721 396.862 518.551 396.049C488.381 395.237 514.335 390.734 514.335 390.734Z" fill="#599DAD"/>
<path d="M423.818 149.898C423.818 149.898 465.137 128.356 447.083 96.9184C447.083 96.9184 432.481 77.5053 416.373 72.1478C416.373 72.1478 423.671 118.446 414.973 119.273C406.275 120.099 410.568 67.0984 410.568 67.0984C410.568 67.0984 368.387 45.2412 351.544 46.3617C351.544 46.3617 376.756 92.1141 368.114 90.7695C359.472 89.4248 331.045 43.0422 331.045 43.0422C331.045 43.0422 287.415 33.6087 279.599 59.4018C271.783 85.1949 282.772 98.5291 289.222 100.35C295.672 102.171 337.397 102.864 336.144 108.25C334.89 113.635 306.478 121.465 290.909 116.121C290.909 116.121 306.968 159.43 329.785 157.938C352.601 156.446 360.06 142.573 374.172 141.914C388.283 141.256 398.466 145.346 391.316 148.918C384.165 152.489 360.403 149.24 348.743 158.575C337.082 167.911 327.691 173.59 348.686 178.556C369.682 183.521 407.675 181.938 415.743 165.915L423.818 149.898Z" fill="#EAEAEA"/>
<path d="M299.377 68.1209C299.377 68.1209 412.025 108.341 423.818 149.898C423.818 149.898 422.733 168.296 433.476 189.761L433.231 197.885C433.231 197.885 422.137 169.872 415.722 165.922C415.729 165.922 442.258 130.926 299.377 68.1209Z" fill="#D5D6DA"/>
<path d="M433.453 189.761C433.453 189.761 450.198 216.92 439.238 249.044L434.756 247.699C434.756 247.699 440.205 212.115 431.563 193.879C422.92 175.642 433.453 189.761 433.453 189.761Z" fill="#D5D6DA"/>
<path d="M879.787 7.56354H413.151V651.123H879.787V7.56354Z" fill="#016EB9"/>
<path d="M867.769 7.56354H401.134V651.123H867.769V7.56354Z" fill="#6754E9" fill-opacity="0.53"/>
<path d="M835.764 51.7052H433.139V606.988H835.764V51.7052Z" fill="#EAEAEA"/>
<path d="M714.405 0H554.499C549.707 0 545.822 3.88485 545.822 8.67706V62.021C545.822 66.8132 549.707 70.6981 554.499 70.6981H714.405C719.197 70.6981 723.082 66.8132 723.082 62.021V8.67706C723.082 3.88485 719.197 0 714.405 0Z" fill="#CB45ED"/>
<path d="M794.48 220.533H474.43C473.619 220.533 472.816 220.374 472.066 220.063C471.317 219.753 470.636 219.298 470.062 218.724C469.488 218.151 469.034 217.47 468.723 216.72C468.413 215.971 468.253 215.168 468.253 214.356C468.253 213.545 468.413 212.742 468.723 211.993C469.034 211.243 469.488 210.562 470.062 209.989C470.636 209.415 471.317 208.96 472.066 208.65C472.816 208.339 473.619 208.18 474.43 208.18H794.48C796.118 208.18 797.689 208.83 798.847 209.989C800.006 211.147 800.657 212.718 800.657 214.356C800.657 215.995 800.006 217.566 798.847 218.724C797.689 219.882 796.118 220.533 794.48 220.533Z" fill="#6754E9" fill-opacity="0.53"/>
<path d="M794.48 245.416H474.43C473.619 245.416 472.816 245.256 472.066 244.946C471.317 244.635 470.636 244.18 470.062 243.607C469.488 243.033 469.034 242.352 468.723 241.603C468.413 240.853 468.253 240.05 468.253 239.239C468.253 238.428 468.413 237.625 468.723 236.875C469.034 236.126 469.488 235.445 470.062 234.871C470.636 234.298 471.317 233.843 472.066 233.532C472.816 233.222 473.619 233.062 474.43 233.062H794.48C796.118 233.062 797.689 233.713 798.847 234.871C800.006 236.03 800.657 237.601 800.657 239.239C800.657 240.05 800.497 240.853 800.186 241.603C799.876 242.352 799.421 243.033 798.847 243.607C798.274 244.18 797.593 244.635 796.843 244.946C796.094 245.256 795.291 245.416 794.48 245.416Z" fill="#6754E9" fill-opacity="0.53"/>
<path d="M754.329 257.679H474.415C471.004 257.679 468.238 260.444 468.238 263.856C468.238 267.267 471.004 270.032 474.415 270.032H754.329C757.741 270.032 760.506 267.267 760.506 263.856C760.506 260.444 757.741 257.679 754.329 257.679Z" fill="#6754E9" fill-opacity="0.53"/>
<path d="M492.197 320.827C489.119 320.827 486.11 319.914 483.551 318.204C480.992 316.494 478.997 314.063 477.82 311.219C476.642 308.376 476.334 305.246 476.935 302.227C477.536 299.209 479.019 296.436 481.196 294.26C483.373 292.084 486.146 290.602 489.166 290.003C492.185 289.403 495.314 289.712 498.157 290.891C501 292.07 503.43 294.066 505.139 296.626C506.848 299.186 507.76 302.195 507.758 305.273C507.755 309.398 506.114 313.353 503.196 316.27C500.278 319.186 496.322 320.825 492.197 320.827ZM492.197 293.171C489.804 293.171 487.464 293.881 485.474 295.211C483.484 296.541 481.932 298.431 481.017 300.642C480.101 302.853 479.861 305.286 480.328 307.634C480.795 309.981 481.947 312.138 483.64 313.83C485.332 315.523 487.489 316.675 489.836 317.142C492.184 317.609 494.617 317.369 496.828 316.453C499.039 315.537 500.929 313.986 502.259 311.996C503.589 310.006 504.299 307.666 504.299 305.273C504.295 302.065 503.019 298.989 500.75 296.72C498.481 294.451 495.405 293.175 492.197 293.171Z" fill="#CB45ED"/>
<path d="M587.036 320.827C583.958 320.829 580.948 319.917 578.388 318.208C575.828 316.498 573.832 314.068 572.654 311.224C571.475 308.38 571.166 305.251 571.766 302.232C572.367 299.213 573.849 296.439 576.026 294.262C578.202 292.086 580.976 290.604 583.995 290.003C587.014 289.403 590.144 289.712 592.987 290.89C595.831 292.069 598.262 294.065 599.971 296.625C601.68 299.185 602.592 302.195 602.59 305.273C602.585 309.396 600.944 313.35 598.029 316.265C595.113 319.181 591.16 320.822 587.036 320.827ZM587.036 293.171C584.642 293.17 582.302 293.878 580.311 295.207C578.32 296.536 576.768 298.426 575.851 300.637C574.934 302.848 574.693 305.282 575.159 307.63C575.625 309.978 576.777 312.134 578.469 313.828C580.162 315.521 582.318 316.674 584.666 317.142C587.013 317.609 589.447 317.37 591.659 316.454C593.87 315.538 595.761 313.987 597.091 311.997C598.421 310.007 599.131 307.667 599.131 305.273C599.127 302.066 597.852 298.991 595.585 296.722C593.318 294.454 590.243 293.177 587.036 293.171Z" fill="#CB45ED"/>
<path d="M681.867 320.827C678.789 320.829 675.779 319.917 673.219 318.208C670.659 316.498 668.663 314.068 667.485 311.224C666.306 308.38 665.997 305.251 666.597 302.232C667.198 299.213 668.68 296.439 670.857 294.262C673.033 292.086 675.807 290.604 678.826 290.003C681.845 289.403 684.975 289.712 687.818 290.89C690.662 292.069 693.092 294.065 694.802 296.625C696.511 299.185 697.423 302.195 697.421 305.273C697.416 309.396 695.775 313.35 692.859 316.265C689.944 319.181 685.991 320.822 681.867 320.827ZM681.867 293.171C679.474 293.171 677.134 293.881 675.144 295.211C673.154 296.541 671.603 298.431 670.687 300.642C669.771 302.853 669.531 305.286 669.998 307.634C670.465 309.981 671.617 312.138 673.31 313.83C675.002 315.523 677.159 316.675 679.506 317.142C681.854 317.609 684.287 317.369 686.498 316.453C688.709 315.537 690.6 313.986 691.929 311.996C693.259 310.006 693.969 307.666 693.969 305.273C693.965 302.065 692.689 298.989 690.42 296.72C688.151 294.451 685.075 293.175 681.867 293.171Z" fill="#CB45ED"/>
<path d="M776.699 320.827C773.621 320.829 770.611 319.917 768.051 318.208C765.491 316.498 763.495 314.068 762.317 311.224C761.138 308.38 760.829 305.251 761.43 302.232C762.03 299.213 763.512 296.439 765.689 294.262C767.865 292.086 770.639 290.604 773.658 290.003C776.677 289.403 779.807 289.712 782.651 290.89C785.494 292.069 787.924 294.065 789.634 296.625C791.343 299.185 792.255 302.195 792.254 305.273C792.248 309.396 790.607 313.35 787.692 316.265C784.776 319.181 780.823 320.822 776.699 320.827ZM776.699 293.171C774.306 293.171 771.966 293.881 769.976 295.211C767.986 296.541 766.435 298.431 765.519 300.642C764.603 302.853 764.363 305.286 764.83 307.634C765.297 309.981 766.45 312.138 768.142 313.83C769.834 315.523 771.991 316.675 774.338 317.142C776.686 317.609 779.119 317.369 781.33 316.453C783.542 315.537 785.432 313.986 786.761 311.996C788.091 310.006 788.801 307.666 788.801 305.273C788.797 302.065 787.521 298.989 785.252 296.72C782.984 294.451 779.908 293.175 776.699 293.171Z" fill="#CB45ED"/>
<path d="M794.48 438.741H474.43C473.619 438.741 472.816 438.582 472.066 438.271C471.317 437.961 470.636 437.506 470.062 436.932C469.488 436.359 469.034 435.678 468.723 434.928C468.413 434.179 468.253 433.376 468.253 432.565C468.253 431.753 468.413 430.95 468.723 430.201C469.034 429.451 469.488 428.77 470.062 428.197C470.636 427.623 471.317 427.168 472.066 426.858C472.816 426.547 473.619 426.388 474.43 426.388H794.48C796.118 426.388 797.689 427.038 798.847 428.197C800.006 429.355 800.657 430.926 800.657 432.565C800.657 434.203 800.006 435.774 798.847 436.932C797.689 438.091 796.118 438.741 794.48 438.741Z" fill="#6754E9" fill-opacity="0.53"/>
<path d="M794.479 451.277H474.415C471.004 451.277 468.238 454.043 468.238 457.454C468.238 460.866 471.004 463.631 474.415 463.631H794.479C797.89 463.631 800.656 460.866 800.656 457.454C800.656 454.043 797.89 451.277 794.479 451.277Z" fill="#6754E9" fill-opacity="0.53"/>
<path d="M651.115 475.887H474.415C471.004 475.887 468.238 478.652 468.238 482.064C468.238 485.475 471.004 488.241 474.415 488.241H651.115C654.526 488.241 657.292 485.475 657.292 482.064C657.292 478.652 654.526 475.887 651.115 475.887Z" fill="#6754E9" fill-opacity="0.53"/>
<path d="M794.48 389.34H474.43C473.619 389.34 472.816 389.18 472.066 388.87C471.317 388.56 470.636 388.105 470.062 387.531C469.488 386.958 469.034 386.277 468.723 385.527C468.413 384.778 468.253 383.975 468.253 383.163C468.253 382.352 468.413 381.549 468.723 380.8C469.034 380.05 469.488 379.369 470.062 378.796C470.636 378.222 471.317 377.767 472.066 377.457C472.816 377.146 473.619 376.987 474.43 376.987H794.48C796.118 376.987 797.689 377.637 798.847 378.796C800.006 379.954 800.657 381.525 800.657 383.163C800.657 384.802 800.006 386.373 798.847 387.531C797.689 388.689 796.118 389.34 794.48 389.34Z" fill="#6754E9" fill-opacity="0.53"/>
<path d="M794.48 414.223H474.43C473.619 414.223 472.816 414.063 472.066 413.753C471.317 413.442 470.636 412.987 470.062 412.414C469.488 411.84 469.034 411.159 468.723 410.41C468.413 409.66 468.253 408.857 468.253 408.046C468.253 407.235 468.413 406.432 468.723 405.682C469.034 404.933 469.488 404.252 470.062 403.678C470.636 403.105 471.317 402.65 472.066 402.339C472.816 402.029 473.619 401.869 474.43 401.869H794.48C796.118 401.869 797.689 402.52 798.847 403.678C800.006 404.837 800.657 406.408 800.657 408.046C800.657 409.684 800.006 411.255 798.847 412.414C797.689 413.572 796.118 414.223 794.48 414.223Z" fill="#6754E9" fill-opacity="0.53"/>
<path d="M492.197 539.035C489.119 539.035 486.11 538.123 483.551 536.412C480.992 534.702 478.997 532.271 477.82 529.428C476.642 526.584 476.334 523.454 476.935 520.436C477.536 517.417 479.019 514.644 481.196 512.468C483.373 510.292 486.146 508.811 489.166 508.211C492.185 507.611 495.314 507.92 498.157 509.099C501 510.278 503.43 512.274 505.139 514.834C506.848 517.394 507.76 520.403 507.758 523.481C507.755 527.606 506.114 531.562 503.196 534.478C500.278 537.394 496.322 539.033 492.197 539.035ZM492.197 511.379C489.804 511.379 487.464 512.089 485.474 513.419C483.484 514.749 481.932 516.639 481.017 518.85C480.101 521.061 479.861 523.495 480.328 525.842C480.795 528.189 481.947 530.346 483.64 532.038C485.332 533.731 487.489 534.883 489.836 535.35C492.184 535.817 494.617 535.577 496.828 534.662C499.039 533.746 500.929 532.194 502.259 530.204C503.589 528.214 504.299 525.875 504.299 523.481C504.295 520.273 503.019 517.197 500.75 514.928C498.481 512.659 495.405 511.383 492.197 511.379Z" fill="#CB45ED"/>
<path d="M587.036 539.035C583.958 539.037 580.948 538.125 578.388 536.416C575.828 534.706 573.832 532.276 572.654 529.432C571.475 526.589 571.166 523.459 571.766 520.44C572.367 517.421 573.849 514.647 576.026 512.471C578.202 510.294 580.976 508.812 583.995 508.211C587.014 507.611 590.144 507.92 592.987 509.099C595.831 510.277 598.262 512.273 599.971 514.833C601.68 517.393 602.592 520.403 602.59 523.481C602.585 527.605 600.944 531.558 598.029 534.473C595.113 537.389 591.16 539.03 587.036 539.035ZM587.036 511.379C584.642 511.378 582.302 512.087 580.311 513.415C578.32 514.744 576.768 516.634 575.851 518.845C574.934 521.056 574.693 523.49 575.159 525.838C575.625 528.186 576.777 530.343 578.469 532.036C580.162 533.729 582.318 534.882 584.666 535.35C587.013 535.817 589.447 535.578 591.659 534.662C593.87 533.746 595.761 532.195 597.091 530.205C598.421 528.215 599.131 525.875 599.131 523.481C599.127 520.274 597.852 517.199 595.585 514.93C593.318 512.662 590.243 511.385 587.036 511.379Z" fill="#CB45ED"/>
<path d="M681.867 539.035C678.789 539.037 675.779 538.125 673.219 536.416C670.659 534.706 668.663 532.276 667.485 529.432C666.306 526.589 665.997 523.459 666.597 520.44C667.198 517.421 668.68 514.647 670.857 512.471C673.033 510.294 675.807 508.812 678.826 508.211C681.845 507.611 684.975 507.92 687.818 509.099C690.662 510.277 693.092 512.273 694.802 514.833C696.511 517.393 697.423 520.403 697.421 523.481C697.416 527.605 695.775 531.558 692.859 534.473C689.944 537.389 685.991 539.03 681.867 539.035ZM681.867 511.379C679.474 511.379 677.134 512.089 675.144 513.419C673.154 514.749 671.603 516.639 670.687 518.85C669.771 521.061 669.531 523.494 669.998 525.842C670.465 528.189 671.617 530.346 673.31 532.038C675.002 533.731 677.159 534.883 679.506 535.35C681.854 535.817 684.287 535.577 686.498 534.661C688.709 533.746 690.6 532.194 691.929 530.204C693.259 528.214 693.969 525.875 693.969 523.481C693.965 520.273 692.689 517.197 690.42 514.928C688.151 512.659 685.075 511.383 681.867 511.379Z" fill="#CB45ED"/>
<path d="M776.699 539.035C773.621 539.037 770.611 538.125 768.051 536.416C765.491 534.706 763.495 532.276 762.317 529.432C761.138 526.589 760.829 523.459 761.43 520.44C762.03 517.421 763.512 514.647 765.689 512.471C767.865 510.294 770.639 508.812 773.658 508.211C776.677 507.611 779.807 507.92 782.651 509.099C785.494 510.277 787.924 512.273 789.634 514.833C791.343 517.393 792.255 520.403 792.254 523.481C792.248 527.605 790.607 531.558 787.692 534.473C784.776 537.389 780.823 539.03 776.699 539.035ZM776.699 511.379C774.306 511.379 771.966 512.089 769.976 513.419C767.986 514.749 766.435 516.639 765.519 518.85C764.603 521.061 764.363 523.494 764.83 525.842C765.297 528.189 766.45 530.346 768.142 532.038C769.834 533.731 771.991 534.883 774.338 535.35C776.686 535.817 779.119 535.577 781.33 534.661C783.542 533.746 785.432 532.194 786.761 530.204C788.091 528.214 788.801 525.875 788.801 523.481C788.797 520.273 787.521 517.197 785.252 514.928C782.984 512.659 779.908 511.383 776.699 511.379Z" fill="#CB45ED"/>
<path d="M288.871 235.219C288.871 235.219 302.773 227.649 304.832 224.861C306.891 222.074 312.76 211.415 313.236 207.717C313.712 204.02 302.43 214.377 299.586 214.854C296.743 215.33 303.284 210.428 302.906 209.048C302.528 207.668 296.092 210.757 293.683 211.709C291.274 212.662 287.527 222.214 283.374 226.619C279.221 231.024 288.871 235.219 288.871 235.219Z" fill="#FF7955"/>
<path d="M137.832 191.883C137.832 191.883 140.514 257.427 208.313 289.642C229.477 299.698 291.309 235.163 291.309 235.163C291.309 235.163 289.089 227.873 281.21 226.759C281.21 226.759 225.31 252.02 218.552 254.562C212.564 256.81 183.479 207.549 168.128 197.885C152.777 188.22 137.832 191.883 137.832 191.883Z" fill="#131F2D"/>
<path d="M44.8839 609.649C44.8839 609.649 35.9407 617.808 37.6845 623.607C39.4283 629.406 47.489 633.264 48.5885 640.352C49.688 647.439 54.0371 651.298 57.9659 651.298H76.6787C76.6787 651.298 79.564 646.312 72.5888 644.813C65.6135 643.314 62.9803 635.008 63.4145 627.256C63.8487 619.503 62.7632 609.215 62.7632 609.215L47.9303 605.784L44.8839 609.649Z" fill="#131F2D"/>
<path d="M154.192 630.925C154.192 630.925 152.588 649.491 156.51 651.424L206.436 651.473C206.436 651.473 206.744 645.52 198.677 644.239C190.609 642.957 176.434 638.223 174.039 627.704C171.644 617.185 154.192 630.925 154.192 630.925Z" fill="#131F2D"/>
<path d="M196.967 368.288C196.967 368.288 194.32 400.833 191.204 439.96C187.002 493.108 181.882 558.385 181.399 570.753C180.531 592.232 177.036 626.583 177.036 626.583C177.036 626.583 168.758 634.742 152.182 631.303C152.182 631.303 137.412 582.281 133.189 530.379C133.126 529.532 133.063 528.671 132.993 527.816C129.071 474.997 122.964 363.778 122.964 363.778L196.967 368.288Z" fill="#CB45ED"/>
<path d="M196.968 368.288C196.968 368.288 194.32 400.833 191.204 439.96L133.182 530.407C133.119 529.56 133.056 528.698 132.986 527.844C129.064 475.025 122.957 363.806 122.957 363.806L196.968 368.288Z" fill="#A62AC6"/>
<path d="M184.873 372.133C184.873 372.133 137.118 490.005 105.736 545.401C74.3548 600.797 64.5291 616.253 64.5291 616.253C64.5291 616.253 46.5377 609.166 44.9199 604.348C44.9199 604.348 56.9236 497.408 77.9544 471.342C89.86 456.635 103.789 412.402 104.448 396.946C105.106 381.49 108.699 350.885 108.699 350.885L184.873 372.133Z" fill="#CB45ED"/>
<path d="M122.039 190.496C122.039 190.496 154.352 206.085 172.981 200.301C169.437 196.188 165.163 192.767 160.375 190.209C161.019 186.469 161.524 183.206 161.776 180.474C162.22 177.177 162.482 173.857 162.56 170.53L150.094 160.725L138.273 151.341C139.232 177.729 122.039 190.496 122.039 190.496Z" fill="#FF7955"/>
<path d="M199.012 370.978C198.481 371.463 197.791 371.737 197.072 371.748C190.069 371.608 169.633 375.481 152.37 373.723C137.755 372.322 124.861 368.078 111.051 362.014C109.188 361.166 104.958 358.911 105.035 356.936C105.112 354.681 105.322 351.509 105.602 347.412C106.184 339.351 107.003 327.908 107.262 314.342C107.451 304.278 107.346 293.059 106.611 281.168C106.569 280.369 106.527 279.564 106.492 278.759C106.289 274.402 106.184 270.011 106.184 265.718C106.045 252.728 107.025 239.75 109.111 226.927C112.613 206.464 119.224 190.454 128.965 183.325C130.254 182.337 138.28 186.217 145.724 189.817C151.954 192.837 159.015 193.683 165.782 192.219L172.232 197.822C180.047 204.944 188.647 214.749 192.443 229.567C195.588 242.124 197.45 264.836 198.459 288.395C198.956 299.117 199.313 309.839 199.46 320.064V320.421C199.537 321.472 199.537 322.522 199.537 323.601C199.867 349.807 199.516 370.621 199.012 370.978Z" fill="#364154"/>
<path d="M138.084 161.433C138.084 161.433 146.25 176.322 161.797 180.481C162.241 177.184 162.503 173.864 162.581 170.537L150.116 160.732L138.084 161.433Z" fill="#EF6343"/>
<path d="M168.274 170.103C168.274 170.103 137.46 175.145 134.553 156.201C131.647 137.257 125.736 125.135 145.296 121.115C164.857 117.095 169.808 123.762 172.315 129.855C174.822 135.948 176.216 168.338 168.274 170.103Z" fill="#FF7955"/>
<path d="M123.378 118.846C123.098 118.53 122.453 118.271 121.018 118.187C121.838 117.724 122.758 117.467 123.7 117.438C124.001 115.435 125.059 111.905 128.497 111.044C127.936 111.371 127.456 111.821 127.092 112.359C126.728 112.897 126.491 113.511 126.396 114.153C130.374 110.064 138.911 107.087 162.533 108.95C193.663 111.408 183.403 131.36 179.341 133.721C175.279 136.081 165.166 129.582 157.631 130.177C150.095 130.772 148.695 141.62 146.145 143.112C143.596 144.604 144.598 141.963 141.152 140.409C137.706 138.854 137.377 144.562 138.351 148.273C139.324 151.985 134.611 156.887 134.611 156.887L129.828 151.733C125.044 146.579 120.527 124.749 122.705 120.092C122.972 119.686 123.161 119.266 123.378 118.846Z" fill="#131F2D"/>
<path d="M107.269 314.342C107.458 304.278 107.353 293.059 106.618 281.168C106.576 280.369 106.534 279.564 106.499 278.758C109.433 264.241 113.866 251.362 120.386 250.941C120.358 250.976 139.8 281.49 107.269 314.342Z" fill="#131F2D"/>
<path d="M81.5312 367.007C81.5312 367.007 83.149 382.757 84.9278 385.741C86.7067 388.724 94.2702 398.234 97.5337 400.104C100.797 401.974 95.5588 387.561 96.2171 384.76C96.8754 381.959 98.8714 389.872 100.293 390.062C101.715 390.251 101.351 383.114 101.4 380.523C101.449 377.932 94.4873 371.524 92.0292 365.998C89.571 360.473 81.5312 367.007 81.5312 367.007Z" fill="#FF7955"/>
<path d="M128.98 183.171C128.98 183.171 109.476 192.408 100.127 206.604C85.6228 228.622 68.8079 308.887 68.4997 316.317C68.1916 323.748 80.7695 376.223 80.7695 376.223C80.7695 376.223 93.5294 375.383 96.8209 368.94C96.8209 368.94 94.2718 315.014 95.8895 311.562C97.5073 308.109 149.114 239.246 143.288 224.553C137.461 209.86 128.98 183.171 128.98 183.171Z" fill="#364154"/>
<path d="M622.381 358.946C621.572 359.123 620.726 358.972 620.029 358.525C619.331 358.079 618.84 357.374 618.662 356.565L610.735 320.309C610.561 319.501 610.715 318.658 611.161 317.963C611.607 317.267 612.309 316.777 613.116 316.597C613.924 316.422 614.768 316.575 615.464 317.021C616.159 317.467 616.65 318.171 616.828 318.978L624.762 355.248C624.931 356.054 624.776 356.894 624.33 357.586C623.885 358.278 623.184 358.766 622.381 358.946Z" fill="#131F2D"/>
<path d="M730.883 403.648C730.883 403.648 756.312 453.707 759.022 461.446C761.733 469.185 767.293 490.412 767.293 490.412L759.716 491.434C759.716 491.434 749.155 469.024 748.378 466.488C747.6 463.953 732.347 448.448 729.721 440.856C727.095 433.265 730.883 403.648 730.883 403.648Z" fill="#FF7955"/>
<path d="M745.759 637.396C745.043 638.66 744.075 639.764 742.917 640.641C741.758 641.518 740.433 642.149 739.022 642.495C736.242 643.024 733.752 644.551 732.019 646.788C731.72 647.193 731.539 647.673 731.496 648.175C731.453 648.677 731.551 649.18 731.777 649.63C732.004 650.08 732.35 650.458 732.778 650.723C733.207 650.988 733.7 651.129 734.204 651.13H757.763C758.237 651.129 758.705 651.03 759.138 650.837C759.571 650.644 759.958 650.363 760.276 650.011C760.593 649.659 760.833 649.245 760.98 648.795C761.128 648.345 761.179 647.868 761.131 647.397C760.956 645.653 760.774 643.622 760.697 642.061C760.522 638.664 757.111 635.926 757.111 635.926L745.759 637.396Z" fill="#131F2D"/>
<path d="M759.443 636.997C749.078 642.782 742.698 639.511 742.698 639.511C742.25 634.133 735.379 606.47 727.991 577.658C718.887 542.411 709.005 505.448 709.005 505.448C709.005 505.448 730.057 486.742 745.359 496.939C752.432 501.652 754.701 513.838 755.682 527.053C756.83 542.46 756.235 559.268 759.471 567.301C765.458 582.267 759.443 636.997 759.443 636.997Z" fill="#B05638"/>
<path d="M755.654 527.067L727.963 577.658C718.858 542.411 708.977 505.448 708.977 505.448C708.977 505.448 730.029 486.742 745.331 496.939C752.404 501.652 754.673 513.838 755.654 527.067Z" fill="#A0462D"/>
<path d="M694.004 409.636L711.568 417.732L715.511 404.075C713.657 400.134 712.428 395.929 711.869 391.609C711.327 387.9 711.19 384.143 711.463 380.404L695.426 388.619C695.715 389.828 695.927 391.053 696.063 392.289C696.436 395.144 696.344 398.042 695.79 400.868C695.209 403.431 694.564 406.225 694.004 409.636Z" fill="#FF7955"/>
<path d="M695.79 400.847C704.894 400.602 711.898 391.623 711.898 391.623L696.091 392.268C696.455 395.125 696.353 398.022 695.79 400.847Z" fill="#EF6343"/>
<path d="M691.344 395.755C691.344 395.755 709.552 400.553 715.806 386.091C722.578 370.487 715.148 359.114 708.971 358.344C696.659 356.817 689.502 361.509 687.338 366.475C685.174 371.44 681.329 393.192 691.344 395.755Z" fill="#FF7955"/>
<path d="M688.702 364.241C683.877 364.626 678.085 359.702 683.568 352.132C688.562 345.234 708.234 341.06 718.515 349.036C742.424 367.602 725.14 386.896 714.313 392.457C713.645 392.794 712.878 392.881 712.151 392.703C711.424 392.524 710.785 392.092 710.349 391.483C708.507 388.927 705.776 384.69 706.511 382.96C707.59 380.404 707.73 374.136 704.305 375.481C700.881 376.825 693.478 363.862 688.702 364.241Z" fill="#131F2D"/>
<path d="M690.04 637.803C688.458 640.186 686.017 641.867 683.226 642.495C680.446 643.024 677.956 644.551 676.223 646.788C675.924 647.193 675.743 647.673 675.7 648.175C675.658 648.677 675.755 649.18 675.981 649.63C676.208 650.08 676.554 650.458 676.983 650.723C677.411 650.988 677.904 651.129 678.408 651.13H701.967C702.441 651.129 702.909 651.03 703.342 650.837C703.775 650.644 704.162 650.363 704.48 650.011C704.797 649.659 705.037 649.245 705.185 648.795C705.332 648.345 705.383 647.868 705.335 647.397C705.16 645.653 704.978 643.622 704.901 642.061C704.726 638.664 701.316 635.926 701.316 635.926L690.04 637.803Z" fill="#131F2D"/>
<path d="M689.396 638.426C689.396 638.426 695.307 641.703 704.867 639.694C704.867 639.694 720.869 598.178 721.829 578.611C721.871 577.827 721.885 577.077 721.871 576.37C721.549 557.965 738.539 510.056 733.951 500.237C729.364 490.419 692.345 504.649 692.345 504.649L691.645 538.041L689.396 638.426Z" fill="#B05638"/>
<path d="M700.993 511.589C695.726 511.4 691.77 510.84 690.334 509.818C684.479 505.616 684.472 464.296 681.461 440.94C681.138 438.398 680.76 436.038 680.368 434.021C676.166 413.13 682.056 403.648 691.342 404.11C691.342 404.11 716.092 397.954 726.051 404.811C734.756 410.805 745.134 460.837 753.601 504.012C754.456 508.354 719.545 512.269 700.993 511.589Z" fill="#364154"/>
<path d="M693.283 416.093C693.283 416.093 653.49 397.982 650.402 394.747C647.313 391.511 627.865 360.123 627.865 360.123L620.722 363.337C620.722 363.337 634.854 403.837 640.464 410.847C646.074 417.858 693.304 440.359 693.304 440.359L693.283 416.093Z" fill="#FF7955"/>
<path d="M627.864 360.123C627.182 358.129 626.86 356.031 626.912 353.925C627.115 350.892 624.314 344.05 623.109 344.82C621.904 345.591 623.284 347.972 621.708 348.14C620.133 348.308 615.833 340.128 614.131 341.466C612.429 342.804 611.561 347.419 614.005 353.182C615.667 356.903 617.934 360.323 620.714 363.302C621.743 365.613 628.887 362.399 627.864 360.123Z" fill="#FF7955"/>
<path d="M759.646 489.844C759.825 491.677 759.675 493.527 759.204 495.307C758.427 497.842 759.428 504.222 760.605 503.774C761.782 503.326 761.088 501.063 762.461 501.239C763.834 501.414 766.523 508.725 768.239 507.927C769.954 507.128 771.04 504.523 770.144 499.138C769.399 495.44 768.12 491.871 766.348 488.542L759.646 489.844Z" fill="#FF7955"/>
<path d="M694.956 404.593C694.956 404.593 685.208 403.256 681.293 402.871C677.693 402.513 667.356 403.914 667.356 403.914C667.356 403.914 667.251 428.251 680.901 439.491L697.786 442.39L694.956 404.593Z" fill="#364154"/>
<path d="M714.453 401.652C714.453 401.652 728.747 402.016 731.457 402.815C737.76 404.677 742.97 418.299 742.97 418.299C742.97 418.299 739.098 430.099 732.136 430.491C725.175 430.884 714.453 401.652 714.453 401.652Z" fill="#364154"/>
<path d="M700.994 511.59C695.728 511.4 691.771 510.84 690.335 509.818C684.48 505.616 684.473 464.296 681.462 440.94C684.971 449.989 703.571 498.893 700.994 511.59Z" fill="#131F2D"/>
<path d="M547.558 108.663H523.312V100.693H582.329V108.663H557.965V173.303H547.558V108.663Z" fill="#131F2D"/>
<path d="M632.473 139.26H601.49V165.438H636.016V173.303H591.195V100.693H634.251V108.558H601.49V131.501H632.473V139.26Z" fill="#131F2D"/>
<path d="M647.598 162.378C653.266 165.451 659.604 167.08 666.052 167.119C676.557 167.119 682.727 162.056 682.727 154.731C682.727 147.944 678.469 144.065 667.705 140.297C654.699 136.095 646.653 129.953 646.653 119.714C646.653 108.404 656.948 100 672.439 100C680.598 100 686.515 101.723 690.059 103.558L687.223 111.205C682.506 108.913 677.326 107.735 672.082 107.76C661.206 107.76 657.06 113.684 657.06 118.643C657.06 125.429 661.913 128.769 672.908 132.649C686.396 137.391 693.253 143.315 693.253 153.981C693.253 165.186 684.148 174.886 665.344 174.886C657.641 174.886 649.237 172.834 645 170.25L647.598 162.378Z" fill="#131F2D"/>
<path d="M722.859 108.663H698.606V100.693H757.63V108.663H733.266V173.303H722.859V108.663Z" fill="#131F2D"/>
<path d="M588.039 318.341L584.859 312.738C584.635 312.339 579.2 302.808 575.055 293.542C574.728 292.715 574.732 291.793 575.067 290.969C575.402 290.145 576.041 289.481 576.853 289.116C577.664 288.751 578.584 288.713 579.423 289.009C580.262 289.305 580.955 289.913 581.357 290.706C583.458 295.377 585.945 300.217 587.857 303.788C591.666 296.953 598.712 285.124 607.088 274.739C607.67 274.045 608.501 273.607 609.402 273.52C610.304 273.432 611.204 273.701 611.909 274.27C612.614 274.838 613.068 275.66 613.173 276.56C613.279 277.459 613.027 278.364 612.473 279.081C600.511 293.907 591.057 312.402 590.966 312.591L588.039 318.341Z" fill="#131F2D"/>
<path d="M1102.58 656.69H2.96938C2.20457 656.711 1.46271 656.428 0.906186 655.903C0.349657 655.378 0.0238016 654.654 0 653.889C0.0108768 653.51 0.0963656 653.137 0.251509 652.791C0.406653 652.445 0.628453 652.133 0.90422 651.873C1.17999 651.613 1.50435 651.41 1.85871 651.275C2.21307 651.14 2.59043 651.077 2.96938 651.088H1102.58C1102.96 651.077 1103.34 651.14 1103.69 651.275C1104.05 651.41 1104.37 651.613 1104.65 651.873C1104.92 652.133 1105.14 652.445 1105.3 652.791C1105.46 653.137 1105.54 653.51 1105.55 653.889C1105.53 654.654 1105.2 655.378 1104.65 655.903C1104.09 656.428 1103.35 656.711 1102.58 656.69Z" fill="#364154"/>
</svg>
