<svg width="62" height="60" viewBox="0 0 62 60" fill="none" xmlns="http://www.w3.org/2000/svg">
<path d="M22.1681 44.7905C21.5212 45.4373 20.8743 46.2998 20.4431 47.1623C17.8556 45.0061 15.2681 42.6342 13.1118 39.8311C13.9743 39.3998 14.8368 38.753 15.4837 38.1061C18.5024 35.0873 17.4243 31.2061 14.4056 28.1873C11.3868 25.1686 7.50556 24.0905 4.48681 27.1092C1.46806 30.128 1.03681 35.7342 3.40869 39.1842C7.72119 45.8686 14.4056 52.3373 21.0899 56.8655C24.7556 59.2373 30.1462 58.8061 33.1649 55.7873C36.1837 52.7686 35.1056 48.8873 32.0868 45.8686C29.0681 42.8498 25.4024 41.7717 22.1681 44.7905Z" stroke="#6361EB" stroke-width="3" stroke-miterlimit="10" stroke-linejoin="round"/>
<path d="M44.4367 51.8469C53.2773 47.75 59.5305 38.6938 59.5305 28.3438C59.5305 14.1125 47.8867 2.46875 33.6555 2.46875C24.168 2.46875 15.7586 7.64375 11.2305 15.4062" stroke="#E541ED" stroke-width="3" stroke-miterlimit="10" stroke-linejoin="round"/>
<path d="M25.0312 21.6596L25.8937 20.7971C27.4031 19.2877 29.775 19.2877 31.2844 20.7971C32.7937 22.3064 32.7937 24.6783 31.2844 26.1877L25.0312 32.6564H33.6562" stroke="#5956E9" stroke-width="3" stroke-miterlimit="10" stroke-linejoin="round"/>
<path d="M44.4375 28.3438H37.9688L46.5938 19.7188V34.8125" stroke="#5956E9" stroke-width="3" stroke-miterlimit="10" stroke-linejoin="round"/>
</svg>
