<svg width="172" height="51" viewBox="0 0 172 51" fill="none" xmlns="http://www.w3.org/2000/svg">
<path d="M165.31 49.9231H6.46627C3.24722 49.9231 0.638672 47.3145 0.638672 44.0955V6.46584C0.638672 3.24679 3.24722 0.638245 6.46627 0.638245H165.31C168.529 0.638245 171.137 3.24679 171.137 6.46584V44.0955C171.137 47.3145 168.529 49.9231 165.31 49.9231Z" fill="black"/>
<path d="M6.46277 1.27652C3.60139 1.27652 1.27344 3.60448 1.27344 6.46586V44.0955C1.27344 46.9569 3.60139 49.2848 6.46277 49.2848H165.309C168.171 49.2848 170.499 46.9569 170.499 44.0955V6.46586C170.499 3.60448 168.171 1.27652 165.309 1.27652H6.46277ZM165.309 50.5613H6.46277C2.89838 50.5613 0 47.6599 0 44.0955V6.46586C0 2.90146 2.89838 0 6.46277 0H165.309C168.874 0 171.772 2.90146 171.772 6.46586V44.0955C171.772 47.6599 168.874 50.5613 165.309 50.5613Z" fill="#A7A9AB"/>
<path d="M59.5652 13.2339L58.9116 11.1865C58.7512 10.6808 58.6156 10.1166 58.4922 9.63557H58.4676C58.3473 10.1166 58.2209 10.6932 58.076 11.1865L57.4346 13.2339H59.5652ZM57.188 14.3778L56.4726 16.7335H54.9062L57.5703 8.42688H59.5036L62.2015 16.7335H60.5766L59.8242 14.3778" fill="white"/>
<path d="M64.4665 10.7333L65.4409 13.7736C65.6136 14.3039 65.7338 14.7849 65.8448 15.2782H65.8818C65.9928 14.7849 66.1285 14.3162 66.2888 13.7736L67.2508 10.7333H68.8388L66.5478 16.7336H65.0585L62.8262 10.7333" fill="white"/>
<path d="M73.4128 13.798C72.3397 13.7857 71.3161 14.0077 71.3161 14.9204C71.3161 15.5124 71.6984 15.7837 72.1794 15.7837C72.793 15.7837 73.2278 15.3891 73.3727 14.9574C73.4128 14.8464 73.4128 14.7354 73.4128 14.6244V13.798ZM74.8897 15.2904C74.8897 15.8331 74.9144 16.3634 74.9884 16.7303H73.6193L73.5114 16.0674H73.4713C73.1168 16.533 72.4877 16.866 71.6984 16.866C70.4897 16.866 69.8145 15.9934 69.8145 15.0807C69.8145 13.576 71.1557 12.8021 73.3727 12.8144V12.7158C73.3727 12.3211 73.2154 11.6674 72.1547 11.6674C71.5627 11.6674 70.9461 11.8524 70.539 12.1114L70.243 11.1247C70.6871 10.8534 71.4641 10.5975 72.4137 10.5975C74.3347 10.5975 74.8897 11.8154 74.8897 13.1351" fill="white"/>
<path d="M77.0316 10.7331H78.5456V16.7334H77.0316V10.7331ZM77.7809 9.86979C77.2783 9.86979 76.9453 9.49979 76.9453 9.05578C76.9453 8.5871 77.2876 8.22943 77.7963 8.22943C78.3113 8.22943 78.6319 8.5871 78.6443 9.05578C78.6443 9.49979 78.3113 9.86979 77.7963 9.86979" fill="white"/>
<path d="M80.7266 16.7334H82.2436V7.97046H80.7266V16.7334Z" fill="white"/>
<path d="M87.6139 13.798C86.5409 13.7857 85.5172 14.0077 85.5172 14.9204C85.5172 15.5124 85.8996 15.7837 86.3806 15.7837C86.9973 15.7837 87.4289 15.3891 87.5769 14.9574C87.6139 14.8464 87.6139 14.7354 87.6139 14.6244V13.798ZM89.0909 15.2904C89.0909 15.8331 89.1155 16.3634 89.1895 16.7303H87.8236L87.7126 16.0674H87.6756C87.3179 16.533 86.6889 16.866 85.8996 16.866C84.694 16.866 84.0156 15.9934 84.0156 15.0807C84.0156 13.576 85.36 12.8021 87.5769 12.8144V12.7158C87.5769 12.3211 87.4166 11.6674 86.3559 11.6674C85.7639 11.6674 85.1472 11.8524 84.7433 12.1114L84.4473 11.1247C84.8913 10.8534 85.6652 10.5975 86.6149 10.5975C88.5359 10.5975 89.0909 11.8154 89.0909 13.1351" fill="white"/>
<path d="M92.7519 14.2544C92.7519 14.3777 92.7642 14.5011 92.7889 14.6121C92.9492 15.2287 93.4796 15.6728 94.1302 15.6728C95.0799 15.6728 95.6595 14.9204 95.6595 13.7025C95.6595 12.6418 95.1539 11.7784 94.1425 11.7784C93.5258 11.7784 92.9616 12.2224 92.8012 12.8885C92.7766 12.9995 92.7519 13.1351 92.7519 13.2831V14.2544ZM91.2349 7.97046H92.7519V11.5564H92.7766C93.1466 10.9768 93.7972 10.5975 94.6975 10.5975C96.1652 10.5975 97.2105 11.8154 97.1981 13.6408C97.1981 15.7961 95.8322 16.8691 94.4755 16.8691C93.6985 16.8691 93.0109 16.5731 92.5792 15.8331H92.5546L92.4806 16.7334H91.1855C91.2102 16.3264 91.2349 15.6604 91.2349 15.0561" fill="white"/>
<path d="M98.9824 16.7334H100.496V7.97046H98.9824V16.7334Z" fill="white"/>
<path d="M106.398 13.0981C106.411 12.5431 106.164 11.6304 105.156 11.6304C104.218 11.6304 103.824 12.4814 103.762 13.0981H106.398ZM103.762 14.1557C103.799 15.2411 104.65 15.7097 105.612 15.7097C106.312 15.7097 106.805 15.5987 107.274 15.4384L107.496 16.4713C106.978 16.6964 106.263 16.8537 105.402 16.8537C103.454 16.8537 102.307 15.6604 102.307 13.8258C102.307 12.1607 103.318 10.5975 105.242 10.5975C107.188 10.5975 107.829 12.1977 107.829 13.5174C107.829 13.8011 107.804 14.0231 107.78 14.1557" fill="white"/>
<path d="M115.356 15.7714C116.217 15.7714 116.821 14.9327 116.821 13.7148C116.821 12.7774 116.402 11.6921 115.369 11.6921C114.296 11.6921 113.864 12.7404 113.864 13.7394C113.864 14.8957 114.444 15.7714 115.341 15.7714H115.356ZM115.307 16.8691C113.617 16.8691 112.301 15.7097 112.301 13.7764C112.301 11.8031 113.593 10.5975 115.406 10.5975C117.191 10.5975 118.387 11.8524 118.387 13.6778C118.387 15.8824 116.833 16.8691 115.319 16.8691" fill="white"/>
<path d="M120.169 12.5184C120.169 11.8277 120.148 11.2481 120.123 10.7301H121.44L121.514 11.6304H121.551C121.822 11.1617 122.476 10.5975 123.475 10.5975C124.52 10.5975 125.605 11.2727 125.605 13.1721V16.7303H124.088V13.3448C124.088 12.4814 123.768 11.8277 122.944 11.8277C122.34 11.8277 121.921 12.2594 121.76 12.7158C121.711 12.8391 121.686 13.0241 121.686 13.1968V16.7303H120.169" fill="white"/>
<path d="M132.589 9.19147V10.7301H134.029V11.8648H132.589V14.5011C132.589 15.2411 132.787 15.6111 133.363 15.6111C133.635 15.6111 133.783 15.5987 133.955 15.5494L133.98 16.6933C133.758 16.7828 133.351 16.8537 132.882 16.8537C132.318 16.8537 131.862 16.6687 131.578 16.3634C131.245 16.0181 131.097 15.4631 131.097 14.6737V11.8648H130.246V10.7301H131.097V9.61081" fill="white"/>
<path d="M135.715 7.97046H137.232V11.5441H137.257C137.442 11.2604 137.701 11.0261 138.009 10.8658C138.317 10.6962 138.672 10.5975 139.054 10.5975C140.078 10.5975 141.148 11.2728 141.148 13.1968V16.7334H139.634V13.3571C139.634 12.4938 139.313 11.8278 138.474 11.8278C137.886 11.8278 137.466 12.2224 137.294 12.6788C137.244 12.8145 137.232 12.9748 137.232 13.1351V16.7334H135.715" fill="white"/>
<path d="M147.014 13.0981C147.026 12.5431 146.779 11.6304 145.768 11.6304C144.83 11.6304 144.439 12.4814 144.377 13.0981H147.014ZM144.377 14.1557C144.414 15.2411 145.262 15.7097 146.224 15.7097C146.927 15.7097 147.421 15.5987 147.886 15.4384L148.111 16.4713C147.593 16.6964 146.878 16.8537 146.015 16.8537C144.069 16.8537 142.922 15.6604 142.922 13.8258C142.922 12.1607 143.933 10.5975 145.854 10.5975C147.8 10.5975 148.441 12.1977 148.441 13.5174C148.441 13.8011 148.416 14.0231 148.392 14.1557" fill="white"/>
<path d="M38.3359 24.7874C38.2958 20.6772 41.6998 18.6761 41.8571 18.5836C39.93 15.7715 36.9422 15.3892 35.8907 15.3584C33.384 15.0963 30.9512 16.8631 29.6746 16.8631C28.3704 16.8631 26.4001 15.3861 24.2818 15.4293C21.5499 15.4725 18.9969 17.0542 17.597 19.5055C14.711 24.5099 16.8632 31.8606 19.6321 35.906C21.0196 37.8856 22.6353 40.0994 24.7536 40.0193C26.8256 39.9329 27.5995 38.6996 30.1002 38.6996C32.5792 38.6996 33.3069 40.0193 35.4683 39.9699C37.6914 39.9329 39.0913 37.9812 40.4264 35.98C42.0298 33.7107 42.6711 31.4752 42.6958 31.3611C42.6434 31.3426 38.379 29.7146 38.3359 24.7874Z" fill="white"/>
<path d="M34.2542 12.7005C35.3673 11.3068 36.1351 9.40743 35.9192 7.4834C34.3066 7.5574 32.2901 8.59958 31.1276 9.96244C30.1009 11.165 29.1789 13.1352 29.4194 14.9853C31.2325 15.1209 33.0918 14.0726 34.2542 12.7005Z" fill="white"/>
<path d="M63.3415 32.6344L61.9108 28.2159C61.7597 27.7658 61.4761 26.702 61.0567 25.0308H61.0074C60.8409 25.7492 60.5696 26.813 60.2026 28.2159L58.7966 32.6344H63.3415ZM68.2873 39.6923H65.3981L63.8164 34.7219H58.3218L56.814 39.6923H54.002L59.4534 22.7707H62.8143" fill="white"/>
<path d="M79.5349 33.541C79.5349 32.3508 79.2667 31.3733 78.7302 30.6025C78.1443 29.8008 77.3581 29.3969 76.3714 29.3969C75.7023 29.3969 75.0918 29.622 74.5522 30.0629C74.0095 30.51 73.6518 31.0897 73.4823 31.8112C73.399 32.1442 73.3589 32.4186 73.3589 32.6344V34.6695C73.3589 35.5575 73.6303 36.3068 74.1729 36.9173C74.7187 37.5309 75.4248 37.833 76.2943 37.833C77.318 37.833 78.1135 37.4414 78.6778 36.6521C79.2513 35.8658 79.5349 34.8298 79.5349 33.541ZM82.2977 33.4392C82.2977 35.5143 81.7365 37.1578 80.6141 38.3603C79.6089 39.4333 78.3602 39.9667 76.874 39.9667C75.2645 39.9667 74.1113 39.3871 73.4083 38.2339H73.3589V44.6627H70.6455V31.5059C70.6455 30.2017 70.6147 28.8635 70.5469 27.4883H72.9303L73.0814 29.4246H73.1338C74.0373 27.9662 75.4094 27.2385 77.2502 27.2385C78.687 27.2385 79.8926 27.809 80.8515 28.9467C81.8136 30.0876 82.2977 31.583 82.2977 33.4392Z" fill="white"/>
<path d="M93.569 33.541C93.569 32.3508 93.3007 31.3733 92.7642 30.6025C92.1784 29.8008 91.3921 29.3969 90.4054 29.3969C89.7363 29.3969 89.1289 29.622 88.5862 30.0629C88.0405 30.51 87.689 31.0897 87.5224 31.8112C87.4361 32.1442 87.396 32.4186 87.396 32.6344V34.6695C87.396 35.5575 87.6643 36.3068 88.207 36.9173C88.7527 37.5309 89.4588 37.833 90.3314 37.833C91.352 37.833 92.1475 37.4414 92.7149 36.6521C93.2822 35.8658 93.569 34.8298 93.569 33.541ZM96.3286 33.4392C96.3286 35.5143 95.7705 37.1578 94.6482 38.3603C93.643 39.4333 92.3973 39.9667 90.908 39.9667C89.3016 39.9667 88.1484 39.3871 87.4423 38.2339H87.396V44.6627H84.6827V31.5059C84.6827 30.2017 84.6487 28.8635 84.584 27.4883H86.9674L87.1185 29.4246H87.1709C88.0713 27.9662 89.4434 27.2385 91.2842 27.2385C92.7241 27.2385 93.9236 27.809 94.8887 28.9467C95.8507 30.0876 96.3286 31.583 96.3286 33.4392Z" fill="white"/>
<path d="M112.022 34.9472C112.022 36.384 111.522 37.5557 110.517 38.4622C109.413 39.4489 107.881 39.9423 105.91 39.9423C104.088 39.9423 102.626 39.5908 101.52 38.8878L102.149 36.6307C103.342 37.3491 104.646 37.7068 106.071 37.7068C107.091 37.7068 107.887 37.4786 108.457 37.0192C109.024 36.5567 109.308 35.94 109.308 35.1692C109.308 34.4847 109.077 33.9019 108.608 33.4332C108.14 32.9646 107.359 32.5298 106.271 32.1259C103.308 31.019 101.828 29.4002 101.828 27.2726C101.828 25.882 102.346 24.7412 103.385 23.8532C104.421 22.9652 105.802 22.5181 107.526 22.5181C109.068 22.5181 110.347 22.7894 111.368 23.3228L110.69 25.5336C109.737 25.0156 108.658 24.7535 107.452 24.7535C106.496 24.7535 105.753 24.9879 105.22 25.4565C104.769 25.8759 104.541 26.3877 104.541 26.989C104.541 27.6581 104.797 28.21 105.318 28.6448C105.768 29.0456 106.589 29.4803 107.779 29.9521C109.234 30.538 110.304 31.2225 110.992 32.0087C111.676 32.795 112.022 33.7755 112.022 34.9472Z" fill="white"/>
<path d="M120.984 29.5235H117.996V35.4467C117.996 36.9545 118.523 37.7068 119.581 37.7068C120.062 37.7068 120.466 37.6667 120.783 37.5835L120.857 39.6401C120.327 39.8436 119.621 39.9423 118.751 39.9423C117.681 39.9423 116.843 39.6154 116.238 38.9648C115.637 38.3112 115.335 37.2135 115.335 35.6749V29.5235H113.553V27.4885H115.335V25.2561L117.996 24.4514V27.4885H120.984" fill="white"/>
<path d="M131.654 33.578C131.654 32.4525 131.41 31.4905 130.923 30.6827C130.359 29.7083 129.545 29.2211 128.49 29.2211C127.402 29.2211 126.572 29.7083 126.005 30.6827C125.518 31.4905 125.28 32.471 125.28 33.6304C125.28 34.7558 125.518 35.7178 126.005 36.5226C126.591 37.4969 127.411 37.9841 128.469 37.9841C129.501 37.9841 130.315 37.4908 130.901 36.4979C131.404 35.6777 131.654 34.7034 131.654 33.578ZM134.466 33.4916C134.466 35.3663 133.932 36.9049 132.859 38.1105C131.737 39.3501 130.248 39.9667 128.391 39.9667C126.597 39.9667 125.172 39.3716 124.109 38.1845C123.048 36.9974 122.518 35.4989 122.518 33.692C122.518 31.7989 123.063 30.251 124.161 29.0485C125.256 27.8398 126.733 27.2385 128.589 27.2385C130.38 27.2385 131.823 27.8336 132.909 29.0207C133.948 30.1801 134.466 31.6663 134.466 33.4916Z" fill="white"/>
<path d="M143.279 29.8748C143.011 29.8255 142.728 29.8008 142.425 29.8008C141.473 29.8008 140.733 30.1616 140.215 30.88C139.764 31.5183 139.539 32.3199 139.539 33.2881V39.6923H136.829L136.851 31.3333C136.851 29.9242 136.817 28.6445 136.752 27.4883H139.114L139.212 29.8255H139.283C139.57 29.0238 140.023 28.3763 140.64 27.8922C141.244 27.4574 141.898 27.2385 142.601 27.2385C142.851 27.2385 143.079 27.257 143.279 27.2879" fill="white"/>
<path d="M152.816 32.3108C152.834 31.5091 152.659 30.8122 152.292 30.2264C151.823 29.474 151.098 29.0948 150.13 29.0948C149.245 29.0948 148.524 29.4648 147.972 30.2017C147.522 30.7876 147.25 31.4906 147.173 32.3108H152.816ZM155.4 33.0138C155.4 33.5009 155.369 33.908 155.304 34.244H147.173C147.201 35.4496 147.596 36.3716 148.351 37.0068C149.036 37.5772 149.924 37.8578 151.012 37.8578C152.215 37.8578 153.312 37.6666 154.302 37.2812L154.728 39.1651C153.571 39.6646 152.208 39.9206 150.633 39.9206C148.743 39.9206 147.257 39.3625 146.177 38.2463C145.101 37.1363 144.559 35.6408 144.559 33.7661C144.559 31.9253 145.058 30.3929 146.066 29.1719C147.118 27.8645 148.542 27.2139 150.331 27.2139C152.088 27.2139 153.423 27.8645 154.327 29.1719C155.045 30.2079 155.4 31.4906 155.4 33.0138Z" fill="white"/>
</svg>
