<svg width="74" height="74" viewBox="0 0 74 74" fill="none" xmlns="http://www.w3.org/2000/svg">
<rect width="64" height="64" rx="15" transform="matrix(1 0 0 -1 0 64)" fill="url(#paint0_linear_867_13)"/>
<g filter="url(#filter0_b_867_13)">
<rect width="64" height="64" rx="15" transform="matrix(1 0 0 -1 10 74)" fill="#EEEEEE" fill-opacity="0.61"/>
<rect x="0.5" y="-0.5" width="63" height="63" rx="14.5" transform="matrix(1 0 0 -1 10 73)" stroke="white"/>
</g>
<path d="M48 45.75C47.8952 45.75 47.7896 45.7305 47.6888 45.6882C47.3849 45.5631 47.1875 45.2658 47.1875 44.9375V39.25H44.75C44.3007 39.25 43.9375 38.8868 43.9375 38.4375C43.9375 37.9882 44.3007 37.625 44.75 37.625H48C48.4493 37.625 48.8125 37.9882 48.8125 38.4375V42.9761L53.9256 37.8631C54.0775 37.7103 54.2839 37.625 54.5 37.625H59.375V24.625H36.625V30.3125C36.625 30.7618 36.2618 31.125 35.8125 31.125C35.3632 31.125 35 30.7618 35 30.3125V23.8125C35 23.3632 35.3632 23 35.8125 23H60.1875C60.6368 23 61 23.3632 61 23.8125V38.4375C61 38.8868 60.6368 39.25 60.1875 39.25H54.8364L48.5744 45.5119C48.4193 45.6671 48.2113 45.75 48 45.75Z" fill="#E3750F"/>
<path d="M48 62H22V58.7679C22 56.8032 23.2431 55.0393 25.0948 54.3787L30.9806 52.276V49.3591H32.6056V53.4216L25.64 55.9087C24.4351 56.3393 23.625 57.4882 23.625 58.7679V60.375H46.375V58.7679C46.375 57.4882 45.5658 56.3393 44.3608 55.9079L37.3953 53.4208V49.1381H39.0203V52.276L44.9076 54.3787C46.7577 55.0401 48 56.8032 48 58.7679V62Z" fill="#E3750F"/>
<path d="M34.8405 51.0954C30.856 51.0954 27.6133 47.2775 27.6133 42.5845C27.6133 37.8931 30.8552 34.0752 34.8405 34.0752C38.8258 34.0752 42.0677 37.8923 42.0677 42.5845C42.0668 47.2775 38.825 51.0954 34.8405 51.0954ZM34.8405 35.701C31.7513 35.701 29.2383 38.7893 29.2383 42.5853C29.2383 46.3821 31.7513 49.4713 34.8405 49.4713C37.9296 49.4713 40.4427 46.3821 40.4427 42.5853C40.4418 38.7893 37.9288 35.701 34.8405 35.701Z" fill="#E3750F"/>
<path d="M39.5302 42.8681C38.0044 42.8681 36.7921 42.2205 35.7619 40.8571C34.613 41.9646 32.7215 42.7559 30.9917 42.7559C29.9403 42.7559 29.0311 42.5366 28.1309 42.0653L28.8849 40.6264C29.5519 40.9757 30.2019 41.1309 30.9917 41.1309C32.5858 41.1309 34.5447 40.1592 35.1021 39.0916L35.7903 37.7737L36.528 39.0647C37.5932 40.9302 38.6617 41.4909 40.4597 41.1464C40.6393 41.1122 40.8034 41.1106 40.9627 41.1106C41.0171 41.1106 41.0724 41.1139 41.1317 41.1066L41.3283 42.7186C41.1959 42.7356 41.0732 42.7364 40.9472 42.7356C40.8904 42.7332 40.8286 42.7299 40.7644 42.7421C40.3322 42.825 39.921 42.8681 39.5302 42.8681Z" fill="#E3750F"/>
<path d="M52.0625 31.125C51.6132 31.125 51.25 31.489 51.25 31.9375C51.25 32.386 51.6132 32.75 52.0625 32.75C52.5118 32.75 52.875 32.386 52.875 31.9375C52.875 31.489 52.5118 31.125 52.0625 31.125Z" fill="#E3750F"/>
<path d="M48 31.125C47.5507 31.125 47.1875 31.489 47.1875 31.9375C47.1875 32.386 47.5507 32.75 48 32.75C48.4493 32.75 48.8125 32.386 48.8125 31.9375C48.8125 31.489 48.4493 31.125 48 31.125Z" fill="#E3750F"/>
<path d="M43.9375 31.125C43.4882 31.125 43.125 31.489 43.125 31.9375C43.125 32.386 43.4882 32.75 43.9375 32.75C44.3868 32.75 44.75 32.386 44.75 31.9375C44.75 31.489 44.3868 31.125 43.9375 31.125Z" fill="#E3750F"/>
<defs>
<filter id="filter0_b_867_13" x="2" y="2" width="80" height="80" filterUnits="userSpaceOnUse" color-interpolation-filters="sRGB">
<feFlood flood-opacity="0" result="BackgroundImageFix"/>
<feGaussianBlur in="BackgroundImageFix" stdDeviation="4"/>
<feComposite in2="SourceAlpha" operator="in" result="effect1_backgroundBlur_867_13"/>
<feBlend mode="normal" in="SourceGraphic" in2="effect1_backgroundBlur_867_13" result="shape"/>
</filter>
<linearGradient id="paint0_linear_867_13" x1="32" y1="0" x2="32" y2="64" gradientUnits="userSpaceOnUse">
<stop stop-color="#FFAC60"/>
<stop offset="1" stop-color="#FFE3C1" stop-opacity="0.34"/>
</linearGradient>
</defs>
</svg>
