<svg width="74" height="74" viewBox="0 0 74 74" fill="none" xmlns="http://www.w3.org/2000/svg">
<rect width="64" height="64" rx="15" transform="matrix(1 0 0 -1 0 64)" fill="url(#paint0_linear_867_12)"/>
<g filter="url(#filter0_b_867_12)">
<rect width="64" height="64" rx="15" transform="matrix(1 0 0 -1 10 74)" fill="#EEEEEE" fill-opacity="0.61"/>
<rect x="0.5" y="-0.5" width="63" height="63" rx="14.5" transform="matrix(1 0 0 -1 10 73)" stroke="white"/>
</g>
<path d="M31.922 38.2475C31.6483 37.9738 31.2059 37.9738 30.9322 38.2475L24.9924 44.1873C24.7187 44.461 24.7187 44.9034 24.9924 45.1771C25.1289 45.3136 25.3081 45.3822 25.4873 45.3822C25.6665 45.3822 25.8457 45.3136 25.9822 45.1771L31.922 39.2374C32.1957 38.9644 32.1957 38.5212 31.922 38.2475Z" fill="#456C34"/>
<path d="M29.4469 43.6923C29.5835 43.8288 29.7627 43.8974 29.9419 43.8974C30.1211 43.8974 30.3003 43.8288 30.4368 43.6923L33.407 40.7221C33.6807 40.4484 33.6807 40.006 33.407 39.7323C33.1333 39.4585 32.6909 39.4585 32.4172 39.7323L29.4469 42.7025C29.1739 42.9762 29.1739 43.4193 29.4469 43.6923Z" fill="#456C34"/>
<path d="M35.388 41.7127C35.1143 41.439 34.6719 41.439 34.3982 41.7127L31.4279 44.6823C31.1542 44.956 31.1542 45.3984 31.4279 45.6721C31.5644 45.8086 31.7437 45.8772 31.9229 45.8772C32.1021 45.8772 32.2813 45.8086 32.4178 45.6721L35.388 42.7026C35.661 42.4296 35.661 41.9864 35.388 41.7127Z" fill="#456C34"/>
<path d="M32.9123 47.1575C33.0488 47.294 33.228 47.3626 33.4072 47.3626C33.5864 47.3626 33.7657 47.294 33.9022 47.1575L36.8717 44.1879C37.1454 43.9142 37.1454 43.4718 36.8717 43.1981C36.598 42.9244 36.1556 42.9244 35.8818 43.1981L32.9123 46.1676C32.6386 46.4406 32.6386 46.8837 32.9123 47.1575Z" fill="#456C34"/>
<path d="M35.3869 49.6328C35.5234 49.7693 35.7026 49.8379 35.8818 49.8379C36.0611 49.8379 36.2403 49.7693 36.3768 49.6328L39.347 46.6625C39.6207 46.3888 39.6207 45.9464 39.347 45.6727C39.0733 45.399 38.6309 45.399 38.3572 45.6727L35.3869 48.6429C35.1132 48.9159 35.1132 49.3591 35.3869 49.6328Z" fill="#456C34"/>
<path d="M36.8727 51.1176C37.0092 51.2541 37.1884 51.3227 37.3676 51.3227C37.5469 51.3227 37.7261 51.2541 37.8626 51.1176L40.8328 48.1474C41.1065 47.8737 41.1065 47.4313 40.8328 47.1576C40.5591 46.8838 40.1167 46.8838 39.843 47.1576L36.8727 50.1278C36.5997 50.4008 36.5997 50.8439 36.8727 51.1176Z" fill="#456C34"/>
<path d="M38.3571 52.6024C38.4936 52.7389 38.6728 52.8075 38.852 52.8075C39.0312 52.8075 39.2104 52.7389 39.3469 52.6024L42.3172 49.6329C42.5909 49.3592 42.5909 48.9167 42.3172 48.643C42.0435 48.3693 41.601 48.3693 41.3273 48.643L38.3571 51.6126C38.0841 51.8863 38.0841 52.3287 38.3571 52.6024Z" fill="#456C34"/>
<path d="M42.813 50.1278L36.8733 56.0675C36.5995 56.3412 36.5995 56.7837 36.8733 57.0574C37.0098 57.1939 37.189 57.2625 37.3682 57.2625C37.5474 57.2625 37.7266 57.1939 37.8631 57.0574L43.8029 51.1176C44.0766 50.8439 44.0766 50.4015 43.8029 50.1278C43.5291 49.8541 43.086 49.8541 42.813 50.1278Z" fill="#456C34"/>
<path d="M62.404 19.2053C62.1303 18.9316 61.6879 18.9316 61.4142 19.2053L58.8185 21.8003H42.5204L22.0305 42.4589C21.5636 42.9251 21.3066 43.546 21.3066 44.2055C21.3066 44.8649 21.5636 45.4858 22.0305 45.9521L36.3573 60.2789C36.8382 60.7598 37.4689 60.9999 38.1011 60.9999C38.7353 60.9999 39.3709 60.7577 39.8568 60.2719L59.8083 39.7813V22.7901L62.4033 20.1951C62.677 19.9214 62.677 19.479 62.404 19.2053ZM58.409 39.2129L38.8606 59.289C38.4441 59.7063 37.7651 59.7063 37.3471 59.289L23.0203 44.9622C22.818 44.7599 22.7067 44.4911 22.7067 44.2055C22.7067 43.9199 22.818 43.6511 23.0224 43.4466L43.1035 23.2004H57.4191L54.0359 26.5836C53.4821 26.2168 52.8206 26.0005 52.1087 26.0005C50.1787 26.0005 48.6085 27.5706 48.6085 29.5006C48.6085 31.4306 50.1787 33.0008 52.1087 33.0008C54.0387 33.0008 55.6088 31.4306 55.6088 29.5006C55.6088 28.7887 55.3925 28.1272 55.0257 27.5734L58.409 24.1902V39.2129ZM54.2088 29.5006C54.2088 30.6585 53.2665 31.6007 52.1087 31.6007C50.9508 31.6007 50.0086 30.6585 50.0086 29.5006C50.0086 28.3428 50.9508 27.4005 52.1087 27.4005C52.4321 27.4005 52.7345 27.4803 53.0082 27.6113L51.6138 29.0057C51.3401 29.2794 51.3401 29.7218 51.6138 29.9956C51.7503 30.1321 51.9295 30.2007 52.1087 30.2007C52.2879 30.2007 52.4671 30.1321 52.6036 29.9956L53.9981 28.6011C54.129 28.8748 54.2088 29.1772 54.2088 29.5006Z" fill="#456C34"/>
<path d="M27.4678 44.6829L26.9729 45.1779C26.6992 45.4516 26.6992 45.894 26.9729 46.1677C27.1094 46.3042 27.2886 46.3728 27.4678 46.3728C27.647 46.3728 27.8262 46.3042 27.9627 46.1677L28.4576 45.6728C28.7313 45.3991 28.7313 44.9567 28.4576 44.6829C28.1839 44.4092 27.7415 44.4092 27.4678 44.6829Z" fill="#456C34"/>
<path d="M30.4381 46.6626C30.1644 46.3888 29.722 46.3888 29.4483 46.6626L28.9533 47.1575C28.6796 47.4312 28.6796 47.8736 28.9533 48.1473C29.0898 48.2838 29.269 48.3524 29.4483 48.3524C29.6275 48.3524 29.8067 48.2838 29.9432 48.1473L30.4381 47.6524C30.7111 47.3787 30.7111 46.9356 30.4381 46.6626Z" fill="#456C34"/>
<path d="M30.9326 48.148L30.4377 48.643C30.164 48.9167 30.164 49.3591 30.4377 49.6328C30.5742 49.7693 30.7534 49.8379 30.9326 49.8379C31.1118 49.8379 31.291 49.7693 31.4275 49.6328L31.9225 49.1379C32.1962 48.8642 32.1962 48.4217 31.9225 48.148C31.6488 47.8743 31.2063 47.8743 30.9326 48.148Z" fill="#456C34"/>
<path d="M34.3971 50.6226C34.1234 50.3489 33.6809 50.3489 33.4072 50.6226L32.9123 51.1176C32.6386 51.3913 32.6386 51.8337 32.9123 52.1074C33.0488 52.2439 33.228 52.3125 33.4072 52.3125C33.5864 52.3125 33.7657 52.2439 33.9022 52.1074L34.3971 51.6125C34.6701 51.3388 34.6701 50.8957 34.3971 50.6226Z" fill="#456C34"/>
<path d="M35.8834 52.1074C35.6097 51.8337 35.1673 51.8337 34.8936 52.1074L34.3986 52.6023C34.1249 52.876 34.1249 53.3184 34.3986 53.5921C34.5351 53.7287 34.7144 53.7973 34.8936 53.7973C35.0728 53.7973 35.252 53.7287 35.3885 53.5921L35.8834 53.0972C36.1564 52.8235 36.1564 52.3811 35.8834 52.1074Z" fill="#456C34"/>
<path d="M37.3687 54.582C37.6417 54.3083 37.6417 53.8651 37.3687 53.5921C37.0949 53.3184 36.6518 53.3184 36.3781 53.5921L35.8825 54.0877C35.6095 54.3615 35.6095 54.8046 35.8825 55.0776C36.019 55.2141 36.1982 55.2827 36.3774 55.2827C36.5566 55.2827 36.7358 55.2141 36.873 55.0776L37.3687 54.582Z" fill="#456C34"/>
<defs>
<filter id="filter0_b_867_12" x="2" y="2" width="80" height="80" filterUnits="userSpaceOnUse" color-interpolation-filters="sRGB">
<feFlood flood-opacity="0" result="BackgroundImageFix"/>
<feGaussianBlur in="BackgroundImageFix" stdDeviation="4"/>
<feComposite in2="SourceAlpha" operator="in" result="effect1_backgroundBlur_867_12"/>
<feBlend mode="normal" in="SourceGraphic" in2="effect1_backgroundBlur_867_12" result="shape"/>
</filter>
<linearGradient id="paint0_linear_867_12" x1="32" y1="0" x2="32" y2="64" gradientUnits="userSpaceOnUse">
<stop stop-color="#76CD4E"/>
<stop offset="1" stop-color="#CAFFC9" stop-opacity="0.34"/>
</linearGradient>
</defs>
</svg>
