<svg width="74" height="74" viewBox="0 0 74 74" fill="none" xmlns="http://www.w3.org/2000/svg">
<rect width="64" height="64" rx="15" transform="matrix(1 0 0 -1 0 64)" fill="url(#paint0_linear_867_10)"/>
<g filter="url(#filter0_b_867_10)">
<rect width="64" height="64" rx="15" transform="matrix(1 0 0 -1 10 74)" fill="#EEEEEE" fill-opacity="0.61"/>
<rect x="0.5" y="-0.5" width="63" height="63" rx="14.5" transform="matrix(1 0 0 -1 10 73)" stroke="white"/>
</g>
<path d="M43.6768 24.9024V23.0617H45.3919C45.7266 23.0617 46.0194 22.7689 46.0194 22.4342V19.4223C46.0194 19.0876 45.7266 18.7948 45.3919 18.7948H38.0712C37.7366 18.7948 37.4437 19.0876 37.4437 19.4223V22.4342C37.4437 22.7689 37.7366 23.0617 38.0712 23.0617H39.7864V24.9024C35.7286 25.3625 32.131 27.245 29.4119 30.006L28.7007 29.2948L29.872 28.1235C30.123 27.8725 30.123 27.496 29.872 27.245L27.4457 24.8187C27.1947 24.5677 26.8182 24.5677 26.5672 24.8187L23.2625 28.0398C23.0115 28.2908 23.0115 28.6673 23.2625 28.9183L25.6888 31.3446C25.8143 31.4701 25.9816 31.5119 26.1489 31.5119C26.3163 31.5119 26.4836 31.4701 26.6091 31.3446L27.8222 30.1315L28.617 30.9263C26.1071 33.8964 24.6011 37.745 24.6011 41.9283C24.6011 51.3825 32.2983 59.0797 41.7525 59.0797C51.2067 59.0797 58.9039 51.3825 58.9039 41.9283C58.8621 33.1434 52.2107 25.8645 43.6768 24.9024ZM26.1489 30.0478L24.6011 28.4581L26.9437 26.1155L28.4915 27.6633L27.5712 28.5836C27.4457 28.7091 27.2784 28.8765 27.1111 29.0438L26.1489 30.0478ZM40.4139 21.8068H38.6987V20.0498H44.7645V21.8068H43.0493C42.7147 21.8068 42.4218 22.0996 42.4218 22.4342V24.8187C42.2127 24.8187 41.9617 24.8187 41.7525 24.8187C41.5433 24.8187 41.2923 24.8187 41.0832 24.8187V22.4342C41.0414 22.0577 40.7485 21.8068 40.4139 21.8068ZM41.7107 57.8247C32.9676 57.8247 25.8143 50.7131 25.8143 41.9283C25.8143 33.1434 32.9258 26.0319 41.7107 26.0319C42.0453 26.0319 42.38 26.0319 42.7147 26.0737C42.882 26.0737 43.0493 26.1155 43.2166 26.1155C51.2904 26.8685 57.6071 33.6872 57.6071 41.9283C57.6071 50.7131 50.4955 57.8247 41.7107 57.8247Z" fill="#3E39F9"/>
<path d="M50.7456 31.6375C50.7037 31.5956 50.6619 31.5538 50.6201 31.512C48.2356 29.4622 45.14 28.249 41.7515 28.249C34.1798 28.249 28.0723 34.3984 28.0723 41.9283C28.0723 49.4582 34.1798 55.6494 41.7097 55.6494C49.2396 55.6494 55.389 49.5 55.389 41.9701C55.4308 37.8287 53.5902 34.1474 50.7456 31.6375ZM41.7097 54.3944C34.8492 54.3944 29.2854 48.8307 29.2854 41.9701C29.2854 35.1096 34.8492 29.5458 41.7097 29.5458C44.5962 29.5458 47.2316 30.5498 49.3233 32.1813L42.5464 39.9622C42.2954 39.8785 42.0025 39.7948 41.7515 39.7948C40.5802 39.7948 39.6181 40.757 39.6181 41.9283C39.6181 43.0996 40.5802 44.0618 41.7515 44.0618C42.9229 44.0618 43.8432 43.0996 43.8432 41.9283C43.8432 41.51 43.7177 41.0917 43.5085 40.757L50.3272 32.9343C52.7117 35.1932 54.1759 38.3725 54.1759 41.9283C54.1759 48.7889 48.5703 54.3944 41.7097 54.3944ZM42.5882 41.9283C42.5882 42.4303 42.2117 42.8068 41.7097 42.8068C41.2077 42.8068 40.8312 42.4303 40.8312 41.9283C40.8312 41.4681 41.2077 41.0498 41.7097 41.0498C42.2117 41.0498 42.5882 41.4681 42.5882 41.9283Z" fill="#3E39F9"/>
<defs>
<filter id="filter0_b_867_10" x="2" y="2" width="80" height="80" filterUnits="userSpaceOnUse" color-interpolation-filters="sRGB">
<feFlood flood-opacity="0" result="BackgroundImageFix"/>
<feGaussianBlur in="BackgroundImageFix" stdDeviation="4"/>
<feComposite in2="SourceAlpha" operator="in" result="effect1_backgroundBlur_867_10"/>
<feBlend mode="normal" in="SourceGraphic" in2="effect1_backgroundBlur_867_10" result="shape"/>
</filter>
<linearGradient id="paint0_linear_867_10" x1="32" y1="0" x2="32" y2="64" gradientUnits="userSpaceOnUse">
<stop stop-color="#807DFF"/>
<stop offset="1" stop-color="#BAB9FF" stop-opacity="0.34"/>
</linearGradient>
</defs>
</svg>
