<svg width="58" height="52" viewBox="0 0 58 52" fill="none" xmlns="http://www.w3.org/2000/svg">
<path d="M16.5703 0.0782877L53.2483 0.078125V3.83997H16.5703V0.0782877Z" fill="#5956E9"/>
<path d="M16.5703 10.4233H53.2483V14.1852H16.5703V10.4233Z" fill="#5956E9"/>
<path d="M16.5703 20.7684L21.2726 20.7681V24.5294L16.5703 24.5299V20.7684Z" fill="#5956E9"/>
<path d="M16.5703 32.0537H21.2726V35.8156H16.5703V32.0537Z" fill="#5956E9"/>
<path d="M16.5703 43.3394H21.2726V47.1012H16.5703V43.3394Z" fill="#5956E9"/>
<path d="M0.582031 0.078125H10.9271V3.83997H0.582031V0.078125Z" fill="#5956E9"/>
<path d="M0.582031 10.4233H10.9271V14.1852H0.582031V10.4233Z" fill="#5956E9"/>
<path d="M0.582031 20.7681H10.9271V24.5299H0.582031V20.7681Z" fill="#5956E9"/>
<path d="M0.582031 32.0537H10.9271V35.8156H0.582031V32.0537Z" fill="#5956E9"/>
<path d="M0.582031 43.3394H10.9271V47.1012H0.582031V43.3394Z" fill="#5956E9"/>
<path d="M56.0696 50.8631L47.6055 42.3989" stroke="#E541ED" stroke-width="2.66667"/>
<path d="M40.0805 20.7681C36.5886 20.7681 33.2397 22.1553 30.7705 24.6244C28.3013 27.0936 26.9141 30.4426 26.9141 33.9345C26.9141 35.6636 27.2546 37.3757 27.9163 38.9732C28.578 40.5706 29.5478 42.022 30.7704 43.2446C31.993 44.4672 33.4445 45.437 35.0419 46.0987C36.6394 46.7603 38.3515 47.101 40.0805 47.101C41.8096 47.101 43.5217 46.7603 45.1191 46.0987C46.7165 45.437 48.168 44.4672 49.3906 43.2446C50.6132 42.022 51.5831 40.5706 52.2447 38.9732C52.9064 37.3757 53.247 35.6636 53.247 33.9345C53.2469 30.4426 51.8597 27.0936 49.3906 24.6244C46.9214 22.1553 43.5724 20.7681 40.0805 20.7681ZM40.0805 26.0345C41.1179 26.0345 42.1452 26.2389 43.1037 26.6359C44.0622 27.0329 44.933 27.6147 45.6666 28.3482C46.4002 29.0818 46.9821 29.9527 47.3791 30.9112C47.7761 31.8697 47.9804 32.8971 47.9804 33.9345C47.9804 36.0297 47.148 38.0391 45.6665 39.5206C44.185 41.0021 42.1757 41.8343 40.0805 41.8343C37.9854 41.8343 35.976 41.0021 34.4945 39.5206C33.013 38.0391 32.1807 36.0297 32.1806 33.9345C32.1806 32.8971 32.385 31.8697 32.782 30.9112C33.1789 29.9527 33.7608 29.0818 34.4944 28.3482C35.228 27.6147 36.0989 27.0329 37.0573 26.6359C38.0158 26.2389 39.0431 26.0345 40.0805 26.0345Z" fill="#E541ED"/>
<path d="M16.5705 0.078125H10.9277V3.83997H16.5705V0.078125Z" fill="#E541ED"/>
<path d="M16.5705 10.4233H10.9277V14.1852H16.5705V10.4233Z" fill="#E541ED"/>
<path d="M16.5705 20.7681H10.9277V24.5299H16.5705V20.7681Z" fill="#E541ED"/>
<path d="M16.5705 32.0537H10.9277V35.8156H16.5705V32.0537Z" fill="#E541ED"/>
<path d="M16.5705 43.3394H10.9277V47.1012H16.5705V43.3394Z" fill="#E541ED"/>
</svg>
