<svg width="56" height="64" viewBox="0 0 56 64" fill="none" xmlns="http://www.w3.org/2000/svg">
<path d="M15.8543 18.3814H22.2495C22.6486 18.3814 23.0313 18.2328 23.3135 17.9683C23.5957 17.7037 23.7542 17.3449 23.7542 16.9707C23.7542 16.5966 23.5957 16.2378 23.3135 15.9732C23.0313 15.7087 22.6486 15.5601 22.2495 15.5601H15.8543C15.4553 15.5601 15.0725 15.7087 14.7903 15.9732C14.5081 16.2378 14.3496 16.5966 14.3496 16.9707C14.3496 17.3449 14.5081 17.7037 14.7903 17.9683C15.0725 18.2328 15.4553 18.3814 15.8543 18.3814Z" fill="#E541ED"/>
<path d="M37.4418 50.3569H33.5789C33.2182 50.3569 32.8722 50.5056 32.6171 50.7701C32.3621 51.0347 32.2188 51.3935 32.2188 51.7676C32.2188 52.1418 32.3621 52.5006 32.6171 52.7651C32.8722 53.0297 33.2182 53.1783 33.5789 53.1783H37.4418C37.8025 53.1783 38.1485 53.0297 38.4036 52.7651C38.6587 52.5006 38.802 52.1418 38.802 51.7676C38.802 51.3935 38.6587 51.0347 38.4036 50.7701C38.1485 50.5056 37.8025 50.3569 37.4418 50.3569Z" fill="#E541ED"/>
<path d="M27.0287 50.3569H15.7774C15.3988 50.3569 15.0356 50.5056 14.7678 50.7701C14.5 51.0347 14.3496 51.3935 14.3496 51.7676C14.3496 52.1418 14.5 52.5006 14.7678 52.7651C15.0356 53.0297 15.3988 53.1783 15.7774 53.1783H27.0287C27.4074 53.1783 27.7706 53.0297 28.0383 52.7651C28.3061 52.5006 28.4565 52.1418 28.4565 51.7676C28.4565 51.3935 28.3061 51.0347 28.0383 50.7701C27.7706 50.5056 27.4074 50.3569 27.0287 50.3569Z" fill="#E541ED"/>
<path d="M54.5245 50.5679L51.0721 47.1679V10.3575C51.0721 9.67512 50.9362 8.99946 50.6721 8.36906C50.408 7.73865 50.0209 7.16585 49.533 6.68336C49.045 6.20087 48.4657 5.81814 47.8282 5.55702C47.1906 5.2959 46.5073 5.1615 45.8172 5.1615H12.0276V1.88489C12.0276 1.52129 11.8816 1.17258 11.6215 0.91547C11.3615 0.658364 11.0088 0.513923 10.6411 0.513923H5.63576C4.24863 0.484202 2.90536 0.995272 1.89615 1.93672C0.886951 2.87816 0.292845 4.1744 0.242188 5.54537V58.3276C0.242188 59.7057 0.79583 61.0273 1.78132 62.0017C2.76681 62.9761 4.10342 63.5236 5.49711 63.5236H45.8172C47.2109 63.5236 48.5475 62.9761 49.533 62.0017C50.5185 61.0273 51.0721 59.7057 51.0721 58.3276V57.4913C51.9295 57.5935 52.7978 57.4293 53.5565 57.0214C54.3152 56.6136 54.9268 55.9823 55.3062 55.2153C55.6857 54.4483 55.8144 53.5834 55.6743 52.7408C55.5342 51.8983 55.1324 51.1197 54.5245 50.5131V50.5679ZM3.01523 5.54537C3.05111 4.89189 3.34662 4.27887 3.83742 3.8398C4.32822 3.40072 4.97458 3.17113 5.63576 3.20102H9.25458V53.2413H5.63576C4.7219 53.2393 3.82171 53.4607 3.01523 53.8857V5.54537ZM45.8172 60.8365H5.49711C5.17847 60.8275 4.86474 60.7565 4.57384 60.6276C4.28293 60.4987 4.02055 60.3144 3.80168 60.0853C3.5828 59.8561 3.41172 59.5866 3.29819 59.2921C3.18466 58.9976 3.13092 58.6838 3.14002 58.3687C3.14912 58.0537 3.2209 57.7435 3.35125 57.4558C3.4816 57.1682 3.66797 56.9087 3.89972 56.6923C4.13147 56.4759 4.40406 56.3067 4.70193 56.1945C4.9998 56.0822 5.31712 56.0291 5.63576 56.0381H10.6411C11.0088 56.0381 11.3615 55.8936 11.6215 55.6365C11.8816 55.3794 12.0276 55.0307 12.0276 54.6671V7.90344H45.8172C46.1431 7.90344 46.4658 7.96691 46.767 8.09024C47.0681 8.21356 47.3417 8.39433 47.5721 8.6222C47.8026 8.85008 47.9854 9.12061 48.1101 9.41835C48.2349 9.71609 48.2991 10.0352 48.2991 10.3575V44.426L46.6768 42.822C46.5479 42.6935 46.3946 42.5915 46.2256 42.5219C46.0567 42.4523 45.8754 42.4164 45.6924 42.4164C45.5094 42.4164 45.3281 42.4523 45.1592 42.5219C44.9902 42.5915 44.8369 42.6935 44.708 42.822L43.7374 43.7816L41.5328 41.6018C42.8958 40.0544 43.9251 38.2483 44.5577 36.294C45.1903 34.3397 45.4128 32.2783 45.2117 30.2359C45.0107 28.1936 44.3902 26.2134 43.3882 24.4164C42.3863 22.6194 41.0241 21.0435 39.3848 19.7851C37.7456 18.5267 35.8639 17.6124 33.8549 17.098C31.8459 16.5836 29.7519 16.4801 27.701 16.7937C25.6501 17.1072 23.6855 17.8314 21.9275 18.9217C20.1694 20.0121 18.6549 21.4457 17.4767 23.1349H16.1872C15.8195 23.1349 15.4668 23.2793 15.2068 23.5364C14.9468 23.7935 14.8007 24.1422 14.8007 24.5058C14.7935 24.8247 14.899 25.136 15.0989 25.3862C15.2988 25.6364 15.5807 25.8099 15.896 25.8768C14.7246 28.4552 14.314 31.3085 14.7114 34.1076C15.1088 36.9068 16.2981 39.5379 18.1422 41.6978H16.1872C15.8195 41.6978 15.4668 41.8422 15.2068 42.0993C14.9468 42.3564 14.8007 42.7051 14.8007 43.0687C14.8007 43.4323 14.9468 43.7811 15.2068 44.0382C15.4668 44.2953 15.8195 44.4397 16.1872 44.4397H21.1925C23.9317 46.2784 27.2015 47.1859 30.5082 47.0251C33.8149 46.8644 36.9789 45.6441 39.5224 43.5486L41.7269 45.7284L40.7564 46.7018C40.4981 46.9587 40.3532 47.3061 40.3532 47.6683C40.3532 48.0305 40.4981 48.378 40.7564 48.6349L48.2575 56.0655V58.3824C48.2575 59.0262 48.0018 59.6443 47.5453 60.1033C47.0888 60.5624 46.4682 60.8257 45.8172 60.8365ZM17.338 31.9639C17.338 29.5235 18.0699 27.138 19.441 25.1089C20.8122 23.0798 22.7611 21.4983 25.0413 20.5644C27.3215 19.6305 29.8306 19.3862 32.2512 19.8623C34.6718 20.3384 36.8953 21.5135 38.6405 23.2391C40.3857 24.9647 41.5742 27.1633 42.0556 29.5567C42.5371 31.9502 42.29 34.4311 41.3455 36.6857C40.401 38.9403 38.8016 40.8674 36.7495 42.2232C34.6974 43.579 32.2848 44.3026 29.8167 44.3026C26.5072 44.3026 23.3331 43.0026 20.9929 40.6887C18.6527 38.3747 17.338 35.2363 17.338 31.9639ZM52.5557 54.4478C52.2959 54.7031 51.9445 54.8464 51.5782 54.8464C51.2119 54.8464 50.8605 54.7031 50.6007 54.4478L43.6681 47.5929L45.6231 45.6599L52.4864 52.4462C52.6294 52.5696 52.7453 52.7209 52.8269 52.8905C52.9084 53.0601 52.9538 53.2444 52.9603 53.4321C52.9668 53.6198 52.9342 53.8067 52.8646 53.9815C52.795 54.1562 52.6899 54.3149 52.5557 54.4478Z" fill="#5956E9"/>
<path d="M33.7939 38.5205C33.7939 38.1437 33.656 37.7824 33.4105 37.516C33.165 37.2496 32.8321 37.0999 32.4849 37.0999H31.1759V28.6755H33.3619V29.1727C33.3619 29.5495 33.4998 29.9109 33.7453 30.1773C33.9908 30.4437 34.3237 30.5934 34.6709 30.5934C35.0181 30.5934 35.351 30.4437 35.5965 30.1773C35.842 29.9109 35.9799 29.5495 35.9799 29.1727V27.3259C35.9799 26.9491 35.842 26.5878 35.5965 26.3214C35.351 26.0549 35.0181 25.9053 34.6709 25.9053H25.0629C24.7157 25.9053 24.3828 26.0549 24.1373 26.3214C23.8918 26.5878 23.7539 26.9491 23.7539 27.3259V29.1727C23.7539 29.5495 23.8918 29.9109 24.1373 30.1773C24.3828 30.4437 24.7157 30.5934 25.0629 30.5934C25.4101 30.5934 25.743 30.4437 25.9885 30.1773C26.234 29.9109 26.3719 29.5495 26.3719 29.1727V28.7465H28.5579V37.1709H27.3144C27.1425 37.1709 26.9723 37.2077 26.8134 37.279C26.6546 37.3504 26.5103 37.4551 26.3888 37.587C26.2672 37.7189 26.1708 37.8755 26.105 38.0479C26.0392 38.2203 26.0054 38.405 26.0054 38.5915C26.0054 38.7781 26.0392 38.9628 26.105 39.1352C26.1708 39.3076 26.2672 39.4642 26.3888 39.5961C26.5103 39.728 26.6546 39.8326 26.8134 39.904C26.9723 39.9754 27.1425 40.0122 27.3144 40.0122H32.4849C32.6624 40.0124 32.8382 39.9735 33.0014 39.8977C33.1646 39.8219 33.312 39.7108 33.4344 39.5713C33.5569 39.4318 33.6519 39.2666 33.7137 39.086C33.7755 38.9054 33.8028 38.713 33.7939 38.5205Z" fill="#E541ED"/>
</svg>
