<svg width="27" height="27" viewBox="0 0 27 27" fill="none" xmlns="http://www.w3.org/2000/svg">
<path d="M18.3211 10.1251V8.67871H9.64258V10.1251H12.4039C13.4312 10.1251 14.2982 10.7312 14.6249 11.5716H9.64258V13.018H14.6249C14.4629 13.4398 14.1625 13.8053 13.7648 14.0643C13.3671 14.3233 12.8918 14.4631 12.4039 14.4644H9.64258V16.2103L14.0497 20.2501H16.2809L11.5471 15.9109H12.4039C13.3128 15.9097 14.1934 15.6214 14.8974 15.0944C15.6013 14.5674 16.0855 13.8341 16.2683 13.018H18.3211V11.5716H16.2683C16.1473 11.0452 15.8981 10.5507 15.5393 10.1251H18.3211Z" fill="#E541ED"/>
<circle cx="13.5" cy="13.5" r="12.75" stroke="#5956E9" stroke-width="1.5"/>
</svg>
