<svg width="46" height="59" viewBox="0 0 46 59" fill="none" xmlns="http://www.w3.org/2000/svg">
<path d="M12.9913 52.4622C13.5281 52.4622 13.9632 52.0271 13.9632 51.4904C13.9632 50.9536 13.5281 50.5186 12.9913 50.5186C12.4546 50.5186 12.0195 50.9536 12.0195 51.4904C12.0195 52.0271 12.4546 52.4622 12.9913 52.4622Z" fill="#E9DFFC"/>
<path d="M20.7661 21.8502C21.535 21.8502 22.2865 21.6222 22.9258 21.195C23.565 20.7679 24.0633 20.1608 24.3575 19.4505C24.6517 18.7402 24.7287 17.9586 24.5787 17.2046C24.4287 16.4505 24.0585 15.7579 23.5148 15.2142C22.9712 14.6706 22.2786 14.3004 21.5245 14.1504C20.7705 14.0004 19.9889 14.0774 19.2786 14.3716C18.5683 14.6658 17.9612 15.164 17.534 15.8033C17.1069 16.4425 16.8789 17.1941 16.8789 17.9629C16.8789 18.9939 17.2885 19.9826 18.0175 20.7116C18.7465 21.4406 19.7352 21.8502 20.7661 21.8502ZM20.7661 16.0193C21.1506 16.0193 21.5263 16.1333 21.846 16.3469C22.1656 16.5604 22.4147 16.864 22.5618 17.2191C22.7089 17.5743 22.7474 17.9651 22.6724 18.3421C22.5974 18.7191 22.4123 19.0654 22.1405 19.3373C21.8687 19.6091 21.5224 19.7942 21.1453 19.8692C20.7683 19.9442 20.3775 19.9057 20.0224 19.7586C19.6672 19.6115 19.3637 19.3624 19.1501 19.0427C18.9365 18.7231 18.8225 18.3473 18.8225 17.9629C18.8225 17.4474 19.0273 16.9531 19.3918 16.5886C19.7563 16.2241 20.2507 16.0193 20.7661 16.0193Z" fill="#DA21E5"/>
<path d="M32.4283 25.7373C31.6594 25.7373 30.9079 25.9653 30.2686 26.3924C29.6294 26.8196 29.1311 27.4267 28.8369 28.137C28.5427 28.8473 28.4657 29.6289 28.6157 30.3829C28.7657 31.137 29.1359 31.8296 29.6796 32.3732C30.2232 32.9169 30.9158 33.2871 31.6699 33.4371C32.4239 33.5871 33.2055 33.5101 33.9158 33.2159C34.6261 32.9217 35.2332 32.4234 35.6604 31.7842C36.0875 31.1449 36.3155 30.3934 36.3155 29.6245C36.3155 28.5936 35.9059 27.6048 35.1769 26.8759C34.4479 26.1469 33.4592 25.7373 32.4283 25.7373ZM32.4283 31.5682C32.0438 31.5682 31.6681 31.4542 31.3484 31.2406C31.0288 31.027 30.7797 30.7235 30.6326 30.3683C30.4855 30.0132 30.447 29.6224 30.522 29.2454C30.597 28.8683 30.7821 28.522 31.0539 28.2502C31.3257 27.9784 31.672 27.7933 32.0491 27.7183C32.4261 27.6433 32.8169 27.6818 33.172 27.8289C33.5272 27.976 33.8307 28.2251 34.0443 28.5447C34.2579 28.8644 34.3719 29.2401 34.3719 29.6245C34.3719 30.14 34.1671 30.6344 33.8026 30.9989C33.4381 31.3634 32.9437 31.5682 32.4283 31.5682Z" fill="#DA21E5"/>
<path d="M17.7344 29.6247C17.7336 30.2238 17.911 30.8096 18.2439 31.3078C18.5768 31.8059 19.0502 32.1938 19.604 32.4223C20.1579 32.6508 20.7671 32.7095 21.3544 32.591C21.9417 32.4726 22.4805 32.1822 22.9025 31.7568L34.4874 20.0252C35.0281 19.4752 35.3312 18.7348 35.3312 17.9635C35.3312 17.1922 35.0281 16.4518 34.4874 15.9018C33.9307 15.3759 33.1939 15.083 32.4281 15.083C31.6624 15.083 30.9256 15.3759 30.3689 15.9018L18.6323 27.4867C18.3486 27.7659 18.1231 28.0986 17.969 28.4657C17.8148 28.8327 17.7351 29.2266 17.7344 29.6247ZM19.9977 28.8667L31.7401 17.2749C31.8289 17.1778 31.9366 17.0998 32.0565 17.0455C32.1765 16.9913 32.3062 16.9619 32.4378 16.9593C32.5694 16.9567 32.7001 16.9808 32.8221 17.0303C32.9441 17.0797 33.0548 17.1534 33.1474 17.2469C33.2401 17.3404 33.3128 17.4518 33.3611 17.5742C33.4094 17.6967 33.4323 17.8276 33.4285 17.9592C33.4247 18.0908 33.3941 18.2202 33.3388 18.3396C33.2834 18.459 33.2044 18.566 33.1065 18.6539L21.5225 30.3905C21.4224 30.4906 21.3036 30.57 21.1729 30.6242C21.0421 30.6784 20.902 30.7064 20.7604 30.7064C20.6189 30.7065 20.4787 30.6786 20.348 30.6245C20.2172 30.5704 20.0983 30.491 19.9982 30.391C19.8981 30.2909 19.8187 30.1721 19.7645 30.0414C19.7102 29.9106 19.6823 29.7705 19.6823 29.6289C19.6822 29.4874 19.7101 29.3472 19.7642 29.2164C19.8183 29.0856 19.8977 28.9668 19.9977 28.8667Z" fill="#E541ED"/>
<path d="M44.1612 46.1618C44.4075 46.1392 44.6365 46.0253 44.803 45.8423C44.9696 45.6594 45.0616 45.4208 45.0611 45.1735V5.32926C45.0595 4.04104 44.5471 2.80602 43.6362 1.8951C42.7253 0.984187 41.4903 0.471758 40.202 0.470215H8.13232C6.1999 0.472273 4.34722 1.24083 2.9808 2.60726C1.61437 3.97369 0.845808 5.82637 0.84375 7.75879V51.4902C0.845808 53.4226 1.61437 55.2753 2.9808 56.6417C4.34722 58.0082 6.1999 58.7767 8.13232 58.7788H44.0893C44.349 58.7744 44.5966 58.668 44.7785 58.4825C44.9604 58.297 45.0619 58.0473 45.0611 57.7875C45.0618 57.5418 44.9693 57.3049 44.8023 57.1246C44.6353 56.9443 44.4063 56.8339 44.1612 56.8157C42.8205 56.7101 41.5688 56.1029 40.656 55.1152C39.7431 54.1276 39.2362 52.8322 39.2362 51.4873C39.2362 50.1424 39.7431 48.847 40.656 47.8593C41.5688 46.8717 42.8205 46.2645 44.1612 46.1589V46.1618ZM9.10413 2.41383H40.202C40.9753 2.41383 41.7168 2.72099 42.2635 3.26774C42.8103 3.81449 43.1175 4.55604 43.1175 5.32926V44.2016H9.10413V2.41383ZM2.78737 7.75879C2.7891 6.51019 3.22711 5.30146 4.02566 4.34161C4.8242 3.38175 5.93307 2.73114 7.16051 2.50227V44.2745C5.48198 44.5006 3.93516 45.306 2.78737 46.5515V7.75879ZM37.3605 50.5184H16.8786C16.6209 50.5184 16.3737 50.6208 16.1914 50.803C16.0092 50.9853 15.9068 51.2325 15.9068 51.4902C15.9068 51.748 16.0092 51.9951 16.1914 52.1774C16.3737 52.3596 16.6209 52.462 16.8786 52.462H37.3605C37.588 54.1386 38.3903 55.6843 39.6306 56.8352H8.13232C6.71475 56.8352 5.35524 56.272 4.35287 55.2697C3.3505 54.2673 2.78737 52.9078 2.78737 51.4902C2.78737 50.0726 3.3505 48.7131 4.35287 47.7108C5.35524 46.7084 6.71475 46.1453 8.13232 46.1453H39.6306C38.3903 47.2961 37.588 48.8418 37.3605 50.5184Z" fill="#5956E9"/>
</svg>
