<svg width="54" height="58" viewBox="0 0 54 58" fill="none" xmlns="http://www.w3.org/2000/svg">
<path d="M53.3074 52.0873L47.7759 42.5193C49.1777 40.0654 49.6012 37.1725 48.9615 34.4197C48.3218 31.6669 46.6662 29.2572 44.3259 27.6728V3.38485C44.3259 2.67115 44.0424 1.98668 43.5377 1.48202C43.033 0.977363 42.3486 0.693848 41.6349 0.693848H3.24788C2.89504 0.693844 2.54566 0.763531 2.21982 0.898907C1.89398 1.03428 1.59808 1.23268 1.34911 1.48272C1.10015 1.73275 0.903018 2.0295 0.769039 2.35592C0.635059 2.68234 0.56687 3.032 0.568384 3.38485V49.2123C0.568384 49.923 0.850688 50.6045 1.35319 51.107C1.8557 51.6095 2.53724 51.8918 3.24788 51.8918H22.8554L22.7404 52.0873C22.6262 52.2701 22.5656 52.4813 22.5656 52.6968C22.5656 52.9124 22.6262 53.1236 22.7404 53.3063C22.8623 53.4931 23.036 53.6404 23.2402 53.7303C23.4444 53.8201 23.6703 53.8486 23.8904 53.8123L27.4669 53.3523L28.8584 56.6758C28.9415 56.8733 29.0782 57.0436 29.2529 57.1675C29.4277 57.2915 29.6336 57.3641 29.8474 57.3773H29.9164C30.119 57.3781 30.3183 57.3254 30.494 57.2244C30.6697 57.1234 30.8156 56.9778 30.9169 56.8023L35.9999 48.0163C36.6714 48.1406 37.3525 48.206 38.0354 48.2118C38.7221 48.2054 39.4069 48.14 40.0824 48.0163L45.1999 56.8023C45.3012 56.9778 45.4471 57.1234 45.6228 57.2244C45.7985 57.3254 45.9977 57.3781 46.2004 57.3773H46.2694C46.4832 57.3641 46.6891 57.2915 46.8638 57.1675C47.0386 57.0436 47.1752 56.8733 47.2584 56.6758L48.6499 53.3523L52.2264 53.8123C52.4409 53.8426 52.6596 53.8117 52.8573 53.7231C53.0551 53.6345 53.2237 53.4918 53.3439 53.3115C53.4641 53.1313 53.5309 52.9207 53.5366 52.7041C53.5424 52.4875 53.4868 52.2737 53.3764 52.0873H53.3074ZM3.24788 49.5918C3.14724 49.5918 3.05071 49.5519 2.97954 49.4807C2.90837 49.4095 2.86838 49.313 2.86838 49.2123V3.38485C2.86834 3.28311 2.90795 3.18536 2.97881 3.11236C3.04967 3.03935 3.14619 2.99684 3.24788 2.99385H41.6119C41.7156 2.99385 41.815 3.03504 41.8884 3.10837C41.9617 3.1817 42.0029 3.28115 42.0029 3.38485V26.4998C40.9966 26.1127 39.9387 25.8763 38.8634 25.7983V7.28335C38.8634 6.97835 38.7422 6.68584 38.5266 6.47017C38.3109 6.25451 38.0184 6.13335 37.7134 6.13335H7.14638C6.84139 6.13335 6.54888 6.25451 6.33321 6.47017C6.11754 6.68584 5.99638 6.97835 5.99638 7.28335V45.3023C5.99638 45.6073 6.11754 45.8998 6.33321 46.1155C6.54888 46.3312 6.84139 46.4523 7.14638 46.4523H25.9949L24.1779 49.5918H3.24788ZM26.7999 36.9763C26.8012 38.9204 27.3085 40.8307 28.2719 42.5193L27.3174 44.1523H8.29638V8.43335H36.5634V25.8558C33.8661 26.2148 31.3904 27.5394 29.5951 29.5842C27.7998 31.629 26.8067 34.2553 26.7999 36.9763ZM30.0659 53.6513L29.2379 51.6618C29.1425 51.441 28.9802 51.2556 28.7739 51.1319C28.5676 51.0081 28.3277 50.9521 28.0879 50.9718L25.9489 51.2363L29.8129 44.5433C30.8923 45.7438 32.2182 46.697 33.6999 47.3378L30.0659 53.6513ZM29.0999 36.9763C29.1022 35.2118 29.6275 33.4876 30.6094 32.0216C31.5914 30.5555 32.9859 29.4135 34.6168 28.7399C36.2476 28.0662 38.0416 27.8911 39.7719 28.2367C41.5022 28.5824 43.0913 29.4332 44.3382 30.6817C45.5851 31.9302 46.4338 33.5203 46.7772 35.2511C47.1206 36.9819 46.9433 38.7756 46.2675 40.4056C45.5917 42.0355 44.4479 43.4286 42.9806 44.4087C41.5133 45.3887 39.7884 45.9118 38.0239 45.9118C35.656 45.9088 33.3862 44.966 31.713 43.2906C30.0397 41.6152 29.0999 39.3442 29.0999 36.9763ZM48.0174 50.9718C47.7684 50.9392 47.5155 50.989 47.2975 51.1136C47.0795 51.2382 46.9082 51.4308 46.8099 51.6618L45.9819 53.6513L42.3364 47.3378C43.8635 46.713 45.234 45.7588 46.3499 44.5433L50.2139 51.2363L48.0174 50.9718Z" fill="#5956E9"/>
<path d="M43.5555 34.4005L40.761 33.4L38.9325 31.1C38.8247 30.9677 38.6887 30.8611 38.5346 30.7879C38.3804 30.7147 38.2119 30.6768 38.0413 30.6768C37.8706 30.6768 37.7021 30.7147 37.5479 30.7879C37.3938 30.8611 37.2579 30.9677 37.15 31.1L35.3215 33.4L32.55 34.4005C32.3857 34.46 32.2372 34.5562 32.1156 34.6818C31.9941 34.8073 31.9027 34.9589 31.8485 35.125C31.7939 35.2913 31.7779 35.4678 31.8018 35.6412C31.8257 35.8146 31.8889 35.9802 31.9865 36.1255L33.6655 38.5865L33.7 41.565C33.7049 41.7406 33.7499 41.9127 33.8316 42.0682C33.9134 42.2237 34.0296 42.3584 34.1715 42.462C34.314 42.5654 34.4782 42.6347 34.6517 42.6646C34.8252 42.6945 35.0032 42.6842 35.172 42.6345L38.024 41.795L40.8875 42.6345C40.9941 42.6521 41.1029 42.6521 41.2095 42.6345C41.4492 42.633 41.6824 42.5566 41.8765 42.416C42.0205 42.3136 42.139 42.1795 42.2228 42.0239C42.3065 41.8683 42.3533 41.6956 42.3595 41.519L42.44 38.5405L44.119 36.0795C44.2186 35.9352 44.2838 35.77 44.3097 35.5966C44.3356 35.4232 44.3215 35.2461 44.2685 35.079C44.2073 34.9202 44.1116 34.777 43.9883 34.6596C43.865 34.5423 43.7172 34.4538 43.5555 34.4005ZM40.3585 37.5745C40.2329 37.7538 40.1611 37.9653 40.1515 38.184V40.0125L38.3 39.495C38.0897 39.4337 37.8663 39.4337 37.656 39.495L36 40.0125L35.9425 38.184C35.9329 37.9653 35.8611 37.7538 35.7355 37.5745L34.712 36.0565L36.4255 35.447C36.6322 35.3693 36.8147 35.2384 36.9545 35.0675L38.1045 33.6185L39.2545 35.0675C39.3943 35.2384 39.5768 35.3693 39.7835 35.447L41.497 36.0565L40.3585 37.5745Z" fill="#E541ED"/>
<path d="M27.6172 11.895H17.2672C16.9622 11.895 16.6697 12.0162 16.454 12.2318C16.2383 12.4475 16.1172 12.74 16.1172 13.045C16.1172 13.35 16.2383 13.6425 16.454 13.8582C16.6697 14.0739 16.9622 14.195 17.2672 14.195H27.6172C27.9222 14.195 28.2147 14.0739 28.4304 13.8582C28.646 13.6425 28.7672 13.35 28.7672 13.045C28.7672 12.74 28.646 12.4475 28.4304 12.2318C28.2147 12.0162 27.9222 11.895 27.6172 11.895Z" fill="#E541ED"/>
<path d="M12.7594 35.3205H18.6359C18.9409 35.3205 19.2334 35.1993 19.449 34.9837C19.6647 34.768 19.7859 34.4755 19.7859 34.1705C19.7859 33.8655 19.6647 33.573 19.449 33.3573C19.2334 33.1417 18.9409 33.0205 18.6359 33.0205H12.7594C12.4544 33.0205 12.1619 33.1417 11.9462 33.3573C11.7305 33.573 11.6094 33.8655 11.6094 34.1705C11.6094 34.4755 11.7305 34.768 11.9462 34.9837C12.1619 35.1993 12.4544 35.3205 12.7594 35.3205Z" fill="#E541ED"/>
<path d="M23.3509 38.1035H12.7594C12.4544 38.1035 12.1619 38.2247 11.9462 38.4403C11.7305 38.656 11.6094 38.9485 11.6094 39.2535C11.6094 39.5585 11.7305 39.851 11.9462 40.0667C12.1619 40.2824 12.4544 40.4035 12.7594 40.4035H23.3509C23.6559 40.4035 23.9484 40.2824 24.164 40.0667C24.3797 39.851 24.5009 39.5585 24.5009 39.2535C24.5009 38.9485 24.3797 38.656 24.164 38.4403C23.9484 38.2247 23.6559 38.1035 23.3509 38.1035Z" fill="#E541ED"/>
</svg>
