<svg width="172" height="51" viewBox="0 0 172 51" fill="none" xmlns="http://www.w3.org/2000/svg">
<path d="M165.31 50.1481H6.46627C3.24722 50.1481 0.638672 47.5396 0.638672 44.3236V6.69088C0.638672 3.47491 3.24722 0.863281 6.46627 0.863281H165.31C168.529 0.863281 171.137 3.47491 171.137 6.69088V44.3236C171.137 47.5396 168.529 50.1481 165.31 50.1481Z" fill="black"/>
<path d="M6.46277 1.50147C3.60139 1.50147 1.27344 3.82942 1.27344 6.6908V44.3235C1.27344 47.1849 3.60139 49.5098 6.46277 49.5098H165.309C168.171 49.5098 170.499 47.1849 170.499 44.3235V6.6908C170.499 3.82942 168.171 1.50147 165.309 1.50147H6.46277ZM165.309 50.7863H6.46277C2.89838 50.7863 0 47.8879 0 44.3235V6.6908C0 3.12641 2.89838 0.228027 6.46277 0.228027H165.309C168.874 0.228027 171.772 3.12641 171.772 6.6908V44.3235C171.772 47.8879 168.874 50.7863 165.309 50.7863Z" fill="#A7A9AB"/>
<path d="M135.912 38.348H138.28V22.4778H135.912V38.348ZM157.249 28.1944L154.533 35.0765H154.453L151.634 28.1944H149.081L153.309 37.8115L150.898 43.1611H153.37L159.883 28.1944H157.249ZM143.812 36.5442C143.038 36.5442 141.956 36.1588 141.956 35.1968C141.956 33.9727 143.303 33.504 144.466 33.504C145.508 33.504 145.998 33.7291 146.63 34.0343C146.445 35.5051 145.181 36.5442 143.812 36.5442ZM144.099 27.8491C142.384 27.8491 140.608 28.6045 139.871 30.2788L141.974 31.1545C142.424 30.2788 143.26 29.992 144.139 29.992C145.366 29.992 146.609 30.7259 146.63 32.0332V32.1966C146.202 31.953 145.283 31.583 144.16 31.583C141.894 31.583 139.588 32.8287 139.588 35.1567C139.588 37.2811 141.444 38.6502 143.528 38.6502C145.119 38.6502 145.998 37.9348 146.55 37.0961H146.63V38.3233H148.918V32.2367C148.918 29.4216 146.815 27.8491 144.099 27.8491ZM129.459 30.1277H126.089V24.6855H129.459C131.232 24.6855 132.234 26.1532 132.234 27.4051C132.234 28.6384 131.232 30.1277 129.459 30.1277ZM129.397 22.4778H123.721V38.348H126.089V32.3354H129.397C132.024 32.3354 134.605 30.4329 134.605 27.4051C134.605 24.3772 132.024 22.4778 129.397 22.4778ZM98.4461 36.5473C96.8088 36.5473 95.4367 35.1783 95.4367 33.2974C95.4367 31.395 96.8088 30.0043 98.4461 30.0043C100.062 30.0043 101.329 31.395 101.329 33.2974C101.329 35.1783 100.062 36.5473 98.4461 36.5473ZM101.163 29.0824H101.082C100.552 28.4503 99.5284 27.8768 98.2395 27.8768C95.5385 27.8768 93.0656 30.251 93.0656 33.2974C93.0656 36.3253 95.5385 38.6779 98.2395 38.6779C99.5284 38.6779 100.552 38.1044 101.082 37.4507H101.163V38.2247C101.163 40.2905 100.062 41.3975 98.2796 41.3975C96.8273 41.3975 95.927 40.3522 95.56 39.4734L93.4942 40.3337C94.0862 41.7644 95.6618 43.5219 98.2796 43.5219C101.061 43.5219 103.413 41.8877 103.413 37.8978V28.2037H101.163V29.0824ZM105.051 38.348H107.425V22.4778H105.051V38.348ZM110.921 33.1124C110.86 31.0249 112.537 29.9643 113.743 29.9643C114.683 29.9643 115.482 30.4329 115.747 31.1082L110.921 33.1124ZM118.285 31.3117C117.834 30.1061 116.465 27.8768 113.66 27.8768C110.881 27.8768 108.569 30.066 108.569 33.2758C108.569 36.3037 110.86 38.6779 113.928 38.6779C116.404 38.6779 117.834 37.164 118.426 36.2821L116.586 35.0549C115.972 35.9553 115.133 36.5473 113.928 36.5473C112.722 36.5473 111.862 35.9984 111.31 34.9131L118.528 31.9284L118.285 31.3117ZM60.761 29.5326V31.8235H66.2432C66.0798 33.1124 65.6512 34.0528 64.9945 34.7065C64.1989 35.5051 62.9502 36.3839 60.761 36.3839C57.3877 36.3839 54.7484 33.6643 54.7484 30.2911C54.7484 26.9148 57.3877 24.1953 60.761 24.1953C62.5832 24.1953 63.9122 24.9106 64.8927 25.8325L66.5084 24.2138C65.1394 22.9064 63.3202 21.9043 60.761 21.9043C56.139 21.9043 52.2539 25.6691 52.2539 30.2911C52.2539 34.9131 56.139 38.6779 60.761 38.6779C63.2585 38.6779 65.1394 37.8577 66.6132 36.3253C68.1241 34.8113 68.5958 32.6838 68.5958 30.9664C68.5958 30.4329 68.5558 29.9427 68.4725 29.5326H60.761ZM74.8274 36.5473C73.1901 36.5473 71.781 35.1999 71.781 33.2758C71.781 31.3333 73.1901 30.0043 74.8274 30.0043C76.4646 30.0043 77.8737 31.3333 77.8737 33.2758C77.8737 35.1999 76.4646 36.5473 74.8274 36.5473ZM74.8274 27.8768C71.8396 27.8768 69.4068 30.1462 69.4068 33.2758C69.4068 36.3839 71.8396 38.6779 74.8274 38.6779C77.8152 38.6779 80.248 36.3839 80.248 33.2758C80.248 30.1462 77.8152 27.8768 74.8274 27.8768ZM86.6521 36.5473C85.0149 36.5473 83.6027 35.1999 83.6027 33.2758C83.6027 31.3333 85.0149 30.0043 86.6521 30.0043C88.2863 30.0043 89.6985 31.3333 89.6985 33.2758C89.6985 35.1999 88.2863 36.5473 86.6521 36.5473ZM86.6521 27.8768C83.6643 27.8768 81.2316 30.1462 81.2316 33.2758C81.2316 36.3839 83.6643 38.6779 86.6521 38.6779C89.6369 38.6779 92.0727 36.3839 92.0727 33.2758C92.0727 30.1462 89.6369 27.8768 86.6521 27.8768Z" fill="white"/>
<path d="M58.3529 10.7425C57.875 10.3201 57.2491 10.0487 56.5522 10.0487C54.992 10.0487 53.7895 11.3376 53.7895 12.9194C53.7895 14.5042 54.992 15.7808 56.5522 15.7808C57.8966 15.7808 58.874 15.0007 58.9388 13.7642H56.8143V12.8885H60.0858C60.0858 15.5125 58.689 16.7459 56.5522 16.7459C54.4278 16.7459 52.7812 15.0346 52.7812 12.9194C52.7812 10.7949 54.4278 9.08057 56.5522 9.08057C57.5389 9.08057 58.4269 9.46291 59.0775 10.0672" fill="white"/>
<path d="M65.8895 9.16992V10.1104H62.4731V12.4969H65.4547V13.4404H62.4731V15.6944H65.9974V16.6379H61.4648V9.16992" fill="white"/>
<path d="M72.4251 9.16992V10.1227H70.1588V16.6379H69.1413V10.1227H66.875V9.16992" fill="white"/>
<path d="M76.252 16.6379H77.2602V9.16992H76.252V16.6379Z" fill="white"/>
<path d="M84.1352 9.16992V10.1227H81.8689V16.6379H80.8483V10.1227H78.582V9.16992" fill="white"/>
<path d="M91.2475 15.7715C92.8201 15.7715 94.0226 14.5042 94.0226 12.9194C94.0226 11.3376 92.8201 10.058 91.2475 10.058C89.6873 10.058 88.4848 11.3376 88.4848 12.9194C88.4848 14.5042 89.6873 15.7715 91.2475 15.7715ZM91.2475 9.08057C93.3843 9.08057 95.0432 10.7949 95.0432 12.9194C95.0432 15.0346 93.3843 16.7459 91.2475 16.7459C89.1231 16.7459 87.4766 15.0346 87.4766 12.9194C87.4766 10.7949 89.1231 9.08057 91.2475 9.08057Z" fill="white"/>
<path d="M101.006 16.6379L97.602 11.0138V16.6379H96.5938V9.16992H97.5928L100.963 14.7508V9.16992H101.971V16.6379" fill="white"/>
<path d="M16.5655 13.5577C16.2309 13.8923 16.0078 14.45 16.0078 15.1192V39.7692C16.0078 40.4384 16.2309 40.9961 16.5655 41.3308L16.677 41.4423L30.5078 27.6115V27.5V27.3884L16.5655 13.5577Z" fill="url(#paint0_linear_847_9)"/>
<path d="M35.0809 32.2961L30.5078 27.7231V27.5V27.3884L35.0809 22.8154H35.1924L40.6578 25.9384C42.2193 26.8308 42.2193 28.2808 40.6578 29.1731L35.0809 32.2961Z" fill="url(#paint1_linear_847_9)"/>
<path d="M35.1933 32.1846L30.3972 27.5L16.5664 41.4423C17.0126 42 17.9049 42 18.9087 41.4423L35.1933 32.1846Z" fill="url(#paint2_linear_847_9)"/>
<path d="M35.1933 22.8154L18.9087 13.5577C17.9049 13 17.0126 13 16.5664 13.5577L30.3972 27.5L35.1933 22.8154Z" fill="url(#paint3_linear_847_9)"/>
<defs>
<linearGradient id="paint0_linear_847_9" x1="29.2152" y1="14.9056" x2="10.4964" y2="33.6245" gradientUnits="userSpaceOnUse">
<stop stop-color="#00A0FF"/>
<stop offset="0.00657445" stop-color="#00A1FF"/>
<stop offset="0.2601" stop-color="#00BEFF"/>
<stop offset="0.5122" stop-color="#00D2FF"/>
<stop offset="0.7604" stop-color="#00DFFF"/>
<stop offset="1" stop-color="#00E3FF"/>
</linearGradient>
<linearGradient id="paint1_linear_847_9" x1="42.6385" y1="27.5002" x2="15.6497" y2="27.5002" gradientUnits="userSpaceOnUse">
<stop stop-color="#FFE000"/>
<stop offset="0.4087" stop-color="#FFBD00"/>
<stop offset="0.7754" stop-color="#FFA500"/>
<stop offset="1" stop-color="#FF9C00"/>
</linearGradient>
<linearGradient id="paint2_linear_847_9" x1="32.5927" y1="30.0597" x2="7.20844" y2="55.444" gradientUnits="userSpaceOnUse">
<stop stop-color="#FF3A44"/>
<stop offset="1" stop-color="#C31162"/>
</linearGradient>
<linearGradient id="paint3_linear_847_9" x1="13.0403" y1="5.38748" x2="24.3754" y2="16.7226" gradientUnits="userSpaceOnUse">
<stop stop-color="#32A071"/>
<stop offset="0.0685" stop-color="#2DA771"/>
<stop offset="0.4762" stop-color="#15CF74"/>
<stop offset="0.8009" stop-color="#06E775"/>
<stop offset="1" stop-color="#00F076"/>
</linearGradient>
</defs>
</svg>
