<svg width="26" height="26" viewBox="0 0 26 26" fill="none" xmlns="http://www.w3.org/2000/svg">
<g clip-path="url(#clip0_539_2362)">
<path fill-rule="evenodd" clip-rule="evenodd" d="M5.60308 13.0002C5.60308 12.1558 5.74323 11.3462 5.99369 10.5869L1.61228 7.24121C0.758344 8.97488 0.277344 10.9285 0.277344 13.0002C0.277344 15.0703 0.757937 17.0225 1.61045 18.7551L5.98942 15.403C5.74141 14.6471 5.60308 13.8405 5.60308 13.0002Z" fill="#FBBC05"/>
<path fill-rule="evenodd" clip-rule="evenodd" d="M13.2959 5.31822C15.1303 5.31822 16.7872 5.96822 18.089 7.03178L21.8761 3.25C19.5683 1.24089 16.6096 0 13.2959 0C8.1511 0 3.72948 2.94206 1.6123 7.241L5.99351 10.5867C7.00304 7.52233 9.88071 5.31822 13.2959 5.31822Z" fill="#EA4335"/>
<path fill-rule="evenodd" clip-rule="evenodd" d="M13.2959 20.6815C9.88091 20.6815 7.00324 18.4774 5.99371 15.4131L1.6123 18.7581C3.72948 23.0577 8.1511 25.9998 13.2959 25.9998C16.4711 25.9998 19.5027 24.8722 21.7779 22.7597L17.6192 19.5446C16.4457 20.2838 14.968 20.6815 13.2959 20.6815Z" fill="#34A853"/>
<path fill-rule="evenodd" clip-rule="evenodd" d="M25.7225 12.9998C25.7225 12.2316 25.6041 11.4042 25.4265 10.6362H13.2959V15.6589H20.2785C19.9294 17.3714 18.9791 18.6879 17.6192 19.5447L21.778 22.7597C24.168 20.5416 25.7225 17.2372 25.7225 12.9998Z" fill="#4285F4"/>
</g>
<defs>
<clipPath id="clip0_539_2362">
<rect width="26" height="26" fill="white"/>
</clipPath>
</defs>
</svg>
