<svg width="82" height="51" viewBox="0 0 82 51" fill="none" xmlns="http://www.w3.org/2000/svg">
<path d="M36.7079 23V11.015H39.3599V23H36.7079ZM41.788 23V11.015H43.76L50.271 19.294H49.812V11.015H52.277V23H50.305L43.811 14.721H44.253V23H41.788ZM54.704 23V11.015H60.144C61.4926 11.015 62.5353 11.338 63.272 11.984C64.0086 12.6187 64.377 13.5083 64.377 14.653C64.377 15.401 64.207 16.047 63.867 16.591C63.5383 17.1237 63.0623 17.5373 62.439 17.832C61.827 18.1153 61.0903 18.257 60.229 18.257L60.433 17.883H61.13C61.6173 17.883 62.048 18.0133 62.422 18.274C62.8073 18.5347 63.1246 18.9143 63.374 19.413L65.159 23H62.235L60.382 19.141C60.246 18.8123 60.0306 18.597 59.736 18.495C59.4526 18.3817 59.124 18.325 58.75 18.325H57.356V23H54.704ZM57.356 16.421H59.685C60.3763 16.421 60.9033 16.2793 61.266 15.996C61.6286 15.7127 61.81 15.2933 61.81 14.738C61.81 14.1827 61.6286 13.769 61.266 13.497C60.9033 13.2137 60.3763 13.072 59.685 13.072H57.356V16.421ZM45.1516 41.187C44.313 41.187 43.5026 41.068 42.7206 40.83C41.95 40.592 41.3266 40.2633 40.8506 39.844L41.6836 37.872C42.1936 38.246 42.732 38.5293 43.2986 38.722C43.8653 38.9033 44.449 38.994 45.0496 38.994C45.7523 38.994 46.2793 38.8637 46.6306 38.603C46.982 38.3423 47.1576 37.957 47.1576 37.447C47.1576 36.971 46.9876 36.614 46.6476 36.376C46.319 36.1267 45.826 36.002 45.1686 36.002H43.1626V33.911H44.9306C45.4973 33.911 45.9506 33.7807 46.2906 33.52C46.6306 33.248 46.8006 32.8797 46.8006 32.415C46.8006 31.9617 46.642 31.616 46.3246 31.378C46.0073 31.14 45.5483 31.021 44.9476 31.021C43.803 31.021 42.783 31.4007 41.8876 32.16L41.0376 30.222C41.5476 29.78 42.1653 29.44 42.8906 29.202C43.6273 28.9527 44.398 28.828 45.2026 28.828C46.4946 28.828 47.5033 29.117 48.2286 29.695C48.9653 30.2617 49.3336 31.055 49.3336 32.075C49.3336 32.7777 49.1353 33.384 48.7386 33.894C48.342 34.3927 47.798 34.727 47.1066 34.897V34.676C47.9226 34.812 48.5573 35.1463 49.0106 35.679C49.464 36.2117 49.6906 36.8803 49.6906 37.685C49.6906 38.773 49.2826 39.6287 48.4666 40.252C47.662 40.8753 46.557 41.187 45.1516 41.187ZM55.6 41.187C54.1607 41.187 53.05 40.6487 52.268 39.572C51.4973 38.484 51.112 36.954 51.112 34.982C51.112 32.976 51.4973 31.4517 52.268 30.409C53.05 29.355 54.1607 28.828 55.6 28.828C57.0507 28.828 58.1613 29.355 58.932 30.409C59.7027 31.4517 60.088 32.9703 60.088 34.965C60.088 36.9483 59.7027 38.484 58.932 39.572C58.1613 40.6487 57.0507 41.187 55.6 41.187ZM55.6 39.045C56.2573 39.045 56.7447 38.722 57.062 38.076C57.3907 37.4187 57.555 36.3817 57.555 34.965C57.555 33.5483 57.3907 32.5283 57.062 31.905C56.7447 31.2817 56.2573 30.97 55.6 30.97C54.9427 30.97 54.4497 31.2817 54.121 31.905C53.8037 32.5283 53.645 33.5427 53.645 34.948C53.645 36.376 53.8093 37.4187 54.138 38.076C54.4667 38.722 54.954 39.045 55.6 39.045Z" fill="#E541ED"/>
<path d="M80.4231 5.43643e-08H25.1307C24.9236 -5.43307e-05 24.7185 0.0406962 24.5271 0.119925C24.3358 0.199153 24.1619 0.315307 24.0155 0.461749C23.8691 0.60819 23.7529 0.782053 23.6737 0.973399C23.5944 1.16474 23.5537 1.36982 23.5538 1.57692C23.5538 2.19732 23.3073 2.79231 22.8686 3.23099C22.4299 3.66968 21.8349 3.91613 21.2145 3.91613C20.5941 3.91613 19.9992 3.66968 19.5605 3.23099C19.1218 2.79231 18.8753 2.19732 18.8753 1.57692C18.8754 1.36982 18.8346 1.16474 18.7554 0.973399C18.6762 0.782053 18.56 0.60819 18.4136 0.461749C18.2671 0.315307 18.0933 0.199153 17.9019 0.119925C17.7106 0.0406962 17.5055 -5.43307e-05 17.2984 5.43643e-08H1.57692C1.36982 -5.43307e-05 1.16474 0.0406962 0.973396 0.119925C0.782051 0.199153 0.60819 0.315307 0.461749 0.461749C0.315307 0.60819 0.199154 0.782053 0.119926 0.973399C0.040697 1.16474 -5.43308e-05 1.36982 5.43634e-08 1.57692V48.5689C-5.43308e-05 48.776 0.040697 48.9811 0.119926 49.1724C0.199154 49.3638 0.315307 49.5376 0.461749 49.6841C0.60819 49.8305 0.782051 49.9467 0.973396 50.0259C1.16474 50.1051 1.36982 50.1459 1.57692 50.1458H17.2984C17.5055 50.1459 17.7106 50.1051 17.9019 50.0259C18.0933 49.9467 18.2671 49.8305 18.4136 49.6841C18.56 49.5376 18.6762 49.3638 18.7554 49.1724C18.8346 48.9811 18.8754 48.776 18.8753 48.5689C18.8753 47.9485 19.1218 47.3535 19.5605 46.9148C19.9992 46.4762 20.5941 46.2297 21.2145 46.2297C21.8349 46.2297 22.4299 46.4762 22.8686 46.9148C23.3073 47.3535 23.5538 47.9485 23.5538 48.5689C23.5537 48.776 23.5944 48.9811 23.6737 49.1724C23.7529 49.3638 23.8691 49.5376 24.0155 49.6841C24.1619 49.8305 24.3358 49.9467 24.5271 50.0259C24.7185 50.1051 24.9236 50.1459 25.1307 50.1458H80.4231C80.6302 50.1459 80.8353 50.1051 81.0266 50.0259C81.218 49.9467 81.3918 49.8305 81.5383 49.6841C81.6847 49.5376 81.8008 49.3638 81.8801 49.1724C81.9593 48.9811 82.0001 48.776 82 48.5689V1.57692C82.0001 1.36982 81.9593 1.16474 81.8801 0.973399C81.8008 0.782053 81.6847 0.60819 81.5383 0.461749C81.3918 0.315307 81.218 0.199153 81.0266 0.119925C80.8353 0.0406962 80.6302 -5.43307e-05 80.4231 5.43643e-08ZM78.8462 46.992H26.4765C26.1373 45.8601 25.4421 44.8678 24.4942 44.1623C23.5462 43.4569 22.3961 43.0759 21.2145 43.0759C20.0329 43.0759 18.8827 43.4569 17.9348 44.1623C16.9869 44.8678 16.2917 45.8601 15.9524 46.992H3.15385V3.15385H15.9525C16.2918 4.28572 16.987 5.27803 17.9349 5.98349C18.8829 6.68895 20.033 7.06996 21.2146 7.06996C22.3962 7.06996 23.5464 6.68895 24.4943 5.98349C25.4422 5.27803 26.1374 4.28572 26.4767 3.15385H78.8462V46.992Z" fill="#5956E9"/>
<path d="M21.2146 10.4902C21.0075 10.4902 20.8024 10.5309 20.6111 10.6102C20.4197 10.6894 20.2459 10.8055 20.0994 10.952C19.953 11.0984 19.8368 11.2723 19.7576 11.4636C19.6784 11.655 19.6376 11.8601 19.6377 12.0672V15.703C19.6377 16.1212 19.8038 16.5223 20.0996 16.8181C20.3953 17.1138 20.7964 17.2799 21.2146 17.2799C21.6328 17.2799 22.0339 17.1138 22.3297 16.8181C22.6254 16.5223 22.7915 16.1212 22.7915 15.703V12.0672C22.7916 11.8601 22.7508 11.655 22.6716 11.4636C22.5924 11.2723 22.4762 11.0984 22.3298 10.952C22.1834 10.8055 22.0095 10.6894 21.8181 10.6102C21.6268 10.5309 21.4217 10.4902 21.2146 10.4902Z" fill="#E541ED"/>
<path d="M21.2146 21.6782C21.0075 21.6782 20.8024 21.7189 20.6111 21.7981C20.4197 21.8774 20.2459 21.9935 20.0994 22.14C19.953 22.2864 19.8368 22.4603 19.7576 22.6516C19.6784 22.843 19.6376 23.048 19.6377 23.2551V26.891C19.6377 27.3092 19.8038 27.7103 20.0996 28.0061C20.3953 28.3018 20.7964 28.4679 21.2146 28.4679C21.6328 28.4679 22.0339 28.3018 22.3297 28.0061C22.6254 27.7103 22.7915 27.3092 22.7915 26.891V23.2551C22.7916 23.048 22.7508 22.843 22.6716 22.6516C22.5924 22.4603 22.4762 22.2864 22.3298 22.14C22.1834 21.9935 22.0095 21.8774 21.8181 21.7981C21.6268 21.7189 21.4217 21.6782 21.2146 21.6782Z" fill="#E541ED"/>
<path d="M21.2146 32.8657C21.0075 32.8657 20.8024 32.9064 20.6111 32.9857C20.4197 33.0649 20.2459 33.181 20.0994 33.3275C19.953 33.4739 19.8368 33.6478 19.7576 33.8391C19.6784 34.0305 19.6376 34.2355 19.6377 34.4426V38.08C19.6377 38.4983 19.8038 38.8994 20.0996 39.1951C20.3953 39.4908 20.7964 39.657 21.2146 39.657C21.6328 39.657 22.0339 39.4908 22.3297 39.1951C22.6254 38.8994 22.7915 38.4983 22.7915 38.08V34.4426C22.7916 34.2355 22.7508 34.0305 22.6716 33.8391C22.5924 33.6478 22.4762 33.4739 22.3298 33.3275C22.1834 33.181 22.0095 33.0649 21.8181 32.9857C21.6268 32.9064 21.4217 32.8657 21.2146 32.8657Z" fill="#E541ED"/>
</svg>
