<svg width="58" height="62" viewBox="0 0 58 62" fill="none" xmlns="http://www.w3.org/2000/svg">
<path d="M30.1571 0.0455693C29.7754 0.0153958 29.3893 0 29 0C20.9919 0 14.5 6.50259 14.5 14.5239C14.5 15.9477 14.705 17.326 15.0879 18.6295L0.637058 33.1044C0.229136 33.5129 0 34.067 0 34.6447V45.0242C0 46.2275 0.973783 47.2028 2.175 47.2028H12.325C13.5262 47.2028 14.5 46.2275 14.5 45.0242V39.9408H21.3875C22.5887 39.9408 23.5625 38.9656 23.5625 37.7623V31.6154L26.2254 28.948C25.4486 27.9934 24.7581 26.9654 24.1658 25.876L20.5746 29.4734C20.1666 29.8819 19.9375 30.436 19.9375 31.0137V36.3099H13.05C11.8488 36.3099 10.875 37.2851 10.875 38.4885V43.5718H3.625V35.2463L19.2828 19.5627L18.8559 18.4594C18.3844 17.2412 18.125 15.9151 18.125 14.5239C18.125 9.56416 21.4343 5.37858 25.9619 4.06173C27.1572 2.52793 28.5712 1.17353 30.1571 0.0455693ZM41.6875 15.4317C43.189 15.4317 44.4062 14.2124 44.4062 12.7085C44.4062 11.2045 43.189 9.98521 41.6875 9.98521C40.186 9.98521 38.9688 11.2045 38.9688 12.7085C38.9688 14.2124 40.186 15.4317 41.6875 15.4317ZM25.375 16.3394C25.375 7.31542 32.6783 0 41.6875 0C50.6967 0 58 7.31542 58 16.3394C58 22.0069 55.1185 26.9983 50.75 29.9273V37.3734L53.5877 40.2157C54.4374 41.0665 54.4374 42.4459 53.5877 43.297L49.6882 47.2028L53.5579 51.0785C54.4743 51.9968 54.3906 53.5091 53.3785 54.3203L44.8587 61.1476C44.0644 61.7841 42.9356 61.7841 42.1413 61.1476L33.4413 54.1761C32.9255 53.7626 32.625 53.1366 32.625 52.4746V29.9273C28.2565 26.9983 25.375 22.0069 25.375 16.3394ZM41.6875 3.63099C34.6804 3.63099 29 9.32074 29 16.3394C29 21.0411 31.548 25.1488 35.3452 27.3488C35.9053 27.6733 36.25 28.2723 36.25 28.9203V51.7768L43.5 57.5863L49.8488 52.4986L46.0998 48.7434C45.2502 47.8927 45.2502 46.5133 46.0998 45.6622L49.9993 41.7563L47.7619 39.5153C47.3541 39.1068 47.125 38.5527 47.125 37.975V28.9203C47.125 28.2723 47.4697 27.6733 48.0298 27.3488C51.827 25.1488 54.375 21.0411 54.375 16.3394C54.375 9.32074 48.6946 3.63099 41.6875 3.63099Z" fill="#5956E9"/>
<path d="M30.1571 0.0455693C29.7754 0.0153958 29.3893 0 29 0C20.9919 0 14.5 6.50259 14.5 14.5239C14.5 15.9477 14.705 17.326 15.0879 18.6295L0.637058 33.1044C0.229136 33.5129 0 34.067 0 34.6447V45.0242C0 46.2275 0.973783 47.2028 2.175 47.2028H12.325C13.5262 47.2028 14.5 46.2275 14.5 45.0242V39.9408H21.3875C22.5887 39.9408 23.5625 38.9656 23.5625 37.7623V31.6154L26.2254 28.948C25.4486 27.9934 24.7581 26.9654 24.1658 25.876L20.5746 29.4734C20.1666 29.8819 19.9375 30.436 19.9375 31.0137V36.3099H13.05C11.8488 36.3099 10.875 37.2851 10.875 38.4885V43.5718H3.625V35.2463L19.2828 19.5627L18.8559 18.4594C18.3844 17.2412 18.125 15.9151 18.125 14.5239C18.125 9.56416 21.4343 5.37858 25.9619 4.06173C27.1572 2.52793 28.5712 1.17353 30.1571 0.0455693ZM41.6875 15.4317C43.189 15.4317 44.4062 14.2124 44.4062 12.7085C44.4062 11.2045 43.189 9.98521 41.6875 9.98521C40.186 9.98521 38.9688 11.2045 38.9688 12.7085C38.9688 14.2124 40.186 15.4317 41.6875 15.4317Z" fill="#E541ED"/>
</svg>
