<svg width="73" height="53" viewBox="0 0 73 53" fill="none" xmlns="http://www.w3.org/2000/svg">
<path d="M4.16016 36.0132V41.9097" stroke="#DD18FF" stroke-width="2" stroke-miterlimit="10" stroke-linecap="round" stroke-linejoin="round"/>
<path d="M7.10882 38.9609H1.21094" stroke="#DD18FF" stroke-width="2" stroke-miterlimit="10" stroke-linecap="round" stroke-linejoin="round"/>
<path d="M7.96289 49.2061V52.4977" stroke="#DD18FF" stroke-miterlimit="10" stroke-linecap="round" stroke-linejoin="round"/>
<path d="M9.60805 50.8521H6.31641" stroke="#DD18FF" stroke-miterlimit="10" stroke-linecap="round" stroke-linejoin="round"/>
<path d="M67.3066 14.6789L69.5293 9.2168" stroke="#DD18FF" stroke-width="2" stroke-miterlimit="10" stroke-linecap="round" stroke-linejoin="round"/>
<path d="M65.6875 10.8359L71.1496 13.0586" stroke="#DD18FF" stroke-width="2" stroke-miterlimit="10" stroke-linecap="round" stroke-linejoin="round"/>
<path d="M63.3262 3.77325L64.5658 0.725586" stroke="#DD18FF" stroke-miterlimit="10" stroke-linecap="round" stroke-linejoin="round"/>
<path d="M62.4219 1.62988L65.4695 2.86954" stroke="#DD18FF" stroke-miterlimit="10" stroke-linecap="round" stroke-linejoin="round"/>
<path d="M55.9443 2.14893H16.0977V13.5851H55.9443V2.14893Z" stroke="#7256FC" stroke-width="3" stroke-miterlimit="10" stroke-linecap="round" stroke-linejoin="round"/>
<path d="M55.9443 13.5864H16.0977V50.8522H55.9443V13.5864Z" stroke="#7256FC" stroke-width="3" stroke-miterlimit="10" stroke-linecap="round" stroke-linejoin="round"/>
<path d="M22.082 24.2964H30.1772" stroke="#DD18FF" stroke-width="3" stroke-miterlimit="10" stroke-linecap="round" stroke-linejoin="round"/>
<path d="M42.1348 24.2964H50.8476" stroke="#DD18FF" stroke-width="3" stroke-miterlimit="10" stroke-linecap="round" stroke-linejoin="round"/>
<path d="M22.9004 42.1777H29.3568" stroke="#DD18FF" stroke-width="3" stroke-miterlimit="10" stroke-linecap="round" stroke-linejoin="round"/>
<path d="M26.1289 20.249V28.3442" stroke="#DD18FF" stroke-width="3" stroke-miterlimit="10" stroke-linecap="round" stroke-linejoin="round"/>
<path d="M43.7969 38.9609L50.2293 45.3947" stroke="#DD18FF" stroke-width="3" stroke-miterlimit="10" stroke-linecap="round" stroke-linejoin="round"/>
<path d="M50.2293 38.9609L43.7969 45.3947" stroke="#DD18FF" stroke-width="3" stroke-miterlimit="10" stroke-linecap="round" stroke-linejoin="round"/>
<path d="M26.1284 40.1597C26.7905 40.1597 27.3272 39.623 27.3272 38.961C27.3272 38.2989 26.7905 37.7622 26.1284 37.7622C25.4664 37.7622 24.9297 38.2989 24.9297 38.961C24.9297 39.623 25.4664 40.1597 26.1284 40.1597Z" fill="#DD18FF"/>
<path d="M26.1284 46.6441C26.7905 46.6441 27.3272 46.1074 27.3272 45.4453C27.3272 44.7833 26.7905 44.2466 26.1284 44.2466C25.4664 44.2466 24.9297 44.7833 24.9297 45.4453C24.9297 46.1074 25.4664 46.6441 26.1284 46.6441Z" fill="#DD18FF"/>
<path d="M36.0234 50.8522V13.5864" stroke="#7256FC" stroke-width="3" stroke-miterlimit="10" stroke-linecap="round" stroke-linejoin="round"/>
<path d="M16.0977 33.4453H55.9443" stroke="#7256FC" stroke-width="3" stroke-miterlimit="10" stroke-linecap="round" stroke-linejoin="round"/>
</svg>
