<svg width="69" height="58" viewBox="0 0 69 58" fill="none" xmlns="http://www.w3.org/2000/svg">
<path d="M6.74848 46.4654C7.53614 46.4654 8.15503 45.8465 8.15503 45.0589V30.3464L16.6506 25.7892V37.8573C16.6506 38.645 17.2694 39.2639 18.0571 39.2639C18.8448 39.2639 19.4637 38.645 19.4637 37.8573V21.0913L5.37006 28.6585V45.0589C5.34193 45.8184 5.96081 46.4654 6.74848 46.4654Z" fill="#5956E9"/>
<path d="M23.6839 35.8038C24.4716 35.8038 25.0904 35.1849 25.0904 34.3972V9.52949L33.586 4.97228V45.4245C33.586 46.2122 34.2049 46.8311 34.9925 46.8311C35.7802 46.8311 36.3991 46.2122 36.3991 45.4245V0.274414L22.2773 7.84163V34.3972C22.2773 35.1568 22.8962 35.8038 23.6839 35.8038Z" fill="#E541ED"/>
<path d="M40.6195 45.0026C41.4072 45.0026 42.0261 44.3837 42.0261 43.5961V16.7873L50.5216 12.2301V36.5071C50.5216 37.2947 51.1405 37.9136 51.9282 37.9136C52.7158 37.9136 53.3347 37.2947 53.3347 36.5071V7.53223L39.2411 15.0994V43.5961C39.213 44.3837 39.86 45.0026 40.6195 45.0026Z" fill="#5956E9"/>
<path d="M68.8062 33.8913C68.553 33.4693 68.1029 33.188 67.5965 33.188H57.8914C57.385 33.188 56.9349 33.4693 56.6818 33.8913C56.4286 34.3132 56.4286 34.8477 56.6818 35.2978L58.4259 38.3078L50.6899 43.0057C49.5084 43.7371 48.355 44.4404 47.1735 45.1718C46.3296 45.7063 45.4856 46.2126 44.6698 46.7471C42.4756 48.1536 40.5346 49.4195 38.7342 50.6573C37.8059 51.2762 36.9057 51.9232 35.9774 52.5421L23.3747 40.2207L0.644943 54.68C-0.00206808 55.102 -0.198985 55.974 0.222979 56.621C0.504289 57.043 0.954383 57.2681 1.40448 57.2681C1.65766 57.2681 1.91084 57.1837 2.16401 57.043L22.9809 43.7933L35.6961 56.1991L37.4121 54.9613C38.3685 54.2862 39.325 53.611 40.3096 52.964C42.0818 51.7544 43.9947 50.5166 46.1889 49.1101C47.0047 48.5756 47.8486 48.0692 48.6644 47.5348C49.8178 46.8034 50.9993 46.1001 52.1527 45.3687L59.2698 41.0084L59.8324 40.6708L61.5484 43.6527C61.8016 44.0747 62.2517 44.356 62.758 44.356C63.2644 44.356 63.7145 44.0747 63.9677 43.6527L68.8343 35.2415C69.0594 34.8758 69.0594 34.3414 68.8062 33.8913ZM62.7299 40.1926L60.3106 36.0011H65.1492L62.7299 40.1926Z" fill="#5956E9"/>
</svg>
