<svg width="53" height="53" viewBox="0 0 53 53" fill="none" xmlns="http://www.w3.org/2000/svg">
<path d="M34.3187 32.0902C36.1698 32.0902 37.9794 31.5413 39.5186 30.5128C41.0578 29.4844 42.2575 28.0226 42.9659 26.3123C43.6743 24.6021 43.8596 22.7201 43.4985 20.9045C43.1373 19.0889 42.2459 17.4212 40.9369 16.1122C39.628 14.8033 37.9602 13.9118 36.1446 13.5507C34.329 13.1896 32.4471 13.3749 30.7369 14.0833C29.0266 14.7917 27.5648 15.9914 26.5364 17.5306C25.5079 19.0698 24.959 20.8794 24.959 22.7305C24.959 25.2129 25.9451 27.5935 27.7004 29.3488C29.4556 31.1041 31.8363 32.0902 34.3187 32.0902ZM34.3187 17.1147C35.4294 17.1147 36.5151 17.4441 37.4386 18.0612C38.3621 18.6782 39.0819 19.5553 39.507 20.5815C39.932 21.6076 40.0432 22.7368 39.8266 23.8261C39.6099 24.9155 39.075 25.9161 38.2896 26.7015C37.5042 27.4869 36.5036 28.0217 35.4142 28.2384C34.3249 28.4551 33.1957 28.3439 32.1696 27.9189C31.1434 27.4938 30.2664 26.774 29.6493 25.8505C29.0322 24.927 28.7029 23.8412 28.7029 22.7305C28.7029 21.2411 29.2945 19.8127 30.3477 18.7596C31.4009 17.7064 32.8293 17.1147 34.3187 17.1147Z" fill="#5956E9"/>
<path d="M12.9255 15.1538C14.4241 15.1538 15.889 14.7094 17.135 13.8768C18.381 13.0443 19.3522 11.8609 19.9256 10.4764C20.4991 9.09193 20.6492 7.56848 20.3568 6.09871C20.0644 4.62894 19.3428 3.27886 18.2832 2.21922C17.2235 1.15957 15.8735 0.437946 14.4037 0.145591C12.9339 -0.146765 11.4105 0.00328292 10.026 0.576759C8.64147 1.15023 7.45812 2.12138 6.62557 3.36739C5.79301 4.6134 5.34863 6.07832 5.34863 7.57688C5.34863 9.58639 6.14691 11.5136 7.56785 12.9345C8.98879 14.3555 10.916 15.1538 12.9255 15.1538ZM12.9255 3.78844C13.6748 3.78844 14.4072 4.01063 15.0303 4.42691C15.6533 4.84319 16.1388 5.43486 16.4256 6.12711C16.7123 6.81936 16.7873 7.58108 16.6412 8.31597C16.495 9.05085 16.1342 9.72589 15.6043 10.2557C15.0745 10.7855 14.3995 11.1463 13.6646 11.2925C12.9297 11.4387 12.168 11.3637 11.4757 11.0769C10.7835 10.7902 10.1918 10.3046 9.77554 9.68163C9.35926 9.05862 9.13707 8.32616 9.13707 7.57688C9.13707 6.57212 9.53621 5.60852 10.2467 4.89805C10.9571 4.18758 11.9208 3.78844 12.9255 3.78844Z" fill="#E541ED"/>
<path d="M43.2323 33.873H24.513C22.0307 33.873 19.65 34.8592 17.8947 36.6144C16.1394 38.3697 15.1533 40.7504 15.1533 43.2327V52.5924H18.8972V43.2327C18.8972 41.7433 19.4889 40.3149 20.542 39.2617C21.5952 38.2086 23.0236 37.6169 24.513 37.6169H43.2323C44.7218 37.6169 46.1502 38.2086 47.2033 39.2617C48.2565 40.3149 48.8482 41.7433 48.8482 43.2327V52.5924H52.592V43.2327C52.592 40.7504 51.6059 38.3697 49.8506 36.6144C48.0954 34.8592 45.7147 33.873 43.2323 33.873Z" fill="#5956E9"/>
<path d="M20.5021 16.9365H7.45533C5.47805 16.9365 3.58176 17.7348 2.18361 19.1557C0.78547 20.5767 0 22.5039 0 24.5134V32.0903H3.72766V24.5134C3.72766 23.5086 4.1204 22.545 4.81947 21.8346C5.51854 21.1241 6.46669 20.725 7.45533 20.725H20.5021V16.9365Z" fill="#E541ED"/>
</svg>
