<svg width="62" height="56" viewBox="0 0 62 56" fill="none" xmlns="http://www.w3.org/2000/svg">
<path d="M57.4791 19.3572C57.4791 16.613 55.2294 14.3633 52.4852 14.3633C49.741 14.3633 47.4913 16.613 47.4913 19.3572C47.4913 20.2719 47.7632 21.1372 48.2082 21.8789L41.4837 28.6034C40.7915 28.2572 40.0251 28.0347 39.2093 28.0347C38.1709 28.0347 37.2315 28.3561 36.4156 28.8753L29.6664 22.1508C30.2103 21.3597 30.5317 20.3955 30.5317 19.3572C30.5317 16.613 28.282 14.3633 25.5378 14.3633C22.7936 14.3633 20.5439 16.613 20.5439 19.3572C20.5439 20.173 20.7664 20.9394 21.1125 21.6069L13.9677 28.7517C13.2261 28.3067 12.3608 28.0347 11.4461 28.0347C8.70188 28.0347 6.45215 30.2845 6.45215 33.0287C6.45215 35.7728 8.70188 38.0226 11.4461 38.0226C14.1902 38.0226 16.44 35.7728 16.44 33.0287C16.44 32.1139 16.168 31.2487 15.723 30.507L22.7442 23.4858C23.5353 24.0297 24.4995 24.3511 25.5378 24.3511C26.3536 24.3511 27.12 24.1286 27.7875 23.7825L34.7592 30.7542C34.4131 31.4464 34.1906 32.2128 34.1906 33.0287C34.1906 35.7728 36.4404 38.0226 39.1846 38.0226C41.9287 38.0226 44.1785 35.7728 44.1785 33.0287C44.1785 31.9903 43.8571 31.0261 43.3379 30.235L49.9388 23.6342C50.6804 24.0792 51.5457 24.3511 52.4605 24.3511C55.2294 24.3511 57.4791 22.1014 57.4791 19.3572ZM11.4461 35.5256C10.0616 35.5256 8.92438 34.3884 8.92438 33.0039C8.92438 31.6195 10.0616 30.4823 11.4461 30.4823C12.1383 30.4823 12.7563 30.7542 13.2261 31.2239C13.6711 31.6689 13.9677 32.3117 13.9677 33.0039C13.9677 34.4131 12.8305 35.5256 11.4461 35.5256ZM25.5378 21.8542C24.1534 21.8542 23.0161 20.7169 23.0161 19.3325C23.0161 17.948 24.1534 16.8108 25.5378 16.8108C26.9223 16.8108 28.0595 17.948 28.0595 19.3325C28.0595 20.7416 26.9223 21.8542 25.5378 21.8542ZM39.2093 35.5256C37.8248 35.5256 36.6876 34.3884 36.6876 33.0039C36.6876 31.6195 37.8248 30.4823 39.2093 30.4823C40.5937 30.4823 41.7309 31.6195 41.7309 33.0039C41.7062 34.4131 40.5937 35.5256 39.2093 35.5256ZM50.7052 21.1125C50.2602 20.6675 49.9635 20.0247 49.9635 19.3325C49.9635 17.948 51.1007 16.8108 52.4852 16.8108C53.8696 16.8108 55.0069 17.948 55.0069 19.3325C55.0069 20.7169 53.8696 21.8542 52.4852 21.8542C51.7929 21.8542 51.1502 21.5822 50.7052 21.1125Z" fill="#E541ED"/>
<path d="M1.33501 48.4558C2.07668 48.4558 2.67001 47.8625 2.67001 47.1208V1.33501C2.67001 0.593336 2.07668 0 1.33501 0C0.593337 0 0 0.593336 0 1.33501V47.1208C0 47.8625 0.593337 48.4558 1.33501 48.4558Z" fill="#5956E9"/>
<path d="M8.30671 52.3618H1.33501C0.593337 52.3618 0 52.9552 0 53.6968C0 54.4385 0.593337 55.0318 1.33501 55.0318H8.33143C9.0731 55.0318 9.66644 54.4385 9.66644 53.6968C9.66644 52.9552 9.04838 52.3618 8.30671 52.3618Z" fill="#5956E9"/>
<path d="M21.212 52.3618H14.2403C13.4986 52.3618 12.9053 52.9552 12.9053 53.6968C12.9053 54.4385 13.4986 55.0318 14.2403 55.0318H21.2367C21.9784 55.0318 22.5717 54.4385 22.5717 53.6968C22.5717 52.9552 21.9537 52.3618 21.212 52.3618Z" fill="#5956E9"/>
<path d="M34.1166 52.3618H27.1202C26.3785 52.3618 25.7852 52.9552 25.7852 53.6968C25.7852 54.4385 26.3785 55.0318 27.1202 55.0318H34.1166C34.8583 55.0318 35.4516 54.4385 35.4516 53.6968C35.4516 52.9552 34.8583 52.3618 34.1166 52.3618Z" fill="#5956E9"/>
<path d="M47.0219 52.3618H40.0254C39.2838 52.3618 38.6904 52.9552 38.6904 53.6968C38.6904 54.4385 39.2838 55.0318 40.0254 55.0318H47.0219C47.7635 55.0318 48.3569 54.4385 48.3569 53.6968C48.3569 52.9552 47.7635 52.3618 47.0219 52.3618Z" fill="#5956E9"/>
<path d="M59.9271 52.3618H52.9307C52.189 52.3618 51.5957 52.9552 51.5957 53.6968C51.5957 54.4385 52.189 55.0318 52.9307 55.0318H59.9271C60.6688 55.0318 61.2621 54.4385 61.2621 53.6968C61.2621 52.9552 60.6688 52.3618 59.9271 52.3618Z" fill="#5956E9"/>
</svg>
