<svg width="61" height="61" viewBox="0 0 61 61" fill="none" xmlns="http://www.w3.org/2000/svg">
<path d="M18.8359 59.2291C19.1212 59.5688 19.4774 59.842 19.8796 60.0294C20.2817 60.2169 20.72 60.314 21.1637 60.314C21.6074 60.314 22.0457 60.2169 22.4478 60.0294C22.85 59.842 23.2062 59.5688 23.4916 59.2291C25.855 56.2624 33.0967 47.479 33.0967 47.479C35.9336 48.8935 39.0823 49.5672 42.2496 49.4374C45.417 49.3076 48.5 48.3785 51.2117 46.7367C53.9234 45.0949 56.1756 42.7936 57.7586 40.0472C59.3417 37.3008 60.2042 34.1986 60.2658 31.0292C60.3274 27.8598 59.5861 24.7263 58.1109 21.9205C56.6357 19.1147 54.4746 16.7277 51.8287 14.9818C49.1829 13.2358 46.1383 12.1877 42.9784 11.9349C39.8185 11.6822 36.646 12.233 33.7563 13.5362V4.00723C33.7558 3.20999 33.4389 2.44555 32.8753 1.88172C32.3116 1.3179 31.5473 1.00079 30.75 1H11.5774C10.7801 1.00079 10.0158 1.3179 9.45216 1.88172C8.88852 2.44555 8.57165 3.20999 8.57113 4.00723V33.2904C8.57113 33.2904 5.12484 33.3111 3.97673 33.2904C3.41231 33.3012 2.8621 33.4692 2.38794 33.7756C1.91378 34.0819 1.53445 34.5145 1.29261 35.0245C1.05077 35.5346 0.955985 36.1021 1.01892 36.6631C1.08186 37.2241 1.30001 37.7564 1.64887 38.2002C6.03956 43.3791 14.6222 53.9058 18.8359 59.2291ZM58.2472 30.6668C58.2472 33.9918 57.2613 37.242 55.414 40.0066C53.5668 42.7712 50.9413 44.926 47.8694 46.1984C44.7976 47.4708 41.4174 47.8037 38.1563 47.155C34.8953 46.5063 31.8998 44.9052 29.5487 42.5541C27.1976 40.2031 25.5965 37.2076 24.9479 33.9465C24.2992 30.6855 24.6321 27.3053 25.9045 24.2335C27.1769 21.1616 29.3316 18.5361 32.0962 16.6888C34.8608 14.8416 38.1111 13.8556 41.436 13.8556C45.8931 13.8606 50.1662 15.6334 53.3179 18.785C56.4695 21.9366 58.2423 26.2097 58.2472 30.6668ZM3.04717 35.8575C3.12759 35.6789 3.25836 35.5277 3.42348 35.4223C3.58859 35.3169 3.78086 35.2619 3.97673 35.2642H9.56003C9.8223 35.2642 10.0738 35.16 10.2593 34.9746C10.4447 34.7891 10.5489 34.5376 10.5489 34.2753V4.00723C10.5489 3.73437 10.6572 3.47268 10.8501 3.27965C11.0429 3.08662 11.3045 2.97805 11.5774 2.97779H30.75C31.0229 2.97805 31.2845 3.08662 31.4773 3.27965C31.6702 3.47268 31.7785 3.73437 31.7785 4.00723V14.5795C29.0321 16.2204 26.7515 18.5371 25.154 21.3089C23.5564 24.0808 22.6951 27.2155 22.6521 30.4145C22.6091 33.6134 23.3857 36.7702 24.9082 39.584C26.4306 42.3978 28.648 44.775 31.3493 46.4891L21.9608 57.9781C21.8612 58.0914 21.7386 58.1822 21.6011 58.2444C21.4637 58.3066 21.3146 58.3388 21.1637 58.3388C21.0129 58.3388 20.8637 58.3066 20.7263 58.2444C20.5888 58.1822 20.4662 58.0914 20.3667 57.9781L3.17968 36.9483C3.05395 36.799 2.97445 36.6164 2.95092 36.4227C2.92738 36.2289 2.96083 36.0325 3.04717 35.8575Z" fill="#5956E9" stroke="#5956E9"/>
<path d="M47.9397 25.0955V23.0898H36.3516V25.0955H40.0387C41.4103 25.0955 42.5681 25.9359 43.0042 27.1011H36.3516V29.1068H43.0042C42.788 29.6917 42.3868 30.1985 41.8558 30.5576C41.3248 30.9167 40.6901 31.1105 40.0387 31.1124H36.3516V33.5332L42.2362 39.135H45.2155L38.8946 33.1181H40.0387C41.2523 33.1165 42.4281 32.7167 43.3681 31.986C44.308 31.2553 44.9545 30.2384 45.1986 29.1068H47.9397V27.1011H45.1986C45.0371 26.3713 44.7044 25.6856 44.2252 25.0955H47.9397Z" fill="#E541ED"/>
</svg>
