<svg width="48" height="59" viewBox="0 0 48 59" fill="none" xmlns="http://www.w3.org/2000/svg">
<path d="M13.017 52.3044C13.5922 52.3044 14.0584 51.8667 14.0584 51.3268C14.0584 50.7868 13.5922 50.3491 13.017 50.3491C12.4418 50.3491 11.9756 50.7868 11.9756 51.3268C11.9756 51.8667 12.4418 52.3044 13.017 52.3044Z" fill="#E9DFFC"/>
<path d="M46.4201 45.9664C46.684 45.9437 46.9294 45.8291 47.1079 45.6451C47.2864 45.4611 47.385 45.221 47.3844 44.9722V4.88828C47.3828 3.5923 46.8336 2.34985 45.8575 1.43346C44.8813 0.517064 43.5578 0.00155238 42.1773 0H7.81062C5.73979 0.00207033 3.75441 0.775256 2.29011 2.1499C0.825816 3.52455 0.00220536 5.38837 0 7.33242V51.3269C0.00220536 53.271 0.825816 55.1348 2.29011 56.5094C3.75441 57.8841 5.73979 58.6573 7.81062 58.6593H46.343C46.6214 58.655 46.8867 58.5479 47.0816 58.3613C47.2765 58.1746 47.3853 57.9235 47.3844 57.6621C47.3851 57.4149 47.2861 57.1766 47.1071 56.9952C46.9282 56.8138 46.6827 56.7028 46.4201 56.6845C44.9833 56.5782 43.6421 55.9673 42.6638 54.9738C41.6856 53.9802 41.1423 52.677 41.1423 51.324C41.1423 49.971 41.6856 48.6678 42.6638 47.6742C43.6421 46.6806 44.9833 46.0698 46.4201 45.9635V45.9664ZM8.85203 1.95531H42.1773C43.0059 1.95531 43.8006 2.26432 44.3865 2.81436C44.9724 3.3644 45.3016 4.11041 45.3016 4.88828V43.9945H8.85203V1.95531ZM2.08283 7.33242C2.08469 6.07631 2.55407 4.86031 3.40981 3.89468C4.26555 2.92905 5.45385 2.27452 6.7692 2.04428V44.0678C4.97044 44.2953 3.31284 45.1055 2.08283 46.3585V7.33242ZM39.1322 50.3493H17.1834C16.9072 50.3493 16.6423 50.4523 16.447 50.6356C16.2517 50.819 16.1419 51.0676 16.1419 51.3269C16.1419 51.5862 16.2517 51.8349 16.447 52.0182C16.6423 52.2016 16.9072 52.3046 17.1834 52.3046H39.1322C39.376 53.9913 40.2359 55.5462 41.565 56.704H7.81062C6.29151 56.704 4.83463 56.1375 3.76046 55.1291C2.68629 54.1207 2.08283 52.753 2.08283 51.3269C2.08283 49.9008 2.68629 48.5331 3.76046 47.5247C4.83463 46.5163 6.29151 45.9498 7.81062 45.9498H41.565C40.2359 47.1076 39.376 48.6626 39.1322 50.3493Z" fill="#5956E9"/>
<rect x="16.125" y="10.4075" width="22.1721" height="2.83835" fill="#E541ED"/>
<rect x="16.125" y="17.0303" width="22.1721" height="2.83835" fill="#E541ED"/>
<rect x="16.125" y="24.5991" width="12.0939" height="2.83835" fill="#E541ED"/>
<rect x="16.125" y="32.1682" width="22.1721" height="2.83835" fill="#E541ED"/>
</svg>
