<svg width="56" height="56" viewBox="0 0 56 56" fill="none" xmlns="http://www.w3.org/2000/svg">
<path d="M25.2939 32.6093V14.9346H29.0545V28.8487H40.7123V32.6093H25.2939Z" fill="#E541ED"/>
<path d="M55.6568 27.818C55.6579 33.3227 54.0264 38.7041 50.9686 43.2815C47.9109 47.8589 43.5643 51.4266 38.4786 53.5333C33.393 55.64 27.7968 56.1911 22.3979 55.1169C16.999 54.0427 12.0399 51.3914 8.14805 47.4984C5.55604 44.9197 3.50126 41.8525 2.10266 38.4744C0.704057 35.0962 -0.0105792 31.4742 0.000118346 27.818H3.75067C3.75067 41.0941 14.5523 51.8958 27.8284 51.8958C41.1045 51.8958 51.9062 41.0941 51.9062 27.818C51.9062 14.5419 41.1045 3.74023 27.8284 3.74023C24.5562 3.74018 21.3183 4.4081 18.3132 5.70308C15.3081 6.99807 12.599 8.89286 10.3518 11.2714H17.6749V15.022H4.51282V1.86997H8.26463V8.04986C12.1662 4.18721 17.1234 1.56535 22.5121 0.514431C27.9007 -0.536485 33.4799 0.0305395 38.5469 2.1441C43.614 4.25766 47.9424 7.82325 50.987 12.3919C54.0317 16.9605 55.6564 22.3278 55.6568 27.818Z" fill="#5956E9"/>
</svg>
