<svg width="56" height="60" viewBox="0 0 56 60" fill="none" xmlns="http://www.w3.org/2000/svg">
<path d="M18.6641 39.1939C18.6641 38.6989 18.8607 38.2242 19.2107 37.8742C19.5607 37.5242 20.0354 37.3275 20.5304 37.3275H27.9959C28.4909 37.3275 28.9656 37.5242 29.3156 37.8742C29.6656 38.2242 29.8622 38.6989 29.8622 39.1939C29.8622 39.6889 29.6656 40.1636 29.3156 40.5136C28.9656 40.8636 28.4909 41.0602 27.9959 41.0602H20.5304C20.0354 41.0602 19.5607 40.8636 19.2107 40.5136C18.8607 40.1636 18.6641 39.6889 18.6641 39.1939ZM18.6641 31.7284C18.6641 31.2334 18.8607 30.7587 19.2107 30.4087C19.5607 30.0587 20.0354 29.8621 20.5304 29.8621H39.1941C39.6891 29.8621 40.1638 30.0587 40.5138 30.4087C40.8638 30.7587 41.0604 31.2334 41.0604 31.7284C41.0604 32.2234 40.8638 32.6981 40.5138 33.0481C40.1638 33.3982 39.6891 33.5948 39.1941 33.5948H20.5304C20.0354 33.5948 19.5607 33.3982 19.2107 33.0481C18.8607 32.6981 18.6641 32.2234 18.6641 31.7284ZM18.6641 24.263C18.6641 23.768 18.8607 23.2933 19.2107 22.9433C19.5607 22.5932 20.0354 22.3966 20.5304 22.3966H39.1941C39.6891 22.3966 40.1638 22.5932 40.5138 22.9433C40.8638 23.2933 41.0604 23.768 41.0604 24.263C41.0604 24.758 40.8638 25.2327 40.5138 25.5827C40.1638 25.9327 39.6891 26.1293 39.1941 26.1293H20.5304C20.0354 26.1293 19.5607 25.9327 19.2107 25.5827C18.8607 25.2327 18.6641 24.758 18.6641 24.263ZM18.6641 16.7975C18.6641 16.3025 18.8607 15.8278 19.2107 15.4778C19.5607 15.1278 20.0354 14.9312 20.5304 14.9312H39.1941C39.6891 14.9312 40.1638 15.1278 40.5138 15.4778C40.8638 15.8278 41.0604 16.3025 41.0604 16.7975C41.0604 17.2925 40.8638 17.7672 40.5138 18.1172C40.1638 18.4672 39.6891 18.6639 39.1941 18.6639H20.5304C20.0354 18.6639 19.5607 18.4672 19.2107 18.1172C18.8607 17.7672 18.6641 17.2925 18.6641 16.7975Z" fill="#E541ED"/>
<path d="M11.1979 0H48.5252C50.5051 0 52.404 0.786537 53.804 2.18658C55.2041 3.58663 55.9906 5.48549 55.9906 7.46546V52.2582C55.9906 54.2381 55.2041 56.137 53.804 57.5371C52.404 58.9371 50.5051 59.7236 48.5252 59.7236H11.1979C9.21792 59.7236 7.31905 58.9371 5.919 57.5371C4.51896 56.137 3.73242 54.2381 3.73242 52.2582V48.5255H7.46515V52.2582C7.46515 53.2482 7.85842 54.1976 8.55844 54.8976C9.25846 55.5976 10.2079 55.9909 11.1979 55.9909H48.5252C49.5151 55.9909 50.4646 55.5976 51.1646 54.8976C51.8646 54.1976 52.2579 53.2482 52.2579 52.2582V7.46546C52.2579 6.47547 51.8646 5.52604 51.1646 4.82602C50.4646 4.126 49.5151 3.73273 48.5252 3.73273H11.1979C10.2079 3.73273 9.25846 4.126 8.55844 4.82602C7.85842 5.52604 7.46515 6.47547 7.46515 7.46546V11.1982H3.73242V7.46546C3.73242 5.48549 4.51896 3.58663 5.919 2.18658C7.31905 0.786537 9.21792 0 11.1979 0V0Z" fill="#5956E9"/>
<path d="M3.73273 18.6639V16.7975C3.73273 16.3025 3.92936 15.8278 4.27937 15.4778C4.62938 15.1278 5.1041 14.9312 5.59909 14.9312C6.09408 14.9312 6.5688 15.1278 6.91881 15.4778C7.26882 15.8278 7.46546 16.3025 7.46546 16.7975V18.6639H9.33182C9.82681 18.6639 10.3015 18.8605 10.6515 19.2105C11.0015 19.5605 11.1982 20.0353 11.1982 20.5302C11.1982 21.0252 11.0015 21.5 10.6515 21.85C10.3015 22.2 9.82681 22.3966 9.33182 22.3966H1.86636C1.37137 22.3966 0.896656 22.2 0.546645 21.85C0.196634 21.5 0 21.0252 0 20.5302C0 20.0353 0.196634 19.5605 0.546645 19.2105C0.896656 18.8605 1.37137 18.6639 1.86636 18.6639H3.73273ZM3.73273 29.8621V27.9957C3.73273 27.5007 3.92936 27.026 4.27937 26.676C4.62938 26.326 5.1041 26.1293 5.59909 26.1293C6.09408 26.1293 6.5688 26.326 6.91881 26.676C7.26882 27.026 7.46546 27.5007 7.46546 27.9957V29.8621H9.33182C9.82681 29.8621 10.3015 30.0587 10.6515 30.4087C11.0015 30.7587 11.1982 31.2334 11.1982 31.7284C11.1982 32.2234 11.0015 32.6981 10.6515 33.0481C10.3015 33.3982 9.82681 33.5948 9.33182 33.5948H1.86636C1.37137 33.5948 0.896656 33.3982 0.546645 33.0481C0.196634 32.6981 0 32.2234 0 31.7284C0 31.2334 0.196634 30.7587 0.546645 30.4087C0.896656 30.0587 1.37137 29.8621 1.86636 29.8621H3.73273ZM3.73273 41.0602V39.1939C3.73273 38.6989 3.92936 38.2242 4.27937 37.8742C4.62938 37.5242 5.1041 37.3275 5.59909 37.3275C6.09408 37.3275 6.5688 37.5242 6.91881 37.8742C7.26882 38.2242 7.46546 38.6989 7.46546 39.1939V41.0602H9.33182C9.82681 41.0602 10.3015 41.2569 10.6515 41.6069C11.0015 41.9569 11.1982 42.4316 11.1982 42.9266C11.1982 43.4216 11.0015 43.8963 10.6515 44.2463C10.3015 44.5963 9.82681 44.793 9.33182 44.793H1.86636C1.37137 44.793 0.896656 44.5963 0.546645 44.2463C0.196634 43.8963 0 43.4216 0 42.9266C0 42.4316 0.196634 41.9569 0.546645 41.6069C0.896656 41.2569 1.37137 41.0602 1.86636 41.0602H3.73273Z" fill="#E541ED"/>
</svg>
