<svg width="56" height="56" viewBox="0 0 56 56" fill="none" xmlns="http://www.w3.org/2000/svg">
<path d="M2.82334 55.2693H40.9315C42.4883 55.2693 43.7549 54.0027 43.7549 52.446V40.3005C43.7549 39.665 43.239 39.1491 42.6034 39.1491C41.9678 39.1491 41.452 39.665 41.452 40.3005V52.446C41.452 52.7315 41.2171 52.9664 40.9315 52.9664H2.82334C2.53778 52.9664 2.30289 52.7315 2.30289 52.446V5.12623C2.30289 4.84067 2.53778 4.60578 2.82334 4.60578H7.12053C7.59723 5.94375 8.86382 6.90867 10.363 6.90867H33.3919C34.8911 6.90867 36.1577 5.94375 36.6344 4.60578H40.9315C41.2171 4.60578 41.452 4.84067 41.452 5.12623V13.967C41.452 14.6026 41.9678 15.1185 42.6034 15.1185C43.239 15.1185 43.7549 14.6026 43.7549 13.967V5.12623C43.7549 3.56948 42.4883 2.30289 40.9315 2.30289H36.6344C36.1577 0.96491 34.8911 0 33.3919 0H10.363C8.86382 0 7.59723 0.96491 7.12053 2.30289H2.82334C1.26659 2.30289 0 3.56948 0 5.12623V52.4483C0 54.0027 1.26659 55.2693 2.82334 55.2693ZM10.363 2.30289H33.3919C34.0275 2.30289 34.5433 2.82104 34.5433 3.45433C34.5433 4.08763 34.0275 4.60578 33.3919 4.60578H10.363C9.7274 4.60578 9.21155 4.08763 9.21155 3.45433C9.21155 2.82104 9.7274 2.30289 10.363 2.30289Z" fill="#5956E9"/>
<path d="M34.5437 17.4572C34.5437 16.7191 34.0278 16.1201 33.3922 16.1201H10.3634C9.72776 16.1201 9.21191 16.7191 9.21191 17.4572C9.21191 18.1953 9.72776 18.7943 10.3634 18.7943H33.3922C34.0278 18.7943 34.5437 18.1953 34.5437 17.4572Z" fill="#5956E9"/>
<path d="M28.2936 28.9719C28.2936 28.2338 27.7778 27.6348 27.1422 27.6348H10.3634C9.72776 27.6348 9.21191 28.2338 9.21191 28.9719C9.21191 29.7099 9.72776 30.309 10.3634 30.309H27.1422C27.7801 30.309 28.2936 29.7099 28.2936 28.9719Z" fill="#E541ED"/>
<path d="M10.3634 39.1494C9.72776 39.1494 9.21191 39.7484 9.21191 40.4865C9.21191 41.2246 9.72776 41.8236 10.3634 41.8236H21.8778C22.5134 41.8236 23.0292 41.2246 23.0292 40.4865C23.0292 39.7484 22.5134 39.1494 21.8778 39.1494H10.3634Z" fill="#5956E9"/>
<path d="M31.0889 40.3006C31.1902 40.3006 31.2938 40.2867 31.3951 40.2591L36.7332 38.7876C36.9244 38.7346 37.1017 38.6333 37.2422 38.4905L54.1316 21.5988C55.6446 20.0835 55.6446 17.6194 54.1316 16.1041C52.6646 14.6372 50.1038 14.6372 48.6369 16.1041L31.7475 32.9958C31.607 33.1386 31.5057 33.3113 31.4527 33.5047L29.9812 38.8405C29.8706 39.2389 29.9835 39.6673 30.2759 39.9597C30.4924 40.1808 30.7872 40.3006 31.0889 40.3006ZM33.5898 34.4098L50.265 17.7346C50.8638 17.1358 51.9047 17.1358 52.5034 17.7346C53.1206 18.3517 53.1206 19.3558 52.5034 19.973L35.8282 36.6482L32.74 37.5002L33.5898 34.4098Z" fill="#E541ED"/>
</svg>
