<svg width="52" height="60" viewBox="0 0 52 60" fill="none" xmlns="http://www.w3.org/2000/svg">
<path d="M1.81445 42.4398V9.05346C1.9712 6.7023 3.69537 2 9.33814 2C14.9809 2 31.439 2 38.9627 2L49.778 12.8153V42.4398" stroke="#5956E9" stroke-width="3"/>
<path d="M39.4928 25.2766H21.2714C20.7881 25.2766 20.3246 25.0846 19.9829 24.7429C19.6412 24.4012 19.4492 23.9377 19.4492 23.4545C19.4492 22.9712 19.6412 22.5077 19.9829 22.166C20.3246 21.8243 20.7881 21.6323 21.2714 21.6323H39.4928C39.9761 21.6323 40.4395 21.8243 40.7812 22.166C41.123 22.5077 41.3149 22.9712 41.3149 23.4545C41.3149 23.9377 41.123 24.4012 40.7812 24.7429C40.4395 25.0846 39.9761 25.2766 39.4928 25.2766Z" fill="#E541ED"/>
<path d="M39.4923 32.5652H13.9823C13.499 32.5652 13.0356 32.3732 12.6938 32.0315C12.3521 31.6898 12.1602 31.2263 12.1602 30.743C12.1602 30.2598 12.3521 29.7963 12.6938 29.4546C13.0356 29.1129 13.499 28.9209 13.9823 28.9209H39.4923C39.9756 28.9209 40.439 29.1129 40.7807 29.4546C41.1225 29.7963 41.3144 30.2598 41.3144 30.743C41.3144 31.2263 41.1225 31.6898 40.7807 32.0315C40.439 32.3732 39.9756 32.5652 39.4923 32.5652Z" fill="#E541ED"/>
<path d="M32.2037 39.8538H13.9823C13.499 39.8538 13.0356 39.6618 12.6938 39.3201C12.3521 38.9783 12.1602 38.5149 12.1602 38.0316C12.1602 37.5484 12.3521 37.0849 12.6938 36.7432C13.0356 36.4014 13.499 36.2095 13.9823 36.2095H32.2037C32.687 36.2095 33.1505 36.4014 33.4922 36.7432C33.8339 37.0849 34.0259 37.5484 34.0259 38.0316C34.0259 38.5149 33.8339 38.9783 33.4922 39.3201C33.1505 39.6618 32.687 39.8538 32.2037 39.8538Z" fill="#E541ED"/>
<path d="M38.4922 3.88086V13.7557H48.367" stroke="#5956E9" stroke-width="3"/>
<rect x="1.9043" y="47.2314" width="47.7849" height="11.1069" stroke="#5956E9" stroke-width="3"/>
</svg>
