<svg width="59" height="59" viewBox="0 0 59 59" fill="none" xmlns="http://www.w3.org/2000/svg">
<path d="M38.5 36C40.5767 36 42.6068 35.3842 44.3335 34.2304C46.0602 33.0767 47.406 31.4368 48.2007 29.5182C48.9955 27.5996 49.2034 25.4884 48.7982 23.4516C48.3931 21.4148 47.3931 19.5438 45.9246 18.0754C44.4562 16.6069 42.5852 15.6069 40.5484 15.2018C38.5116 14.7966 36.4004 15.0045 34.4818 15.7993C32.5632 16.594 30.9233 17.9398 29.7696 19.6665C28.6158 21.3932 28 23.4233 28 25.5C28 28.2848 29.1062 30.9555 31.0754 32.9246C33.0445 34.8938 35.7152 36 38.5 36ZM38.5 19.2C39.746 19.2 40.9641 19.5695 42.0001 20.2617C43.0361 20.954 43.8436 21.9379 44.3204 23.0891C44.7973 24.2403 44.922 25.507 44.6789 26.7291C44.4359 27.9512 43.8358 29.0737 42.9548 29.9548C42.0737 30.8358 40.9511 31.4359 39.7291 31.6789C38.507 31.922 37.2403 31.7973 36.0891 31.3204C34.9379 30.8436 33.954 30.0361 33.2617 29.0001C32.5695 27.9641 32.2 26.746 32.2 25.5C32.2 23.8291 32.8637 22.2267 34.0452 21.0452C35.2267 19.8638 36.8291 19.2 38.5 19.2Z" fill="#5956E9"/>
<path d="M14.5 17C16.1811 17 17.8245 16.5015 19.2223 15.5675C20.6202 14.6335 21.7096 13.306 22.353 11.7528C22.9963 10.1996 23.1646 8.49057 22.8367 6.84173C22.5087 5.1929 21.6992 3.67834 20.5104 2.4896C19.3217 1.30085 17.8071 0.491303 16.1583 0.163329C14.5094 -0.164645 12.8004 0.00368289 11.2472 0.647028C9.69402 1.29037 8.3665 2.37984 7.43251 3.77766C6.49852 5.17547 6 6.81886 6 8.5C6 10.7543 6.89553 12.9164 8.48959 14.5104C10.0837 16.1045 12.2457 17 14.5 17ZM14.5 4.25C15.3406 4.25 16.1623 4.49926 16.8612 4.96626C17.5601 5.43325 18.1048 6.09701 18.4265 6.8736C18.7482 7.65018 18.8323 8.50472 18.6683 9.32914C18.5043 10.1536 18.0996 10.9108 17.5052 11.5052C16.9108 12.0996 16.1536 12.5044 15.3291 12.6683C14.5047 12.8323 13.6502 12.7482 12.8736 12.4265C12.097 12.1048 11.4332 11.5601 10.9663 10.8612C10.4993 10.1623 10.25 9.34057 10.25 8.5C10.25 7.37283 10.6978 6.29183 11.4948 5.4948C12.2918 4.69777 13.3728 4.25 14.5 4.25Z" fill="#E541ED"/>
<path d="M48.5 38H27.5C24.7152 38 22.0445 39.1062 20.0754 41.0754C18.1062 43.0445 17 45.7152 17 48.5V59H21.2V48.5C21.2 46.8291 21.8637 45.2267 23.0452 44.0452C24.2267 42.8637 25.8291 42.2 27.5 42.2H48.5C50.1709 42.2 51.7733 42.8637 52.9548 44.0452C54.1362 45.2267 54.8 46.8291 54.8 48.5V59H59V48.5C59 45.7152 57.8938 43.0445 55.9246 41.0754C53.9555 39.1062 51.2848 38 48.5 38Z" fill="#5956E9"/>
<path d="M23 19H8.36364C6.14546 19 4.01814 19.8955 2.44965 21.4896C0.881166 23.0837 0 25.2457 0 27.5V36H4.18182V27.5C4.18182 26.3728 4.6224 25.2918 5.40664 24.4948C6.19089 23.6978 7.25455 23.25 8.36364 23.25H23V19Z" fill="#E541ED"/>
</svg>
