<svg width="26" height="30" viewBox="0 0 26 30" fill="none" xmlns="http://www.w3.org/2000/svg">
<path d="M16.3125 23.5H5.6875V25.625H16.3125V23.5Z" fill="#5956E9"/>
<path d="M14.1875 27.75H7.8125V29.875H14.1875V27.75Z" fill="#5956E9"/>
<path d="M5.48932 17.2744C4.49425 16.5153 3.70107 15.5232 3.1796 14.3855C2.65813 13.2478 2.42438 11.9993 2.49891 10.75C2.5015 8.49645 3.39786 6.33595 4.99136 4.74245C6.58486 3.14895 8.74537 2.25259 10.9989 2.25V0.125C8.18195 0.128122 5.48125 1.24854 3.48935 3.24044C1.49745 5.23234 0.377035 7.93303 0.373913 10.75C0.301782 12.2936 0.59748 13.8323 1.23664 15.2392C1.8758 16.6462 2.84013 17.8811 4.05016 18.8422C5.12509 19.8352 5.68641 20.3991 5.68641 21.375H7.81141C7.81141 19.42 6.63119 18.3297 5.48932 17.2744Z" fill="#5956E9"/>
<path d="M16.3125 8.18937L12.4981 4.375L11 5.87313L16.3125 11.1856L25.875 1.62313L24.3769 0.125L16.3125 8.18937Z" fill="#E541ED"/>
<path d="M19.2875 12.875C18.8957 14.6201 17.9113 16.1755 16.5017 17.2765C15.3636 18.3307 14.1875 19.4212 14.1875 21.375H16.3125C16.3125 20.3981 16.8718 19.8344 17.9436 18.8402C19.8064 17.3502 21.0559 15.2269 21.4538 12.875H19.2875Z" fill="#5956E9"/>
</svg>
