<svg width="76" height="76" viewBox="0 0 76 76" fill="none" xmlns="http://www.w3.org/2000/svg">
<circle cx="37.6911" cy="37.6911" r="37.6911" fill="url(#paint0_linear_1_3406)"/>
<path d="M60.0208 29.8963H57.0833V26.9352C57.0833 26.6734 56.9802 26.4224 56.7965 26.2373C56.6129 26.0522 56.3639 25.9482 56.1042 25.9482H53.1667V22.987C53.1667 22.7253 53.0635 22.4742 52.8799 22.2891C52.6962 22.104 52.4472 22 52.1875 22H14.9792C14.7195 22 14.4704 22.104 14.2868 22.2891C14.1032 22.4742 14 22.7253 14 22.987V42.5502C14 42.812 14.1032 43.0631 14.2868 43.2482C14.4704 43.4333 14.7195 43.5373 14.9792 43.5373H17.9167V46.4984C17.9167 46.7602 18.0198 47.0112 18.2035 47.1963C18.3871 47.3814 18.6361 47.4854 18.8958 47.4854H21.8333V50.4466C21.8333 50.7083 21.9365 50.9594 22.1201 51.1445C22.3038 51.3296 22.5528 51.4336 22.8125 51.4336H60.0208C60.2805 51.4336 60.5296 51.3296 60.7132 51.1445C60.8968 50.9594 61 50.7083 61 50.4466V30.8834C61 30.6216 60.8968 30.3705 60.7132 30.1854C60.5296 30.0003 60.2805 29.8963 60.0208 29.8963ZM44.9417 41.5632H22.225C22.0086 39.9646 21.2788 38.4816 20.1471 37.3408C19.0154 36.2 17.5441 35.4642 15.9583 35.2461V30.2912C17.5441 30.073 19.0154 29.3373 20.1471 28.1965C21.2788 27.0557 22.0086 25.5726 22.225 23.9741H44.9417C45.1581 25.5726 45.8879 27.0557 47.0196 28.1965C48.1513 29.3373 49.6226 30.073 51.2083 30.2912V35.2461C49.6226 35.4642 48.1513 36.2 47.0196 37.3408C45.8879 38.4816 45.1581 39.9646 44.9417 41.5632ZM51.2083 37.2202V41.5632H46.8804C47.0834 40.4838 47.6053 39.4915 48.3776 38.7165C49.15 37.9415 50.1367 37.4199 51.2083 37.2202ZM51.2083 23.9741V28.3368C50.134 28.1358 49.1454 27.6113 48.3727 26.8325C47.6001 26.0536 47.0798 25.057 46.8804 23.9741H51.2083ZM15.9583 23.9741H20.2863C20.0869 25.057 19.5665 26.0536 18.7939 26.8325C18.0213 27.6113 17.0326 28.1358 15.9583 28.3368V23.9741ZM15.9583 37.2202C17.03 37.4199 18.0167 37.9415 18.789 38.7165C19.5614 39.4915 20.0833 40.4838 20.2863 41.5632H15.9583V37.2202ZM19.875 43.557H52.1875C52.4472 43.557 52.6962 43.453 52.8799 43.2679C53.0635 43.0828 53.1667 42.8317 53.1667 42.57V27.9223H55.125V45.5113H19.875V43.557ZM59.0417 49.4792H23.7917V47.5052H56.1042C56.3639 47.5052 56.6129 47.4012 56.7965 47.2161C56.9802 47.031 57.0833 46.7799 57.0833 46.5181V31.8704H59.0417V49.4792Z" fill="white"/>
<path d="M33.5841 26.0664C32.271 26.0664 30.9875 26.4589 29.8958 27.1942C28.804 27.9296 27.9531 28.9747 27.4507 30.1976C26.9482 31.4204 26.8167 32.766 27.0729 34.0641C27.329 35.3623 27.9613 36.5547 28.8898 37.4906C29.8182 38.4265 31.0011 39.0639 32.2889 39.3221C33.5767 39.5803 34.9115 39.4478 36.1246 38.9413C37.3377 38.4348 38.3745 37.577 39.104 36.4765C39.8335 35.376 40.2228 34.0821 40.2228 32.7586C40.2177 30.9853 39.5166 29.2861 38.2727 28.0322C37.0288 26.7783 35.3432 26.0716 33.5841 26.0664ZM33.5841 37.4766C32.6584 37.4766 31.7535 37.1999 30.9838 36.6815C30.2141 36.163 29.6142 35.4262 29.2599 34.5641C28.9057 33.702 28.813 32.7533 28.9936 31.8381C29.1742 30.9229 29.6199 30.0822 30.2745 29.4224C30.9291 28.7625 31.7631 28.3132 32.671 28.1311C33.5789 27.9491 34.5199 28.0425 35.3752 28.3996C36.2304 28.7567 36.9614 29.3615 37.4757 30.1373C37.99 30.9132 38.2645 31.8254 38.2645 32.7586C38.2671 33.3798 38.1479 33.9954 37.9138 34.5701C37.6798 35.1448 37.3354 35.6673 36.9006 36.1075C36.4657 36.5477 35.9489 36.897 35.3797 37.1353C34.8106 37.3737 34.2004 37.4964 33.5841 37.4964V37.4766Z" fill="white"/>
<defs>
<linearGradient id="paint0_linear_1_3406" x1="37.6911" y1="0" x2="37.6911" y2="75.3823" gradientUnits="userSpaceOnUse">
<stop stop-color="#FE9DA9"/>
<stop offset="1" stop-color="#F05266"/>
</linearGradient>
</defs>
</svg>
