<svg width="61" height="61" viewBox="0 0 61 61" fill="none" xmlns="http://www.w3.org/2000/svg">
<path d="M24.3995 28.0601H2.43945V17.0801H58.5595V28.0601H36.5995" stroke="#5956E9" stroke-width="3" stroke-miterlimit="10" stroke-linecap="round"/>
<path d="M36.6004 17.0801H24.4004V58.5601H36.6004V17.0801Z" stroke="#5956E9" stroke-width="3" stroke-miterlimit="10" stroke-linecap="round"/>
<path d="M24.3989 28.0601H4.87891V58.5601H56.1189V28.0601H36.5989" stroke="#5956E9" stroke-width="3" stroke-miterlimit="10" stroke-linecap="round"/>
<path d="M30.4998 15.8599C30.4998 15.8599 26.1297 15.8599 20.7398 15.8599C15.3498 15.8599 9.75977 12.7111 9.75977 7.31994C9.75977 5.08978 10.8309 2.43994 15.0289 2.43994C23.4677 2.43994 23.6226 15.8599 30.4998 15.8599Z" stroke="#E541ED" stroke-width="3" stroke-miterlimit="10" stroke-linecap="round" stroke-linejoin="round"/>
<path d="M30.5 15.8599C30.5 15.8599 34.87 15.8599 40.26 15.8599C45.65 15.8599 51.24 12.7111 51.24 7.31994C51.24 5.08978 50.1688 2.43994 45.9708 2.43994C37.5321 2.43994 37.3771 15.8599 30.5 15.8599Z" stroke="#E541ED" stroke-width="3" stroke-miterlimit="10" stroke-linecap="round" stroke-linejoin="round"/>
</svg>
