<svg width="57" height="57" viewBox="0 0 57 57" fill="none" xmlns="http://www.w3.org/2000/svg">
<path d="M2.91175 57H42.2132C43.8188 57 45.125 55.6938 45.125 54.0882V41.5625C45.125 40.907 44.593 40.375 43.9375 40.375C43.282 40.375 42.75 40.907 42.75 41.5625V54.0882C42.75 54.3828 42.5078 54.625 42.2132 54.625H2.91175C2.61725 54.625 2.375 54.3828 2.375 54.0882V5.28675C2.375 4.99225 2.61725 4.75 2.91175 4.75H7.3435C7.83512 6.12987 9.14137 7.125 10.6875 7.125H34.4375C35.9836 7.125 37.2899 6.12987 37.7815 4.75H42.2132C42.5078 4.75 42.75 4.99225 42.75 5.28675V14.4044C42.75 15.0599 43.282 15.5919 43.9375 15.5919C44.593 15.5919 45.125 15.0599 45.125 14.4044V5.28675C45.125 3.68125 43.8188 2.375 42.2132 2.375H37.7815C37.2899 0.995125 35.9836 0 34.4375 0H10.6875C9.14137 0 7.83512 0.995125 7.3435 2.375H2.91175C1.30625 2.375 0 3.68125 0 5.28675V54.0906C0 55.6937 1.30625 57 2.91175 57ZM10.6875 2.375H34.4375C35.093 2.375 35.625 2.90937 35.625 3.5625C35.625 4.21562 35.093 4.75 34.4375 4.75H10.6875C10.032 4.75 9.5 4.21562 9.5 3.5625C9.5 2.90937 10.032 2.375 10.6875 2.375Z" fill="#5956E9"/>
<path d="M35.625 17.8125C35.625 17.157 35.093 16.625 34.4375 16.625H10.6875C10.032 16.625 9.5 17.157 9.5 17.8125C9.5 18.468 10.032 19 10.6875 19H34.4375C35.093 19 35.625 18.468 35.625 17.8125Z" fill="#5956E9"/>
<path d="M29.1802 29.6876C29.1802 29.032 28.6482 28.5 27.9926 28.5H10.6876C10.032 28.5 9.5 29.032 9.5 29.6876C9.5 30.3431 10.032 30.8751 10.6876 30.8751H27.9926C28.6506 30.8751 29.1802 30.3431 29.1802 29.6876Z" fill="#E541ED"/>
<path d="M10.6876 40.375C10.032 40.375 9.5 40.907 9.5 41.5626C9.5 42.2181 10.032 42.7501 10.6876 42.7501H22.5631C23.2187 42.7501 23.7507 42.2181 23.7507 41.5626C23.7507 40.907 23.2187 40.375 22.5631 40.375H10.6876Z" fill="#5956E9"/>
<path d="M32.0623 41.5624C32.1668 41.5624 32.2737 41.5482 32.3782 41.5197L37.8835 40.002C38.0806 39.9474 38.2635 39.8429 38.4083 39.6957L55.8266 22.275C57.387 20.7123 57.387 18.171 55.8266 16.6083C54.3137 15.0954 51.6727 15.0954 50.1598 16.6083L32.7416 34.0289C32.5967 34.1762 32.4922 34.3543 32.4376 34.5538L30.92 40.0567C30.806 40.4675 30.9223 40.9093 31.224 41.2109C31.4472 41.4389 31.7512 41.5624 32.0623 41.5624ZM34.6416 35.4872L51.839 18.2898C52.4565 17.6723 53.53 17.6723 54.1475 18.2898C54.784 18.9263 54.784 19.9618 54.1475 20.5983L36.9501 37.7957L33.7652 38.6744L34.6416 35.4872Z" fill="#E541ED"/>
</svg>
