<svg width="61" height="62" viewBox="0 0 61 62" fill="none" xmlns="http://www.w3.org/2000/svg">
<path d="M45.6576 21.5496C48.6927 21.5496 51.1531 19.0489 51.1531 15.964C51.1531 12.8792 48.6927 10.3784 45.6576 10.3784C42.6225 10.3784 40.1621 12.8792 40.1621 15.964C40.1621 19.0489 42.6225 21.5496 45.6576 21.5496Z" stroke="#E541ED" stroke-width="3" stroke-miterlimit="10" stroke-linecap="round" stroke-linejoin="round"/>
<path d="M57.7798 30.0993L30.1331 58.1084C27.9859 60.2837 24.5112 60.2808 22.3675 58.102L3.96507 39.3978C1.81569 37.2132 1.81942 33.6701 3.97338 31.4902L31.504 3.62755C32.534 2.58521 33.9282 2 35.3816 2H53.9002C56.9353 2 59.3957 4.50076 59.3957 7.5856V26.1433C59.3957 27.6278 58.8143 29.0513 57.7798 30.0993Z" stroke="#5956E9" stroke-width="3" stroke-miterlimit="10" stroke-linecap="round" stroke-linejoin="round"/>
</svg>
