<svg width="63" height="53" viewBox="0 0 63 53" fill="none" xmlns="http://www.w3.org/2000/svg">
<path d="M6.65381 40.938C6.56666 40.938 6.48038 40.9552 6.39987 40.9885C6.31936 41.0218 6.24621 41.0707 6.18459 41.1323C6.12297 41.194 6.07409 41.2671 6.04075 41.3476C6.0074 41.4281 5.99023 41.5144 5.99023 41.6016V51.1986C5.99023 51.3746 6.06015 51.5434 6.18459 51.6678C6.30903 51.7923 6.47782 51.8622 6.65381 51.8622C6.8298 51.8622 6.99858 51.7923 7.12302 51.6678C7.24747 51.5434 7.31738 51.3746 7.31738 51.1986V41.6016C7.31738 41.4256 7.24747 41.2568 7.12302 41.1323C6.99858 41.0079 6.8298 40.938 6.65381 40.938Z" fill="#E541ED" stroke="#E541ED"/>
<path d="M61.3059 1.21484H3.46721C3.29122 1.21484 3.12244 1.28476 2.998 1.4092C2.87355 1.53364 2.80364 1.70243 2.80364 1.87842V37.6788C1.86841 39.2858 1.37675 41.1124 1.37891 42.9717V51.1987C1.37891 51.3747 1.44883 51.5435 1.57327 51.6679C1.69771 51.7924 1.86649 51.8623 2.04249 51.8623C2.21848 51.8623 2.38726 51.7924 2.5117 51.6679C2.63615 51.5435 2.70606 51.3747 2.70606 51.1987V42.9717C2.70812 40.5223 3.68207 38.1738 5.41408 36.4418C7.14608 34.7098 9.49459 33.7358 11.944 33.7338H14.0349C19.4476 33.7338 20.9907 34.2711 24.0653 35.3419L28.0311 36.7198C28.1539 36.7627 28.2865 36.7685 28.4126 36.7366C28.5387 36.7047 28.6526 36.6364 28.7402 36.5403L36.3582 28.1754C36.6476 27.8656 37.0343 27.6643 37.454 27.6048C37.8738 27.5454 38.3012 27.6315 38.6651 27.8488C38.9018 27.9838 39.1052 28.1701 39.2604 28.3942C39.4155 28.6182 39.5184 28.8741 39.5614 29.1432C39.6045 29.4122 39.5867 29.6875 39.5092 29.9488C39.4318 30.21 39.2968 30.4506 39.114 30.6527L29.9411 40.8808C29.6854 41.1691 29.3588 41.3856 28.9936 41.5089C28.6285 41.6321 28.2375 41.6578 27.8593 41.5834L21.8651 39.663C21.7656 39.6307 21.6599 39.6225 21.5566 39.6389C21.4534 39.6554 21.3555 39.696 21.2709 39.7576C21.1864 39.8191 21.1176 39.8998 21.0703 39.9931C21.0229 40.0863 20.9983 40.1894 20.9985 40.294V51.1987C20.9985 51.3747 21.0684 51.5435 21.1929 51.6679C21.3173 51.7924 21.4861 51.8623 21.6621 51.8623C21.8381 51.8623 22.0069 51.7924 22.1313 51.6679C22.2557 51.5435 22.3257 51.3747 22.3257 51.1987V47.0637H61.3059C61.3931 47.0637 61.4794 47.0466 61.5599 47.0132C61.6404 46.9799 61.7135 46.931 61.7752 46.8694C61.8368 46.8078 61.8857 46.7346 61.919 46.6541C61.9524 46.5736 61.9695 46.4873 61.9695 46.4002V1.87842C61.9695 1.79127 61.9524 1.70499 61.919 1.62448C61.8857 1.54397 61.8368 1.47082 61.7752 1.4092C61.7135 1.34758 61.6404 1.2987 61.5599 1.26536C61.4794 1.23201 61.3931 1.21484 61.3059 1.21484ZM13.936 32.3325C12.7523 32.3325 11.5951 31.9814 10.6109 31.3238C9.6266 30.6661 8.85947 29.7314 8.40647 28.6377C7.95347 27.5441 7.83494 26.3407 8.06588 25.1797C8.29682 24.0186 8.86685 22.9522 9.70389 22.1152C10.5409 21.2781 11.6074 20.7081 12.7684 20.4771C13.9294 20.2462 15.1328 20.3647 16.2265 20.8177C17.3201 21.2707 18.2549 22.0379 18.9125 23.0221C19.5702 24.0064 19.9212 25.1635 19.9212 26.3473C19.9212 27.1333 19.7664 27.9116 19.4656 28.6377C19.1648 29.3639 18.7239 30.0237 18.1682 30.5794C17.6124 31.1352 16.9526 31.5761 16.2265 31.8769C15.5003 32.1776 14.722 32.3325 13.936 32.3325ZM60.6463 45.734H22.3335V41.2035L27.5223 42.8637C28.1368 42.9978 28.7758 42.967 29.3745 42.7744C29.9732 42.5817 30.5103 42.2342 30.9313 41.7669L40.1042 31.5388C40.4213 31.1857 40.6547 30.7657 40.787 30.3099C40.9194 29.8542 40.9473 29.3745 40.8686 28.9065C40.79 28.4385 40.6068 27.9942 40.3328 27.6068C40.0587 27.2194 39.7009 26.8987 39.2858 26.6687C38.6621 26.314 37.9367 26.1811 37.2278 26.2917C36.5189 26.4023 35.8684 26.7498 35.3824 27.2776L28.0519 35.3198L24.5024 34.0877C22.2229 33.294 20.6915 32.7605 17.8251 32.5328C19.1701 31.6882 20.2034 30.4284 20.7686 28.9441C21.3337 27.4598 21.4 25.8318 20.9573 24.3065C20.5146 22.7812 19.5871 21.4416 18.3151 20.4905C17.0431 19.5394 15.496 19.0285 13.9077 19.0352C12.3195 19.0419 10.7767 19.5658 9.51275 20.5276C8.24884 21.4894 7.33264 22.8367 6.90282 24.3657C6.47301 25.8947 6.55297 27.5221 7.13061 29.0016C7.70825 30.4811 8.75212 31.7321 10.1042 32.5654C7.80233 32.9742 5.7013 34.1357 4.13078 35.8676V2.54199H60.6424L60.6463 45.734Z" fill="#5956E9" stroke="#5956E9"/>
<path d="M24.0386 9.48193H53.1277C53.3037 9.48193 53.4725 9.41202 53.5969 9.28757C53.7214 9.16313 53.7913 8.99435 53.7913 8.81836C53.7913 8.64237 53.7214 8.47359 53.5969 8.34914C53.4725 8.2247 53.3037 8.15479 53.1277 8.15479H24.0386C23.8626 8.15479 23.6938 8.2247 23.5694 8.34914C23.4449 8.47359 23.375 8.64237 23.375 8.81836C23.375 8.99435 23.4449 9.16313 23.5694 9.28757C23.6938 9.41202 23.8626 9.48193 24.0386 9.48193Z" fill="#E541ED" stroke="#E541ED"/>
<path d="M53.1276 14.7739H47.5835C47.4963 14.7739 47.4101 14.7911 47.3296 14.8244C47.249 14.8578 47.1759 14.9067 47.1143 14.9683C47.0527 15.0299 47.0038 15.1031 46.9704 15.1836C46.9371 15.2641 46.9199 15.3504 46.9199 15.4375C46.9199 15.5246 46.9371 15.6109 46.9704 15.6914C47.0038 15.7719 47.0527 15.8451 47.1143 15.9067C47.1759 15.9683 47.249 16.0172 47.3296 16.0506C47.4101 16.0839 47.4963 16.1011 47.5835 16.1011H53.1276C53.2147 16.1011 53.301 16.0839 53.3815 16.0506C53.462 16.0172 53.5352 15.9683 53.5968 15.9067C53.6584 15.8451 53.7073 15.7719 53.7406 15.6914C53.774 15.6109 53.7911 15.5246 53.7911 15.4375C53.7911 15.3504 53.774 15.2641 53.7406 15.1836C53.7073 15.1031 53.6584 15.0299 53.5968 14.9683C53.5352 14.9067 53.462 14.8578 53.3815 14.8244C53.301 14.7911 53.2147 14.7739 53.1276 14.7739Z" fill="#E541ED" stroke="#E541ED"/>
<path d="M24.0386 16.1011H40.8907C40.9778 16.1011 41.0641 16.0839 41.1446 16.0506C41.2251 16.0172 41.2983 15.9683 41.3599 15.9067C41.4215 15.8451 41.4704 15.7719 41.5037 15.6914C41.5371 15.6109 41.5543 15.5246 41.5543 15.4375C41.5543 15.3504 41.5371 15.2641 41.5037 15.1836C41.4704 15.1031 41.4215 15.0299 41.3599 14.9683C41.2983 14.9067 41.2251 14.8578 41.1446 14.8244C41.0641 14.7911 40.9778 14.7739 40.8907 14.7739H24.0386C23.8626 14.7739 23.6938 14.8438 23.5694 14.9683C23.4449 15.0927 23.375 15.2615 23.375 15.4375C23.375 15.6135 23.4449 15.7823 23.5694 15.9067C23.6938 16.0312 23.8626 16.1011 24.0386 16.1011Z" fill="#E541ED" stroke="#E541ED"/>
<path d="M53.1269 21.3926H42.2534C42.0774 21.3926 41.9086 21.4625 41.7842 21.5869C41.6598 21.7114 41.5898 21.8802 41.5898 22.0562C41.5898 22.2321 41.6598 22.4009 41.7842 22.5254C41.9086 22.6498 42.0774 22.7197 42.2534 22.7197H53.1269C53.3029 22.7197 53.4717 22.6498 53.5961 22.5254C53.7205 22.4009 53.7905 22.2321 53.7905 22.0562C53.7905 21.8802 53.7205 21.7114 53.5961 21.5869C53.4717 21.4625 53.3029 21.3926 53.1269 21.3926Z" fill="#E541ED" stroke="#E541ED"/>
<path d="M24.0386 22.7197H29.7388C29.9148 22.7197 30.0836 22.6498 30.208 22.5254C30.3324 22.4009 30.4024 22.2321 30.4024 22.0562C30.4024 21.8802 30.3324 21.7114 30.208 21.5869C30.0836 21.4625 29.9148 21.3926 29.7388 21.3926H24.0386C23.8626 21.3926 23.6938 21.4625 23.5694 21.5869C23.4449 21.7114 23.375 21.8802 23.375 22.0562C23.375 22.2321 23.4449 22.4009 23.5694 22.5254C23.6938 22.6498 23.8626 22.7197 24.0386 22.7197Z" fill="#E541ED" stroke="#E541ED"/>
</svg>
