<svg width="41" height="41" viewBox="0 0 41 41" fill="none" xmlns="http://www.w3.org/2000/svg">
<path d="M20.6719 40C31.3465 40 40 31.3465 40 20.6719C40 9.99725 31.3465 1.34375 20.6719 1.34375C9.99725 1.34375 1.34375 9.99725 1.34375 20.6719C1.34375 31.3465 9.99725 40 20.6719 40Z" fill="white"/>
<path d="M20.6719 40C31.3465 40 40 31.3465 40 20.6719C40 9.99725 31.3465 1.34375 20.6719 1.34375C9.99725 1.34375 1.34375 9.99725 1.34375 20.6719C1.34375 31.3465 9.99725 40 20.6719 40Z" stroke="#5956E9" stroke-width="2" stroke-miterlimit="10" stroke-linecap="round" stroke-linejoin="round"/>
<path d="M27.514 27.5133L20.6719 20.6711L30.22 11.123" stroke="#5956E9" stroke-width="2" stroke-miterlimit="10" stroke-linecap="round" stroke-linejoin="round"/>
<path d="M20.6718 20.6719H7.14209" stroke="#E541ED" stroke-width="2" stroke-miterlimit="10" stroke-linecap="round" stroke-linejoin="round"/>
<path d="M20.6718 23.3787C22.1662 23.3787 23.3777 22.1672 23.3777 20.6727C23.3777 19.1783 22.1662 17.9668 20.6718 17.9668C19.1773 17.9668 17.9658 19.1783 17.9658 20.6727C17.9658 22.1672 19.1773 23.3787 20.6718 23.3787Z" fill="white"/>
<path d="M20.6718 23.3787C22.1662 23.3787 23.3777 22.1672 23.3777 20.6727C23.3777 19.1783 22.1662 17.9668 20.6718 17.9668C19.1773 17.9668 17.9658 19.1783 17.9658 20.6727C17.9658 22.1672 19.1773 23.3787 20.6718 23.3787Z" stroke="#5956E9" stroke-width="2" stroke-miterlimit="10" stroke-linecap="round" stroke-linejoin="round"/>
</svg>
