<svg width="69" height="56" viewBox="0 0 69 56" fill="none" xmlns="http://www.w3.org/2000/svg">
<path d="M17.0567 54.0767C25.6268 54.0767 32.5743 47.1292 32.5743 38.5591C32.5743 29.989 25.6268 23.0415 17.0567 23.0415C8.48653 23.0415 1.53906 29.989 1.53906 38.5591C1.53906 47.1292 8.48653 54.0767 17.0567 54.0767Z" stroke="#5956E9" stroke-width="3" stroke-linecap="round" stroke-linejoin="round"/>
<path d="M17.0567 54.0767C25.6268 54.0767 32.5743 47.1292 32.5743 38.5591C32.5743 29.989 25.6268 23.0415 17.0567 23.0415C8.48653 23.0415 1.53906 29.989 1.53906 38.5591C1.53906 47.1292 8.48653 54.0767 17.0567 54.0767Z" stroke="#5956E9" stroke-width="3" stroke-linecap="round" stroke-linejoin="round"/>
<path d="M17.0567 54.0767C25.6268 54.0767 32.5743 47.1292 32.5743 38.5591C32.5743 29.989 25.6268 23.0415 17.0567 23.0415C8.48653 23.0415 1.53906 29.989 1.53906 38.5591C1.53906 47.1292 8.48653 54.0767 17.0567 54.0767Z" stroke="#5956E9" stroke-width="3" stroke-linecap="round" stroke-linejoin="round"/>
<path d="M9.0625 37.6751L14.3949 42.9981L25.0503 34.1201" stroke="#5956E9" stroke-width="3" stroke-linecap="round" stroke-linejoin="round"/>
<path d="M9.0625 37.6751L14.3949 42.9981L25.0503 34.1201" stroke="#5956E9" stroke-width="3" stroke-linecap="round" stroke-linejoin="round"/>
<path d="M9.0625 37.6751L14.3949 42.9981L25.0503 34.1201" stroke="#5956E9" stroke-width="3" stroke-linecap="round" stroke-linejoin="round"/>
<path d="M46.7539 32.8286L57.8945 44.7589" stroke="#E541ED" stroke-width="3"/>
<path d="M46.916 44.9067L57.7313 32.6807" stroke="#E541ED" stroke-width="3"/>
<path d="M51.8535 54.0767C60.4237 54.0767 67.3711 47.1292 67.3711 38.5591C67.3711 29.989 60.4237 23.0415 51.8535 23.0415C43.2834 23.0415 36.3359 29.989 36.3359 38.5591C36.3359 47.1292 43.2834 54.0767 51.8535 54.0767Z" stroke="#5956E9" stroke-width="3" stroke-linecap="round" stroke-linejoin="round"/>
<path d="M51.8535 54.0767C60.4237 54.0767 67.3711 47.1292 67.3711 38.5591C67.3711 29.989 60.4237 23.0415 51.8535 23.0415C43.2834 23.0415 36.3359 29.989 36.3359 38.5591C36.3359 47.1292 43.2834 54.0767 51.8535 54.0767Z" stroke="#5956E9" stroke-width="3" stroke-linecap="round" stroke-linejoin="round"/>
<path d="M51.8535 54.0767C60.4237 54.0767 67.3711 47.1292 67.3711 38.5591C67.3711 29.989 60.4237 23.0415 51.8535 23.0415C43.2834 23.0415 36.3359 29.989 36.3359 38.5591C36.3359 47.1292 43.2834 54.0767 51.8535 54.0767Z" stroke="#E541ED" stroke-width="3" stroke-linecap="round" stroke-linejoin="round"/>
<path d="M48.6217 4.1145H30.4003C29.917 4.1145 29.4535 3.92252 29.1118 3.58081C28.7701 3.23909 28.5781 2.77562 28.5781 2.29236C28.5781 1.8091 28.7701 1.34563 29.1118 1.00391C29.4535 0.66219 29.917 0.470215 30.4003 0.470215H48.6217C49.105 0.470215 49.5684 0.66219 49.9101 1.00391C50.2519 1.34563 50.4438 1.8091 50.4438 2.29236C50.4438 2.77562 50.2519 3.23909 49.9101 3.58081C49.5684 3.92252 49.105 4.1145 48.6217 4.1145Z" fill="#E541ED"/>
<path d="M48.6212 11.4031H23.1112C22.6279 11.4031 22.1645 11.2111 21.8228 10.8694C21.481 10.5277 21.2891 10.0642 21.2891 9.58093C21.2891 9.09767 21.481 8.6342 21.8228 8.29248C22.1645 7.95076 22.6279 7.75879 23.1112 7.75879H48.6212C49.1045 7.75879 49.5679 7.95076 49.9097 8.29248C50.2514 8.6342 50.4433 9.09767 50.4433 9.58093C50.4433 10.0642 50.2514 10.5277 49.9097 10.8694C49.5679 11.2111 49.1045 11.4031 48.6212 11.4031Z" fill="#E541ED"/>
<path d="M41.3326 18.6916H23.1112C22.6279 18.6916 22.1645 18.4997 21.8228 18.158C21.481 17.8162 21.2891 17.3528 21.2891 16.8695C21.2891 16.3862 21.481 15.9228 21.8228 15.5811C22.1645 15.2393 22.6279 15.0474 23.1112 15.0474H41.3326C41.8159 15.0474 42.2794 15.2393 42.6211 15.5811C42.9628 15.9228 43.1548 16.3862 43.1548 16.8695C43.1548 17.3528 42.9628 17.8162 42.6211 18.158C42.2794 18.4997 41.8159 18.6916 41.3326 18.6916Z" fill="#E541ED"/>
</svg>
