<svg width="76" height="76" viewBox="0 0 76 76" fill="none" xmlns="http://www.w3.org/2000/svg">
<circle cx="37.6911" cy="37.6911" r="37.6911" fill="url(#paint0_linear_221_1643)"/>
<path d="M51.7476 41.6488L45.717 39.1989L43.2671 33.1683C43.0787 32.4145 42.3248 32.0376 41.571 32.0376C40.8172 32.0376 40.0634 32.4145 39.8749 33.1683L37.425 39.1989L31.3944 41.6488C30.6406 41.8373 30.2637 42.5911 30.2637 43.3449C30.2637 44.0988 30.6406 44.8526 31.3944 45.041L37.425 47.491L39.8749 53.5215C40.2518 54.2754 40.8172 54.6523 41.571 54.6523C42.3248 54.6523 43.0787 54.2754 43.2671 53.5215L45.717 47.491L51.7476 45.041C52.5014 44.6641 52.8784 44.0988 52.8784 43.3449C52.8784 42.5911 52.5014 41.8373 51.7476 41.6488ZM43.644 44.2872C43.2671 44.4757 42.8902 44.8526 42.7017 45.2295L41.571 47.8679L40.6287 45.418C40.4403 45.041 40.0634 44.6641 39.6865 44.4757L37.0481 43.3449L39.498 42.4027C39.8749 42.2142 40.2518 41.8373 40.4403 41.4604L41.3826 39.0105L42.3248 41.4604C42.5133 41.8373 42.8902 42.2142 43.2671 42.4027L45.717 43.3449L43.644 44.2872Z" fill="white"/>
<path d="M32.1488 35.2414C32.1488 34.4876 31.7719 33.7338 31.0181 33.5453L28.1913 32.2261L26.8721 29.3993C26.6836 28.6455 25.9298 28.2686 25.176 28.2686C24.4222 28.2686 23.6683 28.6455 23.4799 29.3993L22.1607 32.2261L19.3339 33.5453C18.58 33.9222 18.2031 34.4876 18.2031 35.2414C18.2031 35.9952 18.58 36.7491 19.3339 36.9375L22.1607 38.2567L23.4799 41.0835C23.8568 41.8374 24.4222 42.2143 25.176 42.2143C25.9298 42.2143 26.6836 41.8374 26.8721 41.0835L28.1913 38.2567L31.0181 36.9375C31.7719 36.7491 32.1488 35.9952 32.1488 35.2414ZM25.176 35.6183C24.9875 35.4299 24.9875 35.2414 24.7991 35.2414C24.9875 35.053 25.176 35.053 25.176 34.8645C25.3644 35.053 25.3644 35.2414 25.5529 35.2414C25.3644 35.4299 25.3644 35.4299 25.176 35.6183Z" fill="white"/>
<path d="M40.0643 27.1374L41.7604 27.8912L42.5143 29.5873C42.8912 30.3412 43.4565 30.7181 44.2104 30.7181C44.9642 30.7181 45.718 30.3412 45.9065 29.5873L46.6603 27.8912L48.3564 27.1374C49.1102 26.7605 49.4871 26.1951 49.4871 25.4413C49.4871 24.6875 49.1102 23.9337 48.3564 23.7452L46.6603 22.9914L45.9065 21.2953C45.5295 20.5415 44.9642 20.1646 44.2104 20.1646C43.4565 20.1646 42.7027 20.5415 42.5143 21.2953L41.7604 22.9914L40.0643 23.7452C39.3105 24.1221 38.9336 24.6875 38.9336 25.4413C38.9336 26.1951 39.499 26.949 40.0643 27.1374Z" fill="white"/>
<defs>
<linearGradient id="paint0_linear_221_1643" x1="37.6911" y1="0" x2="37.6911" y2="75.3823" gradientUnits="userSpaceOnUse">
<stop stop-color="#A786F8"/>
<stop offset="1" stop-color="#7544EB"/>
</linearGradient>
</defs>
</svg>
