<svg width="68" height="58" viewBox="0 0 68 58" fill="none" xmlns="http://www.w3.org/2000/svg">
<path d="M62.698 57.7773H5.28384C2.37864 57.7773 0 55.4169 0 52.4935V13.255C0 10.3498 2.36048 7.97119 5.28384 7.97119H62.7162C65.6214 7.97119 68 10.3317 68 13.255V52.4935C67.9818 55.4169 65.6214 57.7773 62.698 57.7773ZM5.28384 10.6948C3.86756 10.6948 2.72363 11.8387 2.72363 13.255V52.4935C2.72363 53.9098 3.86756 55.0537 5.28384 55.0537H62.7162C64.1324 55.0537 65.2764 53.9098 65.2764 52.4935V13.255C65.2764 11.8387 64.1324 10.6948 62.7162 10.6948H5.28384Z" fill="#5956E9"/>
<path d="M43.4332 10.6948H24.5493C23.8049 10.6948 23.1875 10.0774 23.1875 9.33298V2.95968C23.1875 1.3255 24.513 0 26.1472 0H41.8353C43.4695 0 44.795 1.3255 44.795 2.95968V9.33298C44.795 10.0774 44.1776 10.6948 43.4332 10.6948ZM25.9111 7.97116H42.0532V2.95968C42.0532 2.83258 41.9442 2.72363 41.8171 2.72363H26.129C26.0019 2.72363 25.893 2.83258 25.893 2.95968V7.97116H25.9111Z" fill="#E541ED"/>
<path d="M35.8249 33.7368H32.157C30.3594 33.7368 28.8887 32.266 28.8887 30.4684V23.0057C28.8887 21.2081 30.3594 19.7373 32.157 19.7373H35.8249C37.6225 19.7373 39.0932 21.2081 39.0932 23.0057V30.4684C39.0932 32.266 37.6225 33.7368 35.8249 33.7368ZM32.157 22.4609C31.8484 22.4609 31.6123 22.697 31.6123 23.0057V30.4684C31.6123 30.7771 31.8484 31.0131 32.157 31.0131H35.8249C36.1335 31.0131 36.3696 30.7771 36.3696 30.4684V23.0057C36.3696 22.697 36.1335 22.4609 35.8249 22.4609H32.157Z" fill="#E541ED"/>
<path d="M30.2509 28.108H15.3254C14.9078 28.108 14.5084 27.9083 14.2541 27.5814L1.48939 11.3486C1.0173 10.7494 1.12624 9.89597 1.72544 9.44203C2.32464 8.96993 3.17804 9.07888 3.63198 9.67808L15.9973 25.3844H30.2509C30.9954 25.3844 31.6128 26.0017 31.6128 26.7462C31.6128 27.4906 31.0136 28.108 30.2509 28.108Z" fill="#5956E9"/>
<path d="M52.6565 28.1081H37.731C36.9865 28.1081 36.3691 27.4908 36.3691 26.7463C36.3691 26.0018 36.9865 25.3845 37.731 25.3845H51.9846L64.3499 9.67821C64.822 9.07901 65.6754 8.98822 66.2565 9.44216C66.8557 9.91425 66.9464 10.7677 66.4925 11.3487L53.7278 27.5815C53.4554 27.9084 53.0741 28.1081 52.6565 28.1081Z" fill="#5956E9"/>
</svg>
