<svg width="27" height="24" viewBox="0 0 27 24" fill="none" xmlns="http://www.w3.org/2000/svg">
<path fill-rule="evenodd" clip-rule="evenodd" d="M27 21.0727C27 22.6898 25.6864 24 24.0652 24H2.93478C1.31361 24 0 22.6898 0 21.0727V4.09464C0 2.80138 1.05124 1.75284 2.34783 1.75284H14.1873L18.9411 0.0351211C19.2422 -0.0743584 19.5756 0.0807865 19.6853 0.379952L20.186 1.75284H22.3043C23.6009 1.75284 24.6522 2.80138 24.6522 4.09464V5.26555C25.9488 5.26555 27 6.31409 27 7.60735V21.0727ZM2.34783 2.92374C1.69983 2.92374 1.17391 3.4483 1.17391 4.09464C1.17391 4.74098 1.69983 5.26555 2.34783 5.26555H4.36989H4.48083C4.48846 5.26262 4.49315 5.25618 4.50078 5.25325L10.9467 2.92374H2.34783ZM19.4153 3.02971L18.792 1.31785H18.7914L17.5876 1.75284H17.5893L14.3528 2.92374H14.347L7.86757 5.26555H20.23L19.4153 3.02971ZM23.4783 4.09464C23.4783 3.4483 22.9523 2.92374 22.3043 2.92374H20.6122L21.4656 5.26555H23.4783V4.09464ZM24.6522 6.43645H2.34783C1.91817 6.43645 1.52022 6.31292 1.17391 6.11152V21.0727C1.17391 22.0428 1.96278 22.8291 2.93478 22.8291H24.0652C25.0378 22.8291 25.8261 22.0428 25.8261 21.0727V16.9746H23.4783C22.1817 16.9746 21.1304 15.926 21.1304 14.6328C21.1304 13.3395 22.1817 12.291 23.4783 12.291H25.8261V7.60735C25.8261 6.96102 25.3002 6.43645 24.6522 6.43645ZM25.8261 15.8037V13.4619H23.4783C22.8303 13.4619 22.3043 13.9864 22.3043 14.6328C22.3043 15.2791 22.8303 15.8037 23.4783 15.8037H25.8261ZM23.4783 14.0473H24.6522V15.2182H23.4783V14.0473Z" fill="#5956E9"/>
<path d="M16 12V11H10V12H11.9091C12.6193 12 13.2187 12.419 13.4445 13H10V14H13.4445C13.3326 14.2916 13.1249 14.5443 12.8499 14.7234C12.575 14.9024 12.2463 14.9991 11.9091 15H10V16.207L13.0469 19H14.5895L11.3167 16H11.9091C12.5374 15.9992 13.1463 15.7999 13.6329 15.4355C14.1196 15.0712 14.4544 14.5642 14.5807 14H16V13H14.5807C14.4971 12.6361 14.3248 12.2942 14.0767 12H16Z" fill="#E541ED"/>
</svg>
