<svg width="59" height="60" viewBox="0 0 59 60" fill="none" xmlns="http://www.w3.org/2000/svg">
<path d="M3.27952 59.2704H43.4852C45.1277 59.2704 46.464 57.9341 46.464 56.2916V43.4777C46.464 42.8071 45.9197 42.2629 45.2491 42.2629C44.5786 42.2629 44.0343 42.8071 44.0343 43.4777V56.2916C44.0343 56.5929 43.7865 56.8407 43.4852 56.8407H3.27952C2.97825 56.8407 2.73042 56.5929 2.73042 56.2916V6.36737C2.73042 6.06609 2.97825 5.81827 3.27952 5.81827H7.81323C8.31617 7.22989 9.65247 8.24791 11.2342 8.24791H35.5306C37.1123 8.24791 38.4486 7.22989 38.9515 5.81827H43.4852C43.7865 5.81827 44.0343 6.06609 44.0343 6.36737V15.6948C44.0343 16.3653 44.5786 16.9096 45.2491 16.9096C45.9197 16.9096 46.464 16.3653 46.464 15.6948V6.36737C46.464 4.72493 45.1277 3.38863 43.4852 3.38863H38.9515C38.4486 1.977 37.1123 0.958984 35.5306 0.958984H11.2342C9.65247 0.958984 8.31617 1.977 7.81323 3.38863H3.27952C1.63708 3.38863 0.300781 4.72493 0.300781 6.36737V56.2941C0.300781 57.9341 1.63708 59.2704 3.27952 59.2704ZM11.2342 3.38863H35.5306C36.2012 3.38863 36.7454 3.93529 36.7454 4.60345C36.7454 5.2716 36.2012 5.81827 35.5306 5.81827H11.2342C10.5636 5.81827 10.0193 5.2716 10.0193 4.60345C10.0193 3.93529 10.5636 3.38863 11.2342 3.38863Z" fill="#5956E9"/>
<path d="M36.7456 19.377C36.7456 18.5983 36.2013 17.9663 35.5308 17.9663H11.2344C10.5638 17.9663 10.0195 18.5983 10.0195 19.377C10.0195 20.1557 10.5638 20.7877 11.2344 20.7877H35.5308C36.2013 20.7877 36.7456 20.1557 36.7456 19.377Z" fill="#5956E9"/>
<path d="M30.1515 31.5254C30.1515 30.7467 29.6073 30.1147 28.9367 30.1147H11.2344C10.5638 30.1147 10.0195 30.7467 10.0195 31.5254C10.0195 32.3041 10.5638 32.9361 11.2344 32.9361H28.9367C29.6097 32.9361 30.1515 32.3041 30.1515 31.5254Z" fill="#E541ED"/>
<path d="M11.2344 42.2632C10.5638 42.2632 10.0195 42.8952 10.0195 43.6739C10.0195 44.4526 10.5638 45.0846 11.2344 45.0846H23.3826C24.0531 45.0846 24.5974 44.4526 24.5974 43.6739C24.5974 42.8952 24.0531 42.2632 23.3826 42.2632H11.2344Z" fill="#5956E9"/>
<path d="M33.1013 43.4781C33.2082 43.4781 33.3176 43.4635 33.4245 43.4343L39.0564 41.8818C39.258 41.8259 39.4451 41.719 39.5933 41.5684L57.4123 23.7469C59.0086 22.1482 59.0086 19.5485 57.4123 17.9498C55.8646 16.4021 53.1629 16.4021 51.6152 17.9498L33.7962 35.7712C33.648 35.9219 33.5411 36.1041 33.4852 36.3082L31.9327 41.9377C31.8161 42.358 31.9351 42.8099 32.2437 43.1185C32.4721 43.3517 32.7831 43.4781 33.1013 43.4781ZM35.7399 37.263L53.333 19.67C53.9647 19.0383 55.0629 19.0383 55.6946 19.67C56.3457 20.3212 56.3457 21.3805 55.6946 22.0316L38.1015 39.6246L34.8434 40.5236L35.7399 37.263Z" fill="#E541ED"/>
</svg>
